<svg width="1663" height="1353" viewBox="0 0 1663 1353" fill="none" xmlns="http://www.w3.org/2000/svg">
<rect width="1663" height="1353" fill="white"/>
<path d="M443.141 675.27V717.547C443.141 719.058 441.966 720.4 440.288 720.4H420.157C418.645 720.4 417.304 719.058 417.304 717.547V695.738H401.533V717.547C401.533 719.058 400.358 720.4 398.68 720.4H378.549C377.038 720.4 375.696 719.058 375.696 717.547V675.27L371.165 678.29C369.99 679.129 368.145 678.793 367.306 677.617C366.467 676.276 366.804 674.431 368.145 673.592L407.905 647.085C408.911 646.413 410.256 646.413 411.261 647.252L450.855 673.592C452.196 674.431 452.533 676.275 451.694 677.45C450.855 678.792 449.01 679.128 447.669 678.289L443.138 675.27L443.141 675.27ZM381.402 671.578V714.694H395.997V693.051C395.997 691.373 397.173 690.198 398.681 690.198H420.154C421.665 690.198 423.007 691.373 423.007 693.051V714.694H437.435V671.578L409.417 652.789L381.399 671.578H381.402Z" fill="#2A5D49"/>
<path d="M1301.17 186.494C1298.35 186.494 1295.93 184.017 1295.93 181.252C1295.93 173.19 1288.57 166.539 1279.45 166.539C1270.32 166.539 1262.97 173.19 1262.97 181.252C1262.97 184.072 1260.49 186.494 1257.73 186.494C1254.96 186.494 1252.49 184.017 1252.49 181.252C1252.49 167.25 1264.72 156 1279.45 156C1294.16 156 1306.41 167.538 1306.41 181.252C1306.41 184.373 1304.35 186.494 1301.17 186.494V186.494Z" fill="#2A5D49"/>
<path d="M1397.17 186.494C1394.35 186.494 1391.93 184.017 1391.93 181.252C1391.93 173.19 1384.56 166.539 1375.45 166.539C1366.32 166.539 1358.97 173.19 1358.97 181.252C1358.97 184.072 1356.49 186.494 1353.73 186.494C1350.96 186.494 1348.48 184.373 1348.48 181.252C1348.48 167.25 1360.72 156 1375.45 156C1390.16 156 1402.41 167.182 1402.41 181.252C1402.4 184.373 1399.99 186.494 1397.17 186.494V186.494Z" fill="#2A5D49"/>
<path d="M1325.71 265.999C1314.82 265.999 1305.76 263.878 1300.46 261.113C1297.98 259.704 1296.93 256.583 1298.34 254.106C1299.75 251.628 1302.87 250.575 1305.35 251.984C1318.65 258.992 1361.74 260.401 1384.15 221.846C1385.56 219.368 1388.68 218.315 1391.52 220.08C1393.99 221.49 1395.05 224.611 1393.28 227.444C1375.45 256.939 1347.43 266 1325.71 266L1325.71 265.999Z" fill="#2A5D49"/>
<g clip-path="url(#clip0)">
<rect width="355.89" height="400" transform="translate(126.095 851)" fill="white"/>
<path d="M346.139 1023.4L341.81 1033.52L315.255 1068.8C315.255 1068.8 297.071 1088.47 307.173 1089.62C317.275 1090.78 323.914 1071.4 323.914 1071.4L355.087 1040.46L358.55 1026.29L346.139 1023.4Z" fill="#9F616A"/>
<path d="M359.417 982.337L355.233 983.51C355.233 983.51 336.446 1033.51 338.177 1039.58C339.909 1045.66 347.702 1053.18 351.166 1052.6C354.63 1052.02 359.417 982.337 359.417 982.337Z" fill="#97CAB6"/>
<path d="M417.877 1239.3C417.877 1239.3 416.04 1248.52 421.562 1244.83C427.084 1241.14 429.963 1234 429.963 1234L417.877 1239.3Z" fill="#2F2E41"/>
<path d="M352.489 1031.21C352.489 1031.21 293.896 1238.26 314.677 1244.33C335.459 1250.41 366.055 1243.75 365.766 1239.71C365.478 1235.66 360.282 1155.56 360.282 1155.56C360.282 1155.56 390.589 1261.97 428.112 1237.1C465.635 1212.23 457.265 1207.61 453.801 1205.87C450.337 1204.14 398.094 1121.72 398.382 1106.39C398.671 1091.07 397.805 1043.06 391.455 1035.84L352.489 1031.21Z" fill="#2F2E41"/>
<path d="M481.74 1251H126.132V1249.65H481.984L481.74 1251Z" fill="#3F3D56"/>
<path d="M389.705 957.593C387.451 955.55 386.045 952.733 385.766 949.701C385.487 946.668 386.356 943.641 388.2 941.22C387.956 941.449 387.717 941.687 387.489 941.94C385.335 944.33 384.216 947.479 384.379 950.694C384.542 953.91 385.972 956.929 388.356 959.089C390.74 961.248 393.882 962.371 397.092 962.21C400.301 962.049 403.316 960.618 405.473 958.231C405.701 957.978 405.914 957.717 406.117 957.45C403.898 959.531 400.979 960.701 397.939 960.728C394.899 960.754 391.961 959.635 389.705 957.593V957.593Z" fill="#2F2E41"/>
<path d="M388.568 960.504C402.357 960.504 413.535 949.305 413.535 935.49C413.535 921.675 402.357 910.476 388.568 910.476C374.779 910.476 363.601 921.675 363.601 935.49C363.601 949.305 374.779 960.504 388.568 960.504Z" fill="#2F2E41"/>
<path d="M321.317 1243.47C321.317 1243.47 314.679 1250.12 321.317 1250.12C327.956 1250.12 334.306 1245.78 334.306 1245.78L321.317 1243.47Z" fill="#2F2E41"/>
<path d="M372.695 951.106C372.695 951.106 377.024 969.035 373.849 972.505C370.674 975.975 363.747 978.578 363.747 978.578L364.901 1010.97C364.901 1010.97 378.179 1006.34 378.756 1005.76C379.333 1005.18 391.167 986.386 391.167 986.386L402.713 975.397C402.713 975.397 385.106 967.011 390.301 952.552C395.497 938.093 372.695 951.106 372.695 951.106Z" fill="#9F616A"/>
<path d="M398.188 945.129C399.516 936.931 393.959 929.207 385.777 927.877C377.595 926.546 369.885 932.114 368.557 940.311C367.23 948.509 372.786 956.233 380.969 957.563C389.151 958.893 396.86 953.326 398.188 945.129Z" fill="#9F616A"/>
<path d="M391.456 1035.83C391.456 1035.83 398.094 1013.86 401.269 1010.97C404.444 1008.07 412.238 980.891 412.238 980.891C412.238 980.891 407.331 974.24 403.29 974.24C399.249 974.24 395.497 975.686 390.878 980.023C388.704 982.066 384.737 984.314 381.148 986.12C379.875 986.772 378.484 987.163 377.058 987.271C375.632 987.378 374.199 987.2 372.842 986.746C371.485 986.293 370.233 985.573 369.157 984.629C368.081 983.684 367.204 982.535 366.576 981.247C365.859 979.72 365.623 978.256 366.344 977.132C366.344 977.132 355.665 980.023 355.087 984.072C354.51 988.12 355.087 996.507 354.221 998.242C353.356 999.977 350.758 1002.58 351.912 1013.57C353.067 1024.56 350.707 1038.45 350.707 1038.45C361.489 1048.76 376.427 1042.4 391.456 1035.83Z" fill="#97CAB6"/>
<path d="M383.229 937.948C390.243 937.948 395.929 934.064 395.929 929.273C395.929 924.482 390.243 920.598 383.229 920.598C376.215 920.598 370.529 924.482 370.529 929.273C370.529 934.064 376.215 937.948 383.229 937.948Z" fill="#2F2E41"/>
<path d="M404.877 928.695C411.572 928.695 416.999 923.257 416.999 916.549C416.999 909.842 411.572 904.404 404.877 904.404C398.181 904.404 392.754 909.842 392.754 916.549C392.754 923.257 398.181 928.695 404.877 928.695Z" fill="#2F2E41"/>
<path d="M413.536 925.224C410.497 925.223 407.568 924.079 405.331 922.016C403.094 919.954 401.712 917.125 401.459 914.09C401.431 914.424 401.414 914.761 401.414 915.102C401.414 918.322 402.691 921.41 404.963 923.688C407.236 925.965 410.317 927.245 413.531 927.246C416.745 927.248 419.828 925.97 422.102 923.695C424.377 921.42 425.656 918.333 425.659 915.113V915.102C425.659 914.761 425.642 914.424 425.614 914.09C425.361 917.125 423.979 919.954 421.742 922.016C419.505 924.079 416.576 925.223 413.536 925.224V925.224Z" fill="#2F2E41"/>
<path d="M385.104 1110.98H381.071L373.012 1181.4L399.592 1180.51L385.104 1110.98Z" fill="#2A5D49"/>
<path opacity="0.2" d="M385.104 1110.98H381.071L373.012 1181.4L399.592 1180.51L385.104 1110.98Z" fill="#BDBDBD"/>
<path d="M383.759 1110.08L378.834 1180.96L439.161 1185.44L444.086 1116.36L383.759 1110.08Z" fill="#97CAB6"/>
<path opacity="0.2" d="M404.07 1117.26C404.566 1117.26 404.968 1116.86 404.968 1116.36C404.968 1115.86 404.566 1115.46 404.07 1115.46C403.574 1115.46 403.172 1115.86 403.172 1116.36C403.172 1116.86 403.574 1117.26 404.07 1117.26Z" fill="black"/>
<path opacity="0.2" d="M422.877 1119.5C423.373 1119.5 423.775 1119.1 423.775 1118.6C423.775 1118.1 423.373 1117.7 422.877 1117.7C422.381 1117.7 421.979 1118.1 421.979 1118.6C421.979 1119.1 422.381 1119.5 422.877 1119.5Z" fill="black"/>
<path d="M423.099 1118.61H422.653C422.653 1118.41 422.969 1099.49 412.123 1097.75C409.986 1097.41 408.239 1097.89 406.932 1099.19C402.453 1103.64 404.306 1116.2 404.324 1116.33L403.884 1116.4C403.804 1115.87 401.983 1103.48 406.622 1098.87C408.035 1097.46 409.918 1096.93 412.197 1097.3C423.421 1099.1 423.105 1118.41 423.099 1118.61Z" fill="#3F3D56"/>
<path d="M413.103 1020.8L411.66 1036.99L414.546 1085.57C414.546 1085.57 421.185 1110.15 411.083 1109.58C400.98 1109 404.733 1083.84 404.733 1083.84L400.114 1027.45L413.103 1020.8Z" fill="#9F616A"/>
<path d="M404.733 976.843L412.237 980.891C412.237 980.891 422.34 1049.68 416.567 1056.33C410.794 1062.99 398.96 1065.59 398.383 1062.99C397.805 1060.38 395.785 1007.5 395.785 1007.5L404.733 976.843Z" fill="#97CAB6"/>
<path d="M182.457 851.893H174.039C173.743 851.893 173.46 852.01 173.25 852.22C173.041 852.43 172.923 852.714 172.923 853.011V856.712C172.923 857.009 173.041 857.293 173.25 857.503C173.46 857.713 173.743 857.83 174.039 857.83H175.434V863.377H181.062V857.83H182.457C182.753 857.83 183.037 857.713 183.246 857.503C183.455 857.293 183.573 857.009 183.573 856.712V853.011C183.573 852.714 183.455 852.43 183.246 852.22C183.037 852.01 182.753 851.893 182.457 851.893V851.893Z" fill="#E6E6E6"/>
<path d="M190.89 885.77C185.735 878.212 183.099 869.214 183.361 860.064C183.366 859.853 183.297 859.647 183.168 859.481C183.038 859.314 182.854 859.198 182.649 859.152V857.552H173.759V859.129H173.636C173.516 859.13 173.398 859.153 173.287 859.199C173.177 859.246 173.076 859.313 172.992 859.398C172.907 859.483 172.84 859.584 172.794 859.695C172.748 859.806 172.725 859.925 172.725 860.045C172.725 860.067 172.726 860.089 172.728 860.111C173.428 869.892 171.063 878.664 165.633 886.426C165.32 886.872 165.161 887.408 165.178 887.952L166.15 918.078C166.173 918.75 166.455 919.387 166.936 919.856C167.416 920.325 168.06 920.59 168.731 920.595H188.838C189.517 920.589 190.167 920.318 190.649 919.84C191.132 919.362 191.408 918.713 191.421 918.033L191.795 888.784C191.806 887.71 191.491 886.659 190.89 885.77V885.77Z" fill="#E6E6E6"/>
<path d="M187.707 895.777H170.204C169.945 895.777 169.689 895.833 169.454 895.941C169.218 896.05 169.009 896.208 168.84 896.405C168.672 896.602 168.548 896.833 168.476 897.083C168.405 897.332 168.389 897.594 168.428 897.851L171.073 915.075H186.26L189.473 897.909C189.521 897.649 189.512 897.381 189.446 897.125C189.38 896.869 189.258 896.631 189.089 896.427C188.921 896.224 188.709 896.06 188.47 895.948C188.231 895.835 187.971 895.777 187.707 895.777V895.777Z" fill="white"/>
<path d="M170.625 1069.72H166.632C166.492 1069.72 166.357 1069.77 166.258 1069.87C166.158 1069.97 166.103 1070.11 166.103 1070.25V1072C166.103 1072.14 166.158 1072.28 166.258 1072.38C166.357 1072.48 166.492 1072.53 166.632 1072.53H167.294V1075.16H169.963V1072.53H170.625C170.765 1072.53 170.9 1072.48 170.999 1072.38C171.098 1072.28 171.154 1072.14 171.154 1072V1070.25C171.154 1070.11 171.098 1069.97 170.999 1069.87C170.9 1069.77 170.765 1069.72 170.625 1069.72Z" fill="#E6E6E6"/>
<path d="M174.623 1085.79C172.178 1082.2 170.928 1077.93 171.052 1073.59C171.055 1073.49 171.022 1073.4 170.96 1073.32C170.899 1073.24 170.812 1073.18 170.714 1073.16V1072.4H166.497V1073.15H166.439C166.382 1073.15 166.326 1073.16 166.274 1073.18C166.221 1073.21 166.174 1073.24 166.133 1073.28C166.093 1073.32 166.062 1073.37 166.04 1073.42C166.018 1073.47 166.007 1073.53 166.007 1073.58C166.007 1073.59 166.008 1073.61 166.008 1073.62C166.398 1078.04 165.205 1082.47 162.643 1086.1C162.495 1086.31 162.419 1086.56 162.427 1086.82L162.888 1101.11C162.899 1101.43 163.033 1101.73 163.261 1101.96C163.489 1102.18 163.794 1102.3 164.112 1102.31H173.65C173.972 1102.3 174.281 1102.17 174.509 1101.95C174.738 1101.72 174.87 1101.41 174.875 1101.09L175.053 1087.22C175.058 1086.71 174.908 1086.21 174.623 1085.79V1085.79Z" fill="#E6E6E6"/>
<path d="M173.251 1091.04H164.151V1095.6H173.251V1091.04Z" fill="white"/>
<path d="M189.211 1069.72H185.219C185.078 1069.72 184.944 1069.77 184.844 1069.87C184.745 1069.97 184.689 1070.11 184.689 1070.25V1072C184.689 1072.14 184.745 1072.28 184.844 1072.38C184.944 1072.48 185.078 1072.53 185.219 1072.53H185.88V1075.16H188.55V1072.53H189.211C189.352 1072.53 189.486 1072.48 189.586 1072.38C189.685 1072.28 189.741 1072.14 189.741 1072V1070.25C189.741 1070.18 189.727 1070.11 189.7 1070.04C189.674 1069.98 189.635 1069.92 189.586 1069.87C189.537 1069.82 189.478 1069.78 189.414 1069.76C189.35 1069.73 189.281 1069.72 189.211 1069.72V1069.72Z" fill="#E6E6E6"/>
<path d="M193.21 1085.79C190.765 1082.2 189.515 1077.93 189.639 1073.59C189.641 1073.49 189.609 1073.4 189.547 1073.32C189.485 1073.24 189.398 1073.18 189.301 1073.16V1072.4H185.084V1073.15H185.026C184.969 1073.15 184.913 1073.16 184.86 1073.18C184.808 1073.21 184.76 1073.24 184.72 1073.28C184.68 1073.32 184.648 1073.37 184.626 1073.42C184.605 1073.47 184.594 1073.53 184.594 1073.58C184.594 1073.59 184.594 1073.61 184.595 1073.62C184.984 1078.04 183.791 1082.47 181.229 1086.1C181.081 1086.31 181.005 1086.56 181.014 1086.82L181.475 1101.11C181.486 1101.43 181.619 1101.73 181.847 1101.96C182.075 1102.18 182.381 1102.3 182.699 1102.31H192.237C192.559 1102.3 192.867 1102.17 193.096 1101.95C193.325 1101.72 193.456 1101.41 193.462 1101.09L193.64 1087.22C193.645 1086.71 193.495 1086.21 193.21 1085.79V1085.79Z" fill="#E6E6E6"/>
<path d="M191.837 1091.04H182.736V1095.6H191.837V1091.04Z" fill="white"/>
<path d="M207.797 1069.72H203.804C203.664 1069.72 203.529 1069.77 203.43 1069.87C203.33 1069.97 203.275 1070.11 203.275 1070.25V1072C203.275 1072.14 203.33 1072.28 203.43 1072.38C203.529 1072.48 203.664 1072.53 203.804 1072.53H204.466V1075.16H207.135V1072.53H207.797C207.937 1072.53 208.072 1072.48 208.171 1072.38C208.27 1072.28 208.326 1072.14 208.326 1072V1070.25C208.326 1070.11 208.27 1069.97 208.171 1069.87C208.072 1069.77 207.937 1069.72 207.797 1069.72V1069.72Z" fill="#E6E6E6"/>
<path d="M211.795 1085.79C209.35 1082.2 208.1 1077.93 208.224 1073.59C208.227 1073.49 208.194 1073.4 208.132 1073.32C208.071 1073.24 207.984 1073.18 207.886 1073.16V1072.4H203.669V1073.15H203.611C203.554 1073.15 203.498 1073.16 203.446 1073.18C203.393 1073.21 203.346 1073.24 203.306 1073.28C203.265 1073.32 203.234 1073.37 203.212 1073.42C203.19 1073.47 203.179 1073.53 203.179 1073.58C203.179 1073.59 203.18 1073.61 203.18 1073.62C203.57 1078.04 202.377 1082.47 199.815 1086.1C199.667 1086.31 199.591 1086.56 199.599 1086.82L200.06 1101.11C200.071 1101.43 200.205 1101.73 200.433 1101.96C200.661 1102.18 200.966 1102.3 201.284 1102.31H210.822C211.144 1102.3 211.453 1102.17 211.681 1101.95C211.91 1101.72 212.042 1101.41 212.047 1101.09L212.225 1087.22C212.23 1086.71 212.08 1086.21 211.795 1085.79V1085.79Z" fill="#E6E6E6"/>
<path d="M210.423 1091.04H201.323V1095.6H210.423V1091.04Z" fill="white"/>
<path d="M261.538 1034.8H253.121C252.825 1034.8 252.541 1034.92 252.332 1035.13C252.123 1035.34 252.005 1035.63 252.005 1035.92V1039.62C252.005 1039.92 252.123 1040.21 252.332 1040.42C252.541 1040.62 252.825 1040.74 253.121 1040.74H254.516V1046.29H260.144V1040.74H261.538C261.685 1040.74 261.83 1040.71 261.966 1040.66C262.101 1040.6 262.224 1040.52 262.328 1040.42C262.431 1040.31 262.513 1040.19 262.569 1040.05C262.626 1039.92 262.654 1039.77 262.654 1039.62V1035.92C262.654 1035.63 262.537 1035.34 262.328 1035.13C262.118 1034.92 261.834 1034.8 261.538 1034.8V1034.8Z" fill="#E6E6E6"/>
<path d="M269.969 1068.68C264.814 1061.12 262.179 1052.13 262.441 1042.98C262.445 1042.76 262.377 1042.56 262.247 1042.39C262.117 1042.23 261.934 1042.11 261.728 1042.06V1040.46H252.838V1042.04H252.716C252.596 1042.04 252.477 1042.06 252.367 1042.11C252.256 1042.16 252.156 1042.22 252.071 1042.31C251.986 1042.39 251.919 1042.5 251.874 1042.61C251.828 1042.72 251.805 1042.84 251.805 1042.96C251.805 1042.98 251.806 1043 251.807 1043.02C252.508 1052.8 250.143 1061.58 244.712 1069.34C244.4 1069.78 244.24 1070.32 244.257 1070.86L245.229 1100.99C245.253 1101.66 245.534 1102.3 246.015 1102.77C246.496 1103.24 247.139 1103.5 247.81 1103.51H267.918C268.597 1103.5 269.247 1103.23 269.729 1102.75C270.211 1102.27 270.488 1101.62 270.5 1100.94L270.875 1071.7C270.886 1070.62 270.57 1069.57 269.969 1068.68V1068.68Z" fill="#E6E6E6"/>
<path d="M266.787 1078.69H249.285C249.026 1078.69 248.77 1078.75 248.534 1078.85C248.299 1078.96 248.09 1079.12 247.921 1079.32C247.752 1079.51 247.628 1079.75 247.557 1079.99C247.486 1080.24 247.469 1080.51 247.509 1080.76L250.154 1097.99H265.341L268.553 1080.82C268.602 1080.56 268.593 1080.29 268.526 1080.04C268.46 1079.78 268.338 1079.54 268.17 1079.34C268.001 1079.14 267.79 1078.97 267.551 1078.86C267.312 1078.75 267.051 1078.69 266.787 1078.69V1078.69Z" fill="white"/>
<path d="M266.133 924.474H215.957C219.465 905.472 218.658 882.526 215.957 857.85H266.133C263.504 882.526 262.719 905.472 266.133 924.474Z" fill="#E6E6E6"/>
<path d="M241.348 901.457C248.026 901.457 253.439 896.034 253.439 889.344C253.439 882.654 248.026 877.23 241.348 877.23C234.671 877.23 229.258 882.654 229.258 889.344C229.258 896.034 234.671 901.457 241.348 901.457Z" fill="white"/>
<path d="M294.547 928.713H244.371C247.879 909.711 247.072 886.765 244.371 862.089H294.547C291.918 886.765 291.132 909.711 294.547 928.713Z" fill="#E6E6E6"/>
<path d="M269.761 905.697C276.439 905.697 281.852 900.274 281.852 893.584C281.852 886.894 276.439 881.47 269.761 881.47C263.084 881.47 257.67 886.894 257.67 893.584C257.67 900.274 263.084 905.697 269.761 905.697Z" fill="white"/>
<path d="M294.547 925.684H244.371C247.879 906.682 247.072 883.736 244.371 859.06H294.547C291.918 883.736 291.132 906.682 294.547 925.684Z" fill="#E6E6E6"/>
<path d="M269.761 902.669C276.439 902.669 281.852 897.246 281.852 890.556C281.852 883.866 276.439 878.442 269.761 878.442C263.084 878.442 257.67 883.866 257.67 890.556C257.67 897.246 263.084 902.669 269.761 902.669Z" fill="white"/>
<path d="M294.547 928.713H244.371C247.879 909.711 247.072 886.765 244.371 862.089H294.547C291.918 886.765 291.132 909.711 294.547 928.713Z" fill="#E6E6E6"/>
<path d="M269.761 905.697C276.439 905.697 281.852 900.274 281.852 893.584C281.852 886.894 276.439 881.47 269.761 881.47C263.084 881.47 257.67 886.894 257.67 893.584C257.67 900.274 263.084 905.697 269.761 905.697Z" fill="white"/>
<path d="M306.033 920.839H141.599V939.009H306.033V920.839Z" fill="#E6E6E6"/>
<path d="M306.033 1011.08H141.599V1029.25H306.033V1011.08Z" fill="#E6E6E6"/>
<path d="M306.033 1101.33H141.599V1119.5H306.033V1101.33Z" fill="#E6E6E6"/>
<path d="M299.452 1053.17L286.714 1059.59C286.043 1059.93 285.773 1060.75 286.111 1061.42L300.424 1089.82C300.763 1090.49 301.582 1090.76 302.253 1090.43L314.991 1084.01C315.662 1083.67 315.932 1082.85 315.594 1082.18L301.281 1053.77C300.942 1053.1 300.123 1052.83 299.452 1053.17Z" fill="#111111"/>
<path d="M297.739 1055.02C297.665 1055.05 297.599 1055.1 297.545 1055.16C297.491 1055.22 297.45 1055.29 297.425 1055.37C297.399 1055.45 297.391 1055.53 297.399 1055.61C297.407 1055.69 297.432 1055.77 297.473 1055.84L297.533 1055.95C297.573 1056.02 297.598 1056.1 297.606 1056.18C297.614 1056.26 297.605 1056.34 297.579 1056.42C297.553 1056.49 297.512 1056.56 297.457 1056.62C297.402 1056.68 297.335 1056.73 297.261 1056.76L290.832 1060.01C290.761 1060.05 290.683 1060.07 290.603 1060.08C290.522 1060.09 290.441 1060.08 290.364 1060.05C290.287 1060.03 290.216 1059.99 290.155 1059.93C290.095 1059.88 290.047 1059.81 290.014 1059.74L289.953 1059.62C289.92 1059.55 289.872 1059.48 289.812 1059.43C289.752 1059.37 289.681 1059.33 289.604 1059.31C289.527 1059.28 289.445 1059.27 289.365 1059.28C289.284 1059.29 289.206 1059.32 289.136 1059.36L287.883 1059.98C287.746 1060.05 287.624 1060.14 287.523 1060.26C287.423 1060.38 287.347 1060.51 287.299 1060.66C287.251 1060.8 287.232 1060.96 287.244 1061.11C287.255 1061.26 287.297 1061.41 287.367 1061.55L301.045 1088.7C301.114 1088.83 301.208 1088.96 301.324 1089.06C301.44 1089.16 301.575 1089.23 301.72 1089.28C301.866 1089.33 302.02 1089.35 302.172 1089.34C302.325 1089.33 302.474 1089.28 302.611 1089.21L313.829 1083.56C313.966 1083.49 314.087 1083.4 314.187 1083.28C314.287 1083.17 314.363 1083.03 314.411 1082.89C314.459 1082.74 314.478 1082.59 314.467 1082.44C314.455 1082.29 314.414 1082.14 314.345 1082L300.685 1054.85C300.616 1054.71 300.521 1054.59 300.405 1054.49C300.29 1054.39 300.156 1054.32 300.011 1054.27C299.866 1054.22 299.713 1054.2 299.561 1054.21C299.41 1054.23 299.261 1054.27 299.126 1054.34L297.739 1055.02Z" fill="#2A5D49"/>
<g clip-path="url(#clip1)">
<path d="M298.224 1070.57C298.064 1070.65 297.855 1070.58 297.777 1070.42C297.548 1069.96 296.939 1069.79 296.42 1070.05C295.899 1070.31 295.669 1070.9 295.898 1071.36C295.978 1071.52 295.906 1071.73 295.748 1071.81C295.591 1071.88 295.379 1071.81 295.301 1071.66C294.903 1070.86 295.281 1069.87 296.12 1069.45C296.959 1069.03 297.985 1069.34 298.374 1070.12C298.463 1070.3 298.405 1070.48 298.224 1070.57V1070.57Z" fill="white"/>
<path d="M303.696 1067.85C303.535 1067.93 303.326 1067.85 303.248 1067.7C303.019 1067.24 302.411 1067.07 301.891 1067.33C301.371 1067.59 301.141 1068.17 301.37 1068.63C301.45 1068.79 301.377 1069 301.22 1069.08C301.062 1069.16 300.861 1069.11 300.772 1068.93C300.375 1068.13 300.752 1067.14 301.592 1066.73C302.43 1066.31 303.446 1066.6 303.846 1067.4C303.933 1067.58 303.856 1067.77 303.696 1067.85V1067.85Z" fill="white"/>
<path d="M301.88 1074.41C301.259 1074.72 300.683 1074.85 300.302 1074.85C300.121 1074.84 299.972 1074.69 299.982 1074.51C299.992 1074.33 300.14 1074.18 300.322 1074.19C301.279 1074.21 303.774 1073.07 303.957 1070.23C303.968 1070.05 304.115 1069.9 304.327 1069.92C304.508 1069.93 304.657 1070.08 304.637 1070.29C304.458 1072.48 303.118 1073.79 301.88 1074.41L301.88 1074.41Z" fill="white"/>
</g>
<path d="M278.548 990.727C278.752 990.792 278.965 990.662 279.003 990.452C279.237 989.097 279.702 984.583 275.836 983.193C275.559 983.093 275.272 983.02 274.981 982.97C274.978 982.969 274.973 982.969 274.97 982.968C274.394 982.867 273.851 983.272 273.798 983.855C273.625 985.774 273.992 989.282 278.548 990.727L278.548 990.727Z" fill="#E6E6E6"/>
<path d="M280.132 991.013C280.218 991.025 280.316 990.994 280.353 990.915C281.665 988.197 284.234 987.859 284.797 987.652C284.936 987.601 285.072 987.545 285.2 987.472C286.115 986.952 286.114 986.086 285.982 985.504C285.904 985.158 285.548 984.949 285.208 985.047C280.454 986.427 279.967 989.881 279.933 990.774C279.929 990.894 280.014 990.997 280.132 991.013L280.132 991.013Z" fill="#E6E6E6"/>
<path d="M287.685 991.351C287.685 991.351 284.763 989.388 281.339 991.482L281.031 991.651C280.137 992.144 279.053 992.144 278.16 991.651L277.851 991.482C274.428 989.388 271.505 991.351 271.505 991.351C266.228 994.805 269.361 1002.42 269.361 1002.42C271.731 1007.83 275.033 1009.46 276.586 1009.94C277.083 1010.1 277.616 1010.08 278.103 1009.9L278.835 1009.62C279.324 1009.44 279.863 1009.44 280.354 1009.62L281.086 1009.9C281.573 1010.08 282.106 1010.1 282.602 1009.94C284.157 1009.46 287.459 1007.83 289.827 1002.42C289.829 1002.42 292.962 994.805 287.685 991.351H287.685ZM273.359 995.008C272.628 995.878 272.037 996.584 271.477 996.114C270.918 995.643 270.809 994.349 271.54 993.479C272.27 992.609 273.565 992.493 274.123 992.963C274.683 993.434 274.089 994.139 273.359 995.008L273.359 995.008Z" fill="#E6E6E6"/>
<path d="M270.43 996.266C268.665 993.758 267.691 990.469 267.691 987.005C267.691 985.73 266.942 984.619 265.861 984.101C266.149 983.931 266.411 983.725 266.652 983.485C267.565 982.576 268.002 981.306 267.89 979.918C267.871 979.688 267.687 979.504 267.457 979.489C265.994 979.367 264.676 979.86 263.772 980.844C263.481 981.164 263.241 981.522 263.057 981.913C262.398 980.84 261.353 980.243 261.283 980.204C261.057 980.077 260.771 980.157 260.643 980.383C260.516 980.613 260.596 980.9 260.822 981.028C260.846 981.038 262.531 981.998 262.648 983.583C262.643 983.588 262.643 983.593 262.648 983.597C262.638 983.658 262.635 983.719 262.638 983.78H261.448C260.592 983.78 259.816 984.133 259.256 984.698C258.691 985.263 258.343 986.044 258.343 986.905V986.962C258.353 988.11 258.165 992.204 255.365 996.628C254.282 998.35 253.812 1000.34 254.01 1002.37C254.41 1006.61 257.78 1010.02 262.02 1010.47C262.353 1010.51 262.692 1010.53 263.022 1010.53C268.015 1010.53 272.081 1006.47 272.081 1001.48C272.077 999.598 271.507 997.795 270.43 996.267L270.43 996.266ZM257.957 999.483C257.478 1000.68 257.293 1002 257.418 1003.3C257.443 1003.56 257.255 1003.79 256.996 1003.82C256.981 1003.82 256.965 1003.82 256.95 1003.82C256.71 1003.82 256.505 1003.64 256.482 1003.4C256.341 1001.94 256.548 1000.47 257.083 999.134C257.18 998.893 257.453 998.775 257.695 998.871C257.936 998.968 258.053 999.241 257.957 999.483L257.957 999.483ZM260.686 993.985C260.326 994.986 259.88 995.978 259.357 996.93C259.232 997.158 258.946 997.241 258.718 997.116C258.491 996.991 258.407 996.705 258.532 996.478C259.031 995.568 259.457 994.623 259.801 993.668C259.89 993.423 260.157 993.296 260.403 993.384C260.647 993.471 260.773 993.74 260.686 993.985L260.686 993.985Z" fill="#E6E6E6"/>
<path fill-rule="evenodd" clip-rule="evenodd" d="M156.562 943.8C155.757 943.891 155.149 944.581 155.155 945.4V963.025C155.155 963.909 155.861 964.625 156.735 964.625H162.561V987.2H156.735C155.861 987.2 155.155 987.916 155.155 988.8V1006.42C155.155 1007.31 155.861 1008.03 156.735 1008.03H161.376V1012.6C161.376 1013.48 162.083 1014.2 162.956 1014.2H170.14C171.014 1014.2 171.72 1013.48 171.72 1012.6V1008.03H196.556V1012.6C196.556 1013.48 197.263 1014.2 198.136 1014.2H205.296C206.169 1014.2 206.876 1013.48 206.876 1012.6V1008.03H210.455C211.329 1008.03 212.035 1007.31 212.035 1006.42V988.8C212.035 987.916 211.329 987.2 210.455 987.2H205.691V984.175C205.691 983.291 204.984 982.575 204.111 982.575H179.226C178.352 982.575 177.646 983.291 177.646 984.175V987.2H174.461V964.625H193.84C194.714 964.625 195.42 963.909 195.42 963.025V945.4C195.42 944.516 194.714 943.8 193.84 943.8H156.735C156.676 943.797 156.621 943.797 156.562 943.8H156.562ZM177.743 949.975C177.802 949.972 177.858 949.972 177.916 949.975H181.052C181.471 949.975 181.872 950.144 182.169 950.444C182.465 950.744 182.632 951.153 182.632 951.575V956.85C182.632 957.275 182.465 957.682 182.169 957.982C181.872 958.282 181.471 958.45 181.052 958.45H177.916C177.493 958.457 177.083 958.291 176.781 957.991C176.481 957.688 176.312 957.278 176.312 956.85V951.575C176.305 950.747 176.929 950.053 177.743 949.975V949.975ZM185.347 949.975C185.406 949.972 185.461 949.972 185.52 949.975H188.655C189.075 949.975 189.476 950.144 189.772 950.444C190.069 950.744 190.235 951.153 190.235 951.575V956.85C190.235 957.275 190.069 957.682 189.772 957.982C189.476 958.282 189.075 958.45 188.655 958.45H185.52C185.097 958.457 184.687 958.291 184.384 957.991C184.085 957.688 183.915 957.278 183.915 956.85V951.575C183.909 950.747 184.533 950.053 185.347 949.975V949.975ZM180.805 985.775H202.53V987.2H180.805V985.775ZM164.535 1008.02H168.56V1011H164.535V1008.02ZM199.715 1008.02H203.714V1011H199.715V1008.02Z" fill="#E6E6E6"/>
<g clip-path="url(#clip2)">
<path d="M260.453 1006.17C260.366 1006.32 260.261 1006.41 260.082 1006.46C259.443 1006.6 257.326 1007.12 256.431 1007.62C255.536 1008.12 255.141 1008.45 254.296 1009.13L253.738 1009.57C253.39 1009.83 252.892 1009.9 252.532 1009.64C246.887 1006.31 239.808 1006.01 239.71 1006.01C239.454 1006.01 239.267 1005.8 239.263 1005.55C239.258 1005.29 239.465 1005.1 239.721 1005.1C240.017 1005.12 247.093 1005.42 252.931 1008.86C253.007 1008.9 253.106 1008.91 253.149 1008.83L253.707 1008.39C254.553 1007.71 255.028 1007.32 255.946 1006.78C256.699 1006.35 258.02 1005.99 259.08 1005.74C256.887 1004.43 251.362 1000.71 248.19 994.739C248.065 994.515 248.157 994.264 248.381 994.139C248.605 994.014 248.856 994.106 248.981 994.33C252.534 1000.88 258.982 1004.67 260.241 1005.39C260.431 1005.5 260.557 1005.72 260.523 1005.96C260.519 1006.05 260.496 1006.09 260.453 1006.17L260.453 1006.17Z" fill="#E6E6E6"/>
<path d="M245.343 1003.6C245.234 1003.79 245.032 1003.88 244.858 1003.83C243.379 1003.49 239.417 1003.86 239.417 1003.86C239.16 1003.87 238.953 1003.7 238.926 1003.48C238.921 1003.22 239.091 1003.01 239.308 1002.99C239.428 1002.96 241.666 1002.77 243.456 1002.83C242.245 1001.93 241.335 1001.31 239.769 1000.41C239.539 1000.28 239.474 1000.04 239.606 999.812C239.715 999.621 239.977 999.517 240.206 999.648C241.871 1000.55 242.76 1001.21 244.008 1002.13C244.407 1002.41 244.804 1002.69 245.258 1003.05L245.541 1003.26L245.384 1003.63L245.343 1003.6L245.343 1003.6Z" fill="#E6E6E6"/>
<path d="M249.951 1001.22L249.679 1001.52C249.531 1001.69 249.253 1001.73 249.083 1001.58C247.905 1000.81 243.093 998.764 243.017 998.72C242.804 998.65 242.701 998.387 242.793 998.136C242.863 997.923 243.126 997.82 243.377 997.912C243.529 997.999 246.11 999.071 247.97 999.983C247.081 998.613 246.052 996.958 245.79 996.353C245.665 996.129 245.757 995.878 246.02 995.775C246.244 995.65 246.494 995.742 246.597 996.005C246.97 996.776 248.812 999.758 249.734 1000.89L249.951 1001.22Z" fill="#E6E6E6"/>
<path d="M257.042 1005.48C256.911 1005.71 256.672 1005.78 256.442 1005.65C253.617 1004.03 251.675 1001.75 251.581 1001.65C251.434 1001.46 251.45 1001.17 251.636 1001.02C251.821 1000.87 252.117 1000.89 252.264 1001.08C252.303 1001.1 254.204 1003.35 256.877 1004.88C257.07 1004.99 257.151 1005.29 257.042 1005.48L257.042 1005.48Z" fill="#E6E6E6"/>
<path d="M244.93 979.437C244.81 979.114 244.505 978.585 243.818 978.547C243.168 978.529 242.83 978.944 242.655 979.249C242.546 979.44 242.382 979.549 242.223 979.561C242.043 979.61 241.83 979.538 241.722 979.375C241.219 978.834 239.808 977.671 237.776 978.029C236.362 978.285 235.162 980.03 234.943 980.412C234.79 980.679 234.49 980.76 234.201 980.646C233.836 980.489 232.902 980.257 232.213 980.928C231.443 981.654 231.426 982.304 231.474 982.838C231.517 983.116 231.305 983.401 231.042 983.504C230.441 983.667 230.245 984.01 230.354 984.53C230.403 984.71 230.369 984.945 230.184 985.092C230.036 985.261 229.857 985.311 229.622 985.278C229.039 985.145 227.549 985.004 226.407 986.023C224.933 987.36 225.013 988.368 225.137 990.366C225.126 990.562 225.077 990.738 224.951 990.868C222.357 993.185 223.457 995.691 224.351 996.963C224.476 997.187 224.519 997.465 224.351 997.672C224.159 997.917 223.281 999.188 223.497 1000.23C223.699 1001.2 224.134 1001.5 225.183 1002.15C225.374 1002.26 225.581 1002.43 225.809 1002.56C225.961 1002.65 226.033 1002.79 226.043 1002.95C226.227 1003.87 226.778 1004.23 227.826 1004.17C227.985 1004.16 228.198 1004.23 228.328 1004.36C228.458 1004.48 228.508 1004.66 228.496 1004.86C228.42 1005.53 228.129 1007.54 229.59 1009.24C231.035 1010.88 233.546 1010.74 234.26 1010.29C234.484 1010.16 234.741 1010.16 234.91 1010.31C235.63 1010.82 236.383 1010.74 236.863 1010.61C237.825 1010.35 238.697 1009.53 239.168 1008.54C239.89 1006.92 239.611 1006.61 238.362 1004.98L237.975 1004.51C237.828 1004.32 237.785 1004.04 237.916 1003.81C238.244 1003.24 238.272 1002.75 238.098 1002.34C237.886 1001.92 237.465 1001.68 237.236 1001.55C237.073 1001.65 236.887 1001.8 236.684 1001.89C235.855 1002.28 234.855 1002.16 233.764 1001.59C233.535 1001.46 233.47 1001.22 233.601 1000.99C233.71 1000.8 233.972 1000.69 234.202 1000.82C235.064 1001.27 235.806 1001.39 236.374 1001.1C236.92 1000.86 237.248 1000.29 237.352 999.838C237.429 999.528 237.696 999.327 238.029 999.365C239.186 999.468 239.754 998.476 239.941 997.619C239.985 997.543 239.968 997.482 240.051 997.428C240.04 997.27 240.067 997.133 240.193 997.003C240.63 996.593 240.877 996.075 240.904 995.584C240.9 994.973 240.617 994.405 240.301 994.072C240.153 993.887 240.089 993.646 240.16 993.433C240.203 993.357 240.23 993.22 240.296 993.105C240.541 992.586 240.771 992.008 240.407 991.14C240.096 990.354 239.638 990.092 238.329 989.899L238.29 989.877C238.153 989.85 238.038 989.784 237.947 989.68C237.947 989.68 237.908 989.658 237.93 989.619C237.299 988.598 236.359 988.821 236.277 988.875C236.038 988.94 235.808 988.809 235.743 988.569C235.678 988.33 235.809 988.1 236.01 988.013C236.392 987.878 237.124 987.839 237.789 988.271C237.839 987.741 238.03 987.141 238.533 986.618C237.88 985.636 237.918 984.946 238.242 984.118C238.641 982.978 239.705 982.623 240.203 982.553C240.302 982.204 240.547 981.685 240.996 981.434C241.323 981.216 241.759 981.163 242.186 981.304C242.42 981.337 242.563 981.621 242.491 981.833C242.457 982.067 242.174 982.21 241.962 982.138C241.748 982.067 241.569 982.115 241.427 982.186C241.122 982.366 241.017 982.813 240.99 982.95C240.934 983.223 240.728 983.408 240.471 983.413C240.132 983.473 239.336 983.625 239.013 984.455C238.778 985.132 238.719 985.502 239.301 986.342C239.502 986.61 239.442 986.982 239.174 987.183C238.492 987.755 238.539 988.645 238.595 989.081C239.844 989.289 240.63 989.688 241.136 990.841C241.659 992.053 241.278 992.898 241.047 993.477L240.981 993.592C241.369 994.067 241.723 994.777 241.695 995.622C241.689 996.075 241.547 996.5 241.328 996.882C241.262 996.997 241.196 997.112 241.093 997.203C241.458 997.361 241.944 997.488 242.462 997.379C243.597 997.167 243.805 995.918 243.844 995.583C243.855 995.388 243.943 995.234 244.106 995.125C244.269 995.017 244.428 995.005 244.602 995.055C245.59 995.367 245.993 995.192 246.322 994.265C246.392 994.052 246.557 993.944 246.736 993.894C247.576 993.666 247.697 993.278 247.698 992.924C247.709 992.728 247.797 992.574 247.938 992.503C248.102 992.394 248.261 992.382 248.419 992.372C248.73 992.449 249.091 992.351 249.32 992.127C249.549 991.904 249.643 991.653 249.62 991.337L249.587 990.862L250.139 990.873C250.848 990.873 251.541 990.814 251.92 990.067C252.296 989.319 251.452 988.226 251.452 988.226L251.175 987.915L251.486 987.638C251.568 987.584 253.13 986.095 252.187 984.288C251.479 982.869 249.923 982.84 249.329 982.906C249.171 982.916 248.958 982.845 248.828 982.719C248.698 982.594 248.648 982.414 248.66 982.217C248.683 981.824 248.699 980.82 247.886 980.202C247.058 979.526 246.025 979.644 245.644 979.78C245.378 979.895 245.05 979.759 244.93 979.437L244.93 979.437ZM233.353 989.033C233.221 989.263 232.982 989.328 232.769 989.257C232.365 989.077 232.01 989.077 231.688 989.197C231.404 989.34 231.13 989.638 231.092 989.971C231.037 990.244 230.83 990.429 230.574 990.435C229.721 990.505 229.536 991.362 229.514 991.4C229.481 991.635 229.234 991.799 228.962 991.744C228.728 991.711 228.564 991.465 228.597 991.23C228.686 990.723 229.171 989.784 230.246 989.588C230.432 989.086 230.793 988.633 231.278 988.404C231.846 988.121 232.496 988.139 233.091 988.428C233.38 988.542 233.484 988.803 233.353 989.033L233.353 989.033ZM239.991 981.069C240.16 981.218 240.187 981.435 240.078 981.626L240.035 981.702C239.887 981.871 239.608 981.914 239.402 981.746C239.233 981.598 239.096 981.571 238.976 981.604C238.857 981.636 238.73 981.768 238.682 981.942C238.633 982.116 238.524 982.307 238.343 982.356C238.201 982.428 237.982 982.454 237.83 982.367C237.12 982.012 236.449 982.032 235.98 982.322C235.51 982.612 235.221 983.207 235.264 983.84C235.27 984.096 235.062 984.282 234.844 984.308C234.587 984.313 234.401 984.106 234.375 983.887C234.37 982.921 234.792 982.098 235.529 981.606C236.185 981.17 237.073 981.122 237.942 981.467C238.078 981.139 238.368 980.899 238.689 980.78C239.151 980.589 239.598 980.694 239.991 981.069L239.991 981.069ZM248.644 984.553C248.639 984.652 248.632 984.749 248.588 984.827C248.522 984.941 248.418 985.034 248.261 985.045C248.043 985.073 247.797 984.881 247.77 984.664C247.705 984.068 247.472 983.68 247.083 983.561C246.619 983.396 246.096 983.604 245.887 983.789C245.738 983.958 245.46 984.001 245.21 983.909C244.997 983.838 244.861 983.81 244.758 983.903C244.556 983.99 244.478 984.302 244.473 984.4C244.44 984.634 244.194 984.798 243.959 984.765C243.725 984.732 243.561 984.486 243.594 984.251C243.599 984.153 243.736 983.471 244.326 983.149C244.55 983.024 244.91 982.925 245.374 983.09C245.827 982.741 246.63 982.49 247.344 982.748C247.771 982.888 248.498 983.303 248.643 984.553L248.644 984.553Z" fill="#E6E6E6"/>
</g>
</g>
<path d="M882.535 716.109C882.535 718.469 880.625 720.4 878.258 720.4H826.742C824.389 720.4 822.465 718.476 822.465 716.109C822.465 699.523 835.913 686.075 852.5 686.075C869.086 686.075 882.535 699.523 882.535 716.109H882.535ZM852.5 691.223C839.045 691.223 828.083 701.903 827.628 715.251H877.373C876.917 701.903 865.955 691.223 852.5 691.223V691.223ZM852.5 682.642C842.545 682.642 834.479 674.577 834.479 664.621C834.479 654.665 842.545 646.6 852.5 646.6C862.456 646.6 870.521 654.665 870.521 664.621C870.521 674.577 862.456 682.642 852.5 682.642ZM852.5 677.493C859.607 677.493 865.372 671.727 865.372 664.621C865.372 657.515 859.607 651.749 852.5 651.749C845.394 651.749 839.628 657.515 839.628 664.621C839.628 671.727 845.394 677.493 852.5 677.493Z" fill="#2A5D49"/>
<path d="M671.672 673.297C670.129 671.517 667.756 670.33 665.383 670.33H654.232L640.823 646.6L637.62 648.38L650.079 670.451L611.045 670.447L623.382 648.38L620.295 646.6L606.886 670.33H595.735C593.362 670.33 590.989 671.396 589.446 673.176C588.139 674.72 587.666 676.499 588.023 678.395L595.142 713.04V713.16C596.449 717.786 599.174 720.4 602.734 720.4H658.143C661.939 720.4 665.025 717.554 665.855 713.045L672.974 678.4C673.336 676.62 672.858 674.84 671.672 673.297L671.672 673.297ZM669.536 677.686L662.417 712.331C662.18 713.397 661.351 716.84 658.264 716.84H602.855C600.955 716.84 599.532 715.297 598.702 712.215L591.583 677.685C591.463 676.735 591.819 675.905 592.297 675.433C593.126 674.482 594.549 673.773 595.856 673.773H665.504C666.811 673.773 668.233 674.367 669.063 675.433C669.42 676.262 669.656 676.971 669.536 677.685V677.686Z" fill="#2A5D49" stroke="#2A5D49"/>
<path d="M171.431 710.282C173.129 710.282 174.506 708.905 174.506 707.207C174.506 705.509 173.129 704.132 171.431 704.132C169.732 704.132 168.356 705.509 168.356 707.207C168.356 708.905 169.732 710.282 171.431 710.282Z" fill="#2A5D49"/>
<path d="M205.574 695.56H184.133C183.114 695.56 182.288 694.734 182.288 693.715C182.288 692.697 183.114 691.87 184.133 691.87H205.574C206.592 691.87 207.419 692.697 207.419 693.715C207.419 694.734 206.592 695.56 205.574 695.56Z" fill="#2A5D49"/>
<path d="M171.431 696.752C173.129 696.752 174.506 695.375 174.506 693.677C174.506 691.978 173.129 690.602 171.431 690.602C169.732 690.602 168.356 691.978 168.356 693.677C168.356 695.375 169.732 696.752 171.431 696.752Z" fill="#2A5D49"/>
<path d="M205.574 682.031H184.133C183.114 682.031 182.288 681.205 182.288 680.186C182.288 679.167 183.114 678.341 184.133 678.341H205.574C206.592 678.341 207.419 679.167 207.419 680.186C207.419 681.205 206.592 682.031 205.574 682.031Z" fill="#2A5D49"/>
<path d="M171.431 683.222C173.129 683.222 174.506 681.845 174.506 680.147C174.506 678.449 173.129 677.072 171.431 677.072C169.732 677.072 168.356 678.449 168.356 680.147C168.356 681.845 169.732 683.222 171.431 683.222Z" fill="#2A5D49"/>
<path d="M205.574 668.501H184.133C183.114 668.501 182.288 667.675 182.288 666.656C182.288 665.636 183.114 664.811 184.133 664.811H205.574C206.592 664.811 207.419 665.636 207.419 666.656C207.419 667.675 206.592 668.501 205.574 668.501Z" fill="#2A5D49"/>
<path d="M171.431 669.692C173.129 669.692 174.506 668.315 174.506 666.617C174.506 664.918 173.129 663.542 171.431 663.542C169.732 663.542 168.356 664.918 168.356 666.617C168.356 668.315 169.732 669.692 171.431 669.692Z" fill="#2A5D49"/>
<path d="M207.138 720.785H167.862C162.437 720.785 158.022 716.37 158.022 710.945V656.055C158.022 650.63 162.437 646.215 167.862 646.215H207.138C212.563 646.215 216.978 650.63 216.978 656.055V710.945C216.978 716.37 212.563 720.785 207.138 720.785ZM167.862 651.135C165.149 651.135 162.942 653.342 162.942 656.055V710.945C162.942 713.658 165.149 715.865 167.862 715.865H207.138C209.851 715.865 212.058 713.658 212.058 710.945V656.055C212.058 653.342 209.851 651.135 207.138 651.135H167.862Z" fill="#2A5D49"/>
<path fill-rule="evenodd" clip-rule="evenodd" d="M191.052 708.556L191.766 707.842L185.258 701.335L199.901 686.692C201.248 685.345 203.434 685.345 204.781 686.692L206.408 688.32C207.755 689.667 207.755 691.853 206.408 693.2L191.052 708.556ZM190.131 709.461C189.51 709.99 188.718 710.282 187.896 710.282H183.394C183.075 710.282 182.819 710.025 182.819 709.707V705.204C182.819 704.382 183.111 703.591 183.639 702.97L190.131 709.461Z" fill="#2A5D49"/>
<path d="M444.167 470.562H443.321C443.599 469.77 443.599 469.09 443.599 468.273V456.227C443.599 452.27 440.369 448.926 436.545 448.926H427.219L424.377 443.008C424.094 442.44 423.587 441.985 422.984 441.76C422.354 441.523 421.691 441.552 421.125 441.833L405.965 448.922H374.833C370.944 448.922 367.532 452.334 367.532 456.223V508.346C367.532 512.17 370.876 515.4 374.833 515.4H436.545C440.435 515.4 443.599 512.236 443.599 508.346V496.3C443.599 495.52 443.599 494.72 443.355 494.011H444.167C448.056 494.011 451.468 490.6 451.468 486.711V477.615C451.468 473.791 448.124 470.562 444.167 470.562ZM401.027 456.795L420.865 447.434L425.547 456.795H401.027ZM426.145 477.615C426.145 476.375 426.946 475.574 428.187 475.574H444.167C445.493 475.574 446.456 476.432 446.456 477.615V486.71C446.456 487.951 445.408 488.999 444.167 488.999H428.187C427.004 488.999 426.145 488.036 426.145 486.71V477.615ZM389.498 456.792H378.281C376.831 456.792 375.652 457.971 375.652 459.421C375.652 460.69 376.88 461.804 378.281 461.804H438.837V468.273C438.837 469.283 438.023 470.097 437.223 470.317L431.622 470.562C426.548 470.562 421.139 471.112 421.139 477.615V486.711C421.139 490.804 424.238 494.011 428.193 494.011H436.552C437.793 494.011 438.841 495.059 438.841 496.3V508.346C438.841 509.587 437.793 510.635 436.552 510.635H374.84C373.599 510.635 372.551 509.587 372.551 508.346V456.224C372.551 454.983 373.599 453.935 374.84 453.935H395.593L389.498 456.792ZM429.616 453.938H436.546C437.786 453.938 438.834 454.986 438.834 456.227V456.795H431.14L429.616 453.938Z" fill="#2A5D49"/>
<path d="M433.105 485.898C435.1 485.898 436.717 484.281 436.717 482.286C436.717 480.291 435.1 478.673 433.105 478.673C431.11 478.673 429.492 480.291 429.492 482.286C429.492 484.281 431.11 485.898 433.105 485.898Z" fill="#2A5D49"/>
<path d="M223.114 508.125L200.871 485.878C204.292 481.386 206.217 475.61 206.217 469.406C206.217 454.005 193.812 441.6 178.411 441.6C163.01 441.6 150.601 454.009 150.601 469.41C150.601 484.811 163.006 497.216 178.407 497.216C184.612 497.216 190.17 495.291 194.879 491.87L217.126 514.117C217.98 514.971 219.051 515.4 220.122 515.4C221.193 515.4 222.259 514.971 223.118 514.117C224.826 512.404 224.826 509.837 223.114 508.125L223.114 508.125ZM178.411 488.661C167.715 488.661 159.16 480.106 159.16 469.41C159.16 458.714 167.715 450.159 178.411 450.159C189.108 450.159 197.662 458.714 197.662 469.41C197.662 480.102 189.104 488.661 178.411 488.661Z" fill="#2A5D49"/>
<path fill-rule="evenodd" clip-rule="evenodd" d="M1055.46 680.356L1086.31 649.757C1088.1 648.081 1090.85 648.081 1092.54 649.757C1094.23 651.433 1094.23 654.16 1092.54 655.94L1064.76 683.5L1092.54 711.06C1094.23 712.737 1094.23 715.567 1092.54 717.243C1090.85 718.919 1088.1 718.919 1086.31 717.243L1055.46 686.538C1053.77 684.862 1053.77 682.136 1055.46 680.356V680.356Z" fill="#2A5D49"/>
<path d="M660.73 454.701L619.665 495.766L600.276 476.381C599.056 475.162 597.225 475.162 595.999 476.381C594.78 477.601 594.78 479.433 595.999 480.658L617.525 502.184C618.138 502.796 618.899 503.1 619.661 503.1C620.422 503.1 621.189 502.796 621.796 502.184L665.001 458.979C666.22 457.76 666.22 455.928 665.001 454.703C663.781 453.632 661.949 453.632 660.73 454.703L660.73 454.701Z" fill="#2A5D49"/>
<path d="M856.494 487.625H848.472L847.336 453.9H857.631L856.494 487.625ZM852.483 492.906C854.11 492.906 855.413 493.385 856.394 494.343C857.397 495.301 857.898 496.527 857.898 498.019C857.898 499.49 857.397 500.705 856.394 501.663C855.413 502.621 854.11 503.1 852.483 503.1C850.879 503.1 849.575 502.621 848.573 501.663C847.592 500.705 847.102 499.49 847.102 498.019C847.102 496.549 847.592 495.334 848.573 494.376C849.575 493.396 850.879 492.906 852.483 492.906Z" fill="#EB5757"/>
<path fill-rule="evenodd" clip-rule="evenodd" d="M1105.15 477.381C1104.62 476.655 1091.14 460.05 1074 460.05C1056.86 460.05 1043.38 476.655 1042.85 477.381C1042.31 478.04 1042.31 478.961 1042.85 479.62C1043.38 480.346 1056.86 496.95 1074 496.95C1091.14 496.95 1104.62 480.279 1105.15 479.556C1105.69 478.961 1105.69 478.04 1105.15 477.381V477.381ZM1074 492.405C1066.29 492.405 1059.98 486.145 1059.98 478.5C1059.98 470.855 1066.29 464.596 1074 464.596C1081.71 464.596 1088.02 470.855 1088.02 478.5C1088.02 486.145 1081.71 492.405 1074 492.405V492.405ZM1046.63 478.5C1048.63 476.261 1053.68 471.054 1060.32 467.497C1057.86 470.529 1056.33 474.348 1056.33 478.5C1056.33 482.652 1057.79 486.474 1060.25 489.504C1053.67 485.879 1048.63 480.739 1046.63 478.5H1046.63ZM1087.69 489.504C1090.14 486.471 1091.6 482.652 1091.6 478.5C1091.6 474.348 1090.14 470.526 1087.69 467.497C1094.26 471.121 1099.31 476.261 1101.37 478.5C1099.38 480.739 1094.33 485.879 1087.69 489.504Z" fill="#2A5D49"/>
<path fill-rule="evenodd" clip-rule="evenodd" d="M1074 470.526C1073.67 470.526 1073.4 470.593 1073.07 470.593C1073.6 471.252 1074 472.109 1074 473.098C1074 475.337 1072.21 477.118 1069.95 477.118C1068.55 477.118 1067.29 476.392 1066.63 475.34C1066.23 476.328 1065.96 477.383 1065.96 478.503C1065.96 482.917 1069.55 486.477 1074 486.477C1078.45 486.475 1082.04 482.915 1082.04 478.501C1082.04 474.087 1078.45 470.527 1074 470.527L1074 470.526Z" fill="#2A5D49"/>
<path d="M1285.44 712.374L1266.63 693.559L1310.2 649.984C1314.05 646.139 1320.29 646.139 1324.13 649.984L1329.02 654.867C1332.86 658.713 1332.86 664.954 1329.02 668.8L1285.44 712.374ZM1279.79 717.898C1278.09 719.191 1276 719.9 1273.83 719.9H1260.32C1259.65 719.9 1259.1 719.354 1259.1 718.676V705.167C1259.1 703.003 1259.81 700.913 1261.1 699.211L1279.79 717.898Z" fill="#2A5D49" stroke="white"/>
<path d="M1533.84 696.799C1533.77 696.983 1533.71 697.167 1533.71 697.412C1533.71 697.962 1534.02 698.453 1534.51 698.7C1536.78 699.742 1538.56 700.968 1539.84 702.316C1541.07 703.664 1541.75 705.137 1541.75 706.607C1541.75 708.018 1541.13 709.428 1539.97 710.714C1538.81 712.002 1537.15 713.228 1535 714.27C1530.77 716.293 1524.7 717.704 1517.53 717.704C1506.68 717.704 1498.53 714.517 1495.09 710.592C1493.93 709.303 1493.31 707.895 1493.31 706.485C1493.31 705.014 1493.99 703.542 1495.22 702.194C1496.44 700.845 1498.22 699.619 1500.49 698.578C1500.98 698.333 1501.29 697.843 1501.29 697.289C1501.29 697.105 1501.22 696.921 1501.16 696.676C1500.92 696.185 1500.43 695.879 1499.88 695.879C1499.69 695.879 1499.51 695.941 1499.26 696.001C1496.38 697.349 1494.17 698.944 1492.7 700.721C1491.23 702.498 1490.44 704.399 1490.44 706.422C1490.44 710.285 1493.32 713.779 1498.22 716.293C1503.06 718.808 1509.87 720.4 1517.47 720.4C1525.07 720.4 1531.87 718.868 1536.78 716.293C1541.68 713.719 1544.56 710.285 1544.56 706.422C1544.56 704.399 1543.77 702.438 1542.3 700.661C1540.83 698.884 1538.56 697.289 1535.67 696.001C1535.49 695.939 1535.31 695.879 1535.06 695.879C1534.63 695.941 1534.08 696.248 1533.84 696.798L1533.84 696.799Z" fill="#2A5D49" stroke="#2A5D49"/>
<path d="M1517.53 704.837L1516.54 703.738C1516.34 703.518 1511.61 698.267 1506.81 691.152C1500.29 681.476 1496.98 673.403 1496.98 667.155C1496.98 655.819 1506.2 646.6 1517.53 646.6C1528.86 646.6 1538.08 655.819 1538.08 667.153C1538.08 673.4 1534.77 681.475 1528.24 691.15C1523.44 698.266 1518.72 703.518 1518.52 703.738L1517.53 704.837ZM1517.53 649.277C1507.67 649.277 1499.65 657.297 1499.65 667.155C1499.65 679.043 1513.63 696.245 1517.53 700.805C1521.42 696.246 1535.41 679.035 1535.41 667.155C1535.41 657.297 1527.39 649.277 1517.53 649.277V649.277ZM1517.53 677.414C1511.87 677.414 1507.27 672.811 1507.27 667.155C1507.27 661.497 1511.87 656.895 1517.53 656.895C1523.19 656.895 1527.79 661.497 1527.79 667.155C1527.79 672.812 1523.19 677.414 1517.53 677.414ZM1517.53 659.572C1513.35 659.572 1509.95 662.974 1509.95 667.155C1509.95 671.336 1513.35 674.739 1517.53 674.739C1521.71 674.739 1525.11 671.336 1525.11 667.155C1525.11 662.972 1521.71 659.572 1517.53 659.572V659.572Z" fill="#2A5D49" stroke="#2A5D49"/>
<g clip-path="url(#clip3)">
<path d="M855.991 1182.16C869.911 1182.16 881.195 1159.14 881.195 1130.74C881.195 1102.34 869.911 1079.31 855.991 1079.31C842.071 1079.31 830.786 1102.34 830.786 1130.74C830.786 1159.14 842.071 1182.16 855.991 1182.16Z" fill="#3F3D56"/>
<path d="M853.663 1214.92C863.758 1154.35 853.765 1094 853.663 1093.4L851.699 1093.73C851.801 1094.33 861.736 1154.36 851.699 1214.59L853.663 1214.92Z" fill="#97CAB6"/>
<path d="M833.801 1119.68L832.861 1121.44L855.653 1133.63L856.592 1131.87L833.801 1119.68Z" fill="#97CAB6"/>
<path d="M879.707 1125.79L856.918 1137.98L857.858 1139.74L880.647 1127.54L879.707 1125.79Z" fill="#97CAB6"/>
<path d="M916.549 1149.93C943.775 1149.93 965.846 1104.9 965.846 1049.35C965.846 993.796 943.775 948.762 916.549 948.762C889.323 948.762 867.253 993.796 867.253 1049.35C867.253 1104.9 889.323 1149.93 916.549 1149.93Z" fill="#E6E6E6"/>
<path d="M911.058 1213.83C930.776 1095.53 911.257 977.658 911.058 976.481L909.094 976.814C909.293 977.987 928.754 1095.54 909.094 1213.51L911.058 1213.83Z" fill="#2A5D49"/>
<path d="M872.699 1028.56L871.759 1030.31L916.338 1054.16L917.277 1052.4L872.699 1028.56Z" fill="#2A5D49"/>
<path d="M963.384 1040.5L918.812 1064.36L919.752 1066.12L964.324 1042.26L963.384 1040.5Z" fill="#2A5D49"/>
<path d="M799.794 1126.45C837.05 1126.45 867.252 1064.83 867.252 988.808C867.252 912.79 837.05 851.165 799.794 851.165C762.538 851.165 732.335 912.79 732.335 988.808C732.335 1064.83 762.538 1126.45 799.794 1126.45Z" fill="#E6E6E6"/>
<path d="M791.918 1213.83C818.89 1052 792.19 890.767 791.917 889.157L789.954 889.49C790.226 891.096 816.868 1052.02 789.953 1213.51L791.918 1213.83Z" fill="#2A5D49"/>
<path d="M739.615 960.682L738.675 962.438L799.677 995.067L800.617 993.311L739.615 960.682Z" fill="#2A5D49"/>
<path d="M864.057 977.027L803.064 1009.67L804.004 1011.43L864.997 978.783L864.057 977.027Z" fill="#2A5D49"/>
<path d="M865.187 1214.92H914.019C913.773 1205.81 906.949 1204.01 895.319 1204.01H883.887C872.257 1204.01 865.433 1205.81 865.187 1214.92Z" fill="#3F3D56"/>
<path d="M929.59 1214.91H565.207V1214.03H929.748L929.59 1214.91Z" fill="#3F3D56"/>
<path d="M646.272 1202.4H634.839C628.859 1202.4 623.517 1202.83 619.991 1205.09C618.332 1202.07 615.894 1199.56 612.929 1197.8C609.965 1196.05 606.585 1195.13 603.141 1195.13H591.709C589.184 1195.13 586.683 1195.63 584.351 1196.59C582.018 1197.56 579.898 1198.97 578.113 1200.76C576.328 1202.54 574.911 1204.66 573.945 1207C572.979 1209.33 572.482 1211.83 572.482 1214.35V1214.35H665.498V1214.35C665.498 1203.74 656.89 1202.4 646.272 1202.4Z" fill="#3F3D56"/>
<path d="M669.003 1078.87L675.606 1081.93L671.022 1091.83C670.617 1092.7 669.881 1093.38 668.975 1093.72C668.069 1094.05 667.069 1094.01 666.193 1093.6V1093.6C665.318 1093.2 664.639 1092.46 664.306 1091.55C663.974 1090.65 664.015 1089.65 664.42 1088.77L669.003 1078.87V1078.87Z" fill="#FFB9B9"/>
<path d="M733.685 940.456H733.685C740.714 940.456 747.455 943.248 752.425 948.218C757.395 953.188 760.187 959.929 760.187 966.958V996.577H707.183V966.958C707.183 959.929 709.975 953.188 714.945 948.218C719.915 943.248 726.656 940.456 733.685 940.456V940.456Z" fill="#2F2E41"/>
<path d="M713.938 1219.51L708.222 1218.47L704.065 1195.61L715.757 1195.86L713.938 1219.51Z" fill="#FFB9B9"/>
<path d="M777.075 1232.76L771.214 1235.47L761.86 1208.44L771.879 1206.77L777.075 1232.76Z" fill="#FFB9B9"/>
<path d="M774.477 1208.33L759.148 1209.12L717.316 1108.04L716.175 1199.07L701.467 1197.16C691.097 1140.52 682.516 1090.2 696.011 1058.68L741.74 1062.31L774.477 1208.33Z" fill="#2F2E41"/>
<path d="M704.749 1235.44L698.801 1235.12C698.539 1235.1 698.286 1235.02 698.065 1234.88C697.843 1234.74 697.661 1234.55 697.535 1234.32C697.41 1234.09 697.344 1233.83 697.346 1233.57C697.347 1233.31 697.416 1233.05 697.544 1232.83L706.598 1216.76L714.549 1217.42L715.776 1223.15C716.004 1224.22 715.929 1225.32 715.558 1226.35C715.187 1227.37 714.537 1228.27 713.68 1228.94L709.781 1231.99C709.438 1233.04 708.759 1233.95 707.849 1234.57C706.94 1235.19 705.85 1235.5 704.749 1235.44V1235.44Z" fill="#2F2E41"/>
<path d="M785.799 1248.29L780.661 1250.05C780.319 1250.17 779.952 1250.2 779.597 1250.13C779.241 1250.07 778.909 1249.91 778.633 1249.67L769.69 1242.09C768.863 1241.39 768.26 1240.46 767.956 1239.42C767.652 1238.38 767.659 1237.27 767.978 1236.24L769.101 1232.59L777.616 1230.94L786.871 1245.18C787.043 1245.44 787.153 1245.75 787.192 1246.06C787.231 1246.37 787.197 1246.69 787.094 1246.99C786.991 1247.29 786.82 1247.57 786.596 1247.79C786.372 1248.02 786.099 1248.19 785.799 1248.29V1248.29Z" fill="#2F2E41"/>
<path d="M730.047 982.027C739.805 982.027 747.715 974.117 747.715 964.359C747.715 954.602 739.805 946.691 730.047 946.691C720.29 946.691 712.38 954.602 712.38 964.359C712.38 974.117 720.29 982.027 730.047 982.027Z" fill="#FFB9B9"/>
<path d="M747.975 990.601L727.189 994.239L725.111 977.61L741.22 975.531L747.975 990.601Z" fill="#FFB9B9"/>
<path d="M747.975 1068.03L694.452 1062.83C697.076 1034.28 705.872 1009.09 724.072 989.042L750.054 986.964L747.975 1068.03Z" fill="#3F3D56"/>
<path d="M676.524 1083.88L665.611 1080.24L684.443 1042.17L712.639 996.318L724.072 989.042L698.777 1045.73L676.524 1083.88Z" fill="#3F3D56"/>
<path d="M741.999 958.643L709.781 964.879L714.978 948.77L733.685 944.613L748.235 949.809L741.999 958.643Z" fill="#2F2E41"/>
<path d="M675.415 1089.45C702.304 1089.45 724.101 1067.65 724.101 1040.77C724.101 1013.88 702.304 992.079 675.415 992.079C648.526 992.079 626.729 1013.88 626.729 1040.77C626.729 1067.65 648.526 1089.45 675.415 1089.45Z" fill="#97CAB6"/>
<path d="M731.715 1096.39L702.26 1088.69L672.804 1080.99L694.203 1059.33L715.602 1037.67L723.658 1067.03L731.715 1096.39Z" fill="#97CAB6"/>
<path d="M675.475 1057.74C685.122 1057.74 692.943 1049.92 692.943 1040.27C692.943 1030.62 685.122 1022.8 675.475 1022.8C665.828 1022.8 658.007 1030.62 658.007 1040.27C658.007 1049.92 665.828 1057.74 675.475 1057.74Z" fill="white"/>
<path d="M727.204 1090.82L733.806 1093.88L729.223 1103.78C728.817 1104.66 728.081 1105.33 727.175 1105.67C726.27 1106 725.269 1105.96 724.394 1105.55V1105.55C723.518 1105.15 722.839 1104.41 722.507 1103.51C722.174 1102.6 722.215 1101.6 722.62 1100.72L727.204 1090.82Z" fill="#FFB9B9"/>
<path d="M734.205 1097.39L724.851 1091.68L729.756 1058.29L750.054 989.562L753.909 991.036C757.711 992.49 760.846 995.292 762.716 998.907C764.586 1002.52 765.061 1006.7 764.051 1010.64L750.896 1061.97L734.205 1097.39Z" fill="#3F3D56"/>
</g>
<path d="M1273.72 453.9C1273 453.9 1272.27 454.178 1271.73 454.725C1270.63 455.817 1270.63 457.618 1271.73 458.709L1291.52 478.5L1271.73 498.29C1270.63 499.382 1270.63 501.183 1271.73 502.275C1272.25 502.803 1272.99 503.1 1273.72 503.1C1274.44 503.1 1275.18 502.803 1275.71 502.275L1295.5 482.484L1315.29 502.275C1315.82 502.803 1316.56 503.1 1317.28 503.1C1318 503.1 1318.71 502.838 1319.27 502.275C1320.37 501.183 1320.37 499.382 1319.27 498.29L1299.48 478.5L1319.27 458.709C1320.37 457.618 1320.37 455.817 1319.27 454.725C1318.18 453.636 1316.38 453.634 1315.29 454.725L1295.5 474.516L1275.71 454.725C1275.16 454.18 1274.44 453.9 1273.72 453.9V453.9Z" fill="#2A5D49"/>
<g clip-path="url(#clip4)">
<path d="M1146.62 1249.69H1578.71" stroke="#3F3D56" stroke-width="2" stroke-miterlimit="10"/>
<path d="M1470.7 941.399H1467.45C1466.73 941.399 1466.14 941.982 1466.14 942.701V988.404C1466.14 989.123 1466.73 989.706 1467.45 989.706H1470.7C1471.42 989.706 1472 989.123 1472 988.404V942.701C1472 941.982 1471.42 941.399 1470.7 941.399Z" fill="#3F3D56"/>
<path d="M1273.8 903.555H1272.22C1271.74 903.555 1271.36 903.937 1271.36 904.409V918.604C1271.36 919.075 1271.74 919.458 1272.22 919.458H1273.8C1274.27 919.458 1274.65 919.075 1274.65 918.604V904.409C1274.65 903.937 1274.27 903.555 1273.8 903.555Z" fill="#3F3D56"/>
<path d="M1273.99 932.67H1272.21C1271.67 932.67 1271.24 933.101 1271.24 933.633V959.388C1271.24 959.92 1271.67 960.351 1272.21 960.351H1273.99C1274.52 960.351 1274.95 959.92 1274.95 959.388V933.633C1274.95 933.101 1274.52 932.67 1273.99 932.67Z" fill="#3F3D56"/>
<path d="M1273.91 970.037H1272.22C1271.71 970.037 1271.3 970.447 1271.3 970.953V997.04C1271.3 997.546 1271.71 997.957 1272.22 997.957H1273.91C1274.42 997.957 1274.83 997.546 1274.83 997.04V970.953C1274.83 970.447 1274.42 970.037 1273.91 970.037Z" fill="#3F3D56"/>
<path d="M1449.03 851H1293.51C1282.3 851 1273.22 860.08 1273.22 871.281V1229.23C1273.22 1240.43 1282.3 1249.51 1293.51 1249.51H1449.03C1460.23 1249.51 1469.31 1240.43 1469.31 1229.23V871.281C1469.31 860.08 1460.23 851 1449.03 851Z" fill="#3F3D56"/>
<path d="M1378.29 862.9H1353.8C1353 862.9 1352.35 863.547 1352.35 864.345V867.016C1352.35 867.814 1353 868.46 1353.8 868.46H1378.29C1379.09 868.46 1379.73 867.814 1379.73 867.016V864.345C1379.73 863.547 1379.09 862.9 1378.29 862.9Z" fill="#E6E8EC"/>
<path d="M1387.03 868.834C1388.77 868.834 1390.18 867.422 1390.18 865.681C1390.18 863.939 1388.77 862.527 1387.03 862.527C1385.29 862.527 1383.87 863.939 1383.87 865.681C1383.87 867.422 1385.29 868.834 1387.03 868.834Z" fill="#E6E8EC"/>
<path d="M1457.2 876.955V1223.56C1457.2 1227.69 1455.56 1231.65 1452.64 1234.57C1449.71 1237.49 1445.75 1239.13 1441.62 1239.13H1300.91C1296.78 1239.13 1292.82 1237.49 1289.9 1234.57C1286.98 1231.65 1285.34 1227.69 1285.33 1223.56V876.955C1285.33 874.909 1285.74 872.884 1286.52 870.995C1287.3 869.105 1288.45 867.388 1289.9 865.942C1291.34 864.496 1293.06 863.349 1294.95 862.566C1296.84 861.783 1298.86 861.381 1300.91 861.381H1321.96V864.085C1321.97 867.486 1323.32 870.747 1325.72 873.152C1328.13 875.557 1331.39 876.908 1334.79 876.909H1406.35C1409.75 876.909 1413.01 875.558 1415.42 873.153C1417.82 870.748 1419.18 867.486 1419.18 864.085V861.381H1441.62C1443.67 861.381 1445.69 861.783 1447.58 862.566C1449.47 863.349 1451.19 864.496 1452.64 865.942C1454.08 867.388 1455.23 869.105 1456.01 870.995C1456.8 872.884 1457.2 874.909 1457.2 876.955Z" fill="white"/>
<path d="M1457.29 941.731H1285.14V1139.46H1457.29V941.731Z" fill="#F2F2F2"/>
<path d="M1297.64 1166.82L1296.73 1166C1293.51 1163.05 1291.39 1161.13 1291.39 1158.74C1291.38 1158.28 1291.46 1157.83 1291.63 1157.41C1291.8 1156.99 1292.05 1156.61 1292.37 1156.28C1292.69 1155.96 1293.08 1155.71 1293.5 1155.53C1293.92 1155.36 1294.37 1155.28 1294.82 1155.28C1295.36 1155.28 1295.89 1155.4 1296.37 1155.63C1296.86 1155.86 1297.29 1156.19 1297.64 1156.6C1297.98 1156.19 1298.41 1155.86 1298.9 1155.63C1299.38 1155.4 1299.91 1155.28 1300.45 1155.28C1300.9 1155.28 1301.35 1155.36 1301.77 1155.53C1302.2 1155.71 1302.58 1155.96 1302.9 1156.28C1303.22 1156.61 1303.47 1156.99 1303.64 1157.41C1303.81 1157.83 1303.89 1158.28 1303.89 1158.74C1303.89 1161.13 1301.76 1163.05 1298.54 1166L1297.64 1166.82Z" fill="#2A5D49"/>
<path d="M1330.5 1163.8L1332.25 1164.3C1332.56 1163.39 1333.09 1162.57 1333.79 1161.91C1334.49 1161.26 1335.34 1160.78 1336.26 1160.53C1337.19 1160.27 1338.16 1160.24 1339.1 1160.45C1340.04 1160.65 1340.91 1161.08 1341.64 1161.7L1338.97 1164.3H1345.65V1157.8L1342.95 1160.38C1341.99 1159.54 1340.84 1158.95 1339.59 1158.66C1338.34 1158.37 1337.04 1158.4 1335.81 1158.74C1334.57 1159.08 1333.44 1159.71 1332.51 1160.6C1331.59 1161.48 1330.89 1162.58 1330.5 1163.8L1330.5 1163.8Z" fill="#F2F2F2"/>
<path d="M1365.25 1180.37H1291.39V1189.46H1365.25V1180.37Z" fill="#F2F2F2"/>
<path d="M1447.64 1200.19H1291.39V1209.28H1447.64V1200.19Z" fill="#F2F2F2"/>
<path d="M1323.2 1166.24L1321.25 1162.82C1321.71 1161.69 1321.76 1160.44 1321.38 1159.28C1320.99 1158.13 1320.21 1157.15 1319.16 1156.53C1318.11 1155.91 1316.88 1155.69 1315.68 1155.9C1314.48 1156.12 1313.4 1156.77 1312.64 1157.72C1311.88 1158.66 1311.48 1159.86 1311.53 1161.07C1311.58 1162.29 1312.07 1163.45 1312.9 1164.34C1313.73 1165.22 1314.86 1165.78 1316.07 1165.9C1317.28 1166.03 1318.5 1165.71 1319.49 1165.01L1323.2 1166.24Z" fill="#F2F2F2"/>
<path d="M1184.42 1084.36L1183.84 1088.84C1183.64 1090.36 1183.44 1091.88 1183.34 1093.41C1182.99 1098.49 1183.64 1103.59 1183.47 1108.67C1183.34 1112.59 1182.71 1116.51 1183.01 1120.42C1183.28 1123.87 1184.26 1127.23 1185.24 1130.55L1186.64 1135.31C1186.65 1135.45 1186.7 1135.59 1186.77 1135.71C1186.84 1135.83 1186.94 1135.94 1187.06 1136.01C1187.18 1136.09 1187.32 1136.14 1187.46 1136.16C1187.6 1136.17 1187.75 1136.15 1187.88 1136.11L1194.07 1135.55C1193.67 1133.73 1193.23 1131.83 1193.02 1129.99C1192.85 1128.53 1192.75 1127.06 1192.64 1125.59C1192.31 1121.02 1191.94 1116.45 1191.57 1111.88L1190.91 1103.85C1190.63 1100.37 1190.34 1096.87 1189.47 1093.48C1188.59 1090.06 1186.85 1086.92 1184.42 1084.36Z" fill="#97CAB6"/>
<path opacity="0.1" d="M1184.42 1084.36L1183.84 1088.84C1183.64 1090.36 1183.44 1091.88 1183.34 1093.41C1182.99 1098.49 1183.64 1103.59 1183.47 1108.67C1183.34 1112.59 1182.71 1116.51 1183.01 1120.42C1183.28 1123.87 1184.26 1127.23 1185.24 1130.55L1186.64 1135.31C1186.65 1135.45 1186.7 1135.59 1186.77 1135.71C1186.84 1135.83 1186.94 1135.94 1187.06 1136.01C1187.18 1136.09 1187.32 1136.14 1187.46 1136.16C1187.6 1136.17 1187.75 1136.15 1187.88 1136.11L1194.07 1135.55C1193.67 1133.73 1193.23 1131.83 1193.02 1129.99C1192.85 1128.53 1192.75 1127.06 1192.64 1125.59C1192.31 1121.02 1191.94 1116.45 1191.57 1111.88L1190.91 1103.85C1190.63 1100.37 1190.34 1096.87 1189.47 1093.48C1188.59 1090.06 1186.85 1086.92 1184.42 1084.36Z" fill="black"/>
<path d="M1195.44 1238.1C1195.08 1238.82 1194.76 1239.55 1194.49 1240.31C1193.78 1242.4 1193.68 1244.63 1193.57 1246.83C1193.53 1247.26 1193.57 1247.69 1193.69 1248.1C1193.99 1248.89 1194.87 1249.29 1195.69 1249.51C1199.12 1250.43 1202.73 1249.56 1206.26 1249.25C1209.73 1248.94 1213.27 1249.16 1216.67 1248.39C1217.17 1248.3 1217.66 1248.13 1218.11 1247.89C1218.97 1247.33 1219.61 1246.5 1219.93 1245.52C1220.03 1245.27 1220.1 1245 1220.14 1244.74C1220.25 1243.58 1219.24 1242.57 1218.14 1242.19C1217.04 1241.81 1215.84 1241.87 1214.69 1241.75C1212.31 1241.51 1210.07 1240.49 1208.33 1238.84C1206.59 1237.2 1205.44 1235.03 1205.05 1232.67C1205.01 1232.42 1199.33 1232.57 1198.73 1232.89C1198.03 1233.28 1197.61 1234.24 1197.21 1234.88C1196.58 1235.93 1195.99 1237 1195.44 1238.1Z" fill="#3F3D56"/>
<path opacity="0.1" d="M1195.44 1238.1C1195.08 1238.82 1194.76 1239.55 1194.49 1240.31C1193.78 1242.4 1193.68 1244.63 1193.57 1246.83C1193.53 1247.26 1193.57 1247.69 1193.69 1248.1C1193.99 1248.89 1194.87 1249.29 1195.69 1249.51C1199.12 1250.43 1202.73 1249.56 1206.26 1249.25C1209.73 1248.94 1213.27 1249.16 1216.67 1248.39C1217.17 1248.3 1217.66 1248.13 1218.11 1247.89C1218.97 1247.33 1219.61 1246.5 1219.93 1245.52C1220.03 1245.27 1220.1 1245 1220.14 1244.74C1220.25 1243.58 1219.24 1242.57 1218.14 1242.19C1217.04 1241.81 1215.84 1241.87 1214.69 1241.75C1212.31 1241.51 1210.07 1240.49 1208.33 1238.84C1206.59 1237.2 1205.44 1235.03 1205.05 1232.67C1205.01 1232.42 1199.33 1232.57 1198.73 1232.89C1198.03 1233.28 1197.61 1234.24 1197.21 1234.88C1196.58 1235.93 1195.99 1237 1195.44 1238.1Z" fill="black"/>
<path d="M1204.86 1238.64C1204.5 1239.35 1204.18 1240.09 1203.91 1240.85C1203.2 1242.93 1203.1 1245.17 1203 1247.37C1202.95 1247.8 1202.99 1248.23 1203.11 1248.63C1203.42 1249.43 1204.29 1249.83 1205.11 1250.05C1208.54 1250.97 1212.15 1250.1 1215.69 1249.78C1219.16 1249.47 1222.69 1249.7 1226.09 1248.93C1226.59 1248.84 1227.08 1248.67 1227.53 1248.43C1228.39 1247.87 1229.03 1247.03 1229.35 1246.06C1229.45 1245.81 1229.52 1245.54 1229.56 1245.27C1229.67 1244.12 1228.66 1243.11 1227.56 1242.73C1226.46 1242.35 1225.26 1242.41 1224.11 1242.29C1221.73 1242.05 1219.49 1241.03 1217.75 1239.38C1216.01 1237.74 1214.86 1235.57 1214.48 1233.21C1214.43 1232.95 1208.75 1233.1 1208.15 1233.43C1207.45 1233.82 1207.03 1234.77 1206.64 1235.42C1206 1236.47 1205.41 1237.54 1204.86 1238.64Z" fill="#3F3D56"/>
<path d="M1229.44 1182.55C1229.51 1193.96 1226.19 1205.12 1222.3 1215.84C1220.76 1220.09 1219.12 1224.3 1217.39 1228.47C1216.37 1230.94 1215.22 1233.68 1216.31 1236.12C1213.16 1234.92 1209.92 1234.21 1206.59 1234.77C1207.86 1232.18 1207.74 1229.17 1207.8 1226.29C1207.91 1222.38 1208.33 1218.49 1209.06 1214.65C1210.17 1208.8 1212.09 1203.14 1214.75 1197.81C1215.29 1196.69 1215.66 1195.5 1215.85 1194.26C1216.2 1191.53 1216.04 1188.75 1215.38 1186.07C1214.17 1180.14 1211.86 1174.48 1208.57 1169.39C1208.56 1169.5 1208.55 1169.62 1208.54 1169.73C1208.34 1171.43 1208.06 1173.11 1207.68 1174.78C1206.94 1178.31 1206.07 1181.85 1206.2 1185.4C1206.34 1189.17 1206.11 1192.94 1205.5 1196.67C1205.31 1198.13 1204.93 1199.56 1204.37 1200.92C1204.01 1201.74 1203.53 1202.51 1203.24 1203.36C1202.96 1204.33 1202.81 1205.35 1202.8 1206.36C1202.38 1214.96 1202.8 1225.95 1204.55 1234.37C1201.59 1234.24 1198.65 1234.91 1196.04 1236.31C1193.92 1230.32 1192.57 1221.81 1191.56 1215.51C1190.41 1208.05 1190.64 1200.46 1192.24 1193.09C1192.74 1190.63 1192.93 1188.12 1192.8 1185.61C1192.57 1180.62 1191.34 1175.74 1190.13 1170.9C1189.51 1168.44 1188.89 1165.99 1188.27 1163.53C1187.38 1160.02 1186.5 1156.52 1185.62 1153.02C1185.03 1150.69 1184.44 1148.31 1184.62 1145.91C1184.75 1144.59 1185.03 1143.3 1185.45 1142.05C1186.76 1137.78 1188.74 1133.75 1191.29 1130.09C1201.46 1130.66 1211.76 1129.71 1221.92 1128.93C1222.41 1128.83 1222.93 1128.92 1223.36 1129.17C1223.7 1129.52 1223.91 1129.99 1223.94 1130.48C1225.21 1137.69 1226.48 1144.9 1227.75 1152.11C1228.37 1155.12 1228.74 1158.17 1228.84 1161.24C1228.86 1164.31 1228.36 1167.36 1228.48 1170.41C1228.63 1174.53 1229.41 1178.43 1229.44 1182.55Z" fill="#2F2E41"/>
<path opacity="0.1" d="M1208.54 1169.73C1208.34 1171.43 1208.06 1173.11 1207.68 1174.78C1205.47 1170.95 1203.09 1167.22 1201.05 1163.3C1200.52 1162.29 1200.02 1161.26 1199.52 1160.24C1199.02 1159.22 1198.52 1158.2 1198.02 1157.18C1197.74 1156.6 1197.46 1156.03 1197.2 1155.44C1196.79 1154.59 1196.47 1153.7 1196.26 1152.78C1197 1152.65 1198.82 1154.64 1199.37 1155.16C1200.5 1156.27 1201.56 1157.45 1202.55 1158.67C1203.76 1160.04 1204.86 1161.48 1205.86 1163C1207.14 1165.07 1208.04 1167.35 1208.54 1169.73V1169.73Z" fill="black"/>
<path d="M1217.02 1064.7C1217.02 1064.7 1211.36 1073.7 1212.41 1075.59C1213.46 1077.47 1194.62 1073.91 1194.62 1073.91C1194.62 1073.91 1204.87 1064.91 1203.83 1061.14C1202.78 1057.37 1217.02 1064.7 1217.02 1064.7Z" fill="#EFB7B9"/>
<path d="M1211.99 1067.42C1219.05 1067.42 1224.76 1061.71 1224.76 1054.65C1224.76 1047.6 1219.05 1041.88 1211.99 1041.88C1204.94 1041.88 1199.22 1047.6 1199.22 1054.65C1199.22 1061.71 1204.94 1067.42 1211.99 1067.42Z" fill="#EFB7B9"/>
<path d="M1217.21 1074.14C1215.84 1072.24 1213.98 1070.74 1211.84 1069.81C1210.6 1069.37 1209.32 1069.05 1208.02 1068.87L1202.93 1067.97C1201.68 1067.75 1200.34 1067.54 1199.18 1068.06C1198.59 1068.36 1198.05 1068.75 1197.59 1069.22C1195.81 1070.86 1194.1 1072.67 1191.88 1073.61C1191.27 1073.87 1190.63 1074.06 1190.03 1074.32C1187.54 1075.39 1185.69 1077.63 1184.63 1080.12C1183.52 1082.73 1183.49 1085.56 1183.58 1088.4C1183.58 1089.38 1183.67 1090.35 1183.87 1091.31C1184.12 1092.23 1184.45 1093.12 1184.83 1093.98C1185.54 1095.83 1186.13 1097.73 1186.6 1099.65C1187.92 1104.7 1189.01 1109.81 1189.89 1114.96C1189.97 1115.7 1190.18 1116.42 1190.53 1117.08C1191.02 1117.74 1191.62 1118.31 1192.29 1118.77C1192.83 1119.22 1193.32 1119.71 1193.77 1120.24C1193.99 1120.46 1194.15 1120.74 1194.24 1121.04C1194.4 1121.8 1193.73 1122.46 1193.18 1123.01C1192.04 1124.17 1191.22 1125.6 1190.8 1127.16C1190.53 1127.49 1190.39 1127.9 1190.42 1128.31C1190.53 1128.6 1190.57 1128.91 1190.54 1129.22C1190.43 1129.5 1190.27 1129.75 1190.06 1129.96C1189.81 1130.28 1189.64 1130.65 1189.55 1131.04C1189.46 1131.43 1189.45 1131.83 1189.53 1132.22C1193.48 1133.94 1197.72 1134.93 1202.03 1135.15C1203.09 1135.2 1204.15 1135.2 1205.2 1135.33C1205.94 1135.42 1206.68 1135.58 1207.43 1135.67C1208.52 1135.77 1209.61 1135.8 1210.71 1135.75C1216.39 1135.64 1222.24 1135.49 1227.46 1133.24C1227.95 1130.56 1226.9 1127.83 1226.23 1125.19C1225.17 1120.99 1224.91 1116.64 1224.12 1112.38C1223.58 1109.47 1222.8 1106.6 1222.35 1103.67C1221.91 1100.74 1221.8 1097.71 1222.61 1094.86C1223.32 1092.33 1223.53 1089.76 1224.27 1087.24C1225.01 1084.72 1225.53 1081.99 1224.7 1079.5C1223.66 1076.41 1220.46 1073.97 1217.21 1074.14Z" fill="#97CAB6"/>
<path d="M1223.48 1047.88C1224.1 1045.61 1222.88 1043.25 1221.42 1041.41C1219.85 1039.43 1217.82 1037.65 1215.34 1037.15C1213.33 1036.74 1211.24 1037.23 1209.2 1037.07C1207.38 1036.93 1205.64 1036.28 1203.84 1036.04C1202.21 1035.87 1200.56 1035.93 1198.94 1036.23C1197.41 1036.45 1195.91 1036.87 1194.48 1037.47C1189.04 1039.88 1185.86 1045.83 1185.12 1051.73C1184.38 1057.63 1185.68 1063.58 1186.96 1069.38L1188.13 1074.63C1189.34 1080.09 1190.56 1085.58 1190.88 1091.17C1191.21 1096.75 1190.6 1102.48 1188.3 1107.59C1195.73 1103.6 1201.49 1097.08 1204.53 1089.22C1205.35 1087.06 1205.97 1084.81 1206.88 1082.69C1207.67 1080.86 1208.68 1079.13 1209.37 1077.27C1210.16 1075.17 1210.54 1072.93 1210.49 1070.68C1210.45 1068.99 1210.17 1067.31 1210.21 1065.63C1210.26 1063.94 1210.69 1062.18 1211.86 1060.96C1212.9 1059.87 1214.37 1059.35 1215.71 1058.67C1217.81 1057.59 1219.65 1056.05 1221.09 1054.18C1221.93 1053.08 1221.97 1052.61 1222.19 1051.35C1222.39 1050.12 1223.15 1049.08 1223.48 1047.88Z" fill="#2F2E41"/>
<path d="M1223.5 1143.82C1223.63 1145.14 1223.39 1146.48 1223.67 1147.77C1223.89 1148.74 1224.39 1149.62 1224.69 1150.56C1224.98 1151.66 1225.13 1152.79 1225.13 1153.93C1225.18 1154.88 1225.1 1156.04 1224.26 1156.48C1223.89 1156.68 1223.45 1156.68 1223.06 1156.85C1222.68 1157.01 1222.35 1157.48 1222.57 1157.83C1222.75 1158.13 1223.17 1158.14 1223.52 1158.21C1223.86 1158.28 1224.24 1158.64 1224.04 1158.93C1223.96 1159.02 1223.86 1159.09 1223.74 1159.12C1223.38 1159.23 1223.05 1159.39 1222.75 1159.6C1222.6 1159.7 1222.48 1159.85 1222.41 1160.02C1222.34 1160.19 1222.31 1160.38 1222.34 1160.56C1222.36 1160.65 1222.4 1160.73 1222.46 1160.8C1222.52 1160.87 1222.59 1160.92 1222.67 1160.96C1222.75 1161 1222.84 1161.02 1222.93 1161.02C1223.02 1161.01 1223.11 1160.99 1223.19 1160.95C1223.04 1161.28 1222.95 1161.64 1222.94 1162C1224.29 1162.58 1225.81 1161.83 1227.07 1161.09C1227.62 1160.78 1228.16 1160.45 1228.66 1160.08C1229.69 1159.29 1230.5 1158.26 1231.03 1157.09C1231.57 1155.91 1231.81 1154.62 1231.73 1153.34C1231.67 1152.69 1231.57 1152.04 1231.43 1151.41C1231.24 1150.3 1230.98 1149.21 1230.65 1148.13C1230.29 1147 1229.79 1145.91 1229.37 1144.8C1228.46 1142.43 1227.87 1139.95 1227.05 1137.55C1227.04 1137.43 1227 1137.32 1226.95 1137.22C1226.89 1137.12 1226.81 1137.03 1226.72 1136.96C1226.63 1136.89 1226.52 1136.84 1226.41 1136.82C1226.3 1136.79 1226.18 1136.79 1226.07 1136.81C1225.14 1136.76 1224.22 1136.84 1223.32 1137.06C1222.77 1137.22 1221.88 1137.57 1221.64 1138.14C1221.42 1138.65 1221.79 1139.11 1222.02 1139.55C1222.78 1140.87 1223.29 1142.32 1223.5 1143.82V1143.82Z" fill="#EFB7B9"/>
<path opacity="0.1" d="M1222.63 1079.66C1222.9 1079.94 1223.13 1080.26 1223.31 1080.61C1225.12 1083.9 1225.15 1087.85 1225.23 1091.61C1225.33 1095.85 1225.56 1100.08 1225.79 1104.31L1226.48 1116.96C1226.55 1118.17 1226.62 1119.38 1226.79 1120.58C1227.6 1120.79 1227.64 1121.84 1227.54 1122.68C1226.96 1127.84 1225.51 1133.16 1227.03 1138.13C1227.08 1138.38 1227.21 1138.62 1227.38 1138.81C1226.62 1138.57 1225.79 1138.56 1225.02 1138.78C1224.26 1138.94 1223.53 1139.22 1222.78 1139.39C1221.82 1139.61 1220.73 1139.7 1220.07 1140.44C1219.33 1138.21 1218.74 1135.93 1218.3 1133.62C1217.94 1131.51 1217.85 1129.33 1216.99 1127.38C1216.64 1126.59 1216.18 1125.86 1215.76 1125.11C1213.54 1121.16 1212.46 1116.69 1211.4 1112.29C1210.92 1110.2 1210.81 1108.05 1211.06 1105.92C1211.21 1104.95 1211.3 1103.97 1211.33 1102.99C1211.26 1101.96 1211.12 1100.93 1210.92 1099.91C1210.47 1096.92 1210.68 1093.88 1211.53 1090.98C1212.33 1088.29 1213.02 1085.46 1214.69 1083.21C1216.35 1080.95 1219.83 1079.7 1222.63 1079.66Z" fill="black"/>
<path d="M1223.26 1079.25C1223.53 1079.52 1223.76 1079.84 1223.94 1080.19C1225.75 1083.48 1225.77 1087.43 1225.86 1091.2C1225.96 1095.43 1226.19 1099.66 1226.42 1103.89L1227.11 1116.55C1227.18 1117.76 1227.25 1118.97 1227.41 1120.16C1228.23 1120.37 1228.26 1121.42 1228.17 1122.26C1227.59 1127.42 1226.13 1132.74 1227.65 1137.71C1227.71 1137.96 1227.84 1138.2 1228.01 1138.4C1227.24 1138.15 1226.42 1138.14 1225.65 1138.36C1224.89 1138.52 1224.16 1138.8 1223.41 1138.97C1222.45 1139.19 1221.36 1139.29 1220.7 1140.02C1219.96 1137.79 1219.37 1135.51 1218.93 1133.2C1218.57 1131.1 1218.47 1128.91 1217.62 1126.96C1217.27 1126.17 1216.81 1125.44 1216.39 1124.69C1214.17 1120.74 1213.09 1116.27 1212.03 1111.87C1211.55 1109.78 1211.44 1107.63 1211.69 1105.5C1211.84 1104.53 1211.93 1103.55 1211.95 1102.57C1211.89 1101.54 1211.75 1100.51 1211.55 1099.49C1211.1 1096.5 1211.31 1093.46 1212.16 1090.56C1212.96 1087.87 1213.65 1085.05 1215.31 1082.79C1216.98 1080.53 1220.46 1079.28 1223.26 1079.25Z" fill="#97CAB6"/>
<g opacity="0.1">
<path opacity="0.1" d="M1221.42 1041.41C1219.85 1039.43 1217.82 1037.65 1215.34 1037.15C1213.33 1036.74 1211.24 1037.23 1209.2 1037.07C1207.38 1036.93 1205.64 1036.28 1203.84 1036.04C1202.21 1035.87 1200.56 1035.93 1198.94 1036.23C1197.41 1036.45 1195.91 1036.87 1194.48 1037.47C1193.71 1037.82 1192.97 1038.24 1192.28 1038.72C1193.55 1038.24 1194.87 1037.9 1196.22 1037.69C1197.84 1037.4 1199.49 1037.33 1201.12 1037.51C1202.92 1037.74 1204.66 1038.39 1206.47 1038.54C1208.52 1038.7 1210.61 1038.21 1212.62 1038.61C1215.1 1039.11 1217.13 1040.9 1218.7 1042.88C1220.16 1044.72 1221.38 1047.08 1220.76 1049.35C1220.43 1050.54 1219.67 1051.58 1219.46 1052.81C1219.25 1054.08 1219.21 1054.55 1218.36 1055.64C1217.28 1057.05 1215.97 1058.27 1214.49 1059.26C1214.9 1059.06 1215.31 1058.87 1215.71 1058.67C1217.81 1057.59 1219.65 1056.05 1221.09 1054.18C1221.93 1053.08 1221.97 1052.61 1222.19 1051.35C1222.39 1050.12 1223.15 1049.08 1223.48 1047.88C1224.1 1045.61 1222.88 1043.25 1221.42 1041.41Z" fill="black"/>
<path opacity="0.1" d="M1211.86 1060.96C1212.08 1060.73 1212.32 1060.52 1212.57 1060.34C1211.35 1060.93 1210.07 1061.45 1209.14 1062.42C1207.97 1063.64 1207.54 1065.4 1207.49 1067.09C1207.44 1068.78 1207.73 1070.46 1207.77 1072.15C1207.82 1074.39 1207.44 1076.63 1206.65 1078.74C1205.95 1080.6 1204.95 1082.33 1204.16 1084.16C1203.24 1086.28 1202.63 1088.52 1201.81 1090.68C1199.17 1097.5 1194.48 1103.33 1188.39 1107.37C1188.36 1107.44 1188.33 1107.52 1188.3 1107.59C1195.73 1103.6 1201.49 1097.08 1204.53 1089.22C1205.35 1087.06 1205.97 1084.81 1206.88 1082.69C1207.67 1080.86 1208.68 1079.13 1209.37 1077.27C1210.16 1075.16 1210.54 1072.93 1210.49 1070.68C1210.45 1068.99 1210.17 1067.31 1210.21 1065.63C1210.26 1063.94 1210.69 1062.18 1211.86 1060.96Z" fill="black"/>
</g>
<path d="M1492.33 1248.66C1491.72 1249.4 1490.68 1249.54 1489.74 1249.64C1488.53 1249.82 1487.29 1249.84 1486.07 1249.71C1484.62 1249.5 1483.75 1250.32 1482.42 1249.69C1481.62 1249.3 1480.38 1250.07 1479.58 1249.69C1478.48 1249.16 1474.68 1249.05 1474.01 1248.02C1473.34 1246.99 1473.41 1245.37 1474.47 1244.76C1474.77 1244.62 1475.08 1244.5 1475.39 1244.4C1477.17 1243.7 1480.76 1238.37 1482.65 1238.1C1483.58 1238.06 1484.51 1238.27 1485.33 1238.73C1487.19 1239.56 1490.47 1240.21 1491.29 1242.31C1491.92 1243.94 1493.65 1247.07 1492.33 1248.66Z" fill="#2F2E41"/>
<path d="M1505.7 1248.24C1506.3 1248.98 1507.34 1249.12 1508.29 1249.22C1509.5 1249.4 1510.74 1249.42 1511.96 1249.29C1513.41 1249.07 1515.18 1250.32 1516.51 1249.69C1517.31 1249.3 1518.55 1249.5 1519.35 1249.12C1520.45 1248.59 1525.62 1249.77 1526.29 1248.74C1526.96 1247.71 1526.9 1246.09 1525.84 1245.48C1525.54 1245.34 1525.23 1245.22 1524.91 1245.12C1523.13 1244.41 1517.27 1237.95 1515.38 1237.68C1514.45 1237.63 1513.52 1237.85 1512.7 1238.31C1510.84 1239.14 1507.55 1239.79 1506.74 1241.88C1506.11 1243.52 1504.38 1246.65 1505.7 1248.24Z" fill="#2F2E41"/>
<path d="M1511.57 1132.22C1512.15 1133.34 1512.66 1134.49 1513.09 1135.68C1518.25 1149.32 1518.68 1164.23 1518.89 1178.82C1518.88 1181.19 1519.01 1183.56 1519.3 1185.91C1519.52 1187.41 1519.86 1188.91 1519.64 1190.41C1519.45 1191.7 1518.84 1192.97 1519.08 1194.25C1519.19 1194.83 1519.47 1195.36 1519.57 1195.93C1519.66 1196.56 1519.64 1197.2 1519.52 1197.83L1518.83 1202.97C1518.44 1205.9 1517.53 1208.73 1517.58 1211.68C1517.61 1213.7 1517.65 1215.72 1517.87 1217.73C1518.1 1219.76 1518.52 1221.78 1518.54 1223.83C1518.56 1225.36 1518.35 1226.89 1518.21 1228.42C1518.02 1230.58 1517.98 1232.74 1518.08 1234.91C1518.17 1236.57 1518.36 1238.31 1519.24 1239.72C1518.25 1241.14 1517.27 1242.41 1515.68 1243.11C1512.46 1244.52 1508.76 1244.04 1505.28 1243.54C1505.47 1242.9 1505.77 1242.17 1505.49 1241.56C1505.33 1241.26 1505.13 1240.99 1504.9 1240.74C1504.14 1239.66 1503.61 1238.43 1503.35 1237.14C1502.93 1235.6 1502.5 1233.95 1503.37 1232.48C1503.67 1231.95 1503.8 1231.35 1503.75 1230.75C1503.03 1221.07 1500.87 1211.06 1502.86 1201.57C1503.07 1200.56 1503.32 1199.55 1503.44 1198.52C1503.54 1197.04 1503.56 1195.56 1503.49 1194.08L1503.45 1192.02C1503.35 1189.82 1503.43 1187.56 1502.99 1185.38C1502.68 1183.83 1502.09 1182.26 1502.81 1180.67C1502.97 1180.31 1503.05 1179.91 1503.03 1179.51C1503.01 1179.12 1502.9 1178.73 1502.71 1178.38C1501.18 1175.7 1499.95 1172.86 1499.04 1169.91C1498.85 1169.09 1498.59 1168.28 1498.27 1167.5C1497.82 1166.68 1497.31 1165.89 1496.74 1165.16C1495.01 1162.65 1493.98 1159.75 1492.97 1156.88C1493.08 1156.62 1492.99 1156.25 1492.71 1156.29C1492.43 1156.36 1492.2 1156.54 1492.05 1156.79C1490.66 1158.65 1490.54 1161.14 1490.48 1163.47C1490.38 1165.63 1490.41 1167.79 1490.59 1169.95C1490.71 1171.07 1490.91 1172.19 1491.01 1173.33C1491.14 1175.44 1491.11 1177.55 1490.91 1179.66L1490.2 1190.01C1490.1 1190.87 1490.16 1191.73 1490.35 1192.57C1490.81 1194.02 1491.03 1195.54 1491.01 1197.06C1490.82 1203.31 1491.36 1209.57 1492.62 1215.7C1492.97 1217.39 1493.37 1219.07 1493.66 1220.77C1494.35 1224.79 1494.45 1228.87 1494.54 1232.94C1494.6 1235.45 1494.64 1238.04 1493.65 1240.34C1493.27 1241.05 1492.98 1241.81 1492.81 1242.6C1492.81 1243 1492.76 1243.41 1492.65 1243.8C1492.36 1244.55 1491.49 1244.86 1490.71 1245.03C1489.25 1245.35 1487.74 1245.46 1486.24 1245.35C1485.89 1245.35 1485.55 1245.27 1485.23 1245.13C1484.67 1244.84 1484.37 1244.22 1483.95 1243.76C1483.03 1242.76 1481.51 1242.45 1480.67 1241.38C1479.63 1240.04 1480.07 1238.11 1480.69 1236.53C1481.31 1234.95 1482.08 1233.24 1481.54 1231.63C1480.91 1229.73 1478.68 1228.71 1478.08 1226.8C1479.79 1219.11 1475.59 1211.15 1475.95 1203.28C1476.03 1201.45 1476.35 1199.63 1476.36 1197.79C1476.37 1193.06 1474.33 1188.46 1474.66 1183.75C1475.52 1171.76 1471.44 1159.8 1469.71 1147.91C1469.38 1146.13 1469.26 1144.33 1469.34 1142.53C1469.6 1139.55 1470.98 1136.78 1472.64 1134.3C1473.83 1132.52 1475.26 1130.78 1477.24 1129.95C1478.86 1129.26 1480.68 1129.26 1482.44 1129.28C1486.84 1129.31 1491.24 1129.35 1495.63 1129.42C1498.63 1129.38 1501.62 1129.65 1504.55 1130.22C1506.93 1130.77 1509.16 1131.88 1511.57 1132.22Z" fill="#2F2E41"/>
<path d="M1440.52 1077.59C1440.1 1075.5 1440.9 1073.27 1440.27 1071.24C1440.04 1070.51 1439.49 1069.75 1438.72 1069.77C1437.97 1069.79 1437.47 1070.52 1436.81 1070.86C1435.75 1071.42 1434.45 1070.91 1433.39 1070.36C1432.32 1069.8 1431.14 1069.17 1429.98 1069.5C1429.85 1070.22 1430.34 1070.91 1430.87 1071.42C1431.45 1071.87 1431.94 1072.43 1432.29 1073.08C1432.47 1073.78 1432.53 1074.5 1432.49 1075.22C1432.61 1076.87 1433.66 1078.29 1434.7 1079.58C1436.39 1081.65 1438.17 1083.63 1440.06 1085.52C1440.05 1085.51 1442.92 1081.97 1442.86 1081.35C1442.81 1080.77 1441.85 1080.22 1441.5 1079.75C1441.02 1079.11 1440.69 1078.37 1440.52 1077.59V1077.59Z" fill="#A1616A"/>
<path d="M1525.78 1121.22C1526.04 1121.89 1526.23 1122.57 1526.36 1123.27C1527.09 1126.85 1527.56 1130.48 1528.02 1134.11C1528.14 1135.07 1528.26 1136.04 1528.3 1137.02C1528.43 1139.33 1527.95 1141.64 1526.92 1143.71C1525.87 1145.79 1524.08 1147.41 1521.9 1148.24C1521.23 1148.48 1520.29 1148.52 1520 1147.87C1519.89 1147.57 1519.9 1147.24 1520.01 1146.95C1520.27 1145.98 1520.81 1145.11 1521.16 1144.18C1521.68 1142.77 1521.76 1141.25 1521.41 1139.8C1521.27 1139.24 1520.98 1138.62 1520.42 1138.51C1520.7 1139.79 1520.46 1141.13 1519.76 1142.24C1519.6 1142.55 1519.33 1142.78 1519 1142.89C1518.76 1142.91 1518.53 1142.85 1518.34 1142.73C1518.14 1142.6 1517.99 1142.41 1517.92 1142.19C1517.78 1141.74 1517.75 1141.27 1517.83 1140.81C1518.01 1138.49 1518.37 1136.18 1518.89 1133.9C1519.52 1131.41 1520.51 1128.95 1520.44 1126.37C1520.39 1124.04 1519.46 1121.76 1519.72 1119.44C1519.72 1119.3 1519.77 1119.16 1519.85 1119.04C1519.93 1118.96 1520.03 1118.9 1520.14 1118.86C1520.79 1118.59 1521.46 1118.37 1522.14 1118.2C1522.55 1118.1 1523.92 1117.62 1524.31 1117.83C1524.62 1118.01 1524.72 1119.04 1524.88 1119.4C1525.15 1120.02 1525.52 1120.59 1525.78 1121.22Z" fill="#A1616A"/>
<path d="M1479.8 1052.19C1485.05 1052.19 1489.32 1047.93 1489.32 1042.67C1489.32 1037.42 1485.05 1033.16 1479.8 1033.16C1474.54 1033.16 1470.28 1037.42 1470.28 1042.67C1470.28 1047.93 1474.54 1052.19 1479.8 1052.19Z" fill="#A1616A"/>
<path d="M1488.33 1049.56C1488.32 1050.17 1488.37 1050.77 1488.47 1051.37C1488.6 1051.98 1488.79 1052.57 1489.02 1053.14C1489.34 1054.07 1489.79 1054.95 1490.36 1055.76C1490.93 1056.56 1491.79 1057.13 1492.77 1057.32C1486.26 1060.37 1479.32 1062.38 1472.19 1063.27C1473.31 1062.52 1474.25 1061.53 1474.92 1060.36C1475.28 1059.61 1475.52 1058.81 1475.64 1057.98C1476.25 1054.54 1475.94 1051.01 1474.75 1047.72C1474.63 1047.4 1474.52 1047 1474.74 1046.74C1474.83 1046.64 1474.95 1046.57 1475.08 1046.52C1477.9 1045.32 1480.95 1044.75 1484.02 1044.85C1484.81 1044.86 1485.59 1044.89 1486.37 1044.95C1486.79 1044.98 1487.72 1044.89 1488.06 1045.2C1488.45 1045.57 1488.25 1046.71 1488.27 1047.2L1488.33 1049.56Z" fill="#A1616A"/>
<path d="M1493.36 1056.48C1491.96 1054.69 1490 1053.42 1487.79 1052.87C1485.59 1052.32 1483.26 1052.52 1481.18 1053.45C1476.65 1055.61 1474.42 1060.8 1470.44 1063.86C1469.53 1064.53 1468.57 1065.13 1467.55 1065.63C1466.95 1065.96 1466.32 1066.22 1465.65 1066.38C1464.91 1066.55 1464.13 1066.52 1463.39 1066.7C1461.98 1067.12 1460.78 1068.05 1460.02 1069.32C1459.65 1069.98 1459.24 1070.62 1458.78 1071.23C1458.37 1071.72 1457.85 1072.12 1457.41 1072.59C1455.83 1074.3 1455.4 1076.74 1455.04 1079.04C1453.8 1080.34 1452.44 1081.53 1450.99 1082.6C1450.54 1082.95 1450.03 1083.23 1449.49 1083.43C1448.1 1083.88 1446.56 1083.31 1445.38 1082.45C1444.19 1081.59 1443.22 1080.46 1442.05 1079.58C1440.97 1081.12 1439.85 1082.66 1438.7 1084.15C1438.53 1084.43 1438.27 1084.65 1437.95 1084.76C1437.74 1085.49 1438.26 1086.24 1438.64 1086.89L1440.72 1090.37C1441.4 1091.64 1442.24 1092.82 1443.22 1093.88C1444.21 1094.95 1445.57 1095.61 1447.02 1095.73C1447.93 1095.72 1448.84 1095.55 1449.7 1095.22C1453.65 1093.89 1457.28 1091.76 1461.04 1089.96C1461.72 1089.57 1462.49 1089.35 1463.27 1089.31C1463.66 1089.3 1464.05 1089.42 1464.36 1089.64C1464.68 1089.87 1464.92 1090.2 1465.03 1090.57C1465.46 1092.75 1465.89 1094.92 1466.48 1097.06C1467.04 1099.08 1467.56 1101.11 1468.04 1103.15C1468.36 1104.4 1468.59 1105.67 1468.73 1106.95C1468.79 1107.67 1468.8 1108.4 1468.8 1109.13L1468.88 1117.96C1468.89 1118.91 1468.35 1119.5 1467.93 1120.35C1467.29 1121.68 1467.2 1123.2 1467.66 1124.59C1467.9 1125.28 1468.26 1125.91 1468.52 1126.59C1469.15 1128.23 1469.13 1130.04 1469.09 1131.8L1469.02 1135.82C1469 1135.99 1469.03 1136.16 1469.11 1136.31C1469.35 1136.69 1469.94 1136.47 1470.32 1136.21L1472.2 1134.9C1474.72 1135.25 1477.26 1135.37 1479.8 1135.27C1487.03 1135.17 1494.25 1135.45 1501.46 1135.96C1503.86 1136.13 1506.35 1136.31 1508.62 1135.51C1509.78 1135.1 1510.84 1134.45 1512.02 1134.12C1512.5 1134.05 1512.97 1133.86 1513.37 1133.57C1514.03 1132.96 1513.85 1131.89 1513.58 1131.03C1513.35 1130.28 1513.08 1129.54 1512.78 1128.81C1512.47 1128.14 1512.22 1127.45 1512.03 1126.74C1511.67 1125.13 1512.02 1123.28 1511.02 1121.97C1508.78 1119.04 1510.37 1114.54 1509.43 1110.98C1509.12 1109.82 1508.67 1108.71 1508.39 1107.56C1508.21 1106.83 1508.1 1106.09 1507.98 1105.35C1507.69 1103.75 1507.54 1102.12 1507.55 1100.5C1507.58 1099.68 1507.68 1098.87 1507.78 1098.07L1508.49 1092.45C1509.38 1094.11 1510 1095.9 1510.32 1097.76C1510.97 1100.53 1511.76 1103.26 1512.71 1105.95C1513.24 1107.56 1513.78 1109.18 1514.36 1110.79C1514.72 1111.7 1515.01 1112.64 1515.2 1113.61C1515.33 1114.38 1515.33 1115.18 1515.42 1115.96C1515.62 1117.64 1516.2 1119.25 1517.14 1120.66C1517.31 1120.99 1517.59 1121.24 1517.94 1121.37C1518.17 1121.41 1518.41 1121.4 1518.64 1121.34C1521.15 1120.85 1523.58 1120.01 1525.87 1118.84C1526.35 1118.64 1526.77 1118.31 1527.09 1117.89C1527.7 1116.89 1527.01 1115.64 1526.72 1114.51C1526.4 1113.3 1526.47 1111.83 1525.51 1111.02C1522.18 1108.18 1523.83 1102.43 1522.17 1098.38C1521.87 1097.67 1521.53 1096.98 1521.28 1096.26C1521.09 1095.7 1520.95 1095.13 1520.81 1094.56C1519.64 1089.85 1518.4 1085.16 1517.07 1080.49C1515.69 1075.65 1515.84 1070.6 1514.11 1065.88C1513.78 1064.89 1513.35 1063.93 1512.84 1063.03C1512.25 1062.09 1511.47 1061.28 1510.54 1060.66C1508.02 1059 1505.48 1057.58 1502.53 1056.98C1499.57 1056.38 1496.38 1056.47 1493.36 1056.48Z" fill="#D0CDE1"/>
<path d="M1471.15 1045C1469.87 1044.31 1470.21 1042.44 1469.99 1041.01C1469.55 1038.05 1466.21 1036.3 1465.42 1033.41C1466.32 1033.52 1467.24 1033.39 1468.07 1033.04C1468.23 1032.08 1468.04 1031.1 1467.54 1030.27C1470.28 1029.15 1472.51 1026.96 1475.3 1025.96C1478.8 1024.69 1482.71 1025.47 1486.25 1026.64C1488.01 1027.23 1489.85 1027.99 1490.92 1029.52C1492.09 1031.19 1492.07 1033.39 1492.01 1035.43C1491.91 1038.64 1491.78 1041.96 1490.36 1044.83C1488.54 1048.48 1483.4 1051.86 1479.15 1050.87C1477.39 1050.46 1476.87 1049.35 1476.12 1047.82C1475.66 1046.86 1475.49 1045.75 1474.44 1045.26C1473.42 1044.77 1472.19 1045.56 1471.15 1045Z" fill="#2F2E41"/>
<g opacity="0.1">
<path opacity="0.1" d="M1509.74 1113.23C1509.75 1113.48 1509.76 1113.74 1509.76 1113.99C1509.75 1113.74 1509.74 1113.48 1509.74 1113.23Z" fill="black"/>
<path opacity="0.1" d="M1468.52 1122.79C1469.15 1124.43 1469.13 1126.24 1469.09 1127.99C1469.09 1128.45 1469.08 1128.91 1469.07 1129.37C1469.03 1128.42 1468.84 1127.49 1468.52 1126.59C1468.26 1125.91 1467.9 1125.28 1467.66 1124.59C1467.26 1123.39 1467.28 1122.09 1467.71 1120.89C1467.94 1121.54 1468.28 1122.14 1468.52 1122.79Z" fill="black"/>
</g>
<g opacity="0.1">
<path opacity="0.1" d="M1468.07 1031.65L1468.06 1031.66C1467.98 1031.17 1467.8 1030.69 1467.54 1030.27C1467.7 1030.2 1467.86 1030.13 1468.02 1030.06C1468.14 1030.58 1468.16 1031.12 1468.07 1031.65V1031.65Z" fill="black"/>
</g>
<path d="M1168.21 1012.26L1165.97 1010.23C1158.01 1002.92 1152.75 998.175 1152.75 992.263C1152.73 991.138 1152.94 990.021 1153.36 988.977C1153.78 987.933 1154.4 986.984 1155.19 986.187C1155.99 985.389 1156.93 984.758 1157.97 984.332C1159.01 983.906 1160.13 983.693 1161.25 983.706C1162.58 983.713 1163.89 984.009 1165.09 984.573C1166.3 985.137 1167.36 985.956 1168.21 986.973C1169.07 985.956 1170.13 985.137 1171.33 984.573C1172.54 984.009 1173.85 983.713 1175.17 983.706C1176.3 983.693 1177.41 983.906 1178.46 984.332C1179.5 984.758 1180.44 985.389 1181.23 986.187C1182.03 986.984 1182.65 987.933 1183.07 988.977C1183.49 990.021 1183.7 991.138 1183.68 992.263C1183.68 998.175 1178.42 1002.92 1170.46 1010.23L1168.21 1012.26Z" fill="#2A5D49"/>
<path d="M1172.19 1007.14L1169.95 1005.12C1161.98 997.808 1156.73 993.062 1156.73 987.15C1156.71 986.025 1156.91 984.908 1157.33 983.864C1157.75 982.82 1158.38 981.871 1159.17 981.073C1159.96 980.275 1160.91 979.645 1161.95 979.218C1162.99 978.792 1164.11 978.579 1165.23 978.592C1166.56 978.599 1167.87 978.895 1169.07 979.46C1170.27 980.024 1171.34 980.843 1172.19 981.86C1173.04 980.843 1174.11 980.024 1175.31 979.46C1176.51 978.895 1177.82 978.599 1179.15 978.592C1180.28 978.579 1181.39 978.792 1182.43 979.218C1183.47 979.645 1184.42 980.275 1185.21 981.073C1186.01 981.871 1186.63 982.82 1187.05 983.864C1187.47 984.908 1187.68 986.025 1187.66 987.15C1187.66 993.062 1182.4 997.808 1174.43 1005.12L1172.19 1007.14Z" stroke="#3F3D56" stroke-width="2" stroke-miterlimit="10"/>
<g clip-path="url(#clip5)">
<path d="M1331.6 907.1V911.274H1328.01V922.87H1322.69V911.274H1320.34V907.1H1322.69V906.296C1322.69 905.1 1322.96 904.044 1323.49 903.127C1324.03 902.209 1324.76 901.483 1325.69 900.947C1326.62 900.411 1327.67 900.143 1328.84 900.143C1329.63 900.143 1330.3 900.215 1330.87 900.359C1331.44 900.503 1331.93 900.689 1332.34 900.916V905.245C1331.7 904.894 1330.93 904.719 1330.02 904.719C1329.54 904.719 1329.09 904.868 1328.66 905.167C1328.23 905.466 1328.01 905.915 1328.01 906.512V907.1H1331.6Z" fill="#97CAB6"/>
<path d="M1342.08 906.172C1342.9 906.172 1343.71 906.353 1344.51 906.713C1345.3 907.074 1345.95 907.533 1346.47 908.089V906.636H1351.79V922.406H1346.47V919.778C1346.08 920.644 1345.48 921.375 1344.68 921.973C1343.87 922.571 1342.9 922.87 1341.77 922.87C1340.59 922.87 1339.49 922.571 1338.46 921.973C1337.43 921.375 1336.59 920.453 1335.94 919.206C1335.29 917.959 1334.97 916.387 1334.97 914.49C1334.97 912.717 1335.29 911.213 1335.94 909.976C1336.59 908.739 1337.46 907.796 1338.54 907.146C1339.62 906.497 1340.8 906.172 1342.08 906.172ZM1343.19 911.367C1342.43 911.367 1341.79 911.676 1341.29 912.295C1340.78 912.913 1340.53 913.645 1340.53 914.49C1340.53 915.335 1340.79 916.047 1341.3 916.624C1341.82 917.201 1342.5 917.49 1343.35 917.49C1343.8 917.49 1344.26 917.371 1344.74 917.134C1345.21 916.897 1345.62 916.536 1345.96 916.052C1346.3 915.567 1346.47 914.944 1346.47 914.181V912.666C1346.02 912.295 1345.5 911.986 1344.94 911.738C1344.37 911.491 1343.79 911.367 1343.19 911.367Z" fill="#97CAB6"/>
<path d="M1362.73 906.172C1363.95 906.172 1364.88 906.363 1365.53 906.744C1366.18 907.126 1366.77 907.523 1367.31 907.935V912.573C1366.84 912.223 1366.29 911.944 1365.69 911.738C1365.08 911.532 1364.33 911.429 1363.44 911.429C1362.97 911.429 1362.48 911.553 1361.96 911.8C1361.44 912.047 1361.01 912.403 1360.66 912.867C1360.31 913.331 1360.14 913.913 1360.14 914.614C1360.14 915.645 1360.47 916.428 1361.13 916.964C1361.78 917.5 1362.56 917.768 1363.44 917.768C1364.33 917.768 1365.08 917.66 1365.69 917.443C1366.29 917.227 1366.84 916.954 1367.31 916.624V921.262C1366.77 921.674 1366.18 922.045 1365.53 922.375C1364.88 922.705 1363.95 922.87 1362.73 922.87C1361.56 922.87 1360.47 922.648 1359.46 922.205C1358.45 921.762 1357.56 921.154 1356.81 920.381C1356.06 919.608 1355.47 918.726 1355.05 917.737C1354.63 916.747 1354.42 915.706 1354.42 914.614C1354.42 913.521 1354.63 912.47 1355.05 911.46C1355.47 910.45 1356.06 909.548 1356.81 908.754C1357.56 907.961 1358.45 907.332 1359.46 906.868C1360.47 906.404 1361.56 906.172 1362.73 906.172Z" fill="#97CAB6"/>
<path d="M1378.32 906.172C1379.8 906.172 1381.12 906.502 1382.28 907.162C1383.43 907.822 1384.33 908.744 1384.98 909.929C1385.63 911.115 1385.96 912.522 1385.96 914.15V915.974H1375.23C1375.45 916.737 1375.91 917.304 1376.59 917.675C1377.27 918.046 1378.05 918.232 1378.94 918.232C1380.13 918.232 1381.17 918.062 1382.04 917.722C1382.92 917.381 1383.57 917.088 1384.01 916.84V921.386C1383.47 921.716 1382.73 922.045 1381.8 922.375C1380.86 922.705 1379.8 922.87 1378.63 922.87C1377.51 922.87 1376.44 922.684 1375.4 922.313C1374.35 921.942 1373.42 921.406 1372.6 920.705C1371.77 920.005 1371.12 919.154 1370.65 918.154C1370.17 917.155 1369.94 916.026 1369.94 914.769C1369.94 913.202 1370.3 911.769 1371.04 910.47C1371.77 909.172 1372.77 908.131 1374.04 907.347C1375.3 906.564 1376.73 906.172 1378.32 906.172ZM1378.16 910.563C1377.48 910.563 1376.9 910.744 1376.4 911.104C1375.91 911.465 1375.55 912.017 1375.32 912.759H1380.92C1380.92 912.017 1380.63 911.465 1380.06 911.104C1379.5 910.744 1378.86 910.563 1378.16 910.563Z" fill="#97CAB6"/>
<path d="M1401.35 917.768V922.87H1388.58V917.768H1392.08V907.254H1388.58V902.152H1401.35V907.254H1397.86V917.768H1401.35Z" fill="#97CAB6"/>
<path d="M1411.96 901.998V906.636H1416.1V910.811H1411.96V915.232C1411.96 915.995 1412.12 916.598 1412.44 917.041C1412.76 917.485 1413.21 917.706 1413.78 917.706C1414.69 917.706 1415.53 917.479 1416.29 917.026V921.169C1415.96 921.623 1415.44 922.02 1414.73 922.36C1414.02 922.7 1413.15 922.87 1412.12 922.87C1411.13 922.87 1410.22 922.643 1409.39 922.19C1408.57 921.736 1407.9 921.087 1407.4 920.242C1406.89 919.397 1406.64 918.376 1406.64 917.18V910.811H1403.98V907.564C1404.99 907.296 1405.99 906.714 1406.97 905.817C1407.95 904.92 1408.66 903.647 1409.12 901.998H1411.96V901.998Z" fill="#97CAB6"/>
</g>
<path d="M1350.31 1021.39C1348.38 1021.39 1346.72 1019.69 1346.72 1017.8C1346.72 1012.28 1341.68 1007.72 1335.44 1007.72C1329.18 1007.72 1324.15 1012.28 1324.15 1017.8C1324.15 1019.73 1322.45 1021.39 1320.56 1021.39C1318.66 1021.39 1316.97 1019.69 1316.97 1017.8C1316.97 1008.21 1325.35 1000.5 1335.44 1000.5C1345.51 1000.5 1353.91 1008.41 1353.91 1017.8C1353.91 1019.94 1352.49 1021.39 1350.31 1021.39V1021.39Z" fill="#2A5D49"/>
<path d="M1416.07 1021.39C1414.14 1021.39 1412.48 1019.69 1412.48 1017.8C1412.48 1012.28 1407.44 1007.72 1401.19 1007.72C1394.94 1007.72 1389.91 1012.28 1389.91 1017.8C1389.91 1019.73 1388.21 1021.39 1386.32 1021.39C1384.42 1021.39 1382.72 1019.94 1382.72 1017.8C1382.72 1008.21 1391.11 1000.5 1401.19 1000.5C1411.27 1000.5 1419.66 1008.16 1419.66 1017.8C1419.65 1019.94 1418 1021.39 1416.07 1021.39V1021.39Z" fill="#2A5D49"/>
<path d="M1367.12 1075.85C1359.66 1075.85 1353.46 1074.4 1349.83 1072.51C1348.13 1071.54 1347.41 1069.4 1348.37 1067.71C1349.34 1066.01 1351.48 1065.29 1353.17 1066.25C1362.29 1071.05 1391.8 1072.02 1407.16 1045.61C1408.12 1043.91 1410.26 1043.19 1412.2 1044.4C1413.9 1045.36 1414.62 1047.5 1413.41 1049.44C1401.2 1069.65 1382 1075.85 1367.12 1075.85L1367.12 1075.85Z" fill="#2A5D49"/>
</g>
<path d="M1492.99 466.86H1493.75V505.974C1493.75 511.158 1497.99 515.4 1503.17 515.4H1531.83C1537.01 515.4 1541.25 511.158 1541.25 505.974V466.86H1542C1544.64 466.86 1546.72 464.787 1546.72 462.147V454.419C1546.72 451.78 1544.64 449.707 1542 449.707H1530.32V446.783C1530.32 443.956 1527.96 441.6 1525.14 441.6H1509.86C1507.04 441.6 1504.68 443.956 1504.68 446.783V449.707H1492.99C1490.36 449.707 1488.28 451.78 1488.28 454.419V462.147C1488.28 464.691 1490.45 466.86 1492.99 466.86H1492.99ZM1537.48 505.974C1537.48 509.085 1534.94 511.63 1531.83 511.63H1503.17C1500.06 511.63 1497.52 509.085 1497.52 505.974V466.86H1537.48V505.974ZM1508.45 446.783C1508.45 446.029 1509.11 445.369 1509.86 445.369H1525.04C1525.79 445.369 1526.45 446.029 1526.45 446.783V449.707H1508.45V446.783ZM1492.05 454.419C1492.05 453.852 1492.43 453.477 1492.99 453.477H1542.01C1542.57 453.477 1542.95 453.852 1542.95 454.419V462.147C1542.95 462.714 1542.57 463.09 1542.01 463.09H1492.99C1492.43 463.09 1492.05 462.714 1492.05 462.147V454.419Z" fill="#2A5D49"/>
<path d="M1525.32 474.967H1529.09V502.488H1525.32V474.967Z" fill="#2A5D49"/>
<path d="M1515.61 474.967H1519.38V502.488H1515.61V474.967Z" fill="#2A5D49"/>
<path d="M1505.91 474.967H1509.68V502.488H1505.91V474.967Z" fill="#2A5D49"/>
<g clip-path="url(#clip6)">
<path d="M322.142 172.225V208.959H290.578V311H243.775V208.959H223.095V172.225H243.775V165.15C243.775 154.628 246.131 145.331 250.85 137.259C255.565 129.186 262.007 122.791 270.17 118.075C278.333 113.358 287.585 111 297.925 111C304.817 111 310.757 111.635 315.748 112.905C320.735 114.175 325.042 115.807 328.673 117.803V155.898C323.048 152.814 316.246 151.272 308.265 151.272C304.09 151.272 300.102 152.587 296.292 155.218C292.483 157.848 290.578 161.794 290.578 167.054V172.225H322.142Z" fill="#97CAB6"/>
<path d="M414.387 164.062C421.641 164.062 428.762 165.649 435.748 168.823C442.729 171.998 448.49 176.034 453.027 180.932V168.143H499.829V306.919H453.027V283.789C449.579 291.408 444.319 297.848 437.244 303.109C430.169 308.37 421.641 311 411.666 311C401.326 311 391.619 308.37 382.55 303.109C373.477 297.848 366.088 289.73 360.374 278.755C354.66 267.78 351.802 253.948 351.802 237.259C351.802 221.658 354.66 208.415 360.374 197.531C366.088 186.646 373.707 178.347 383.231 172.633C392.754 166.919 403.137 164.062 414.387 164.062ZM424.183 209.776C417.47 209.776 411.892 212.497 407.449 217.939C403.001 223.381 400.782 229.821 400.782 237.259C400.782 244.696 403.048 250.955 407.585 256.034C412.117 261.114 418.103 263.653 425.544 263.653C429.532 263.653 433.613 262.61 437.789 260.524C441.96 258.438 445.544 255.263 448.537 251C451.53 246.737 453.027 241.25 453.027 234.538V221.204C449.034 217.939 444.544 215.218 439.557 213.041C434.566 210.864 429.443 209.776 424.183 209.776Z" fill="#97CAB6"/>
<path d="M596.157 164.062C606.858 164.062 615.068 165.74 620.783 169.096C626.497 172.452 631.709 175.944 636.429 179.572V220.388C632.254 217.304 627.492 214.855 622.143 213.041C616.79 211.227 610.213 210.32 602.415 210.32C598.24 210.32 593.886 211.408 589.354 213.585C584.818 215.762 581.008 218.891 577.925 222.973C574.839 227.054 573.3 232.179 573.3 238.347C573.3 247.417 576.199 254.311 582.007 259.027C587.811 263.744 594.613 266.102 602.415 266.102C610.213 266.102 616.79 265.15 622.143 263.245C627.492 261.34 632.254 258.936 636.429 256.034V296.85C631.709 300.478 626.497 303.744 620.783 306.646C615.068 309.549 606.858 311 596.157 311C585.817 311 576.199 309.05 567.313 305.15C558.423 301.249 550.668 295.898 544.048 289.095C537.424 282.292 532.254 274.537 528.538 265.83C524.817 257.122 522.959 247.961 522.959 238.347C522.959 228.733 524.817 219.481 528.538 210.592C532.253 201.703 537.424 193.767 544.048 186.782C550.668 179.798 558.423 174.266 567.313 170.184C576.199 166.102 585.816 164.062 596.157 164.062Z" fill="#97CAB6"/>
<path d="M733.299 164.062C746.361 164.062 757.968 166.964 768.129 172.769C778.287 178.574 786.225 186.692 791.939 197.123C797.653 207.554 800.51 219.935 800.51 234.266V250.32H706.088C708.082 257.032 712.075 262.021 718.061 265.286C724.047 268.551 730.939 270.184 738.741 270.184C749.26 270.184 758.376 268.687 766.088 265.694C773.796 262.701 779.557 260.116 783.367 257.939V297.939C778.647 300.842 772.164 303.744 763.911 306.647C755.654 309.549 746.36 311 736.02 311C726.224 311 716.743 309.368 707.585 306.102C698.422 302.837 690.212 298.121 682.959 291.953C675.701 285.785 669.987 278.302 665.816 269.504C661.641 260.705 659.557 250.773 659.557 239.708C659.557 225.921 662.776 213.313 669.217 201.885C675.654 190.456 684.455 181.295 695.612 174.402C706.768 167.508 719.328 164.062 733.299 164.062ZM731.939 202.701C725.952 202.701 720.782 204.288 716.428 207.463C712.075 210.638 708.899 215.49 706.905 222.021H756.156C756.156 215.49 753.661 210.638 748.673 207.463C743.682 204.288 738.104 202.701 731.939 202.701Z" fill="#97CAB6"/>
<path d="M936.02 266.103V311.001H823.639V266.103H854.388V173.586H823.639V128.688H936.02V173.586H905.272V266.103H936.02Z" fill="#97CAB6"/>
<path d="M1029.35 127.326V168.142H1065.82V204.877H1029.35V243.788C1029.35 250.5 1030.76 255.806 1033.57 259.707C1036.38 263.607 1040.33 265.557 1045.41 265.557C1053.39 265.557 1060.74 263.561 1067.45 259.571V296.033C1064.55 300.024 1059.97 303.516 1053.71 306.509C1047.45 309.502 1039.78 310.999 1030.71 310.999C1022.01 310.999 1014.02 309.004 1006.77 305.013C999.511 301.022 993.661 295.307 989.218 287.87C984.77 280.432 982.551 271.453 982.551 260.931V204.877H959.15V176.305C968.036 173.947 976.79 168.822 985.408 160.931C994.022 153.04 1000.33 141.838 1004.32 127.326H1029.35V127.326Z" fill="#97CAB6"/>
</g>
<defs>
<clipPath id="clip0">
<rect width="355.89" height="400" fill="white" transform="translate(126.095 851)"/>
</clipPath>
<clipPath id="clip1">
<rect width="12.7348" height="12.7348" fill="white" transform="translate(291.879 1068.36) rotate(-26.4802)"/>
</clipPath>
<clipPath id="clip2">
<rect width="44" height="44" fill="white" transform="translate(212.035 1004.66) rotate(-60.2101)"/>
</clipPath>
<clipPath id="clip3">
<rect width="400.997" height="400" fill="white" transform="translate(565.095 851)"/>
</clipPath>
<clipPath id="clip4">
<rect width="432.386" height="400" fill="white" transform="translate(1146.5 851)"/>
</clipPath>
<clipPath id="clip5">
<rect width="95.9493" height="22.7273" fill="white" transform="translate(1320.34 900.143)"/>
</clipPath>
<clipPath id="clip6">
<rect width="844.354" height="200" fill="white" transform="translate(223.095 111)"/>
</clipPath>
</defs>
</svg>
