<svg width="410" height="81" viewBox="0 0 410 81" fill="none" xmlns="http://www.w3.org/2000/svg">
<path d="M358.989 30.6459C357.861 30.6459 356.892 29.655 356.892 28.5491C356.892 25.3244 353.947 22.6638 350.301 22.6638C346.649 22.6638 343.709 25.3244 343.709 28.5491C343.709 29.6769 342.718 30.6459 341.612 30.6459C340.507 30.6459 339.516 29.655 339.516 28.5491C339.516 22.9484 344.41 18.4482 350.301 18.4482C356.186 18.4482 361.086 23.0635 361.086 28.5491C361.086 29.7973 360.259 30.6459 358.989 30.6459V30.6459Z" fill="#2A5D49"/>
<path d="M397.389 30.6459C396.261 30.6459 395.292 29.655 395.292 28.5491C395.292 25.3244 392.346 22.6638 388.7 22.6638C385.049 22.6638 382.109 25.3244 382.109 28.5491C382.109 29.6769 381.118 30.6459 380.012 30.6459C378.906 30.6459 377.915 29.7973 377.915 28.5491C377.915 22.9484 382.809 18.4482 388.7 18.4482C394.586 18.4482 399.485 22.9211 399.485 28.5491C399.48 29.7973 398.516 30.6459 397.389 30.6459V30.6459Z" fill="#2A5D49"/>
<path d="M368.806 62.4479C364.448 62.4479 360.824 61.5993 358.705 60.4935C357.714 59.9296 357.292 58.6813 357.856 57.6904C358.42 56.6996 359.668 56.278 360.659 56.8418C365.981 59.6449 383.216 60.2087 392.183 44.7864C392.746 43.7955 393.995 43.374 395.128 44.0802C396.119 44.6441 396.54 45.8924 395.834 47.0257C388.701 58.8237 377.494 62.4481 368.806 62.4481L368.806 62.4479Z" fill="#2A5D49"/>
<path d="M34.1875 26.3857V39.042H23.3125V74.1982H7.1875V39.042H0.0625V26.3857H7.1875V23.9482C7.1875 20.3232 8 17.1357 9.625 14.3857C11.25 11.5732 13.4688 9.35449 16.2812 7.72949C19.0938 6.10449 22.2812 5.29199 25.8438 5.29199C28.2188 5.29199 30.25 5.51074 31.9375 5.94824C33.6875 6.38574 35.1875 6.94824 36.4375 7.63574V20.7607C34.5 19.6982 32.1562 19.167 29.4062 19.167C27.9688 19.167 26.5938 19.6357 25.2812 20.5732C23.9688 21.4482 23.3125 22.792 23.3125 24.6045V26.3857H34.1875Z" fill="#97CAB6"/>
<path d="M60.25 24.9795C62.75 24.9795 65.1875 25.542 67.5625 26.667C70 27.7295 72 29.1045 73.5625 30.792V26.3857H89.6875V74.1982H73.5625V66.2295C72.375 68.8545 70.5625 71.0732 68.125 72.8857C65.6875 74.6982 62.75 75.6045 59.3125 75.6045C55.75 75.6045 52.4062 74.6982 49.2812 72.8857C46.1562 71.0732 43.5938 68.292 41.5938 64.542C39.6562 60.7295 38.6875 55.9482 38.6875 50.1982C38.6875 44.8232 39.6562 40.2607 41.5938 36.5107C43.5938 32.7607 46.2188 29.917 49.4688 27.9795C52.7812 25.9795 56.375 24.9795 60.25 24.9795ZM63.625 40.7295C61.3125 40.7295 59.375 41.667 57.8125 43.542C56.3125 45.417 55.5625 47.6357 55.5625 50.1982C55.5625 52.7607 56.3438 54.917 57.9062 56.667C59.4688 58.417 61.5312 59.292 64.0938 59.292C65.4688 59.292 66.875 58.9482 68.3125 58.2607C69.75 57.5107 70.9688 56.417 71.9688 54.9795C73.0312 53.4795 73.5625 51.5732 73.5625 49.2607V44.667C72.1875 43.542 70.625 42.6045 68.875 41.8545C67.1875 41.1045 65.4375 40.7295 63.625 40.7295Z" fill="#97CAB6"/>
<path d="M123.25 24.9795C126.938 24.9795 129.75 25.5732 131.688 26.7607C133.688 27.8857 135.5 29.0732 137.125 30.3232V44.3857C135.688 43.3232 134.031 42.4795 132.156 41.8545C130.344 41.2295 128.094 40.917 125.406 40.917C123.969 40.917 122.469 41.292 120.906 42.042C119.344 42.792 118.031 43.8857 116.969 45.3232C115.906 46.6982 115.375 48.4482 115.375 50.5732C115.375 53.6982 116.375 56.0732 118.375 57.6982C120.375 59.3232 122.719 60.1357 125.406 60.1357C128.094 60.1357 130.344 59.8232 132.156 59.1982C134.031 58.5107 135.688 57.667 137.125 56.667V70.7295C135.5 71.9795 133.688 73.1045 131.688 74.1045C129.75 75.1045 126.938 75.6045 123.25 75.6045C119.688 75.6045 116.375 74.9482 113.312 73.6357C110.25 72.2607 107.562 70.417 105.25 68.1045C103 65.7295 101.219 63.042 99.9062 60.042C98.6562 57.042 98.0312 53.8857 98.0312 50.5732C98.0312 47.2607 98.6562 44.0732 99.9062 41.0107C101.219 37.9482 103 35.2295 105.25 32.8545C107.562 30.417 110.25 28.5107 113.312 27.1357C116.375 25.6982 119.688 24.9795 123.25 24.9795Z" fill="#97CAB6"/>
<path d="M166.188 24.9795C170.688 24.9795 174.688 25.9795 178.188 27.9795C181.688 29.9795 184.406 32.792 186.344 36.417C188.344 39.9795 189.344 44.2295 189.344 49.167V54.6982H156.812C157.5 57.0107 158.875 58.7295 160.938 59.8545C163 60.9795 165.375 61.542 168.062 61.542C171.688 61.542 174.812 61.042 177.438 60.042C180.125 58.9795 182.125 58.0732 183.438 57.3232V71.1045C181.812 72.1045 179.562 73.1045 176.688 74.1045C173.875 75.1045 170.688 75.6045 167.125 75.6045C163.75 75.6045 160.469 75.042 157.281 73.917C154.156 72.792 151.344 71.167 148.844 69.042C146.344 66.917 144.375 64.3545 142.938 61.3545C141.5 58.292 140.781 54.8545 140.781 51.042C140.781 46.292 141.875 41.9482 144.062 38.0107C146.312 34.0732 149.344 30.917 153.156 28.542C157.031 26.167 161.375 24.9795 166.188 24.9795ZM165.719 38.292C163.656 38.292 161.875 38.8545 160.375 39.9795C158.875 41.042 157.781 42.6982 157.094 44.9482H174.062C174.062 42.6982 173.188 41.042 171.438 39.9795C169.75 38.8545 167.844 38.292 165.719 38.292Z" fill="#97CAB6"/>
<path d="M236.406 58.7295V74.1982H197.688V58.7295H208.281V26.8545H197.688V11.3857H236.406V26.8545H225.812V58.7295H236.406Z" fill="#97CAB6"/>
<path d="M270.344 12.3232V26.3857H282.906V39.042H270.344V52.4482C270.344 54.7607 270.812 56.6045 271.75 57.9795C272.75 59.292 274.125 59.9482 275.875 59.9482C278.625 59.9482 281.156 59.2607 283.469 57.8857V70.4482C282.469 71.8232 280.875 73.042 278.688 74.1045C276.562 75.1045 273.938 75.6045 270.812 75.6045C267.812 75.6045 265.062 74.917 262.562 73.542C260.062 72.167 258.031 70.1982 256.469 67.6357C254.969 65.0732 254.219 61.9795 254.219 58.3545V39.042H246.156V29.1982C249.219 28.3857 252.219 26.6357 255.156 23.9482C258.156 21.1982 260.344 17.3232 261.719 12.3232H270.344Z" fill="#97CAB6"/>
</svg>
