<?xml version="1.0" encoding="UTF-8"?>
<svg fill="#FFFFFF" width="100pt" height="100pt" version="1.1" viewBox="0 0 100 100" xmlns="http://www.w3.org/2000/svg">
 <path d="m5.1562 38.75 18.281 7.1875v18.125c0 2.1875 1.25 4.2188 3.2812 5.1562 6.0938 2.6562 14.375 4.2188 23.281 4.2188s17.188-1.5625 23.281-4.2188c2.0312-0.9375 3.2812-2.8125 3.2812-5.1562v-18.125l10.938-4.2188v27.344c-1.875 0.625-3.125 2.3438-3.125 4.375 0 1.25 0.46875 2.3438 1.25 3.125l-2.3438 13.594c-0.15625 1.25 0.3125 2.3438 1.25 3.125 0.46875 0.3125 1.0938 0.625 1.7188 0.625 0.46875 0 1.0938-0.15625 1.5625-0.46875l6.875-3.9062c1.4062-0.78125 1.875-2.5 1.25-3.9062l-3.75-8.9062c0.78125-0.78125 1.4062-2.0312 1.4062-3.2812 0-2.0312-1.25-3.75-3.125-4.375v-28.594l4.2188-1.7188c1.25-0.46875 1.875-1.5625 2.0312-2.8125 0-1.25-0.78125-2.3438-1.875-2.9688l-41.25-17.5c-2.3438-0.9375-5-0.9375-7.3438 0l-41.25 17.5c-1.0938 0.625-1.875 1.7188-1.875 2.9688s0.78125 2.3438 2.0312 2.8125zm68.281 25.312c0 0.9375-0.625 1.875-1.4062 2.1875-5.625 2.6562-13.75 4.0625-22.031 4.0625s-16.406-1.4062-22.031-4.0625c-0.78125-0.3125-1.4062-1.25-1.4062-2.1875v-16.875l20 7.8125c1.0938 0.46875 2.1875 0.625 3.4375 0.625s2.3438-0.15625 3.4375-0.625l20-7.8125zm15.625 7.8125c0.9375 0 1.5625 0.625 1.5625 1.5625s-0.625 1.5625-1.5625 1.5625-1.5625-0.625-1.5625-1.5625 0.625-1.5625 1.5625-1.5625zm4.2188 15-6.875 3.9062 2.1875-12.656h0.46875 0.46875zm-45.781-68.594c0.78125-0.3125 1.5625-0.46875 2.5-0.46875 0.78125 0 1.7188 0.15625 2.5 0.46875l41.25 17.656-4.375 1.5625h-0.15625l-35.469-5.625c-0.46875-1.7188-1.875-2.9688-3.75-2.9688-2.1875 0-3.9062 1.7188-3.9062 3.9062s1.7188 3.9062 3.9062 3.9062c1.4062 0 2.6562-0.78125 3.2812-1.875l30.469 4.8438-31.406 12.344c-1.4062 0.625-3.125 0.625-4.5312 0l-41.562-16.094zm3.9062 16.406c-0.46875 0.3125-0.9375 0.46875-1.4062 0.46875-1.25 0-2.3438-1.0938-2.3438-2.3438s1.0938-2.3438 2.3438-2.3438c0.78125 0 1.5625 0.46875 2.0312 1.0938l-1.7188-0.3125-0.46875 3.125z"/>
</svg>
