<?xml version="1.0" encoding="UTF-8"?>
<svg fill="#FFFFFF" width="100pt" height="100pt" version="1.1" viewBox="0 0 100 100" xmlns="http://www.w3.org/2000/svg">
 <g>
  <path d="m20.199 2.5h-10.801c-3.8008 0-6.8984 3.1016-6.8984 6.8984v10.801c0 3.8008 3.1016 6.8984 6.8984 6.8984h10.801c3.8008 0 6.8984-3.1016 6.8984-6.8984l0.003906-10.801c0-3.7969-3.1016-6.8984-6.9023-6.8984zm2.3008 17.699c0 1.3008-1 2.3008-2.3008 2.3008h-10.801c-1.3008 0-2.3008-1-2.3008-2.3008l0.003906-10.801c0-1.3008 1-2.3008 2.3008-2.3008h10.801c1.3008 0 2.3008 1 2.3008 2.3008z"/>
  <path d="m90.602 2.5h-10.801c-3.8008 0-6.8984 3.1016-6.8984 6.8984v10.801c0 3.8008 3.1016 6.8984 6.8984 6.8984h10.801c3.8008 0 6.8984-3.1016 6.8984-6.8984v-10.801c0-3.7969-3.1016-6.8984-6.8984-6.8984zm2.2969 17.699c0 1.3008-1 2.3008-2.3008 2.3008h-10.797c-1.3008 0-2.3008-1-2.3008-2.3008v-10.801c0-1.3008 1-2.3008 2.3008-2.3008h10.801c1.3008 0 2.3008 1 2.3008 2.3008z"/>
  <path d="m90.602 72.898h-10.801c-3.8008 0-6.8984 3.1016-6.8984 6.8984v10.801c0 3.8008 3.1016 6.8984 6.8984 6.8984h10.801c3.8008 0 6.8984-3.1016 6.8984-6.8984v-10.797c0-3.8008-3.1016-6.9023-6.8984-6.9023zm2.2969 17.703c0 1.3008-1 2.3008-2.3008 2.3008l-10.797-0.003906c-1.3008 0-2.3008-1-2.3008-2.3008v-10.797c0-1.3008 1-2.3008 2.3008-2.3008h10.801c1.3008 0 2.3008 1 2.3008 2.3008z"/>
  <path d="m20.199 72.898h-10.801c-3.8008 0-6.8984 3.1016-6.8984 6.8984v10.801c0 3.8008 3.1016 6.8984 6.8984 6.8984h10.801c3.8008 0 6.8984-3.1016 6.8984-6.8984l0.003906-10.797c0-3.8008-3.1016-6.9023-6.9023-6.9023zm2.3008 17.703c0 1.3008-1 2.3008-2.3008 2.3008l-10.801-0.003906c-1.3008 0-2.3008-1-2.3008-2.3008l0.003906-10.797c0-1.3008 1-2.3008 2.3008-2.3008h10.801c1.3008 0 2.3008 1 2.3008 2.3008z"/>
  <path d="m57.602 5.8984c-0.89844-0.89844-2.3984-0.89844-3.3008 0-0.89844 0.89844-0.89844 2.3984 0 3.3008l3.3008 3.3008h-20.801c-1.3008 0-2.3008 1-2.3008 2.3008s1 2.3008 2.3008 2.3008h20.898l-3.3008 3.3008c-0.89844 0.89844-0.89844 2.3984 0 3.3008 0.5 0.5 1 0.69922 1.6016 0.69922s1.1992-0.19922 1.6016-0.69922l7.3008-7.3008c0.89844-0.89844 0.89844-2.3984 0-3.3008z"/>
  <path d="m63.199 82.898h-20.898l3.3008-3.3008c0.89844-0.89844 0.89844-2.3984 0-3.3008-0.89844-0.89844-2.3984-0.89844-3.3008 0l-7.3008 7.3008c-0.89844 0.89844-0.89844 2.3984 0 3.3008l7.3008 7.3008c0.5 0.5 1 0.69922 1.6016 0.69922 0.60156 0 1.1992-0.19922 1.6016-0.69922 0.89844-0.89844 0.89844-2.3984 0-3.3008l-3.3008-3.3008h20.898c1.3008 0 2.3008-1 2.3008-2.3008 0.097656-1.3984-0.90234-2.3984-2.2031-2.3984z"/>
  <path d="m85.199 34.5c-1.3008 0-2.3008 1-2.3008 2.3008v20.898l-3.3008-3.3008c-0.89844-0.89844-2.3984-0.89844-3.3008 0-0.89844 0.89844-0.89844 2.3984 0 3.3008l7.3008 7.3008c0.5 0.5 1 0.69922 1.6016 0.69922 0.60156 0 1.1992-0.19922 1.6016-0.69922l7.3008-7.3008c0.89844-0.89844 0.89844-2.3984 0-3.3008-0.89844-0.89844-2.3984-0.89844-3.3008 0l-3.3008 3.3008v-20.898c0-1.3008-1-2.3008-2.3008-2.3008z"/>
 </g>
</svg>
