<?xml version="1.0" encoding="UTF-8"?>
<svg fill="#FFFFFF" width="100pt" height="100pt" version="1.1" viewBox="0 0 100 100" xmlns="http://www.w3.org/2000/svg">
 <g>
  <path d="m24.523 37.477c0 14.047 11.43 25.477 25.477 25.477s25.48-11.43 25.48-25.477c0-14.051-11.434-25.48-25.48-25.48s-25.477 11.43-25.477 25.48zm49.016 0c0 12.977-10.559 23.535-23.539 23.535-12.977 0-23.535-10.559-23.535-23.535 0-12.98 10.559-23.539 23.535-23.539 12.98 0 23.539 10.559 23.539 23.539z"/>
  <path d="m65.629 60.461-0.37891-0.050782-0.3125 0.21875c-4.3984 3.1055-9.5625 4.75-14.938 4.75s-10.543-1.6406-14.938-4.75l-0.3125-0.21875-0.37891 0.050782c-18.121 2.4414-26.566 10.883-26.566 26.57v0.96875h84.387l0.003906-0.96875c0-15.688-8.4453-24.129-26.566-26.57zm-55.871 25.602c0.33203-13.988 7.9336-21.301 24.5-23.625 4.6602 3.1953 10.094 4.8828 15.742 4.8828s11.082-1.6875 15.742-4.8828c16.57 2.3242 24.168 9.6406 24.5 23.625z"/>
 </g>
</svg>
