<svg width="100" height="100" viewBox="0 0 100 100" fill="none" xmlns="http://www.w3.org/2000/svg">
<path fill-rule="evenodd" clip-rule="evenodd" d="M43.3106 17.1729C42.7946 17.1729 42.3803 17.5871 42.3767 18.0994V24.2514C42.3803 24.7637 42.7946 25.178 43.3106 25.178H47.017C47.533 25.178 47.9472 24.7637 47.9472 24.2514V18.0994C47.9472 17.5871 47.533 17.1729 47.017 17.1729H43.3106ZM44.2408 19.0297H46.0831V23.3211H44.2408V19.0297Z" fill="white"/>
<path fill-rule="evenodd" clip-rule="evenodd" d="M52.2641 17.1729C51.7481 17.1729 51.3339 17.5871 51.3339 18.0994V24.2514C51.3339 24.7637 51.7481 25.178 52.2641 25.178H55.9633C56.4756 25.178 56.8935 24.7637 56.8935 24.2514V18.0994C56.8935 17.5871 56.4756 17.1729 55.9633 17.1729H52.2641ZM53.1943 19.0297H55.0294V23.3211H53.1943V19.0297Z" fill="white"/>
<path fill-rule="evenodd" clip-rule="evenodd" d="M18.3719 10C17.8596 10 17.4417 10.4142 17.4417 10.9302V31.4317C17.4417 31.944 17.8596 32.3619 18.3719 32.3619H26.1808V60.4726H18.3719C17.8596 60.4726 17.4417 60.8905 17.4417 61.4029V81.8968C17.4417 82.4092 17.8596 82.8271 18.3719 82.8271H24.7891V89.0698C24.7891 89.5821 25.2069 90 25.7193 90H34.1604C34.6728 90 35.0907 89.5821 35.0907 89.0698V82.8271H66.1884V89.0698C66.1884 89.5821 66.6063 90 67.1186 90H75.5597C76.0721 90 76.49 89.5821 76.49 89.0698V82.8271H81.628C82.1404 82.8271 82.5583 82.4092 82.5583 81.8968V61.4029C82.5583 60.8905 82.1404 60.4726 81.628 60.4726H75.0982V56.0176C75.0982 55.5053 74.6804 55.0874 74.168 55.0874H44.8508C44.3384 55.0874 43.9205 55.5053 43.9205 56.0176V60.4726H38.3319V32.3619H62.0891H62.0855C62.6015 32.3619 63.0157 31.944 63.0157 31.4317V10.9302C63.0157 10.4142 62.6015 10 62.0855 10H18.3719ZM19.3022 11.8605H61.1553V30.5014H19.2985V11.8605H19.3022ZM28.0413 32.3619H36.4715V60.4726H28.0413V32.3619ZM45.7808 56.948H73.2376V60.4727H45.7808V56.948ZM19.3017 62.3332H80.6971V80.9667H19.3017V62.3332ZM26.6491 82.8272H33.2297V88.1396H26.6491V82.8272ZM68.0482 82.8272H74.6288V88.1396H68.0482V82.8272Z" fill="white"/>
</svg>
