<?xml version="1.0" encoding="UTF-8"?>
<svg fill="#FFFFFF" width="100pt" height="100pt" version="1.1" viewBox="0 0 100 100" xmlns="http://www.w3.org/2000/svg">
 <g>
  <path d="m67.121 21.969c-6.0625 0-10.91 5-10.91 10.91s5 10.91 10.91 10.91 10.91-5 10.91-10.91-4.8477-10.91-10.91-10.91zm0 17.426c-3.4844 0-6.3633-2.8789-6.3633-6.3633s2.8789-6.3633 6.3633-6.3633 6.3633 2.8789 6.3633 6.3633-2.8789 6.3633-6.3633 6.3633z"/>
  <path d="m80.305 9.3945l-23.488 0.75781c-3.7891 0.30469-7.4258 1.9688-10 4.5469l-33.938 33.938c-4.6953 4.6953-4.6953 12.273 0 16.969l21.516 21.516c2.2734 2.2734 5.4531 3.4844 8.4844 3.4844s6.0625-1.2109 8.4844-3.4844l33.789-33.789c2.7266-2.7266 4.3945-6.2109 4.5469-10.152l0.90625-23.484c0.15234-2.7266-0.91016-5.4531-2.8789-7.4258-1.9688-1.8164-4.6953-2.875-7.4219-2.875zm5 33.484c-0.15234 2.7266-1.3633 5.3047-3.332 7.1211l-33.789 33.789c-2.8789 2.8789-7.5742 2.8789-10.453 0l-21.52-21.516c-2.8789-2.8789-2.8789-7.5742 0-10.453l33.789-33.789c1.9688-1.9688 4.3945-3.0312 7.1211-3.332l23.332-0.75781c1.5156 0 3.0312 0.45312 4.0898 1.668 1.0625 1.0625 1.668 2.5742 1.668 4.0898z"/>
 </g>
</svg>
