<svg width="1001" height="543" viewBox="0 0 1001 543" fill="none" xmlns="http://www.w3.org/2000/svg">
<rect width="1000" height="542.359" transform="translate(0.492188)" fill="white"/>
<path d="M189.318 51.5602C193.678 51.5602 197.964 52.1144 202.176 53.2229C206.462 54.2575 209.899 55.6615 212.485 57.4351V77.4983C209.307 75.6509 206.167 74.0621 203.063 72.7319C199.959 71.3279 196.301 70.6258 192.089 70.6258C189.65 70.6258 187.544 70.9953 185.771 71.7343C183.997 72.4733 183.111 73.6926 183.111 75.3922C183.111 77.2397 184.182 78.6438 186.325 79.6044C188.468 80.4912 191.091 81.5258 194.195 82.7081L202.176 85.701C207.571 87.7701 211.376 90.5783 213.593 94.1254C215.884 97.6725 217.03 101.22 217.03 104.767C217.03 109.496 215.663 113.708 212.928 117.403C210.194 121.024 206.499 123.906 201.844 126.049C197.188 128.118 191.978 129.153 186.214 129.153C181.78 129.153 177.383 128.377 173.023 126.825C168.664 125.273 164.858 123.352 161.606 121.061V100.998C165.153 103.658 168.959 105.838 173.023 107.538C177.162 109.237 181.3 110.087 185.438 110.087C188.025 110.087 190.094 109.792 191.646 109.201C193.271 108.535 194.084 107.427 194.084 105.875C194.084 104.767 193.493 103.806 192.311 102.993C191.128 102.18 189.54 101.478 187.544 100.887L177.014 97.5616C172.876 96.2314 169.661 94.4209 167.37 92.1301C165.079 89.8393 163.491 87.2898 162.604 84.4817C161.717 81.5997 161.274 78.6807 161.274 75.7248C161.274 70.478 162.604 66.0811 165.264 62.534C167.925 58.913 171.398 56.1788 175.684 54.3314C179.97 52.4839 184.515 51.5602 189.318 51.5602ZM252.501 69.2957C257.821 69.2957 262.551 70.478 266.689 72.8428C270.827 75.2075 274.042 78.5329 276.333 82.819C278.697 87.0312 279.88 92.0562 279.88 97.8941V104.434H241.416C242.229 107.168 243.855 109.201 246.293 110.531C248.732 111.861 251.54 112.526 254.718 112.526C259.004 112.526 262.699 111.935 265.802 110.752C268.98 109.496 271.345 108.425 272.896 107.538V123.832C270.975 125.015 268.315 126.197 264.915 127.379C261.59 128.562 257.821 129.153 253.609 129.153C249.619 129.153 245.739 128.488 241.97 127.158C238.275 125.828 234.95 123.906 231.994 121.394C229.038 118.881 226.71 115.851 225.011 112.304C223.311 108.683 222.461 104.619 222.461 100.111C222.461 94.4948 223.754 89.3589 226.341 84.7034C229.001 80.0478 232.585 76.316 237.093 73.5079C241.675 70.6997 246.81 69.2957 252.501 69.2957ZM251.946 85.0359C249.508 85.0359 247.402 85.701 245.628 87.0312C243.855 88.2874 242.561 90.2457 241.748 92.906H261.812C261.812 90.2457 260.777 88.2874 258.708 87.0312C256.713 85.701 254.459 85.0359 251.946 85.0359ZM307.702 70.9584V78.2743C309.476 75.8356 311.619 73.7295 314.131 71.956C316.718 70.1824 319.895 69.2957 323.664 69.2957C329.428 69.2957 334.121 71.254 337.742 75.1706C341.437 79.0871 343.284 84.8881 343.284 92.5735V127.49H324.218L324.108 95.5664C324.108 92.7582 323.332 90.8 321.78 89.6915C320.228 88.5091 318.491 87.9179 316.57 87.9179C314.501 87.9179 312.764 88.4722 311.36 89.5806C309.956 90.6152 308.737 91.8715 307.702 93.3494V127.49H288.637V70.9584H307.702ZM440.386 82.1539V97.6725H410.901V109.755H444.266V127.49H390.172V53.2229H444.266V70.4041H410.901V82.1539H440.386ZM519.087 70.9584L498.026 99.1135L520.196 127.49H496.696L486.055 111.528L475.413 127.49H451.914L474.083 99.1135L453.022 70.9584H474.638L486.055 87.0312L497.472 70.9584H519.087ZM550.9 54.3314V70.9584H565.754V85.9227H550.9V101.774C550.9 104.508 551.454 106.688 552.563 108.314C553.745 109.866 555.371 110.642 557.44 110.642C560.692 110.642 563.684 109.829 566.419 108.203V123.056C565.236 124.682 563.352 126.123 560.766 127.379C558.253 128.562 555.149 129.153 551.454 129.153C547.907 129.153 544.656 128.34 541.7 126.714C538.744 125.089 536.342 122.761 534.495 119.731C532.721 116.701 531.834 113.043 531.834 108.757V85.9227H522.302V74.2838C525.923 73.3231 529.47 71.254 532.943 68.0764C536.49 64.8249 539.076 60.2432 540.702 54.3314H550.9ZM615.967 91.9084C614.859 91.3172 613.676 90.8738 612.42 90.5783C611.238 90.2088 609.834 90.024 608.208 90.024C605.622 90.024 603.331 90.8 601.335 92.3518C599.34 93.9037 597.714 95.9359 596.458 98.4484V127.49H577.393V70.9584H596.458V81.0454C598.232 78.0156 600.19 75.3922 602.333 73.1753C604.55 70.9584 607.432 69.8499 610.979 69.8499C612.9 69.8499 614.563 70.1824 615.967 70.8475V91.9084ZM645.785 69.2957C648.741 69.2957 651.623 69.9608 654.431 71.2909C657.313 72.5472 659.678 74.1729 661.525 76.1682V70.9584H680.591V127.49H661.525V118.068C660.121 121.172 657.978 123.795 655.096 125.938C652.214 128.081 648.741 129.153 644.677 129.153C640.464 129.153 636.511 128.081 632.816 125.938C629.121 123.795 626.091 120.507 623.726 116.073C621.436 111.565 620.29 105.912 620.29 99.1135C620.29 92.7582 621.436 87.3637 623.726 82.9298C626.091 78.496 629.195 75.1336 633.038 72.8428C636.954 70.478 641.203 69.2957 645.785 69.2957ZM649.775 87.9179C647.041 87.9179 644.75 89.0264 642.903 91.2433C641.129 93.4603 640.243 96.0836 640.243 99.1135C640.243 102.143 641.166 104.693 643.014 106.762C644.861 108.831 647.3 109.866 650.33 109.866C651.955 109.866 653.618 109.459 655.318 108.646C657.017 107.76 658.458 106.466 659.641 104.767C660.897 102.993 661.525 100.739 661.525 98.005V92.5735C659.899 91.2433 658.052 90.1349 655.983 89.2481C653.988 88.3613 651.919 87.9179 649.775 87.9179ZM726.371 51.4493C732.504 51.4493 737.825 52.3731 742.333 54.2205C746.914 55.9941 750.461 58.5066 752.974 61.7581C755.56 65.0096 756.853 68.7784 756.853 73.0645C756.853 76.8333 755.93 80.0848 754.082 82.819C752.309 85.5532 749.981 87.7332 747.099 89.3589C749.39 90.1718 751.533 91.2433 753.528 92.5735C755.523 93.8298 757.112 95.4925 758.294 97.5616C759.551 99.6307 760.179 102.328 760.179 105.653C760.179 109.792 758.849 113.671 756.188 117.292C753.528 120.839 749.87 123.721 745.215 125.938C740.559 128.081 735.238 129.153 729.253 129.153C725.853 129.153 722.048 128.968 717.835 128.599C713.623 128.303 709.596 127.897 705.753 127.379C701.984 126.862 698.918 126.345 696.553 125.828V54.3314C701.061 53.4446 705.827 52.7426 710.852 52.2253C715.877 51.708 721.05 51.4493 726.371 51.4493ZM727.147 70.1824C723.378 70.1824 720.089 70.478 717.281 71.0692V83.8166H727.701C730.139 83.8166 732.209 83.2254 733.908 82.0431C735.608 80.8607 736.458 79.1241 736.458 76.8333C736.458 74.838 735.571 73.2492 733.797 72.0668C732.098 70.8106 729.881 70.1824 727.147 70.1824ZM717.281 109.533C718.833 110.05 720.68 110.42 722.823 110.642C724.967 110.789 726.629 110.863 727.812 110.863C730.841 110.863 733.28 110.272 735.127 109.09C737.049 107.907 738.01 106.171 738.01 103.88C738.01 101.663 736.938 100.074 734.795 99.1135C732.652 98.1528 730.065 97.6725 727.036 97.6725H717.281V109.533ZM797.756 69.2957C801.672 69.2957 805.478 70.0347 809.173 71.5126C812.868 72.9906 816.193 75.0597 819.149 77.72C822.105 80.3804 824.433 83.558 826.133 87.2529C827.906 90.8738 828.793 94.8643 828.793 99.2243C828.793 103.584 827.906 107.612 826.133 111.307C824.433 114.928 822.105 118.068 819.149 120.729C816.193 123.389 812.868 125.458 809.173 126.936C805.478 128.414 801.672 129.153 797.756 129.153C793.839 129.153 790.034 128.414 786.339 126.936C782.644 125.458 779.318 123.389 776.362 120.729C773.407 118.068 771.042 114.928 769.268 111.307C767.569 107.612 766.719 103.584 766.719 99.2243C766.719 94.8643 767.569 90.8738 769.268 87.2529C771.042 83.558 773.407 80.3804 776.362 77.72C779.318 75.0597 782.644 72.9906 786.339 71.5126C790.034 70.0347 793.839 69.2957 797.756 69.2957ZM797.756 87.5854C796.426 87.5854 794.911 87.881 793.211 88.4722C791.585 89.0634 790.181 90.2088 788.999 91.9084C787.817 93.5342 787.225 95.9728 787.225 99.2243C787.225 102.402 787.817 104.841 788.999 106.54C790.181 108.24 791.585 109.385 793.211 109.976C794.911 110.568 796.426 110.863 797.756 110.863C799.16 110.863 800.675 110.568 802.301 109.976C803.926 109.385 805.33 108.24 806.513 106.54C807.695 104.841 808.286 102.402 808.286 99.2243C808.286 95.9728 807.695 93.5342 806.513 91.9084C805.33 90.2088 803.926 89.0634 802.301 88.4722C800.675 87.881 799.16 87.5854 797.756 87.5854ZM857.724 47.6806V127.49H838.658V47.6806H857.724ZM927.89 47.6806V127.49H908.824V118.068C907.42 121.172 905.277 123.795 902.395 125.938C899.513 128.081 896.04 129.153 891.976 129.153C887.764 129.153 883.81 128.081 880.115 125.938C876.42 123.795 873.39 120.507 871.026 116.073C868.735 111.565 867.589 105.912 867.589 99.1135C867.589 92.7582 868.735 87.3637 871.026 82.9298C873.39 78.496 876.494 75.1336 880.337 72.8428C884.253 70.478 888.503 69.2957 893.084 69.2957C896.04 69.2957 898.922 69.9608 901.73 71.2909C904.612 72.5472 906.977 74.1729 908.824 76.1682V47.6806H927.89ZM897.075 87.9179C894.34 87.9179 892.05 89.0264 890.202 91.2433C888.429 93.4603 887.542 96.0836 887.542 99.1135C887.542 102.143 888.466 104.693 890.313 106.762C892.16 108.831 894.599 109.866 897.629 109.866C899.255 109.866 900.917 109.459 902.617 108.646C904.317 107.76 905.758 106.466 906.94 104.767C908.196 102.993 908.824 100.739 908.824 98.005V92.5735C907.199 91.2433 905.351 90.1349 903.282 89.2481C901.287 88.3613 899.218 87.9179 897.075 87.9179Z" fill="#97CAB6"/>
<path d="M73.4426 231.723C77.7287 231.723 81.6453 232.314 85.1924 233.497C88.7395 234.679 91.7324 236.046 94.171 237.598V252.784C91.5107 251.158 88.6656 249.644 85.6358 248.239C82.606 246.835 79.1697 246.133 75.327 246.133C73.4057 246.133 71.4843 246.429 69.563 247.02C67.7156 247.611 66.1637 248.498 64.9074 249.68C63.7251 250.863 63.1339 252.378 63.1339 254.225C63.1339 256.664 64.2054 258.511 66.3484 259.768C68.4915 261.024 71.1149 262.28 74.2186 263.536L83.308 267.305C88.4809 269.522 92.2866 272.219 94.7252 275.397C97.1638 278.575 98.3832 282.196 98.3832 286.26C98.3832 290.694 97.0899 294.61 94.5035 298.01C91.991 301.335 88.5917 303.958 84.3056 305.88C80.0934 307.801 75.4009 308.762 70.2281 308.762C65.8681 308.762 61.6929 308.023 57.7024 306.545C53.7119 305.067 50.2387 303.256 47.2828 301.113V285.927C50.5343 288.292 54.1183 290.287 58.0349 291.913C61.9515 293.539 66.1267 294.352 70.5606 294.352C73.6643 294.352 76.3247 293.761 78.5416 292.578C80.7585 291.322 81.867 289.474 81.867 287.036C81.867 285.114 80.9433 283.563 79.0958 282.38C77.3223 281.124 75.364 280.089 73.2209 279.277L61.8037 274.843C56.0397 272.626 52.1231 269.744 50.054 266.197C48.0587 262.576 47.0611 258.585 47.0611 254.225C47.0611 249.717 48.2804 245.801 50.719 242.475C53.2316 239.076 56.4831 236.453 60.4736 234.605C64.464 232.684 68.7871 231.723 73.4426 231.723ZM134.187 250.013C139.655 250.013 144.348 251.195 148.264 253.56C152.255 255.925 155.285 259.213 157.354 263.425C159.497 267.564 160.568 272.367 160.568 277.836V283.821H119.998C120.737 287.59 122.585 290.62 125.541 292.911C128.497 295.202 132.118 296.347 136.404 296.347C140.468 296.347 144.163 295.534 147.488 293.908C150.814 292.283 153.474 290.62 155.469 288.92L155.358 302C153.585 303.552 150.925 305.141 147.377 306.767C143.904 308.318 140.062 309.094 135.849 309.094C130.307 309.094 125.245 307.838 120.663 305.326C116.156 302.813 112.535 299.377 109.8 295.017C107.14 290.657 105.81 285.669 105.81 280.052C105.81 274.584 107.029 269.596 109.468 265.088C111.906 260.58 115.269 256.959 119.555 254.225C123.841 251.417 128.718 250.013 134.187 250.013ZM133.854 262.317C130.381 262.317 127.462 263.389 125.097 265.532C122.733 267.675 121.107 270.557 120.22 274.178H147.045C146.749 270.187 145.271 267.231 142.611 265.31C139.951 263.315 137.032 262.317 133.854 262.317ZM185.73 251.454V259.435C187.43 257.144 189.721 255.001 192.603 253.006C195.559 251.011 198.921 250.013 202.69 250.013C208.38 250.013 213.147 251.934 216.989 255.777C220.832 259.62 222.753 265.384 222.753 273.069V307.432H208.676L208.565 274.954C208.565 271.185 207.641 268.377 205.794 266.529C204.02 264.682 201.545 263.758 198.367 263.758C195.854 263.758 193.49 264.571 191.273 266.197C189.13 267.822 187.282 269.744 185.73 271.961V307.432H171.653V251.454H185.73ZM299.127 231.391C304.891 231.391 309.916 232.314 314.202 234.162C318.488 235.935 321.813 238.411 324.178 241.589C326.617 244.766 327.836 248.424 327.836 252.562C327.836 256.257 326.838 259.546 324.843 262.428C322.922 265.31 320.483 267.527 317.527 269.079C319.744 269.67 321.887 270.667 323.956 272.072C326.026 273.402 327.725 275.212 329.055 277.503C330.385 279.72 331.051 282.565 331.051 286.038C331.051 290.176 329.794 293.982 327.282 297.455C324.769 300.855 321.259 303.589 316.751 305.658C312.244 307.727 306.997 308.762 301.011 308.762C297.76 308.762 294.249 308.614 290.481 308.318C286.712 308.097 283.128 307.764 279.728 307.321C276.329 306.804 273.447 306.286 271.082 305.769V234.162C275.221 233.275 279.692 232.61 284.495 232.167C289.298 231.649 294.176 231.391 299.127 231.391ZM299.127 245.468C294.397 245.468 290.185 245.838 286.49 246.577V264.534H300.346C304.115 264.534 307.071 263.61 309.214 261.763C311.431 259.915 312.539 257.551 312.539 254.669C312.539 251.713 311.209 249.459 308.549 247.907C305.962 246.281 302.822 245.468 299.127 245.468ZM286.49 293.576C288.559 294.093 290.924 294.463 293.584 294.684C296.319 294.832 298.499 294.906 300.124 294.906C304.41 294.906 307.921 294.056 310.655 292.356C313.463 290.657 314.867 288.255 314.867 285.151C314.867 282.048 313.426 279.757 310.544 278.279C307.662 276.727 304.189 275.951 300.124 275.951H286.49V293.576ZM369.958 250.013C375.426 250.013 380.414 251.343 384.922 254.003C389.43 256.59 393.051 260.137 395.785 264.645C398.593 269.079 399.997 274.067 399.997 279.609C399.997 285.151 398.593 290.14 395.785 294.573C393.051 299.007 389.43 302.554 384.922 305.215C380.414 307.801 375.426 309.094 369.958 309.094C364.563 309.094 359.575 307.801 354.993 305.215C350.486 302.554 346.865 299.007 344.13 294.573C341.396 290.14 340.029 285.151 340.029 279.609C340.029 274.067 341.396 269.079 344.13 264.645C346.865 260.137 350.486 256.59 354.993 254.003C359.575 251.343 364.563 250.013 369.958 250.013ZM369.958 263.647C367.297 263.647 364.822 264.275 362.531 265.532C360.24 266.788 358.393 268.598 356.989 270.963C355.659 273.328 354.993 276.21 354.993 279.609C354.993 283.008 355.659 285.89 356.989 288.255C358.393 290.62 360.24 292.43 362.531 293.687C364.822 294.869 367.297 295.46 369.958 295.46C372.618 295.46 375.094 294.869 377.385 293.687C379.675 292.43 381.523 290.62 382.927 288.255C384.331 285.89 385.033 283.008 385.033 279.609C385.033 276.21 384.331 273.328 382.927 270.963C381.523 268.598 379.675 266.788 377.385 265.532C375.094 264.275 372.618 263.647 369.958 263.647ZM425.603 227.622V307.432H411.525V227.622H425.603ZM494.217 227.622V307.432H480.139V298.01C478.514 301.039 476.149 303.663 473.045 305.88C469.942 308.023 466.321 309.094 462.182 309.094C457.675 309.094 453.499 307.949 449.657 305.658C445.888 303.367 442.858 300.042 440.567 295.682C438.276 291.322 437.131 286.038 437.131 279.831C437.131 273.623 438.276 268.303 440.567 263.869C442.932 259.435 446.073 256.036 449.989 253.671C453.98 251.232 458.377 250.013 463.18 250.013C466.21 250.013 469.276 250.715 472.38 252.119C475.484 253.523 478.07 255.408 480.139 257.772V227.622H494.217ZM466.062 263.869C463.106 263.869 460.557 264.645 458.413 266.197C456.344 267.675 454.719 269.633 453.536 272.072C452.354 274.436 451.763 277.023 451.763 279.831C451.763 284.043 453.019 287.627 455.531 290.583C458.118 293.539 461.517 295.017 465.729 295.017C468.242 295.017 470.57 294.352 472.713 293.022C474.93 291.691 476.703 289.844 478.033 287.479C479.437 285.041 480.139 282.122 480.139 278.722V270.741C478.144 268.598 475.964 266.936 473.6 265.753C471.309 264.497 468.796 263.869 466.062 263.869Z" fill="#2A5D49"/>
<path d="M271.422 406.837C274.915 406.837 278.258 407.5 281.451 408.825C284.643 410.09 287.263 412.078 289.311 414.788C291.419 417.439 292.474 420.842 292.474 424.998C292.474 428.733 291.389 431.895 289.221 434.485C287.113 437.075 284.402 439.033 281.089 440.358C277.837 441.623 274.463 442.255 270.97 442.255C269.886 442.255 268.44 442.195 266.633 442.075L294.823 467.373H282.354L256.333 442.075V467.373H248.201V406.837H271.422ZM256.333 414.517V433.943C258.321 434.485 260.489 434.907 262.838 435.208C265.187 435.509 267.506 435.66 269.795 435.66C274.373 435.66 277.897 434.696 280.366 432.768C282.896 430.841 284.161 428.251 284.161 424.998C284.161 421.625 282.776 419.035 280.005 417.228C277.294 415.421 273.982 414.517 270.066 414.517H256.333ZM323.826 421.294C328.403 421.294 332.469 422.378 336.023 424.546C339.577 426.715 342.348 429.606 344.335 433.22C346.383 436.834 347.407 440.78 347.407 445.056C347.407 449.333 346.383 453.278 344.335 456.892C342.348 460.446 339.577 463.307 336.023 465.476C332.469 467.644 328.403 468.728 323.826 468.728C319.248 468.728 315.182 467.644 311.628 465.476C308.074 463.307 305.273 460.446 303.225 456.892C301.238 453.278 300.244 449.333 300.244 445.056C300.244 440.78 301.238 436.834 303.225 433.22C305.273 429.606 308.074 426.715 311.628 424.546C315.182 422.378 319.248 421.294 323.826 421.294ZM323.826 428.522C320.633 428.522 317.832 429.305 315.423 430.871C313.013 432.377 311.146 434.395 309.821 436.925C308.556 439.394 307.924 442.105 307.924 445.056C307.924 447.947 308.556 450.658 309.821 453.188C311.146 455.657 313.013 457.675 315.423 459.241C317.832 460.747 320.633 461.5 323.826 461.5C327.078 461.5 329.879 460.747 332.228 459.241C334.638 457.675 336.475 455.657 337.74 453.188C339.065 450.658 339.727 447.947 339.727 445.056C339.727 442.105 339.065 439.394 337.74 436.925C336.475 434.395 334.638 432.377 332.228 430.871C329.879 429.305 327.078 428.522 323.826 428.522ZM381.831 421.294C385.988 421.294 389.692 422.288 392.945 424.275C396.258 426.203 398.848 428.974 400.715 432.588C402.642 436.202 403.606 440.508 403.606 445.508C403.606 450.086 402.642 454.121 400.715 457.615C398.848 461.109 396.318 463.849 393.125 465.837C389.993 467.765 386.469 468.728 382.554 468.728C379.121 468.728 376.049 467.825 373.338 466.018C370.688 464.211 368.58 462.103 367.014 459.693V467.373H359.605V402.32H367.014V428.251C368.941 426.082 371.23 424.396 373.88 423.191C376.591 421.926 379.241 421.294 381.831 421.294ZM380.476 428.612C377.705 428.612 375.266 429.275 373.158 430.6C371.049 431.865 369.032 433.672 367.104 436.021L367.014 444.695C367.014 447.887 367.616 450.748 368.821 453.278C370.086 455.808 371.802 457.796 373.971 459.241C376.199 460.687 378.669 461.41 381.38 461.41C384.331 461.41 386.891 460.687 389.06 459.241C391.228 457.796 392.915 455.868 394.119 453.459C395.324 451.049 395.926 448.399 395.926 445.508C395.926 442.556 395.294 439.816 394.029 437.286C392.824 434.696 391.077 432.618 388.788 431.052C386.5 429.425 383.729 428.612 380.476 428.612ZM436.223 421.294C440.801 421.294 444.867 422.378 448.421 424.546C451.974 426.715 454.745 429.606 456.733 433.22C458.781 436.834 459.805 440.78 459.805 445.056C459.805 449.333 458.781 453.278 456.733 456.892C454.745 460.446 451.974 463.307 448.421 465.476C444.867 467.644 440.801 468.728 436.223 468.728C431.645 468.728 427.579 467.644 424.026 465.476C420.472 463.307 417.671 460.446 415.623 456.892C413.635 453.278 412.641 449.333 412.641 445.056C412.641 440.78 413.635 436.834 415.623 433.22C417.671 429.606 420.472 426.715 424.026 424.546C427.579 422.378 431.645 421.294 436.223 421.294ZM436.223 428.522C433.031 428.522 430.23 429.305 427.82 430.871C425.411 432.377 423.544 434.395 422.219 436.925C420.954 439.394 420.321 442.105 420.321 445.056C420.321 447.947 420.954 450.658 422.219 453.188C423.544 455.657 425.411 457.675 427.82 459.241C430.23 460.747 433.031 461.5 436.223 461.5C439.476 461.5 442.277 460.747 444.626 459.241C447.035 457.675 448.872 455.657 450.137 453.188C451.462 450.658 452.125 447.947 452.125 445.056C452.125 442.105 451.462 439.394 450.137 436.925C448.872 434.395 447.035 432.377 444.626 430.871C442.277 429.305 439.476 428.522 436.223 428.522ZM482.664 409.187V422.197H495.855V429.154H482.664V455.627C482.664 457.495 483.146 458.97 484.11 460.055C485.073 461.139 486.549 461.681 488.537 461.681C490.344 461.681 491.85 461.47 493.054 461.048C494.259 460.567 495.313 460.055 496.217 459.512V465.566C495.012 466.53 493.717 467.283 492.332 467.825C491.006 468.427 489.199 468.728 486.91 468.728C483.055 468.728 480.134 467.584 478.146 465.295C476.219 462.946 475.255 459.844 475.255 455.989V429.154H466.581V426.986C469.533 425.661 472.002 423.492 473.99 420.48C475.978 417.409 477.725 413.644 479.231 409.187H482.664ZM529.737 421.294C534.315 421.294 538.381 422.378 541.935 424.546C545.489 426.715 548.259 429.606 550.247 433.22C552.295 436.834 553.319 440.78 553.319 445.056C553.319 449.333 552.295 453.278 550.247 456.892C548.259 460.446 545.489 463.307 541.935 465.476C538.381 467.644 534.315 468.728 529.737 468.728C525.159 468.728 521.094 467.644 517.54 465.476C513.986 463.307 511.185 460.446 509.137 456.892C507.149 453.278 506.155 449.333 506.155 445.056C506.155 440.78 507.149 436.834 509.137 433.22C511.185 429.606 513.986 426.715 517.54 424.546C521.094 422.378 525.159 421.294 529.737 421.294ZM529.737 428.522C526.545 428.522 523.744 429.305 521.334 430.871C518.925 432.377 517.058 434.395 515.733 436.925C514.468 439.394 513.835 442.105 513.835 445.056C513.835 447.947 514.468 450.658 515.733 453.188C517.058 455.657 518.925 457.675 521.334 459.241C523.744 460.747 526.545 461.5 529.737 461.5C532.99 461.5 535.791 460.747 538.14 459.241C540.549 457.675 542.386 455.657 543.651 453.188C544.977 450.658 545.639 447.947 545.639 445.056C545.639 442.105 544.977 439.394 543.651 436.925C542.386 434.395 540.549 432.377 538.14 430.871C535.791 429.305 532.99 428.522 529.737 428.522ZM618.101 406.837C621.595 406.837 624.938 407.5 628.13 408.825C631.323 410.09 633.943 412.078 635.991 414.788C638.099 417.439 639.153 420.842 639.153 424.998C639.153 428.733 638.069 431.895 635.901 434.485C633.792 437.075 631.082 439.033 627.769 440.358C624.516 441.623 621.143 442.255 617.649 442.255C616.565 442.255 615.12 442.195 613.313 442.075L641.502 467.373H629.034L603.012 442.075V467.373H594.881V406.837H618.101ZM603.012 414.517V433.943C605 434.485 607.169 434.907 609.518 435.208C611.867 435.509 614.186 435.66 616.475 435.66C621.053 435.66 624.576 434.696 627.046 432.768C629.576 430.841 630.841 428.251 630.841 424.998C630.841 421.625 629.455 419.035 626.685 417.228C623.974 415.421 620.661 414.517 616.746 414.517H603.012ZM665.988 421.294C670.626 421.294 674.481 422.257 677.553 424.185C680.625 426.112 682.914 428.733 684.419 432.046C685.985 435.358 686.769 439.093 686.769 443.249V447.676H652.073C652.435 450.206 653.308 452.525 654.694 454.633C656.079 456.742 657.886 458.428 660.115 459.693C662.343 460.898 664.903 461.5 667.795 461.5C671.047 461.5 674.089 460.687 676.92 459.061C679.751 457.374 682.13 455.537 684.058 453.549L683.968 461.591C683.124 462.615 681.859 463.699 680.173 464.843C678.547 465.927 676.649 466.831 674.481 467.554C672.372 468.337 670.144 468.728 667.795 468.728C663.217 468.728 659.151 467.644 655.597 465.476C652.043 463.307 649.242 460.446 647.194 456.892C645.207 453.278 644.213 449.333 644.213 445.056C644.213 440.78 645.147 436.834 647.014 433.22C648.881 429.606 651.441 426.715 654.694 424.546C658.007 422.378 661.771 421.294 665.988 421.294ZM665.988 428.522C662.253 428.522 659.181 429.787 656.772 432.317C654.362 434.786 652.857 437.798 652.254 441.352H679.45C679.149 438.4 678.306 435.991 676.92 434.124C675.595 432.256 673.969 430.871 672.041 429.967C670.114 429.004 668.096 428.522 665.988 428.522ZM717.578 421.294C720.169 421.294 722.789 421.926 725.439 423.191C728.15 424.396 730.469 426.082 732.396 428.251V422.197H739.805V466.47C739.805 471.83 738.721 476.288 736.552 479.842C734.384 483.395 731.493 486.046 727.879 487.793C724.265 489.539 720.319 490.413 716.043 490.413C713.272 490.413 710.892 490.081 708.905 489.419C706.977 488.817 705.321 488.033 703.935 487.07C702.55 486.166 701.285 485.293 700.141 484.45V476.499C701.044 477.161 702.219 478.004 703.664 479.028C705.17 480.113 706.947 481.076 708.995 481.92C711.103 482.763 713.452 483.185 716.043 483.185C718.994 483.185 721.705 482.642 724.174 481.558C726.644 480.474 728.632 478.878 730.137 476.77C731.643 474.661 732.396 472.132 732.396 469.18V459.693C730.83 462.103 728.692 464.211 725.981 466.018C723.331 467.825 720.289 468.728 716.856 468.728C713.001 468.728 709.477 467.765 706.285 465.837C703.092 463.849 700.532 461.109 698.605 457.615C696.737 454.121 695.804 450.086 695.804 445.508C695.804 440.508 696.737 436.202 698.605 432.588C700.532 428.974 703.152 426.203 706.465 424.275C709.778 422.288 713.483 421.294 717.578 421.294ZM718.934 428.612C715.681 428.612 712.91 429.425 710.621 431.052C708.332 432.618 706.556 434.696 705.291 437.286C704.086 439.816 703.484 442.556 703.484 445.508C703.484 448.399 704.086 451.049 705.291 453.459C706.495 455.868 708.182 457.796 710.35 459.241C712.579 460.687 715.139 461.41 718.03 461.41C720.801 461.41 723.271 460.687 725.439 459.241C727.608 457.796 729.324 455.808 730.589 453.278C731.854 450.748 732.456 447.887 732.396 444.695L732.306 436.021C730.439 433.672 728.421 431.865 726.252 430.6C724.144 429.275 721.705 428.612 718.934 428.612ZM792.119 422.197V448.941C792.119 452.917 791.275 456.35 789.589 459.241C787.902 462.133 785.613 464.361 782.722 465.927C779.831 467.494 776.578 468.277 772.964 468.277C769.35 468.277 766.097 467.494 763.206 465.927C760.315 464.361 758.026 462.133 756.339 459.241C754.653 456.35 753.81 452.917 753.81 448.941V422.197H761.489V448.941C761.489 452.857 762.634 455.868 764.923 457.976C767.272 460.024 769.952 461.048 772.964 461.048C775.976 461.048 778.626 460.024 780.915 457.976C783.264 455.868 784.439 452.857 784.439 448.941V422.197H792.119ZM813.532 402.32V467.373H806.123V402.32H813.532ZM847.504 421.294C850.094 421.294 852.715 421.926 855.365 423.191C858.075 424.396 860.395 426.082 862.322 428.251V422.197H869.731V467.373H862.322V459.693C860.756 462.103 858.618 464.211 855.907 466.018C853.257 467.825 850.215 468.728 846.782 468.728C842.927 468.728 839.403 467.765 836.21 465.837C833.018 463.849 830.458 461.109 828.53 457.615C826.663 454.121 825.73 450.086 825.73 445.508C825.73 440.508 826.663 436.202 828.53 432.588C830.458 428.974 833.078 426.203 836.391 424.275C839.704 422.288 843.408 421.294 847.504 421.294ZM848.86 428.522C845.607 428.522 842.836 429.335 840.547 430.961C838.258 432.588 836.481 434.696 835.216 437.286C834.012 439.816 833.409 442.556 833.409 445.508C833.409 448.399 834.012 451.08 835.216 453.549C836.421 455.959 838.108 457.886 840.276 459.332C842.505 460.777 845.065 461.5 847.956 461.5C850.727 461.5 853.196 460.777 855.365 459.332C857.533 457.886 859.25 455.898 860.515 453.369C861.78 450.778 862.382 447.887 862.322 444.695L862.232 436.021C860.364 433.672 858.347 431.835 856.178 430.51C854.07 429.184 851.63 428.522 848.86 428.522ZM892.5 422.197V431.232C894.246 428.221 896.355 425.811 898.824 424.004C901.294 422.197 903.824 421.294 906.414 421.294C908.16 421.294 909.727 421.595 911.112 422.197V430.781C909.184 429.636 907.257 429.064 905.329 429.064C902.257 429.064 899.758 430.148 897.83 432.317C895.963 434.485 894.186 437.075 892.5 440.087V467.373H885.091V422.197H892.5Z" fill="#111111"/>
</svg>
