<svg width="267" height="32" viewBox="0 0 267 32" fill="none" xmlns="http://www.w3.org/2000/svg">
<path d="M141.246 5.48806C141.246 2.71351 143.495 0.464294 146.27 0.464294H261.817C264.591 0.464294 266.84 2.71352 266.84 5.48807V26.5118C266.84 29.2864 264.591 31.5356 261.817 31.5356H146.27C143.495 31.5356 141.246 29.2864 141.246 26.5118V5.48806Z" fill="#C42126"/>
<path d="M155.678 12.6926H157.583L159.596 17.6022H159.681L161.694 12.6926H163.599V19.9999H162.101V15.2438H162.04L160.149 19.9643H159.128L157.237 15.2259H157.177V19.9999H155.678V12.6926ZM164.91 19.9999V12.6926H169.834V13.9664H166.455V15.7076H169.581V16.9814H166.455V18.7262H169.848V19.9999H164.91ZM171.012 19.9999V12.6926H172.557V18.7262H175.69V19.9999H171.012ZM179.253 19.9999H176.663V12.6926H179.274C180.009 12.6926 180.642 12.8389 181.173 13.1315C181.705 13.4217 182.114 13.8392 182.4 14.3839C182.685 14.9286 182.828 15.5803 182.828 16.3391C182.828 17.1003 182.684 17.7545 182.396 18.3016C182.111 18.8487 181.701 19.2685 181.165 19.5611C180.633 19.8537 179.995 19.9999 179.253 19.9999ZM178.207 18.6762H179.189C179.876 18.6762 180.397 18.4907 180.751 18.1196C181.108 17.7485 181.287 17.155 181.287 16.3391C181.287 15.528 181.108 14.9381 180.751 14.5694C180.397 14.2007 179.877 14.0164 179.192 14.0164H178.207V18.6762ZM188.447 12.6926H189.981V17.5237C189.981 18.0756 189.851 18.5442 189.592 18.9295C189.333 19.3125 188.975 19.6039 188.518 19.8037C188.064 20.0035 187.541 20.1034 186.952 20.1034C186.362 20.1034 185.838 20.0035 185.382 19.8037C184.925 19.6039 184.567 19.3125 184.308 18.9295C184.051 18.5442 183.922 18.0756 183.922 17.5237V12.6926H185.467V17.4702C185.467 17.8603 185.608 18.1672 185.888 18.3908C186.171 18.6144 186.526 18.7262 186.952 18.7262C187.384 18.7262 187.741 18.6144 188.022 18.3908C188.305 18.1672 188.447 17.8603 188.447 17.4702V12.6926ZM197.314 12.6926V19.9999H195.979L192.8 15.4008H192.747V19.9999H191.202V12.6926H192.558L195.712 17.2882H195.776V12.6926H197.314ZM203.385 15.0547C203.288 14.7121 203.107 14.4445 202.843 14.2519C202.581 14.0568 202.252 13.9593 201.855 13.9593C201.296 13.9593 200.842 14.1662 200.495 14.5801C200.15 14.9916 199.978 15.578 199.978 16.3391C199.978 17.1027 200.148 17.6926 200.488 18.1089C200.828 18.5252 201.288 18.7333 201.869 18.7333C202.383 18.7333 202.786 18.6001 203.078 18.3337C203.373 18.0649 203.526 17.7045 203.535 17.2526H201.965V16.0894H205.023V17.0099C205.023 17.6498 204.887 18.2017 204.616 18.6655C204.345 19.127 203.972 19.4814 203.496 19.7288C203.023 19.9762 202.478 20.0998 201.862 20.0998C201.177 20.0998 200.575 19.9488 200.056 19.6467C199.538 19.3422 199.133 18.9105 198.843 18.3515C198.555 17.7901 198.411 17.1241 198.411 16.3534C198.411 15.5637 198.562 14.8882 198.865 14.3268C199.167 13.7654 199.576 13.3361 200.092 13.0387C200.608 12.7414 201.187 12.5927 201.83 12.5927C202.381 12.5927 202.881 12.6974 203.328 12.9067C203.775 13.116 204.142 13.4062 204.427 13.7773C204.713 14.146 204.889 14.5718 204.955 15.0547H203.385ZM208.408 12.6926H210.314L212.326 17.6022H212.412L214.424 12.6926H216.329V19.9999H214.831V15.2438H214.77L212.879 19.9643H211.859L209.968 15.2259H209.907V19.9999H208.408V12.6926ZM218.9 19.9999H217.244L219.767 12.6926H221.758L224.277 19.9999H222.621L222.079 18.3337H219.442L218.9 19.9999ZM219.835 17.1277H221.69L220.791 14.3625H220.734L219.835 17.1277ZM231.21 15.2509H229.647C229.588 14.8489 229.417 14.5337 229.134 14.3054C228.851 14.0746 228.497 13.9593 228.074 13.9593C227.508 13.9593 227.053 14.1674 226.711 14.5837C226.371 14.9976 226.201 15.5851 226.201 16.3463C226.201 17.1265 226.372 17.72 226.715 18.1267C227.059 18.5311 227.509 18.7333 228.063 18.7333C228.475 18.7333 228.823 18.6263 229.109 18.4122C229.394 18.1957 229.574 17.8924 229.647 17.5023L231.21 17.5095C231.156 17.9567 230.996 18.3777 230.732 18.7725C230.468 19.1674 230.109 19.4873 229.655 19.7323C229.203 19.9773 228.664 20.0998 228.038 20.0998C227.387 20.0998 226.804 19.9524 226.29 19.6574C225.779 19.3625 225.374 18.9355 225.077 18.3765C224.782 17.8175 224.634 17.1408 224.634 16.3463C224.634 15.5494 224.784 14.8715 225.084 14.3125C225.384 13.7535 225.79 13.3277 226.304 13.0352C226.818 12.7402 227.396 12.5927 228.038 12.5927C228.602 12.5927 229.11 12.6974 229.562 12.9067C230.016 13.1137 230.387 13.4157 230.675 13.813C230.965 14.2079 231.144 14.6872 231.21 15.2509ZM232.268 19.9999V12.6926H233.813V15.7076H236.949V12.6926H238.49V19.9999H236.949V16.9814H233.813V19.9999H232.268ZM239.714 19.9999V12.6926H244.638V13.9664H241.259V15.7076H244.385V16.9814H241.259V18.7262H244.652V19.9999H239.714ZM251.928 12.6926V19.9999H250.594L247.414 15.4008H247.361V19.9999H245.816V12.6926H247.172L250.326 17.2882H250.39V12.6926H251.928Z" fill="white"/>
<path d="M0.246094 5.48806C0.246094 2.71351 2.49531 0.464294 5.26987 0.464294H120.817C123.591 0.464294 125.84 2.71352 125.84 5.48807V26.5118C125.84 29.2864 123.591 31.5356 120.817 31.5356H5.26987C2.49532 31.5356 0.246094 29.2864 0.246094 26.5118V5.48806Z" fill="white"/>
<path d="M23.6781 19.9999V12.6926H28.5163V13.9664H25.223V15.7076H28.1952V16.9814H25.223V19.9999H23.6781ZM29.5053 19.9999V12.6926H32.3882C33.2184 12.6926 33.8618 12.9091 34.3185 13.342C34.7776 13.7749 35.0072 14.3541 35.0072 15.0796C35.0072 15.5792 34.8954 16.0061 34.6718 16.3606C34.4505 16.715 34.1318 16.9814 33.7155 17.1598L35.2676 19.9999H33.5621L32.1777 17.4096H31.0502V19.9999H29.5053ZM31.0502 16.1679H32.0992C32.9769 16.1679 33.4158 15.8051 33.4158 15.0796C33.4158 14.3304 32.9746 13.9557 32.0921 13.9557H31.0502V16.1679ZM37.3082 19.9999H35.6527L38.1753 12.6926H40.1662L42.6852 19.9999H41.0297L40.4873 18.3337H37.8506L37.3082 19.9999ZM38.2431 17.1277H40.0984L39.1993 14.3625H39.1422L38.2431 17.1277ZM48.0165 15.0547C47.919 14.7121 47.7382 14.4445 47.4741 14.2519C47.2125 14.0568 46.883 13.9593 46.4858 13.9593C45.9268 13.9593 45.4737 14.1662 45.1264 14.5801C44.7815 14.9916 44.609 15.578 44.609 16.3391C44.609 17.1027 44.7791 17.6926 45.1192 18.1089C45.4594 18.5252 45.9197 18.7333 46.5001 18.7333C47.0139 18.7333 47.4171 18.6001 47.7096 18.3337C48.0046 18.0649 48.1568 17.7045 48.1663 17.2526H46.5964V16.0894H49.6542V17.0099C49.6542 17.6498 49.5186 18.2017 49.2474 18.6655C48.9763 19.127 48.6028 19.4814 48.1271 19.7288C47.6537 19.9762 47.109 20.0998 46.4929 20.0998C45.8079 20.0998 45.2061 19.9488 44.6875 19.6467C44.169 19.3422 43.7646 18.9105 43.4744 18.3515C43.1866 17.7901 43.0427 17.1241 43.0427 16.3534C43.0427 15.5637 43.1937 14.8882 43.4958 14.3268C43.7979 13.7654 44.207 13.3361 44.7232 13.0387C45.2394 12.7414 45.8186 12.5927 46.4608 12.5927C47.0127 12.5927 47.5122 12.6974 47.9594 12.9067C48.4066 13.116 48.7729 13.4062 49.0583 13.7773C49.3438 14.146 49.5198 14.5718 49.5864 15.0547H48.0165ZM50.7645 19.9999V12.6926H55.6883V13.9664H52.3094V15.7076H55.435V16.9814H52.3094V18.7262H55.7026V19.9999H50.7645ZM63.1057 14.7942C63.0771 14.5064 62.9534 14.2828 62.7346 14.1234C62.5181 13.964 62.2256 13.8843 61.8569 13.8843C61.4787 13.8843 61.1885 13.9617 60.9863 14.1163C60.7841 14.2709 60.683 14.4659 60.683 14.7014C60.6782 14.9631 60.79 15.1617 61.0184 15.2973C61.2491 15.4305 61.5227 15.534 61.839 15.6077L62.4955 15.7647C62.9189 15.8598 63.2948 15.9978 63.623 16.1786C63.9537 16.3594 64.213 16.5925 64.4009 16.8779C64.5912 17.161 64.6863 17.5059 64.6863 17.9126C64.6839 18.5811 64.433 19.1139 63.9335 19.5111C63.4363 19.906 62.7417 20.1034 61.8497 20.1034C60.9625 20.1034 60.2548 19.9012 59.7268 19.4968C59.1987 19.0925 58.9251 18.4954 58.9061 17.7057H60.4011C60.4273 18.072 60.5712 18.3479 60.8328 18.5335C61.0969 18.7166 61.4299 18.8082 61.8319 18.8082C62.2244 18.8082 62.5372 18.725 62.7703 18.5585C63.0058 18.392 63.1247 18.1755 63.1271 17.9091C63.1247 17.6617 63.0165 17.4714 62.8024 17.3382C62.5883 17.205 62.2827 17.0908 61.8854 16.9957L61.0897 16.7959C60.4737 16.6484 59.9872 16.4141 59.6304 16.093C59.2736 15.7718 59.0964 15.3425 59.0988 14.8049C59.0964 14.3625 59.2142 13.9759 59.452 13.6453C59.6923 13.3123 60.0217 13.0542 60.4404 12.871C60.859 12.6855 61.3347 12.5927 61.8676 12.5927C62.4099 12.5927 62.8833 12.6855 63.2876 12.871C63.6944 13.0566 64.0108 13.3147 64.2367 13.6453C64.4627 13.9759 64.5793 14.3589 64.5864 14.7942H63.1057ZM65.397 13.9664V12.6926H71.3984V13.9664H69.1612V19.9999H67.6341V13.9664H65.397ZM72.3365 19.9999V12.6926H77.2603V13.9664H73.8814V15.7076H77.007V16.9814H73.8814V18.7262H77.2746V19.9999H72.3365ZM78.4384 19.9999V12.6926H79.9833V18.7262H83.1161V19.9999H78.4384ZM84.089 19.9999V12.6926H85.6339V18.7262H88.7666V19.9999H84.089ZM89.7395 19.9999V12.6926H94.6634V13.9664H91.2845V15.7076H94.4101V16.9814H91.2845V18.7262H94.6777V19.9999H89.7395ZM101.953 12.6926V19.9999H100.619L97.4399 15.4008H97.3864V19.9999H95.8415V12.6926H97.1973L100.351 17.2882H100.416V12.6926H101.953Z" fill="#C42126"/>
<path d="M5.26987 1.09227H120.817V-0.163677H5.26987V1.09227ZM125.212 5.48807V26.5118H126.468V5.48807H125.212ZM120.817 30.9076H5.26987V32.1636H120.817V30.9076ZM0.874066 26.5118V5.48806H-0.381878V26.5118H0.874066ZM5.26987 30.9076C2.84214 30.9076 0.874066 28.9396 0.874066 26.5118H-0.381878C-0.381878 29.6332 2.1485 32.1636 5.26987 32.1636V30.9076ZM125.212 26.5118C125.212 28.9396 123.244 30.9076 120.817 30.9076V32.1636C123.938 32.1636 126.468 29.6332 126.468 26.5118H125.212ZM120.817 1.09227C123.244 1.09227 125.212 3.06033 125.212 5.48807H126.468C126.468 2.3667 123.938 -0.163677 120.817 -0.163677V1.09227ZM5.26987 -0.163677C2.1485 -0.163677 -0.381878 2.36669 -0.381878 5.48806H0.874066C0.874066 3.06033 2.84213 1.09227 5.26987 1.09227V-0.163677Z" fill="#C42126"/>
</svg>
