<svg width="196" height="48" viewBox="0 0 196 48" fill="none" xmlns="http://www.w3.org/2000/svg">
<path d="M109.51 8.5C109.51 4.08172 113.091 0.5 117.51 0.5H187.51C191.928 0.5 195.51 4.08172 195.51 8.5V39.5C195.51 43.9183 191.928 47.5 187.51 47.5H117.51C113.091 47.5 109.51 43.9183 109.51 39.5V8.5Z" fill="black"/>
<path d="M141.533 25.834L142.777 19.2578H144.675L142.625 28.5H140.708L139.204 22.3174L137.699 28.5H135.782L133.732 19.2578H135.63L136.88 25.8213L138.404 19.2578H140.016L141.533 25.834ZM148.547 28.627C147.54 28.627 146.719 28.318 146.084 27.7002C145.454 27.0824 145.139 26.2593 145.139 25.231V25.0532C145.139 24.3634 145.272 23.7477 145.539 23.2061C145.805 22.6602 146.182 22.2412 146.668 21.9492C147.159 21.653 147.718 21.5049 148.344 21.5049C149.284 21.5049 150.022 21.8011 150.56 22.3936C151.101 22.986 151.372 23.826 151.372 24.9136V25.6626H146.999C147.058 26.1112 147.236 26.4709 147.532 26.7417C147.832 27.0125 148.211 27.1479 148.668 27.1479C149.375 27.1479 149.927 26.8919 150.325 26.3799L151.226 27.3892C150.951 27.7785 150.579 28.0832 150.109 28.3032C149.639 28.519 149.119 28.627 148.547 28.627ZM148.338 22.9902C147.974 22.9902 147.678 23.113 147.449 23.3584C147.225 23.6038 147.081 23.9551 147.018 24.4121H149.569V24.2661C149.561 23.8599 149.451 23.5467 149.239 23.3267C149.028 23.1024 148.727 22.9902 148.338 22.9902ZM154.355 28.5H152.515V21.6318H154.355V28.5ZM152.407 19.8545C152.407 19.5794 152.498 19.353 152.68 19.1753C152.866 18.9976 153.118 18.9087 153.435 18.9087C153.748 18.9087 153.998 18.9976 154.184 19.1753C154.37 19.353 154.463 19.5794 154.463 19.8545C154.463 20.1338 154.368 20.3623 154.178 20.54C153.992 20.7178 153.744 20.8066 153.435 20.8066C153.126 20.8066 152.876 20.7178 152.686 20.54C152.5 20.3623 152.407 20.1338 152.407 19.8545ZM158.069 19.9434V21.6318H159.243V22.9775H158.069V26.4053C158.069 26.6592 158.118 26.8411 158.215 26.9512C158.312 27.0612 158.498 27.1162 158.773 27.1162C158.977 27.1162 159.156 27.1014 159.313 27.0718V28.4619C158.953 28.5719 158.583 28.627 158.202 28.627C156.916 28.627 156.26 27.9774 156.234 26.6782V22.9775H155.231V21.6318H156.234V19.9434H158.069ZM163.426 28.627C162.419 28.627 161.598 28.318 160.963 27.7002C160.333 27.0824 160.018 26.2593 160.018 25.231V25.0532C160.018 24.3634 160.151 23.7477 160.417 23.2061C160.684 22.6602 161.061 22.2412 161.547 21.9492C162.038 21.653 162.597 21.5049 163.223 21.5049C164.163 21.5049 164.901 21.8011 165.438 22.3936C165.98 22.986 166.251 23.826 166.251 24.9136V25.6626H161.877C161.937 26.1112 162.114 26.4709 162.411 26.7417C162.711 27.0125 163.09 27.1479 163.547 27.1479C164.254 27.1479 164.806 26.8919 165.204 26.3799L166.105 27.3892C165.83 27.7785 165.458 28.0832 164.988 28.3032C164.518 28.519 163.998 28.627 163.426 28.627ZM163.217 22.9902C162.853 22.9902 162.557 23.113 162.328 23.3584C162.104 23.6038 161.96 23.9551 161.896 24.4121H164.448V24.2661C164.44 23.8599 164.33 23.5467 164.118 23.3267C163.907 23.1024 163.606 22.9902 163.217 22.9902ZM171.158 23.3521C170.908 23.3182 170.688 23.3013 170.498 23.3013C169.804 23.3013 169.349 23.5361 169.133 24.0059V28.5H167.298V21.6318H169.031L169.082 22.4507C169.45 21.8201 169.96 21.5049 170.612 21.5049C170.815 21.5049 171.005 21.5324 171.183 21.5874L171.158 23.3521Z" fill="white"/>
<path d="M27.3535 26.9702H32.0127V28.5H24.9731V27.3828L29.5435 20.8003H24.9795V19.2578H31.9111V20.3496L27.3535 26.9702ZM37.0845 27.8018C36.6317 28.3519 36.0054 28.627 35.2056 28.627C34.4692 28.627 33.9064 28.4154 33.5171 27.9922C33.132 27.569 32.9352 26.9491 32.9268 26.1323V21.6318H34.7612V26.0688C34.7612 26.784 35.0871 27.1416 35.7388 27.1416C36.3608 27.1416 36.7882 26.9258 37.021 26.4941V21.6318H38.8618V28.5H37.1353L37.0845 27.8018ZM44.105 23.3521C43.8553 23.3182 43.6353 23.3013 43.4448 23.3013C42.7508 23.3013 42.2959 23.5361 42.0801 24.0059V28.5H40.2456V21.6318H41.9785L42.0293 22.4507C42.3975 21.8201 42.9074 21.5049 43.5591 21.5049C43.7622 21.5049 43.9526 21.5324 44.1304 21.5874L44.105 23.3521ZM49.1069 27.8018C48.6541 28.3519 48.0278 28.627 47.228 28.627C46.4917 28.627 45.9289 28.4154 45.5396 27.9922C45.1545 27.569 44.9577 26.9491 44.9492 26.1323V21.6318H46.7837V26.0688C46.7837 26.784 47.1095 27.1416 47.7612 27.1416C48.3833 27.1416 48.8107 26.9258 49.0435 26.4941V21.6318H50.8843V28.5H49.1577L49.1069 27.8018ZM47.2534 19.8354C47.2534 20.0597 47.1709 20.2502 47.0059 20.4067C46.8408 20.5591 46.6292 20.6353 46.3711 20.6353C46.1087 20.6353 45.8971 20.557 45.7363 20.4004C45.5755 20.2438 45.4951 20.0555 45.4951 19.8354C45.4951 19.6154 45.5755 19.4271 45.7363 19.2705C45.8971 19.1097 46.1087 19.0293 46.3711 19.0293C46.6335 19.0293 46.8451 19.1097 47.0059 19.2705C47.1709 19.4271 47.2534 19.6154 47.2534 19.8354ZM48.5864 19.8354C48.5864 19.6069 48.6711 19.4165 48.8403 19.2642C49.0138 19.1076 49.2233 19.0293 49.4688 19.0293C49.7184 19.0293 49.9258 19.1076 50.0908 19.2642C50.2601 19.4207 50.3447 19.6112 50.3447 19.8354C50.3447 20.0555 50.2643 20.2459 50.1035 20.4067C49.9427 20.5633 49.7311 20.6416 49.4688 20.6416C49.2064 20.6416 48.9927 20.5633 48.8276 20.4067C48.6668 20.2459 48.5864 20.0555 48.5864 19.8354ZM55.1245 27.1479C55.4631 27.1479 55.7381 27.0549 55.9497 26.8687C56.1613 26.6825 56.2713 26.4349 56.2798 26.126H58C57.9958 26.5915 57.8688 27.0189 57.6191 27.4082C57.3695 27.7933 57.0267 28.0938 56.5908 28.3096C56.1592 28.5212 55.681 28.627 55.1562 28.627C54.1745 28.627 53.4001 28.3159 52.833 27.6938C52.266 27.0675 51.9824 26.2043 51.9824 25.104V24.9834C51.9824 23.9255 52.2638 23.0812 52.8267 22.4507C53.3895 21.8201 54.1618 21.5049 55.1436 21.5049C56.0026 21.5049 56.6903 21.7503 57.2065 22.2412C57.7271 22.7279 57.9915 23.3774 58 24.1899H56.2798C56.2713 23.8345 56.1613 23.5467 55.9497 23.3267C55.7381 23.1024 55.4588 22.9902 55.1118 22.9902C54.6844 22.9902 54.3607 23.1468 54.1406 23.46C53.9248 23.7689 53.8169 24.2725 53.8169 24.9707V25.1611C53.8169 25.8678 53.9248 26.3757 54.1406 26.6846C54.3564 26.9935 54.6844 27.1479 55.1245 27.1479ZM61.542 25.7451L60.8818 26.4053V28.5H59.0474V18.75H60.8818V24.1519L61.2373 23.6948L62.9956 21.6318H65.1982L62.7163 24.4946L65.4141 28.5H63.3066L61.542 25.7451Z" fill="black"/>
<path d="M8.50977 2.5H81.5098V-1.5H8.50977V2.5ZM87.5098 8.5V39.5H91.5098V8.5H87.5098ZM81.5098 45.5H8.50976V49.5H81.5098V45.5ZM2.50977 39.5V8.5H-1.49023V39.5H2.50977ZM8.50976 45.5C5.19606 45.5 2.50977 42.8137 2.50977 39.5H-1.49023C-1.49023 45.0228 2.98692 49.5 8.50976 49.5V45.5ZM87.5098 39.5C87.5098 42.8137 84.8235 45.5 81.5098 45.5V49.5C87.0326 49.5 91.5098 45.0228 91.5098 39.5H87.5098ZM81.5098 2.5C84.8235 2.5 87.5098 5.18629 87.5098 8.5H91.5098C91.5098 2.97715 87.0326 -1.5 81.5098 -1.5V2.5ZM8.50977 -1.5C2.98692 -1.5 -1.49023 2.97715 -1.49023 8.5H2.50977C2.50977 5.18629 5.19606 2.5 8.50977 2.5V-1.5Z" fill="black"/>
</svg>
