<svg width="501" height="214" viewBox="0 0 501 214" fill="none" xmlns="http://www.w3.org/2000/svg">
<path d="M14.7461 32.6855C14.7461 24.9535 21.0141 18.6855 28.7461 18.6855H146.111C153.842 18.6855 160.111 24.9535 160.111 32.6855V184.685C160.111 192.417 153.842 198.685 146.111 198.685H28.7461C21.0141 198.685 14.7461 192.417 14.7461 184.685V32.6855Z" fill="white"/>
<path d="M38.0511 43.8776H40.5565C40.5202 41.6741 38.7092 40.1528 35.9563 40.1528C33.2457 40.1528 31.2596 41.65 31.2717 43.8957C31.2656 45.7189 32.5515 46.7633 34.6403 47.2643L35.9865 47.6024C37.3327 47.9284 38.0813 48.3147 38.0874 49.1478C38.0813 50.0534 37.2241 50.6692 35.896 50.6692C34.5376 50.6692 33.5597 50.0413 33.4751 48.8037H30.9457C31.0121 51.4781 32.9258 52.8606 35.9261 52.8606C38.9446 52.8606 40.7195 51.4177 40.7255 49.1539C40.7195 47.0953 39.168 46.0026 37.0188 45.5196L35.908 45.254C34.8335 45.0065 33.9339 44.6081 33.9521 43.7206C33.9521 42.9238 34.6584 42.3382 35.9382 42.3382C37.1879 42.3382 37.9545 42.9057 38.0511 43.8776ZM47.2826 43.4128H45.538V41.1912H42.9662V43.4128H41.6985V45.3446H42.9662V50.1741C42.9542 51.9912 44.1917 52.8907 46.0571 52.8123C46.7212 52.7881 47.1921 52.6553 47.4517 52.5708L47.0472 50.6571C46.9204 50.6812 46.6488 50.7416 46.4073 50.7416C45.8941 50.7416 45.538 50.5484 45.538 49.8361V45.3446H47.2826V43.4128ZM51.5171 52.8606C52.8874 52.8606 53.7749 52.2629 54.2276 51.3996H54.3001V52.6855H56.739V46.4312C56.739 44.2217 54.8676 43.292 52.8029 43.292C50.5813 43.292 49.1204 44.3545 48.7642 46.0449L51.1428 46.238C51.3178 45.6223 51.8672 45.1695 52.7908 45.1695C53.6662 45.1695 54.1673 45.6102 54.1673 46.3709V46.4071C54.1673 47.0047 53.5334 47.0832 51.9215 47.2402C50.0863 47.4092 48.4382 48.025 48.4382 50.0956C48.4382 51.9309 49.7482 52.8606 51.5171 52.8606ZM52.2536 51.0857C51.4627 51.0857 50.8953 50.7174 50.8953 50.0111C50.8953 49.2867 51.4929 48.9305 52.3984 48.8037C52.9599 48.7253 53.8775 48.5924 54.1854 48.3872V49.3712C54.1854 50.3432 53.3825 51.0857 52.2536 51.0857ZM58.6492 52.6855H61.2209V47.4394C61.2209 46.2984 62.054 45.5136 63.189 45.5136C63.5452 45.5136 64.0342 45.574 64.2756 45.6525V43.3705C64.0462 43.3162 63.7263 43.2799 63.4667 43.2799C62.4283 43.2799 61.5771 43.8836 61.2391 45.0307H61.1425V43.4128H58.6492V52.6855ZM70.9173 43.4128H69.1726V41.1912H66.6009V43.4128H65.3331V45.3446H66.6009V50.1741C66.5888 51.9912 67.8264 52.8907 69.6918 52.8123C70.3558 52.7881 70.8267 52.6553 71.0863 52.5708L70.6818 50.6571C70.5551 50.6812 70.2834 50.7416 70.0419 50.7416C69.5288 50.7416 69.1726 50.5484 69.1726 49.8361V45.3446H70.9173V43.4128ZM76.6338 52.8666C78.9278 52.8666 80.4733 51.7498 80.8355 50.0292L78.4569 49.8723C78.1973 50.5786 77.5333 50.9468 76.676 50.9468C75.3902 50.9468 74.5752 50.0956 74.5752 48.7132V48.7071H80.8898V48.0008C80.8898 44.8495 78.9821 43.292 76.5311 43.292C73.8025 43.292 72.0336 45.2299 72.0336 48.0914C72.0336 51.0314 73.7783 52.8666 76.6338 52.8666ZM74.5752 47.1134C74.6295 46.0569 75.4324 45.2118 76.5734 45.2118C77.6902 45.2118 78.463 46.0086 78.469 47.1134H74.5752ZM82.4831 52.6855H85.0548V47.4394C85.0548 46.2984 85.8879 45.5136 87.0228 45.5136C87.379 45.5136 87.868 45.574 88.1095 45.6525V43.3705C87.8801 43.3162 87.5601 43.2799 87.3005 43.2799C86.2622 43.2799 85.411 43.8836 85.0729 45.0307H84.9763V43.4128H82.4831V52.6855Z" fill="black"/>
<path d="M33.5792 72.7826H32.6985L30.8803 73.99V74.8848L32.6559 73.7059H32.6985V80.0553H33.5792V72.7826ZM38.9112 80.0553H41.539C43.2577 80.0553 43.968 79.2172 43.968 78.1235C43.968 76.9729 43.1725 76.3479 42.5049 76.3053V76.2343C43.1299 76.0638 43.6839 75.6519 43.6839 74.7144C43.6839 73.649 42.9737 72.7826 41.4538 72.7826H38.9112V80.0553ZM39.7918 79.274V76.7456H41.5816C42.5333 76.7456 43.1299 77.3848 43.1299 78.1235C43.1299 78.7627 42.6896 79.274 41.539 79.274H39.7918ZM39.7918 75.9786V73.5638H41.4538C42.4197 73.5638 42.8458 74.0752 42.8458 74.7144C42.8458 75.4814 42.2208 75.9786 41.4254 75.9786H39.7918ZM45.4514 80.0553H46.2895V74.6008H45.4514V80.0553ZM45.8776 73.6917C46.2043 73.6917 46.4741 73.436 46.4741 73.1235C46.4741 72.811 46.2043 72.5553 45.8776 72.5553C45.5509 72.5553 45.281 72.811 45.281 73.1235C45.281 73.436 45.5509 73.6917 45.8776 73.6917ZM48.8125 72.7826H47.9745V80.0553H48.8125V72.7826ZM52.5572 80.1689C53.6083 80.1689 53.9634 79.5155 54.1481 79.2172H54.2475V80.0553H55.0572V72.7826H54.2191V75.4672H54.1481C53.9634 75.1831 53.6367 74.5297 52.5714 74.5297C51.1935 74.5297 50.2418 75.6235 50.2418 77.3422C50.2418 79.0752 51.1935 80.1689 52.5572 80.1689ZM52.6708 79.4161C51.6197 79.4161 51.0799 78.4928 51.0799 77.328C51.0799 76.1775 51.6055 75.2826 52.6708 75.2826C53.6935 75.2826 54.2333 76.1064 54.2333 77.328C54.2333 78.5638 53.6793 79.4161 52.6708 79.4161ZM58.1085 79.061H57.1994L57.1567 79.4587C57.0538 80.4211 56.8513 81.3799 56.759 81.8309H57.3982C57.5687 81.3479 57.9309 80.2542 58.0516 79.4445L58.1085 79.061ZM62.8873 80.0553H63.768V77.399H65.3589C67.0528 77.399 67.8163 76.3692 67.8163 75.0837C67.8163 73.7982 67.0528 72.7826 65.3447 72.7826H62.8873V80.0553ZM63.768 76.6178V73.5638H65.3163C66.4988 73.5638 66.9498 74.2101 66.9498 75.0837C66.9498 75.9573 66.4988 76.6178 65.3305 76.6178H63.768ZM71.4997 80.1689C72.6076 80.1689 73.4173 79.615 73.673 78.7911L72.8633 78.5638C72.6502 79.132 72.1566 79.4161 71.4997 79.4161C70.516 79.4161 69.8377 78.7804 69.7987 77.6121H73.7582V77.257C73.7582 75.2258 72.5508 74.5297 71.4145 74.5297C69.9372 74.5297 68.9571 75.6945 68.9571 77.3706C68.9571 79.0468 69.923 80.1689 71.4997 80.1689ZM69.7987 76.8877C69.8555 76.039 70.4556 75.2826 71.4145 75.2826C72.3235 75.2826 72.9059 75.9644 72.9059 76.8877H69.7987ZM75.1831 80.0553H76.0211V76.6036C76.0211 75.865 76.6035 75.3252 77.399 75.3252C77.6227 75.3252 77.8535 75.3678 77.9103 75.382V74.5297C77.8145 74.5226 77.5943 74.5155 77.47 74.5155C76.8166 74.5155 76.2484 74.8848 76.0495 75.4246H75.9927V74.6008H75.1831V80.0553ZM82.9174 75.8223C82.6546 75.0482 82.0651 74.5297 80.9856 74.5297C79.835 74.5297 78.9827 75.1831 78.9827 76.1064C78.9827 76.8593 79.4302 77.3635 80.4316 77.5979L81.3407 77.811C81.8911 77.9388 82.1504 78.2016 82.1504 78.578C82.1504 79.0468 81.6532 79.4303 80.8719 79.4303C80.1866 79.4303 79.7569 79.1356 79.6077 78.5496L78.8123 78.7485C79.0076 79.6753 79.7711 80.1689 80.8862 80.1689C82.1539 80.1689 83.0168 79.4765 83.0168 78.5354C83.0168 77.7755 82.541 77.2961 81.568 77.0581L80.7583 76.8593C80.112 76.6995 79.8208 76.4829 79.8208 76.0638C79.8208 75.5951 80.318 75.2542 80.9856 75.2542C81.7171 75.2542 82.019 75.659 82.1646 76.0354L82.9174 75.8223ZM86.6443 80.1689C88.1216 80.1689 89.1159 79.0468 89.1159 77.3564C89.1159 75.6519 88.1216 74.5297 86.6443 74.5297C85.167 74.5297 84.1727 75.6519 84.1727 77.3564C84.1727 79.0468 85.167 80.1689 86.6443 80.1689ZM86.6443 79.4161C85.5221 79.4161 85.0108 78.4502 85.0108 77.3564C85.0108 76.2627 85.5221 75.2826 86.6443 75.2826C87.7664 75.2826 88.2778 76.2627 88.2778 77.3564C88.2778 78.4502 87.7664 79.4161 86.6443 79.4161ZM91.3832 76.774C91.3832 75.8223 91.9727 75.2826 92.7753 75.2826C93.553 75.2826 94.0253 75.7904 94.0253 76.6462V80.0553H94.8634V76.5894C94.8634 75.1973 94.1212 74.5297 93.0168 74.5297C92.1929 74.5297 91.6815 74.899 91.4259 75.453H91.3548V74.6008H90.5452V80.0553H91.3832V76.774ZM98.1499 80.1831C99.1016 80.1831 99.5988 79.6718 99.7692 79.3167H99.8118V80.0553H100.65V76.4615C100.65 74.7286 99.3289 74.5297 98.6328 74.5297C97.809 74.5297 96.8715 74.8138 96.4453 75.8081L97.2408 76.0922C97.4255 75.6945 97.8623 75.2684 98.6613 75.2684C99.4319 75.2684 99.8118 75.6767 99.8118 76.3763V76.4047C99.8118 76.8096 99.3999 76.774 98.4056 76.9019C97.3935 77.0333 96.2891 77.257 96.2891 78.507C96.2891 79.5723 97.113 80.1831 98.1499 80.1831ZM98.2777 79.4303C97.6101 79.4303 97.1272 79.132 97.1272 78.5496C97.1272 77.9104 97.7096 77.7115 98.363 77.6263C98.7181 77.5837 99.6698 77.4843 99.8118 77.3138V78.0809C99.8118 78.7627 99.2721 79.4303 98.2777 79.4303ZM103.168 72.7826H102.33V80.0553H103.168V72.7826ZM104.853 80.0553H105.691V74.6008H104.853V80.0553ZM105.279 73.6917C105.605 73.6917 105.875 73.436 105.875 73.1235C105.875 72.811 105.605 72.5553 105.279 72.5553C104.952 72.5553 104.682 72.811 104.682 73.1235C104.682 73.436 104.952 73.6917 105.279 73.6917ZM109.663 80.1689C110.771 80.1689 111.58 79.615 111.836 78.7911L111.026 78.5638C110.813 79.132 110.32 79.4161 109.663 79.4161C108.679 79.4161 108.001 78.7804 107.962 77.6121H111.921V77.257C111.921 75.2258 110.714 74.5297 109.577 74.5297C108.1 74.5297 107.12 75.6945 107.12 77.3706C107.12 79.0468 108.086 80.1689 109.663 80.1689ZM107.962 76.8877C108.018 76.039 108.619 75.2826 109.577 75.2826C110.486 75.2826 111.069 75.9644 111.069 76.8877H107.962ZM114.184 76.774C114.184 75.8223 114.774 75.2826 115.576 75.2826C116.354 75.2826 116.826 75.7904 116.826 76.6462V80.0553H117.664V76.5894C117.664 75.1973 116.922 74.5297 115.818 74.5297C114.994 74.5297 114.482 74.899 114.227 75.453H114.156V74.6008H113.346V80.0553H114.184V76.774ZM120.596 79.061H119.686L119.644 79.4587C119.541 80.4211 119.338 81.3799 119.246 81.8309H119.885C120.056 81.3479 120.418 80.2542 120.539 79.4445L120.596 79.061ZM32.0309 86.7826H31.1502V94.0553H32.0309V86.7826ZM34.6711 90.774C34.6711 89.8223 35.2606 89.2826 36.0632 89.2826C36.8409 89.2826 37.3132 89.7904 37.3132 90.6462V94.0553H38.1512V90.5894C38.1512 89.1973 37.4091 88.5297 36.3047 88.5297C35.4808 88.5297 34.9694 88.899 34.7137 89.453H34.6427V88.6008H33.8331V94.0553H34.6711V90.774ZM42.2048 88.6008H41.0401V87.2939H40.202V88.6008H39.3781V89.311H40.202V92.7201C40.202 93.6718 40.969 94.1263 41.6793 94.1263C41.9918 94.1263 42.1906 94.0695 42.3043 94.0269L42.1338 93.274C42.0628 93.2883 41.9491 93.3167 41.7645 93.3167C41.3952 93.3167 41.0401 93.203 41.0401 92.4928V89.311H42.2048V88.6008ZM45.8438 94.1689C46.9518 94.1689 47.7614 93.615 48.0171 92.7911L47.2075 92.5638C46.9944 93.132 46.5008 93.4161 45.8438 93.4161C44.8602 93.4161 44.1819 92.7804 44.1428 91.6121H48.1023V91.257C48.1023 89.2258 46.895 88.5297 45.7586 88.5297C44.2813 88.5297 43.3012 89.6945 43.3012 91.3706C43.3012 93.0468 44.2671 94.1689 45.8438 94.1689ZM44.1428 90.8877C44.1996 90.039 44.7998 89.2826 45.7586 89.2826C46.6677 89.2826 47.2501 89.9644 47.2501 90.8877H44.1428ZM49.5272 94.0553H50.3653V90.6036C50.3653 89.865 50.9477 89.3252 51.7431 89.3252C51.9668 89.3252 52.1977 89.3678 52.2545 89.382V88.5297C52.1586 88.5226 51.9384 88.5155 51.8141 88.5155C51.1607 88.5155 50.5925 88.8848 50.3937 89.4246H50.3369V88.6008H49.5272V94.0553ZM55.5188 94.1689C56.6268 94.1689 57.4364 93.615 57.6921 92.7911L56.8825 92.5638C56.6694 93.132 56.1758 93.4161 55.5188 93.4161C54.5352 93.4161 53.8569 92.7804 53.8178 91.6121H57.7773V91.257C57.7773 89.2258 56.57 88.5297 55.4336 88.5297C53.9563 88.5297 52.9762 89.6945 52.9762 91.3706C52.9762 93.0468 53.9421 94.1689 55.5188 94.1689ZM53.8178 90.8877C53.8746 90.039 54.4748 89.2826 55.4336 89.2826C56.3427 89.2826 56.9251 89.9644 56.9251 90.8877H53.8178ZM63.0658 89.8223C62.8031 89.0482 62.2136 88.5297 61.134 88.5297C59.9835 88.5297 59.1312 89.1831 59.1312 90.1064C59.1312 90.8593 59.5786 91.3635 60.58 91.5979L61.4891 91.811C62.0396 91.9388 62.2988 92.2016 62.2988 92.578C62.2988 93.0468 61.8016 93.4303 61.0204 93.4303C60.335 93.4303 59.9053 93.1356 59.7562 92.5496L58.9607 92.7485C59.156 93.6753 59.9195 94.1689 61.0346 94.1689C62.3023 94.1689 63.1653 93.4765 63.1653 92.5354C63.1653 91.7755 62.6894 91.2961 61.7164 91.0581L60.9067 90.8593C60.2604 90.6995 59.9692 90.4829 59.9692 90.0638C59.9692 89.5951 60.4664 89.2542 61.134 89.2542C61.8656 89.2542 62.1674 89.659 62.313 90.0354L63.0658 89.8223ZM68.4404 89.8223C68.1777 89.0482 67.5882 88.5297 66.5086 88.5297C65.3581 88.5297 64.5058 89.1831 64.5058 90.1064C64.5058 90.8593 64.9532 91.3635 65.9547 91.5979L66.8637 91.811C67.4142 91.9388 67.6734 92.2016 67.6734 92.578C67.6734 93.0468 67.1762 93.4303 66.395 93.4303C65.7096 93.4303 65.2799 93.1356 65.1308 92.5496L64.3353 92.7485C64.5306 93.6753 65.2941 94.1689 66.4092 94.1689C67.677 94.1689 68.5399 93.4765 68.5399 92.5354C68.5399 91.7755 68.064 91.2961 67.091 91.0581L66.2814 90.8593C65.635 90.6995 65.3439 90.4829 65.3439 90.0638C65.3439 89.5951 65.841 89.2542 66.5086 89.2542C67.2402 89.2542 67.542 89.659 67.6876 90.0354L68.4404 89.8223ZM72.2384 94.1689C73.3463 94.1689 74.156 93.615 74.4116 92.7911L73.602 92.5638C73.3889 93.132 72.8953 93.4161 72.2384 93.4161C71.2547 93.4161 70.5764 92.7804 70.5374 91.6121H74.4969V91.257C74.4969 89.2258 73.2895 88.5297 72.1531 88.5297C70.6759 88.5297 69.6957 89.6945 69.6957 91.3706C69.6957 93.0468 70.6616 94.1689 72.2384 94.1689ZM70.5374 90.8877C70.5942 90.039 71.1943 89.2826 72.1531 89.2826C73.0622 89.2826 73.6446 89.9644 73.6446 90.8877H70.5374ZM76.7598 90.774C76.7598 89.8223 77.3493 89.2826 78.1518 89.2826C78.9295 89.2826 79.4018 89.7904 79.4018 90.6462V94.0553H80.2399V90.5894C80.2399 89.1973 79.4977 88.5297 78.3933 88.5297C77.5695 88.5297 77.0581 88.899 76.8024 89.453H76.7314V88.6008H75.9217V94.0553H76.7598V90.774Z" fill="black"/>
<path d="M29.5098 150.685C29.5098 146.267 33.0915 142.685 37.5098 142.685H138.51C142.928 142.685 146.51 146.267 146.51 150.685V181.685C146.51 186.104 142.928 189.685 138.51 189.685H37.5098C33.0915 189.685 29.5098 186.104 29.5098 181.685V150.685Z" fill="#F5F5F7"/>
<path d="M79.3706 166.909H75.7144V170.685H73.8101V161.443H79.8276V162.986H75.7144V165.372H79.3706V166.909ZM84.3535 167.302H82.8364V170.685H80.9321V161.443H84.3662C85.458 161.443 86.3001 161.687 86.8926 162.173C87.485 162.66 87.7812 163.348 87.7812 164.236C87.7812 164.867 87.6437 165.394 87.3687 165.817C87.0978 166.236 86.6852 166.57 86.1309 166.82L88.1304 170.597V170.685H86.0864L84.3535 167.302ZM82.8364 165.76H84.3726C84.8507 165.76 85.221 165.639 85.4834 165.398C85.7458 165.152 85.877 164.816 85.877 164.389C85.877 163.953 85.7521 163.61 85.5024 163.36C85.257 163.111 84.8783 162.986 84.3662 162.986H82.8364V165.76ZM94.7954 166.68H91.1392V169.156H95.4302V170.685H89.2349V161.443H95.4175V162.986H91.1392V165.188H94.7954V166.68ZM102.108 166.68H98.4517V169.156H102.743V170.685H96.5474V161.443H102.73V162.986H98.4517V165.188H102.108V166.68Z" fill="#C42126"/>
<path d="M37.5098 144.685H138.51V140.685H37.5098V144.685ZM144.51 150.685V181.685H148.51V150.685H144.51ZM138.51 187.685H37.5098V191.685H138.51V187.685ZM31.5098 181.685V150.685H27.5098V181.685H31.5098ZM37.5098 187.685C34.1961 187.685 31.5098 184.999 31.5098 181.685H27.5098C27.5098 187.208 31.9869 191.685 37.5098 191.685V187.685ZM144.51 181.685C144.51 184.999 141.823 187.685 138.51 187.685V191.685C144.033 191.685 148.51 187.208 148.51 181.685H144.51ZM138.51 144.685C141.823 144.685 144.51 147.372 144.51 150.685H148.51C148.51 145.163 144.033 140.685 138.51 140.685V144.685ZM37.5098 140.685C31.9869 140.685 27.5098 145.163 27.5098 150.685H31.5098C31.5098 147.372 34.1961 144.685 37.5098 144.685V140.685Z" fill="#C42126"/>
<path d="M176.11 32.6855C176.11 24.9535 182.378 18.6855 190.11 18.6855H307.475C315.207 18.6855 321.475 24.9535 321.475 32.6855V184.685C321.475 192.417 315.207 198.685 307.475 198.685H190.11C182.378 198.685 176.11 192.417 176.11 184.685V32.6855Z" fill="white"/>
<path d="M200.907 44.3183H203.563C203.225 41.8733 201.07 40.1528 198.274 40.1528C195.008 40.1528 192.491 42.5072 192.491 46.5157C192.491 50.4277 194.845 52.8545 198.329 52.8545C201.45 52.8545 203.677 50.8804 203.677 47.6265V46.069H198.504V48.037H201.16C201.124 49.5704 200.079 50.5424 198.341 50.5424C196.379 50.5424 195.141 49.0754 195.141 46.4916C195.141 43.9199 196.427 42.465 198.317 42.465C199.663 42.465 200.574 43.1592 200.907 44.3183ZM205.508 52.6855H208.079V47.4394C208.079 46.2984 208.913 45.5136 210.047 45.5136C210.404 45.5136 210.893 45.574 211.134 45.6525V43.3705C210.905 43.3162 210.585 43.2799 210.325 43.2799C209.287 43.2799 208.436 43.8836 208.098 45.0307H208.001V43.4128H205.508V52.6855ZM218.325 48.7373C218.331 49.9809 217.48 50.6329 216.556 50.6329C215.584 50.6329 214.957 49.9508 214.95 48.8581V43.4128H212.379V49.3169C212.385 51.4841 213.653 52.8062 215.518 52.8062C216.912 52.8062 217.915 52.0878 218.331 51.0012H218.428V52.6855H220.897V43.4128H218.325V48.7373ZM222.869 56.1628H225.441V51.2004H225.519C225.875 51.9731 226.654 52.8364 228.151 52.8364C230.264 52.8364 231.912 51.1642 231.912 48.0612C231.912 44.8737 230.192 43.292 228.157 43.292C226.606 43.292 225.863 44.2157 225.519 44.9703H225.404V43.4128H222.869V56.1628ZM225.386 48.0491C225.386 46.395 226.087 45.3385 227.336 45.3385C228.61 45.3385 229.286 46.4433 229.286 48.0491C229.286 49.667 228.598 50.7899 227.336 50.7899C226.099 50.7899 225.386 49.7032 225.386 48.0491ZM233.542 56.1628H236.113V51.2004H236.192C236.548 51.9731 237.327 52.8364 238.824 52.8364C240.937 52.8364 242.585 51.1642 242.585 48.0612C242.585 44.8737 240.865 43.292 238.83 43.292C237.279 43.292 236.536 44.2157 236.192 44.9703H236.077V43.4128H233.542V56.1628ZM236.059 48.0491C236.059 46.395 236.759 45.3385 238.009 45.3385C239.283 45.3385 239.959 46.4433 239.959 48.0491C239.959 49.667 239.271 50.7899 238.009 50.7899C236.772 50.7899 236.059 49.7032 236.059 48.0491ZM248.44 52.8666C250.734 52.8666 252.28 51.7498 252.642 50.0292L250.264 49.8723C250.004 50.5786 249.34 50.9468 248.483 50.9468C247.197 50.9468 246.382 50.0956 246.382 48.7132V48.7071H252.696V48.0008C252.696 44.8495 250.789 43.292 248.338 43.292C245.609 43.292 243.84 45.2299 243.84 48.0914C243.84 51.0314 245.585 52.8666 248.44 52.8666ZM246.382 47.1134C246.436 46.0569 247.239 45.2118 248.38 45.2118C249.497 45.2118 250.27 46.0086 250.276 47.1134H246.382ZM256.861 47.3247C256.867 46.1294 257.58 45.4291 258.618 45.4291C259.651 45.4291 260.272 46.1052 260.266 47.2402V52.6855H262.838V46.7814C262.838 44.6201 261.57 43.292 259.638 43.292C258.262 43.292 257.266 43.9682 256.849 45.0488H256.741V43.4128H254.29V52.6855H256.861V47.3247ZM268.197 52.8364C269.694 52.8364 270.473 51.9731 270.829 51.2004H270.938V52.6855H273.473V40.3218H270.907V44.9703H270.829C270.485 44.2157 269.742 43.292 268.191 43.292C266.156 43.292 264.436 44.8737 264.436 48.0612C264.436 51.1642 266.084 52.8364 268.197 52.8364ZM269.012 50.7899C267.75 50.7899 267.062 49.667 267.062 48.0491C267.062 46.4433 267.738 45.3385 269.012 45.3385C270.261 45.3385 270.962 46.395 270.962 48.0491C270.962 49.7032 270.249 50.7899 269.012 50.7899ZM278.147 52.8606C279.517 52.8606 280.405 52.2629 280.857 51.3996H280.93V52.6855H283.369V46.4312C283.369 44.2217 281.497 43.292 279.433 43.292C277.211 43.292 275.75 44.3545 275.394 46.0449L277.772 46.238C277.947 45.6223 278.497 45.1695 279.42 45.1695C280.296 45.1695 280.797 45.6102 280.797 46.3709V46.4071C280.797 47.0047 280.163 47.0832 278.551 47.2402C276.716 47.4092 275.068 48.025 275.068 50.0956C275.068 51.9309 276.378 52.8606 278.147 52.8606ZM278.883 51.0857C278.092 51.0857 277.525 50.7174 277.525 50.0111C277.525 49.2867 278.123 48.9305 279.028 48.8037C279.59 48.7253 280.507 48.5924 280.815 48.3872V49.3712C280.815 50.3432 280.012 51.0857 278.883 51.0857ZM290.211 43.4128H288.466V41.1912H285.895V43.4128H284.627V45.3446H285.895V50.1741C285.883 51.9912 287.12 52.8907 288.986 52.8123C289.65 52.7881 290.12 52.6553 290.38 52.5708L289.976 50.6571C289.849 50.6812 289.577 50.7416 289.336 50.7416C288.823 50.7416 288.466 50.5484 288.466 49.8361V45.3446H290.211V43.4128ZM295.928 52.8666C298.222 52.8666 299.767 51.7498 300.129 50.0292L297.751 49.8723C297.491 50.5786 296.827 50.9468 295.97 50.9468C294.684 50.9468 293.869 50.0956 293.869 48.7132V48.7071H300.184V48.0008C300.184 44.8495 298.276 43.292 295.825 43.292C293.096 43.292 291.327 45.2299 291.327 48.0914C291.327 51.0314 293.072 52.8666 295.928 52.8666ZM293.869 47.1134C293.923 46.0569 294.726 45.2118 295.867 45.2118C296.984 45.2118 297.757 46.0086 297.763 47.1134H293.869Z" fill="black"/>
<path d="M192.401 80.0553H193.239V74.6008H192.401V80.0553ZM192.827 73.6917C193.154 73.6917 193.424 73.436 193.424 73.1235C193.424 72.811 193.154 72.5553 192.827 72.5553C192.5 72.5553 192.23 72.811 192.23 73.1235C192.23 73.436 192.5 73.6917 192.827 73.6917ZM195.762 76.774C195.762 75.8223 196.351 75.2826 197.154 75.2826C197.932 75.2826 198.404 75.7904 198.404 76.6462V80.0553H199.242V76.5894C199.242 75.1973 198.5 74.5297 197.395 74.5297C196.572 74.5297 196.06 74.899 195.805 75.453H195.734V74.6008H194.924V80.0553H195.762V76.774ZM200.923 80.0553H201.762V78.0134L202.347 77.4701L204.389 80.0553H205.455L202.98 76.9303L205.284 74.6008H204.247L201.861 77.0297H201.762V72.7826H200.923V80.0553ZM207.351 72.7826H206.513V80.0553H207.351V72.7826ZM209.647 80.1121C209.998 80.1121 210.286 79.8245 210.286 79.4729C210.286 79.1213 209.998 78.8337 209.647 78.8337C209.295 78.8337 209.008 79.1213 209.008 79.4729C209.008 79.8245 209.295 80.1121 209.647 80.1121ZM214.888 80.0553H219.476V79.274H216.096V79.2172L217.729 77.4701C218.979 76.1313 219.348 75.5063 219.348 74.7002C219.348 73.578 218.439 72.6831 217.161 72.6831C215.886 72.6831 214.917 73.5496 214.917 74.828H215.755C215.755 74.0006 216.291 73.4502 217.133 73.4502C217.921 73.4502 218.525 73.9331 218.525 74.7002C218.525 75.3713 218.13 75.8685 217.289 76.7883L214.888 79.4161V80.0553ZM224.183 80.0553H226.811C228.53 80.0553 229.24 79.2172 229.24 78.1235C229.24 76.9729 228.445 76.3479 227.777 76.3053V76.2343C228.402 76.0638 228.956 75.6519 228.956 74.7144C228.956 73.649 228.246 72.7826 226.726 72.7826H224.183V80.0553ZM225.064 79.274V76.7456H226.854C227.805 76.7456 228.402 77.3848 228.402 78.1235C228.402 78.7627 227.962 79.274 226.811 79.274H225.064ZM225.064 75.9786V73.5638H226.726C227.692 73.5638 228.118 74.0752 228.118 74.7144C228.118 75.4814 227.493 75.9786 226.697 75.9786H225.064ZM230.723 80.0553H231.562V74.6008H230.723V80.0553ZM231.15 73.6917C231.476 73.6917 231.746 73.436 231.746 73.1235C231.746 72.811 231.476 72.5553 231.15 72.5553C230.823 72.5553 230.553 72.811 230.553 73.1235C230.553 73.436 230.823 73.6917 231.15 73.6917ZM234.085 72.7826H233.247V80.0553H234.085V72.7826ZM237.829 80.1689C238.88 80.1689 239.235 79.5155 239.42 79.2172H239.52V80.0553H240.329V72.7826H239.491V75.4672H239.42C239.235 75.1831 238.909 74.5297 237.843 74.5297C236.466 74.5297 235.514 75.6235 235.514 77.3422C235.514 79.0752 236.466 80.1689 237.829 80.1689ZM237.943 79.4161C236.892 79.4161 236.352 78.4928 236.352 77.328C236.352 76.1775 236.878 75.2826 237.943 75.2826C238.966 75.2826 239.505 76.1064 239.505 77.328C239.505 78.5638 238.951 79.4161 237.943 79.4161ZM244.417 80.1689C245.525 80.1689 246.335 79.615 246.591 78.7911L245.781 78.5638C245.568 79.132 245.074 79.4161 244.417 79.4161C243.434 79.4161 242.756 78.7804 242.716 77.6121H246.676V77.257C246.676 75.2258 245.469 74.5297 244.332 74.5297C242.855 74.5297 241.875 75.6945 241.875 77.3706C241.875 79.0468 242.841 80.1689 244.417 80.1689ZM242.716 76.8877C242.773 76.039 243.373 75.2826 244.332 75.2826C245.241 75.2826 245.824 75.9644 245.824 76.8877H242.716ZM248.101 80.0553H248.939V76.6036C248.939 75.865 249.521 75.3252 250.317 75.3252C250.54 75.3252 250.771 75.3678 250.828 75.382V74.5297C250.732 74.5226 250.512 74.5155 250.388 74.5155C249.734 74.5155 249.166 74.8848 248.967 75.4246H248.91V74.6008H248.101V80.0553ZM252.597 79.061H251.687L251.645 79.4587C251.542 80.4211 251.339 81.3799 251.247 81.8309H251.886C252.057 81.3479 252.419 80.2542 252.54 79.4445L252.597 79.061ZM193.395 86.7826H192.514V94.0553H193.395V86.7826ZM196.035 90.774C196.035 89.8223 196.625 89.2826 197.427 89.2826C198.205 89.2826 198.677 89.7904 198.677 90.6462V94.0553H199.516V90.5894C199.516 89.1973 198.773 88.5297 197.669 88.5297C196.845 88.5297 196.334 88.899 196.078 89.453H196.007V88.6008H195.197V94.0553H196.035V90.774ZM203.569 88.6008H202.404V87.2939H201.566V88.6008H200.742V89.311H201.566V92.7201C201.566 93.6718 202.333 94.1263 203.044 94.1263C203.356 94.1263 203.555 94.0695 203.669 94.0269L203.498 93.274C203.427 93.2883 203.313 93.3167 203.129 93.3167C202.759 93.3167 202.404 93.203 202.404 92.4928V89.311H203.569V88.6008ZM207.208 94.1689C208.316 94.1689 209.126 93.615 209.381 92.7911L208.572 92.5638C208.359 93.132 207.865 93.4161 207.208 93.4161C206.224 93.4161 205.546 92.7804 205.507 91.6121H209.467V91.257C209.467 89.2258 208.259 88.5297 207.123 88.5297C205.646 88.5297 204.665 89.6945 204.665 91.3706C204.665 93.0468 205.631 94.1689 207.208 94.1689ZM205.507 90.8877C205.564 90.039 206.164 89.2826 207.123 89.2826C208.032 89.2826 208.614 89.9644 208.614 90.8877H205.507ZM210.891 94.0553H211.73V90.6036C211.73 89.865 212.312 89.3252 213.107 89.3252C213.331 89.3252 213.562 89.3678 213.619 89.382V88.5297C213.523 88.5226 213.303 88.5155 213.178 88.5155C212.525 88.5155 211.957 88.8848 211.758 89.4246H211.701V88.6008H210.891V94.0553ZM216.883 94.1689C217.991 94.1689 218.801 93.615 219.056 92.7911L218.247 92.5638C218.034 93.132 217.54 93.4161 216.883 93.4161C215.899 93.4161 215.221 92.7804 215.182 91.6121H219.142V91.257C219.142 89.2258 217.934 88.5297 216.798 88.5297C215.321 88.5297 214.34 89.6945 214.34 91.3706C214.34 93.0468 215.306 94.1689 216.883 94.1689ZM215.182 90.8877C215.239 90.039 215.839 89.2826 216.798 89.2826C217.707 89.2826 218.289 89.9644 218.289 90.8877H215.182ZM224.43 89.8223C224.167 89.0482 223.578 88.5297 222.498 88.5297C221.348 88.5297 220.495 89.1831 220.495 90.1064C220.495 90.8593 220.943 91.3635 221.944 91.5979L222.853 91.811C223.404 91.9388 223.663 92.2016 223.663 92.578C223.663 93.0468 223.166 93.4303 222.385 93.4303C221.699 93.4303 221.27 93.1356 221.12 92.5496L220.325 92.7485C220.52 93.6753 221.284 94.1689 222.399 94.1689C223.667 94.1689 224.53 93.4765 224.53 92.5354C224.53 91.7755 224.054 91.2961 223.081 91.0581L222.271 90.8593C221.625 90.6995 221.334 90.4829 221.334 90.0638C221.334 89.5951 221.831 89.2542 222.498 89.2542C223.23 89.2542 223.532 89.659 223.677 90.0354L224.43 89.8223ZM229.805 89.8223C229.542 89.0482 228.952 88.5297 227.873 88.5297C226.722 88.5297 225.87 89.1831 225.87 90.1064C225.87 90.8593 226.317 91.3635 227.319 91.5979L228.228 91.811C228.778 91.9388 229.038 92.2016 229.038 92.578C229.038 93.0468 228.541 93.4303 227.759 93.4303C227.074 93.4303 226.644 93.1356 226.495 92.5496L225.7 92.7485C225.895 93.6753 226.658 94.1689 227.773 94.1689C229.041 94.1689 229.904 93.4765 229.904 92.5354C229.904 91.7755 229.428 91.2961 228.455 91.0581L227.646 90.8593C226.999 90.6995 226.708 90.4829 226.708 90.0638C226.708 89.5951 227.205 89.2542 227.873 89.2542C228.604 89.2542 228.906 89.659 229.052 90.0354L229.805 89.8223ZM233.603 94.1689C234.711 94.1689 235.52 93.615 235.776 92.7911L234.966 92.5638C234.753 93.132 234.26 93.4161 233.603 93.4161C232.619 93.4161 231.941 92.7804 231.902 91.6121H235.861V91.257C235.861 89.2258 234.654 88.5297 233.517 88.5297C232.04 88.5297 231.06 89.6945 231.06 91.3706C231.06 93.0468 232.026 94.1689 233.603 94.1689ZM231.902 90.8877C231.958 90.039 232.559 89.2826 233.517 89.2826C234.426 89.2826 235.009 89.9644 235.009 90.8877H231.902ZM238.124 90.774C238.124 89.8223 238.714 89.2826 239.516 89.2826C240.294 89.2826 240.766 89.7904 240.766 90.6462V94.0553H241.604V90.5894C241.604 89.1973 240.862 88.5297 239.758 88.5297C238.934 88.5297 238.422 88.899 238.167 89.453H238.096V88.6008H237.286V94.0553H238.124V90.774ZM244.536 93.061H243.627L243.584 93.4587C243.481 94.4211 243.278 95.3799 243.186 95.8309H243.825C243.996 95.3479 244.358 94.2542 244.479 93.4445L244.536 93.061ZM249.314 94.0553H250.124V93.2172H250.224C250.408 93.5155 250.763 94.1689 251.814 94.1689C253.178 94.1689 254.13 93.0752 254.13 91.3422C254.13 89.6235 253.178 88.5297 251.8 88.5297C250.735 88.5297 250.408 89.1831 250.224 89.4672H250.153V86.7826H249.314V94.0553ZM250.138 91.328C250.138 90.1064 250.678 89.2826 251.701 89.2826C252.766 89.2826 253.292 90.1775 253.292 91.328C253.292 92.4928 252.752 93.4161 251.701 93.4161C250.692 93.4161 250.138 92.5638 250.138 91.328ZM255.562 94.0553H256.4V88.6008H255.562V94.0553ZM255.988 87.6917C256.315 87.6917 256.585 87.436 256.585 87.1235C256.585 86.811 256.315 86.5553 255.988 86.5553C255.661 86.5553 255.391 86.811 255.391 87.1235C255.391 87.436 255.661 87.6917 255.988 87.6917ZM261.948 89.8223C261.686 89.0482 261.096 88.5297 260.017 88.5297C258.866 88.5297 258.014 89.1831 258.014 90.1064C258.014 90.8593 258.461 91.3635 259.463 91.5979L260.372 91.811C260.922 91.9388 261.181 92.2016 261.181 92.578C261.181 93.0468 260.684 93.4303 259.903 93.4303C259.218 93.4303 258.788 93.1356 258.639 92.5496L257.843 92.7485C258.039 93.6753 258.802 94.1689 259.917 94.1689C261.185 94.1689 262.048 93.4765 262.048 92.5354C262.048 91.7755 261.572 91.2961 260.599 91.0581L259.789 90.8593C259.143 90.6995 258.852 90.4829 258.852 90.0638C258.852 89.5951 259.349 89.2542 260.017 89.2542C260.748 89.2542 261.05 89.659 261.196 90.0354L261.948 89.8223ZM266.266 94.0553H270.541V93.274H267.43V93.2172L270.442 89.2684V88.6008H266.365V89.382H269.362V89.4388L266.266 93.4161V94.0553ZM275.42 91.8252C275.42 92.8479 274.638 93.3167 274.013 93.3167C273.317 93.3167 272.82 92.8053 272.82 92.0098V88.6008H271.982V92.0667C271.982 93.4587 272.721 94.1263 273.743 94.1263C274.567 94.1263 275.107 93.686 275.363 93.132H275.42V94.0553H276.258V88.6008H275.42V91.8252ZM283.448 86.7826H282.567L280.749 87.99V88.8848L282.524 87.7059H282.567V94.0553H283.448V86.7826ZM288.062 94.1547C289.667 94.1547 290.59 92.7946 290.59 90.4189C290.59 88.061 289.652 86.6831 288.062 86.6831C286.471 86.6831 285.533 88.061 285.533 90.4189C285.533 92.7946 286.456 94.1547 288.062 94.1547ZM288.062 93.3735C287.003 93.3735 286.385 92.3117 286.385 90.4189C286.385 88.5297 287.01 87.4502 288.062 87.4502C289.113 87.4502 289.738 88.5297 289.738 90.4189C289.738 92.3117 289.12 93.3735 288.062 93.3735ZM192.514 108.055H193.395V105.399H194.986C196.68 105.399 197.443 104.369 197.443 103.084C197.443 101.798 196.68 100.783 194.972 100.783H192.514V108.055ZM193.395 104.618V101.564H194.943C196.126 101.564 196.577 102.21 196.577 103.084C196.577 103.957 196.126 104.618 194.958 104.618H193.395ZM201.127 108.169C202.235 108.169 203.044 107.615 203.3 106.791L202.49 106.564C202.277 107.132 201.784 107.416 201.127 107.416C200.143 107.416 199.465 106.78 199.426 105.612H203.385V105.257C203.385 103.226 202.178 102.53 201.042 102.53C199.564 102.53 198.584 103.695 198.584 105.371C198.584 107.047 199.55 108.169 201.127 108.169ZM199.426 104.888C199.483 104.039 200.083 103.283 201.042 103.283C201.951 103.283 202.533 103.964 202.533 104.888H199.426ZM204.81 108.055H205.648V104.604C205.648 103.865 206.231 103.325 207.026 103.325C207.25 103.325 207.481 103.368 207.537 103.382V102.53C207.442 102.523 207.221 102.516 207.097 102.516C206.444 102.516 205.876 102.885 205.677 103.425H205.62V102.601H204.81V108.055ZM212.545 103.822C212.282 103.048 211.692 102.53 210.613 102.53C209.462 102.53 208.61 103.183 208.61 104.106C208.61 104.859 209.057 105.364 210.059 105.598L210.968 105.811C211.518 105.939 211.778 106.202 211.778 106.578C211.778 107.047 211.28 107.43 210.499 107.43C209.814 107.43 209.384 107.136 209.235 106.55L208.439 106.748C208.635 107.675 209.398 108.169 210.513 108.169C211.781 108.169 212.644 107.476 212.644 106.535C212.644 105.775 212.168 105.296 211.195 105.058L210.385 104.859C209.739 104.699 209.448 104.483 209.448 104.064C209.448 103.595 209.945 103.254 210.613 103.254C211.344 103.254 211.646 103.659 211.792 104.035L212.545 103.822ZM216.271 108.169C217.749 108.169 218.743 107.047 218.743 105.356C218.743 103.652 217.749 102.53 216.271 102.53C214.794 102.53 213.8 103.652 213.8 105.356C213.8 107.047 214.794 108.169 216.271 108.169ZM216.271 107.416C215.149 107.416 214.638 106.45 214.638 105.356C214.638 104.263 215.149 103.283 216.271 103.283C217.394 103.283 217.905 104.263 217.905 105.356C217.905 106.45 217.394 107.416 216.271 107.416ZM221.01 104.774C221.01 103.822 221.6 103.283 222.402 103.283C223.18 103.283 223.652 103.79 223.652 104.646V108.055H224.491V104.589C224.491 103.197 223.748 102.53 222.644 102.53C221.82 102.53 221.309 102.899 221.053 103.453H220.982V102.601H220.172V108.055H221.01V104.774ZM228.459 108.169C229.567 108.169 230.376 107.615 230.632 106.791L229.822 106.564C229.609 107.132 229.116 107.416 228.459 107.416C227.475 107.416 226.797 106.78 226.758 105.612H230.717V105.257C230.717 103.226 229.51 102.53 228.374 102.53C226.896 102.53 225.916 103.695 225.916 105.371C225.916 107.047 226.882 108.169 228.459 108.169ZM226.758 104.888C226.815 104.039 227.415 103.283 228.374 103.283C229.283 103.283 229.865 103.964 229.865 104.888H226.758ZM232.98 104.774C232.98 103.822 233.57 103.283 234.372 103.283C235.15 103.283 235.622 103.79 235.622 104.646V108.055H236.46V104.589C236.46 103.197 235.718 102.53 234.614 102.53C233.79 102.53 233.279 102.899 233.023 103.453H232.952V102.601H232.142V108.055H232.98V104.774Z" fill="black"/>
<path d="M198.683 123.302C198.48 121.622 197.209 120.657 195.526 120.657C193.605 120.657 192.138 122.013 192.138 124.392C192.138 126.764 193.58 128.128 195.526 128.128C197.39 128.128 198.516 126.889 198.683 125.55L197.127 125.543C196.982 126.321 196.371 126.768 195.551 126.768C194.446 126.768 193.697 125.948 193.697 124.392C193.697 122.88 194.436 122.017 195.561 122.017C196.403 122.017 197.01 122.503 197.127 123.302H198.683ZM199.935 128.029H201.473V125.024H204.595V128.029H206.129V120.756H204.595V123.757H201.473V120.756H199.935V128.029ZM207.546 128.029H209.084V125.024H212.042V123.757H209.084V122.024H212.362V120.756H207.546V128.029ZM218.599 120.635C216.973 120.628 215.875 121.693 215.883 123.171C215.875 124.534 216.827 125.518 218.116 125.518C218.915 125.518 219.625 125.131 219.949 124.492H219.998C219.995 125.934 219.494 126.811 218.546 126.811C217.988 126.811 217.587 126.505 217.47 125.976H215.954C216.096 127.201 217.09 128.128 218.546 128.128C220.346 128.128 221.5 126.672 221.504 124.204C221.5 121.544 220.094 120.639 218.599 120.635ZM218.61 121.843C219.317 121.843 219.839 122.418 219.846 123.121C219.839 123.828 219.299 124.403 218.596 124.403C217.885 124.403 217.367 123.849 217.374 123.128C217.367 122.4 217.896 121.843 218.61 121.843ZM223.618 128.121C224.072 128.121 224.467 127.741 224.47 127.269C224.467 126.804 224.072 126.424 223.618 126.424C223.149 126.424 222.762 126.804 222.766 127.269C222.762 127.741 223.149 128.121 223.618 128.121ZM228.479 120.635C226.853 120.628 225.756 121.693 225.763 123.171C225.756 124.534 226.707 125.518 227.996 125.518C228.795 125.518 229.506 125.131 229.829 124.492H229.878C229.875 125.934 229.374 126.811 228.426 126.811C227.868 126.811 227.467 126.505 227.35 125.976H225.834C225.976 127.201 226.97 128.128 228.426 128.128C230.226 128.128 231.381 126.672 231.384 124.204C231.381 121.544 229.974 120.639 228.479 120.635ZM228.49 121.843C229.197 121.843 229.719 122.418 229.726 123.121C229.719 123.828 229.179 124.403 228.476 124.403C227.766 124.403 227.247 123.849 227.254 123.128C227.247 122.4 227.776 121.843 228.49 121.843ZM235.256 128.128C236.875 128.128 237.976 127.073 237.972 125.603C237.976 124.211 237.003 123.21 235.692 123.21C235.053 123.21 234.503 123.476 234.247 123.835H234.205L234.393 122.013H237.571V120.756H233.125L232.781 124.591L234.148 124.836C234.371 124.534 234.805 124.346 235.234 124.346C235.966 124.35 236.491 124.879 236.491 125.642C236.491 126.399 235.977 126.921 235.256 126.921C234.645 126.921 234.151 126.537 234.116 125.973H232.624C232.653 127.23 233.75 128.128 235.256 128.128Z" fill="black"/>
<path d="M197.873 150.685C197.873 146.267 201.455 142.685 205.873 142.685H292.873C297.291 142.685 300.873 146.267 300.873 150.685V181.685C300.873 186.104 297.291 189.685 292.873 189.685H205.873C201.455 189.685 197.873 186.104 197.873 181.685V150.685Z" fill="#C42126"/>
<path d="M211.985 170.685V161.443H215.223C216.344 161.443 217.195 161.659 217.774 162.091C218.354 162.518 218.644 163.147 218.644 163.976C218.644 164.429 218.528 164.829 218.295 165.176C218.062 165.518 217.738 165.77 217.324 165.931C217.798 166.05 218.17 166.289 218.441 166.648C218.716 167.008 218.854 167.448 218.854 167.969C218.854 168.857 218.57 169.53 218.003 169.987C217.436 170.444 216.628 170.677 215.578 170.685H211.985ZM213.89 166.661V169.156H215.521C215.97 169.156 216.319 169.05 216.568 168.838C216.822 168.622 216.949 168.326 216.949 167.95C216.949 167.103 216.511 166.674 215.635 166.661H213.89ZM213.89 165.315H215.299C216.259 165.298 216.74 164.915 216.74 164.166C216.74 163.747 216.617 163.447 216.372 163.265C216.13 163.079 215.747 162.986 215.223 162.986H213.89V165.315ZM225.849 166.68H222.192V169.156H226.483V170.685H220.288V161.443H226.471V162.986H222.192V165.188H225.849V166.68ZM232.818 168.781H229.479L228.845 170.685H226.82L230.26 161.443H232.025L235.484 170.685H233.459L232.818 168.781ZM229.994 167.239H232.304L231.143 163.779L229.994 167.239ZM239.769 167.302H238.252V170.685H236.348V161.443H239.782C240.874 161.443 241.716 161.687 242.308 162.173C242.901 162.66 243.197 163.348 243.197 164.236C243.197 164.867 243.059 165.394 242.784 165.817C242.513 166.236 242.101 166.57 241.546 166.82L243.546 170.597V170.685H241.502L239.769 167.302ZM238.252 165.76H239.788C240.266 165.76 240.637 165.639 240.899 165.398C241.161 165.152 241.292 164.816 241.292 164.389C241.292 163.953 241.168 163.61 240.918 163.36C240.673 163.111 240.294 162.986 239.782 162.986H238.252V165.76ZM244.65 170.685V161.443H247.888C249.009 161.443 249.86 161.659 250.439 162.091C251.019 162.518 251.309 163.147 251.309 163.976C251.309 164.429 251.193 164.829 250.96 165.176C250.727 165.518 250.403 165.77 249.989 165.931C250.463 166.05 250.835 166.289 251.106 166.648C251.381 167.008 251.519 167.448 251.519 167.969C251.519 168.857 251.235 169.53 250.668 169.987C250.101 170.444 249.293 170.677 248.243 170.685H244.65ZM246.555 166.661V169.156H248.186C248.635 169.156 248.984 169.05 249.233 168.838C249.487 168.622 249.614 168.326 249.614 167.95C249.614 167.103 249.176 166.674 248.3 166.661H246.555ZM246.555 165.315H247.964C248.924 165.298 249.405 164.915 249.405 164.166C249.405 163.747 249.282 163.447 249.037 163.265C248.795 163.079 248.412 162.986 247.888 162.986H246.555V165.315ZM258.514 166.68H254.857V169.156H259.148V170.685H252.953V161.443H259.136V162.986H254.857V165.188H258.514V166.68ZM262.291 170.685H260.386V161.443H262.291V170.685ZM270.828 162.986H267.997V170.685H266.093V162.986H263.3V161.443H270.828V162.986ZM277.48 166.68H273.824V169.156H278.115V170.685H271.92V161.443H278.103V162.986H273.824V165.188H277.48V166.68ZM286.748 170.685H284.844L281.137 164.604V170.685H279.232V161.443H281.137L284.85 167.537V161.443H286.748V170.685Z" fill="white"/>
<path d="M392.629 123.302C392.427 121.622 391.155 120.657 389.472 120.657C387.551 120.657 386.084 122.013 386.084 124.392C386.084 126.764 387.526 128.128 389.472 128.128C391.336 128.128 392.462 126.889 392.629 125.55L391.074 125.543C390.928 126.321 390.317 126.768 389.497 126.768C388.393 126.768 387.643 125.948 387.643 124.392C387.643 122.88 388.382 122.017 389.508 122.017C390.349 122.017 390.956 122.503 391.074 123.302H392.629ZM393.882 128.029H395.419V125.024H398.541V128.029H400.075V120.756H398.541V123.757H395.419V120.756H393.882V128.029ZM401.493 128.029H403.03V125.024H405.988V123.757H403.03V122.024H406.308V120.756H401.493V128.029ZM412.545 120.635C410.919 120.628 409.822 121.693 409.829 123.171C409.822 124.534 410.773 125.518 412.063 125.518C412.862 125.518 413.572 125.131 413.895 124.492H413.945C413.941 125.934 413.44 126.811 412.492 126.811C411.935 126.811 411.533 126.505 411.416 125.976H409.9C410.042 127.201 411.036 128.128 412.492 128.128C414.293 128.128 415.447 126.672 415.45 124.204C415.447 121.544 414.041 120.639 412.545 120.635ZM412.556 121.843C413.263 121.843 413.785 122.418 413.792 123.121C413.785 123.828 413.245 124.403 412.542 124.403C411.832 124.403 411.313 123.849 411.32 123.128C411.313 122.4 411.842 121.843 412.556 121.843ZM417.564 128.121C418.019 128.121 418.413 127.741 418.416 127.269C418.413 126.804 418.019 126.424 417.564 126.424C417.095 126.424 416.708 126.804 416.712 127.269C416.708 127.741 417.095 128.121 417.564 128.121ZM422.426 120.635C420.799 120.628 419.702 121.693 419.709 123.171C419.702 124.534 420.654 125.518 421.943 125.518C422.742 125.518 423.452 125.131 423.775 124.492H423.825C423.821 125.934 423.32 126.811 422.372 126.811C421.815 126.811 421.413 126.505 421.296 125.976H419.78C419.922 127.201 420.916 128.128 422.372 128.128C424.173 128.128 425.327 126.672 425.33 124.204C425.327 121.544 423.921 120.639 422.426 120.635ZM422.436 121.843C423.143 121.843 423.665 122.418 423.672 123.121C423.665 123.828 423.125 124.403 422.422 124.403C421.712 124.403 421.193 123.849 421.2 123.128C421.193 122.4 421.722 121.843 422.436 121.843ZM429.202 128.128C430.821 128.128 431.922 127.073 431.919 125.603C431.922 124.211 430.949 123.21 429.639 123.21C429 123.21 428.449 123.476 428.193 123.835H428.151L428.339 122.013H431.517V120.756H427.071L426.727 124.591L428.094 124.836C428.318 124.534 428.751 124.346 429.181 124.346C429.912 124.35 430.438 124.879 430.438 125.642C430.438 126.399 429.923 126.921 429.202 126.921C428.591 126.921 428.098 126.537 428.062 125.973H426.571C426.599 127.23 427.696 128.128 429.202 128.128Z" fill="black"/>
<path d="M337.475 32.6855C337.475 24.9535 343.743 18.6855 351.475 18.6855H468.839C476.571 18.6855 482.839 24.9535 482.839 32.6855V184.685C482.839 192.417 476.571 198.685 468.839 198.685H351.475C343.743 198.685 337.475 192.417 337.475 184.685V32.6855Z" fill="white"/>
<path d="M354.073 52.6855H356.687V47.5782H361.715V45.4231H356.687V42.477H362.259V40.3218H354.073V52.6855ZM367.429 52.8666C369.723 52.8666 371.268 51.7498 371.631 50.0292L369.252 49.8723C368.992 50.5786 368.328 50.9468 367.471 50.9468C366.185 50.9468 365.37 50.0956 365.37 48.7132V48.7071H371.685V48.0008C371.685 44.8495 369.777 43.292 367.326 43.292C364.598 43.292 362.829 45.2299 362.829 48.0914C362.829 51.0314 364.573 52.8666 367.429 52.8666ZM365.37 47.1134C365.425 46.0569 366.227 45.2118 367.368 45.2118C368.485 45.2118 369.258 46.0086 369.264 47.1134H365.37ZM378.21 43.4128H376.466V41.1912H373.894V43.4128H372.626V45.3446H373.894V50.1741C373.882 51.9912 375.119 52.8907 376.985 52.8123C377.649 52.7881 378.12 52.6553 378.379 52.5708L377.975 50.6571C377.848 50.6812 377.576 50.7416 377.335 50.7416C376.822 50.7416 376.466 50.5484 376.466 49.8361V45.3446H378.21V43.4128ZM379.801 52.6855H382.372V43.4128H379.801V52.6855ZM381.092 42.2174C381.859 42.2174 382.487 41.6319 382.487 40.9135C382.487 40.2011 381.859 39.6155 381.092 39.6155C380.332 39.6155 379.704 40.2011 379.704 40.9135C379.704 41.6319 380.332 42.2174 381.092 42.2174ZM392.063 46.0569C391.833 44.3485 390.457 43.292 388.114 43.292C385.742 43.292 384.178 44.3907 384.184 46.1777C384.178 47.5662 385.054 48.4657 386.865 48.8279L388.471 49.1478C389.28 49.3108 389.648 49.6067 389.66 50.0715C389.648 50.6209 389.05 51.0133 388.151 51.0133C387.233 51.0133 386.623 50.6209 386.466 49.8662L383.937 49.9991C384.178 51.7739 385.688 52.8666 388.145 52.8666C390.547 52.8666 392.268 51.6411 392.274 49.8119C392.268 48.4717 391.393 47.6688 389.594 47.3005L387.915 46.9625C387.052 46.7753 386.732 46.4795 386.738 46.0328C386.732 45.4774 387.36 45.1152 388.157 45.1152C389.05 45.1152 389.581 45.6042 389.708 46.2018L392.063 46.0569ZM397.998 52.8666C400.467 52.8666 402.019 51.4177 402.139 49.2867H399.712C399.562 50.2767 398.91 50.8321 398.028 50.8321C396.827 50.8321 396.048 49.824 396.048 48.0491C396.048 46.2984 396.833 45.2963 398.028 45.2963C398.97 45.2963 399.574 45.9181 399.712 46.8417H402.139C402.031 44.6986 400.407 43.292 397.986 43.292C395.173 43.292 393.434 45.2419 393.434 48.0853C393.434 50.9046 395.142 52.8666 397.998 52.8666ZM406.273 47.3247C406.279 46.1294 407.009 45.4291 408.06 45.4291C409.104 45.4291 409.72 46.0992 409.714 47.2402V52.6855H412.285V46.7814C412.291 44.6081 411.012 43.292 409.08 43.292C407.673 43.292 406.731 43.9561 406.309 45.0488H406.2V40.3218H403.701V52.6855H406.273V47.3247ZM418.122 52.6855H420.736V48.677H422.934C425.777 48.677 427.431 46.9806 427.431 44.5115C427.431 42.0544 425.807 40.3218 423 40.3218H418.122V52.6855ZM420.736 46.5821V42.4589H422.499C424.008 42.4589 424.739 43.2799 424.739 44.5115C424.739 45.737 424.008 46.5821 422.511 46.5821H420.736ZM431.391 52.8606C432.761 52.8606 433.649 52.2629 434.101 51.3996H434.174V52.6855H436.613V46.4312C436.613 44.2217 434.741 43.292 432.677 43.292C430.455 43.292 428.994 44.3545 428.638 46.0449L431.017 46.238C431.192 45.6223 431.741 45.1695 432.665 45.1695C433.54 45.1695 434.041 45.6102 434.041 46.3709V46.4071C434.041 47.0047 433.407 47.0832 431.795 47.2402C429.96 47.4092 428.312 48.025 428.312 50.0956C428.312 51.9309 429.622 52.8606 431.391 52.8606ZM432.127 51.0857C431.336 51.0857 430.769 50.7174 430.769 50.0111C430.769 49.2867 431.367 48.9305 432.272 48.8037C432.834 48.7253 433.751 48.5924 434.059 48.3872V49.3712C434.059 50.3432 433.256 51.0857 432.127 51.0857ZM438.523 52.6855H441.095V49.7395L441.789 48.9486L444.318 52.6855H447.331L443.715 47.4273L447.156 43.4128H444.204L441.234 46.9323H441.095V40.3218H438.523V52.6855ZM452.177 52.8666C454.471 52.8666 456.016 51.7498 456.378 50.0292L454 49.8723C453.74 50.5786 453.076 50.9468 452.219 50.9468C450.933 50.9468 450.118 50.0956 450.118 48.7132V48.7071H456.433V48.0008C456.433 44.8495 454.525 43.292 452.074 43.292C449.345 43.292 447.576 45.2299 447.576 48.0914C447.576 51.0314 449.321 52.8666 452.177 52.8666ZM450.118 47.1134C450.172 46.0569 450.975 45.2118 452.116 45.2118C453.233 45.2118 454.006 46.0086 454.012 47.1134H450.118ZM462.958 43.4128H461.213V41.1912H458.642V43.4128H457.374V45.3446H458.642V50.1741C458.63 51.9912 459.867 52.8907 461.732 52.8123C462.397 52.7881 462.867 52.6553 463.127 52.5708L462.723 50.6571C462.596 50.6812 462.324 50.7416 462.083 50.7416C461.569 50.7416 461.213 50.5484 461.213 49.8361V45.3446H462.958V43.4128Z" fill="black"/>
<path d="M353.765 80.0553H354.603V74.6008H353.765V80.0553ZM354.191 73.6917C354.518 73.6917 354.788 73.436 354.788 73.1235C354.788 72.811 354.518 72.5553 354.191 72.5553C353.865 72.5553 353.595 72.811 353.595 73.1235C353.595 73.436 353.865 73.6917 354.191 73.6917ZM357.126 76.774C357.126 75.8223 357.716 75.2826 358.518 75.2826C359.296 75.2826 359.768 75.7904 359.768 76.6462V80.0553H360.606V76.5894C360.606 75.1973 359.864 74.5297 358.76 74.5297C357.936 74.5297 357.425 74.899 357.169 75.453H357.098V74.6008H356.288V80.0553H357.126V76.774ZM362.288 80.0553H363.126V78.0134L363.712 77.4701L365.754 80.0553H366.819L364.344 76.9303L366.649 74.6008H365.612L363.225 77.0297H363.126V72.7826H362.288V80.0553ZM368.715 72.7826H367.877V80.0553H368.715V72.7826ZM371.011 80.1121C371.363 80.1121 371.65 79.8245 371.65 79.4729C371.65 79.1213 371.363 78.8337 371.011 78.8337C370.659 78.8337 370.372 79.1213 370.372 79.4729C370.372 79.8245 370.659 80.1121 371.011 80.1121ZM378.525 80.1547C379.91 80.1547 380.926 79.132 380.926 77.74C380.926 76.3302 379.946 75.2968 378.61 75.2968C378.12 75.2968 377.644 75.4708 377.346 75.7087H377.304L377.559 73.5638H380.599V72.7826H376.821L376.38 76.3621L377.204 76.4615C377.506 76.2449 378.021 76.0887 378.468 76.0922C379.395 76.0993 380.073 76.8025 380.073 77.7542C380.073 78.6881 379.42 79.3735 378.525 79.3735C377.779 79.3735 377.186 78.8941 377.119 78.2371H376.267C376.32 79.3451 377.275 80.1547 378.525 80.1547ZM385.577 80.0553H388.205C389.923 80.0553 390.634 79.2172 390.634 78.1235C390.634 76.9729 389.838 76.3479 389.171 76.3053V76.2343C389.796 76.0638 390.35 75.6519 390.35 74.7144C390.35 73.649 389.639 72.7826 388.119 72.7826H385.577V80.0553ZM386.457 79.274V76.7456H388.247C389.199 76.7456 389.796 77.3848 389.796 78.1235C389.796 78.7627 389.355 79.274 388.205 79.274H386.457ZM386.457 75.9786V73.5638H388.119C389.085 73.5638 389.511 74.0752 389.511 74.7144C389.511 75.4814 388.886 75.9786 388.091 75.9786H386.457ZM392.117 80.0553H392.955V74.6008H392.117V80.0553ZM392.543 73.6917C392.87 73.6917 393.14 73.436 393.14 73.1235C393.14 72.811 392.87 72.5553 392.543 72.5553C392.216 72.5553 391.947 72.811 391.947 73.1235C391.947 73.436 392.216 73.6917 392.543 73.6917ZM395.478 72.7826H394.64V80.0553H395.478V72.7826ZM399.223 80.1689C400.274 80.1689 400.629 79.5155 400.814 79.2172H400.913V80.0553H401.723V72.7826H400.885V75.4672H400.814C400.629 75.1831 400.302 74.5297 399.237 74.5297C397.859 74.5297 396.907 75.6235 396.907 77.3422C396.907 79.0752 397.859 80.1689 399.223 80.1689ZM399.336 79.4161C398.285 79.4161 397.746 78.4928 397.746 77.328C397.746 76.1775 398.271 75.2826 399.336 75.2826C400.359 75.2826 400.899 76.1064 400.899 77.328C400.899 78.5638 400.345 79.4161 399.336 79.4161ZM405.811 80.1689C406.919 80.1689 407.729 79.615 407.984 78.7911L407.175 78.5638C406.962 79.132 406.468 79.4161 405.811 79.4161C404.827 79.4161 404.149 78.7804 404.11 77.6121H408.07V77.257C408.07 75.2258 406.862 74.5297 405.726 74.5297C404.249 74.5297 403.268 75.6945 403.268 77.3706C403.268 79.0468 404.234 80.1689 405.811 80.1689ZM404.11 76.8877C404.167 76.039 404.767 75.2826 405.726 75.2826C406.635 75.2826 407.217 75.9644 407.217 76.8877H404.11ZM409.494 80.0553H410.332V76.6036C410.332 75.865 410.915 75.3252 411.71 75.3252C411.934 75.3252 412.165 75.3678 412.222 75.382V74.5297C412.126 74.5226 411.906 74.5155 411.781 74.5155C411.128 74.5155 410.56 74.8848 410.361 75.4246H410.304V74.6008H409.494V80.0553ZM413.99 79.061H413.081L413.038 79.4587C412.935 80.4211 412.733 81.3799 412.641 81.8309H413.28C413.45 81.3479 413.813 80.2542 413.933 79.4445L413.99 79.061ZM418.769 80.0553H423.03V79.274H419.65V72.7826H418.769V80.0553ZM424.43 80.0553H425.268V74.6008H424.43V80.0553ZM424.856 73.6917C425.183 73.6917 425.453 73.436 425.453 73.1235C425.453 72.811 425.183 72.5553 424.856 72.5553C424.53 72.5553 424.26 72.811 424.26 73.1235C424.26 73.436 424.53 73.6917 424.856 73.6917ZM431.414 74.6008H430.505L428.999 78.9473H428.942L427.436 74.6008H426.527L428.544 80.0553H429.397L431.414 74.6008ZM434.761 80.1689C435.869 80.1689 436.679 79.615 436.935 78.7911L436.125 78.5638C435.912 79.132 435.418 79.4161 434.761 79.4161C433.778 79.4161 433.099 78.7804 433.06 77.6121H437.02V77.257C437.02 75.2258 435.813 74.5297 434.676 74.5297C433.199 74.5297 432.219 75.6945 432.219 77.3706C432.219 79.0468 433.185 80.1689 434.761 80.1689ZM433.06 76.8877C433.117 76.039 433.717 75.2826 434.676 75.2826C435.585 75.2826 436.168 75.9644 436.168 76.8877H433.06ZM354.177 86.7826H353.254L355.924 94.0553H356.833L359.504 86.7826H358.58L356.421 92.9047H356.336L354.177 86.7826ZM360.673 94.0553H361.511V88.6008H360.673V94.0553ZM361.099 87.6917C361.426 87.6917 361.696 87.436 361.696 87.1235C361.696 86.811 361.426 86.5553 361.099 86.5553C360.772 86.5553 360.502 86.811 360.502 87.1235C360.502 87.436 360.772 87.6917 361.099 87.6917ZM365.256 94.1689C366.307 94.1689 366.662 93.5155 366.847 93.2172H366.946V94.0553H367.756V86.7826H366.918V89.4672H366.847C366.662 89.1831 366.335 88.5297 365.27 88.5297C363.892 88.5297 362.94 89.6235 362.94 91.3422C362.94 93.0752 363.892 94.1689 365.256 94.1689ZM365.369 93.4161C364.318 93.4161 363.778 92.4928 363.778 91.328C363.778 90.1775 364.304 89.2826 365.369 89.2826C366.392 89.2826 366.932 90.1064 366.932 91.328C366.932 92.5638 366.378 93.4161 365.369 93.4161ZM371.844 94.1689C372.952 94.1689 373.761 93.615 374.017 92.7911L373.207 92.5638C372.994 93.132 372.501 93.4161 371.844 93.4161C370.86 93.4161 370.182 92.7804 370.143 91.6121H374.102V91.257C374.102 89.2258 372.895 88.5297 371.759 88.5297C370.281 88.5297 369.301 89.6945 369.301 91.3706C369.301 93.0468 370.267 94.1689 371.844 94.1689ZM370.143 90.8877C370.2 90.039 370.8 89.2826 371.759 89.2826C372.668 89.2826 373.25 89.9644 373.25 90.8877H370.143ZM377.743 94.1689C379.22 94.1689 380.215 93.0468 380.215 91.3564C380.215 89.6519 379.22 88.5297 377.743 88.5297C376.266 88.5297 375.272 89.6519 375.272 91.3564C375.272 93.0468 376.266 94.1689 377.743 94.1689ZM377.743 93.4161C376.621 93.4161 376.11 92.4502 376.11 91.3564C376.11 90.2627 376.621 89.2826 377.743 89.2826C378.865 89.2826 379.377 90.2627 379.377 91.3564C379.377 92.4502 378.865 93.4161 377.743 93.4161ZM385.508 89.8223C385.245 89.0482 384.655 88.5297 383.576 88.5297C382.425 88.5297 381.573 89.1831 381.573 90.1064C381.573 90.8593 382.02 91.3635 383.022 91.5979L383.931 91.811C384.481 91.9388 384.741 92.2016 384.741 92.578C384.741 93.0468 384.243 93.4303 383.462 93.4303C382.777 93.4303 382.347 93.1356 382.198 92.5496L381.403 92.7485C381.598 93.6753 382.361 94.1689 383.476 94.1689C384.744 94.1689 385.607 93.4765 385.607 92.5354C385.607 91.7755 385.131 91.2961 384.158 91.0581L383.349 90.8593C382.702 90.6995 382.411 90.4829 382.411 90.0638C382.411 89.5951 382.908 89.2542 383.576 89.2542C384.307 89.2542 384.609 89.659 384.755 90.0354L385.508 89.8223ZM388.269 93.061H387.36L387.317 93.4587C387.214 94.4211 387.012 95.3799 386.919 95.8309H387.558C387.729 95.3479 388.091 94.2542 388.212 93.4445L388.269 93.061ZM392.65 87.5638H394.937V94.0553H395.817V87.5638H398.104V86.7826H392.65V87.5638ZM399.5 94.0553H400.338V88.6008H399.5V94.0553ZM399.926 87.6917C400.253 87.6917 400.523 87.436 400.523 87.1235C400.523 86.811 400.253 86.5553 399.926 86.5553C399.599 86.5553 399.329 86.811 399.329 87.1235C399.329 87.436 399.599 87.6917 399.926 87.6917ZM402.023 96.1008H402.861V93.2172H402.932C403.117 93.5155 403.472 94.1689 404.523 94.1689C405.887 94.1689 406.838 93.0752 406.838 91.3422C406.838 89.6235 405.887 88.5297 404.509 88.5297C403.443 88.5297 403.117 89.1831 402.932 89.4672H402.833V88.6008H402.023V96.1008ZM402.847 91.328C402.847 90.1064 403.387 89.2826 404.409 89.2826C405.475 89.2826 406 90.1775 406 91.328C406 92.4928 405.46 93.4161 404.409 93.4161C403.401 93.4161 402.847 92.5638 402.847 91.328ZM408.267 96.1008H409.105V93.2172H409.176C409.36 93.5155 409.716 94.1689 410.767 94.1689C412.13 94.1689 413.082 93.0752 413.082 91.3422C413.082 89.6235 412.13 88.5297 410.752 88.5297C409.687 88.5297 409.36 89.1831 409.176 89.4672H409.076V88.6008H408.267V96.1008ZM409.091 91.328C409.091 90.1064 409.63 89.2826 410.653 89.2826C411.718 89.2826 412.244 90.1775 412.244 91.328C412.244 92.4928 411.704 93.4161 410.653 93.4161C409.644 93.4161 409.091 92.5638 409.091 91.328ZM418.374 89.8223C418.111 89.0482 417.522 88.5297 416.442 88.5297C415.292 88.5297 414.439 89.1831 414.439 90.1064C414.439 90.8593 414.887 91.3635 415.888 91.5979L416.797 91.811C417.348 91.9388 417.607 92.2016 417.607 92.578C417.607 93.0468 417.11 93.4303 416.329 93.4303C415.643 93.4303 415.214 93.1356 415.064 92.5496L414.269 92.7485C414.464 93.6753 415.228 94.1689 416.343 94.1689C417.611 94.1689 418.473 93.4765 418.473 92.5354C418.473 91.7755 417.998 91.2961 417.025 91.0581L416.215 90.8593C415.569 90.6995 415.277 90.4829 415.277 90.0638C415.277 89.5951 415.775 89.2542 416.442 89.2542C417.174 89.2542 417.476 89.659 417.621 90.0354L418.374 89.8223Z" fill="black"/>
<path d="M360.047 123.302C359.845 121.622 358.573 120.657 356.89 120.657C354.969 120.657 353.502 122.013 353.502 124.392C353.502 126.764 354.944 128.128 356.89 128.128C358.754 128.128 359.88 126.889 360.047 125.55L358.492 125.543C358.346 126.321 357.735 126.768 356.915 126.768C355.811 126.768 355.061 125.948 355.061 124.392C355.061 122.88 355.8 122.017 356.926 122.017C357.767 122.017 358.374 122.503 358.492 123.302H360.047ZM361.3 128.029H362.837V125.024H365.959V128.029H367.493V120.756H365.959V123.757H362.837V120.756H361.3V128.029ZM368.911 128.029H370.448V125.024H373.406V123.757H370.448V122.024H373.726V120.756H368.911V128.029ZM377.332 128.029H382.517V126.772H379.463V126.722L380.525 125.681C382.02 124.318 382.421 123.636 382.421 122.809C382.421 121.548 381.391 120.657 379.832 120.657C378.305 120.657 377.257 121.569 377.261 122.997H378.721C378.717 122.301 379.157 121.875 379.821 121.875C380.461 121.875 380.936 122.272 380.936 122.911C380.936 123.49 380.581 123.888 379.921 124.524L377.332 126.921V128.029ZM386.412 120.635C384.786 120.628 383.689 121.693 383.696 123.171C383.689 124.534 384.64 125.518 385.929 125.518C386.728 125.518 387.439 125.131 387.762 124.492H387.811C387.808 125.934 387.307 126.811 386.359 126.811C385.801 126.811 385.4 126.505 385.283 125.976H383.767C383.909 127.201 384.903 128.128 386.359 128.128C388.159 128.128 389.314 126.672 389.317 124.204C389.314 121.544 387.907 120.639 386.412 120.635ZM386.423 121.843C387.13 121.843 387.652 122.418 387.659 123.121C387.652 123.828 387.112 124.403 386.409 124.403C385.699 124.403 385.18 123.849 385.187 123.128C385.18 122.4 385.709 121.843 386.423 121.843ZM391.431 128.121C391.885 128.121 392.28 127.741 392.283 127.269C392.28 126.804 391.885 126.424 391.431 126.424C390.962 126.424 390.575 126.804 390.579 127.269C390.575 127.741 390.962 128.121 391.431 128.121ZM396.292 120.635C394.666 120.628 393.569 121.693 393.576 123.171C393.569 124.534 394.52 125.518 395.809 125.518C396.608 125.518 397.319 125.131 397.642 124.492H397.692C397.688 125.934 397.187 126.811 396.239 126.811C395.682 126.811 395.28 126.505 395.163 125.976H393.647C393.789 127.201 394.783 128.128 396.239 128.128C398.04 128.128 399.194 126.672 399.197 124.204C399.194 121.544 397.787 120.639 396.292 120.635ZM396.303 121.843C397.01 121.843 397.532 122.418 397.539 123.121C397.532 123.828 396.992 124.403 396.289 124.403C395.579 124.403 395.06 123.849 395.067 123.128C395.06 122.4 395.589 121.843 396.303 121.843ZM403.069 128.128C404.688 128.128 405.789 127.073 405.785 125.603C405.789 124.211 404.816 123.21 403.506 123.21C402.866 123.21 402.316 123.476 402.06 123.835H402.018L402.206 122.013H405.384V120.756H400.938L400.594 124.591L401.961 124.836C402.185 124.534 402.618 124.346 403.047 124.346C403.779 124.35 404.305 124.879 404.305 125.642C404.305 126.399 403.79 126.921 403.069 126.921C402.458 126.921 401.964 126.537 401.929 125.973H400.437C400.466 127.23 401.563 128.128 403.069 128.128Z" fill="black"/>
<path d="M355.738 150.685C355.738 146.267 359.32 142.685 363.738 142.685H457.738C462.157 142.685 465.738 146.267 465.738 150.685V181.685C465.738 186.104 462.157 189.685 457.738 189.685H363.738C359.32 189.685 355.738 186.104 355.738 181.685V150.685Z" fill="#C42126"/>
<path d="M373.351 170.685V161.443H376.588C377.709 161.443 378.56 161.659 379.14 162.091C379.719 162.518 380.009 163.147 380.009 163.976C380.009 164.429 379.893 164.829 379.66 165.176C379.427 165.518 379.104 165.77 378.689 165.931C379.163 166.05 379.535 166.289 379.806 166.648C380.081 167.008 380.219 167.448 380.219 167.969C380.219 168.857 379.935 169.53 379.368 169.987C378.801 170.444 377.993 170.677 376.943 170.685H373.351ZM375.255 166.661V169.156H376.886C377.335 169.156 377.684 169.05 377.934 168.838C378.188 168.622 378.314 168.326 378.314 167.95C378.314 167.103 377.876 166.674 377 166.661H375.255ZM375.255 165.315H376.664C377.625 165.298 378.105 164.915 378.105 164.166C378.105 163.747 377.982 163.447 377.737 163.265C377.496 163.079 377.113 162.986 376.588 162.986H375.255V165.315ZM387.214 166.68H383.558V169.156H387.849V170.685H381.653V161.443H387.836V162.986H383.558V165.188H387.214V166.68ZM394.184 168.781H390.845L390.21 170.685H388.185L391.625 161.443H393.39L396.85 170.685H394.825L394.184 168.781ZM391.359 167.239H393.669L392.508 163.779L391.359 167.239ZM401.134 167.302H399.617V170.685H397.713V161.443H401.147C402.239 161.443 403.081 161.687 403.673 162.173C404.266 162.66 404.562 163.348 404.562 164.236C404.562 164.867 404.424 165.394 404.149 165.817C403.879 166.236 403.466 166.57 402.912 166.82L404.911 170.597V170.685H402.867L401.134 167.302ZM399.617 165.76H401.153C401.632 165.76 402.002 165.639 402.264 165.398C402.527 165.152 402.658 164.816 402.658 164.389C402.658 163.953 402.533 163.61 402.283 163.36C402.038 163.111 401.659 162.986 401.147 162.986H399.617V165.76ZM406.016 170.685V161.443H409.253C410.374 161.443 411.225 161.659 411.805 162.091C412.384 162.518 412.674 163.147 412.674 163.976C412.674 164.429 412.558 164.829 412.325 165.176C412.092 165.518 411.769 165.77 411.354 165.931C411.828 166.05 412.2 166.289 412.471 166.648C412.746 167.008 412.884 167.448 412.884 167.969C412.884 168.857 412.6 169.53 412.033 169.987C411.466 170.444 410.658 170.677 409.608 170.685H406.016ZM407.92 166.661V169.156H409.551C410 169.156 410.349 169.05 410.599 168.838C410.853 168.622 410.979 168.326 410.979 167.95C410.979 167.103 410.542 166.674 409.666 166.661H407.92ZM407.92 165.315H409.329C410.29 165.298 410.77 164.915 410.77 164.166C410.77 163.747 410.647 163.447 410.402 163.265C410.161 163.079 409.778 162.986 409.253 162.986H407.92V165.315ZM419.879 166.68H416.223V169.156H420.514V170.685H414.318V161.443H420.501V162.986H416.223V165.188H419.879V166.68ZM423.656 170.685H421.751V161.443H423.656V170.685ZM432.193 162.986H429.362V170.685H427.458V162.986H424.665V161.443H432.193V162.986ZM438.846 166.68H435.189V169.156H439.48V170.685H433.285V161.443H439.468V162.986H435.189V165.188H438.846V166.68ZM448.113 170.685H446.209L442.502 164.604V170.685H440.598V161.443H442.502L446.215 167.537V161.443H448.113V170.685Z" fill="white"/>
</svg>
