<svg width="348" height="153" viewBox="0 0 348 153" fill="none" xmlns="http://www.w3.org/2000/svg">
<rect x="0.415039" y="0.553192" width="347" height="152.207" rx="11.0409" fill="#F5F5F7"/>
<path d="M20.523 66.8145V57.0641H23.8176C24.5793 57.0641 25.2046 57.1943 25.6934 57.4545C26.1822 57.7116 26.544 58.0655 26.7789 58.5162C27.0138 58.9669 27.1312 59.4795 27.1312 60.054C27.1312 60.7015 26.982 61.2665 26.6837 61.7489C26.3885 62.2282 25.9298 62.5741 25.3077 62.7868L27.5121 66.8145H26.1409L24.0842 63.001C24.0048 63.0042 23.9223 63.0058 23.8366 63.0058H21.7037V66.8145H20.523ZM21.7037 61.9393H23.7985C24.5793 61.9393 25.1364 61.7711 25.4696 61.4347C25.8029 61.0982 25.9695 60.638 25.9695 60.054C25.9695 59.4668 25.8013 58.9971 25.4649 58.6448C25.1316 58.2893 24.5698 58.1115 23.7795 58.1115H21.7037V61.9393ZM31.8668 66.9669C31.1621 66.9669 30.5543 66.8114 30.0433 66.5003C29.5355 66.1861 29.1435 65.7481 28.8674 65.1863C28.5944 64.6213 28.4579 63.9643 28.4579 63.2153C28.4579 62.4662 28.5944 61.806 28.8674 61.2347C29.1435 60.6602 29.5275 60.2127 30.0195 59.8921C30.5146 59.5684 31.0923 59.4065 31.7525 59.4065C32.1334 59.4065 32.5095 59.47 32.8808 59.597C33.2522 59.7239 33.5902 59.9302 33.8949 60.2159C34.1996 60.4984 34.4424 60.8729 34.6233 61.3395C34.8043 61.806 34.8947 62.3805 34.8947 63.0629V63.539H29.5863C29.6117 64.3198 29.8322 64.9181 30.248 65.3339C30.667 65.7497 31.2066 65.9576 31.8668 65.9576C32.3079 65.9576 32.6872 65.8624 33.0046 65.6719C33.322 65.4815 33.5521 65.1958 33.695 64.8149L34.7805 65.1196C34.6091 65.6719 34.2663 66.1179 33.7521 66.4575C33.2379 66.7971 32.6095 66.9669 31.8668 66.9669ZM29.5863 62.5678H33.7521C33.7521 61.9489 33.5712 61.4363 33.2093 61.03C32.8475 60.6206 32.3619 60.4158 31.7525 60.4158C31.324 60.4158 30.9527 60.5158 30.6384 60.7158C30.3242 60.9157 30.0766 61.1808 29.8957 61.5109C29.7148 61.8378 29.6117 62.1901 29.5863 62.5678ZM39.4886 69.7092C38.6729 69.7092 38.027 69.56 37.5509 69.2617C37.078 68.9665 36.7273 68.6269 36.4988 68.2428L37.3938 67.6144C37.4954 67.7477 37.6239 67.9 37.7795 68.0714C37.935 68.246 38.1476 68.3968 38.4174 68.5237C38.6904 68.6539 39.0475 68.7189 39.4886 68.7189C40.079 68.7189 40.5662 68.5761 40.9503 68.2904C41.3343 68.0048 41.5263 67.5573 41.5263 66.9479V65.4624H41.4311C41.3486 65.5957 41.2312 65.7608 41.0788 65.9576C40.9296 66.1512 40.7138 66.3242 40.4313 66.4765C40.152 66.6257 39.7743 66.7003 39.2982 66.7003C38.7079 66.7003 38.1778 66.5606 37.7081 66.2813C37.2415 66.002 36.8717 65.5957 36.5988 65.0625C36.329 64.5293 36.1941 63.8818 36.1941 63.1201C36.1941 62.371 36.3258 61.7187 36.5892 61.1633C36.8527 60.6047 37.2193 60.173 37.689 59.8683C38.1588 59.5605 38.7015 59.4065 39.3173 59.4065C39.7933 59.4065 40.171 59.4859 40.4504 59.6446C40.7328 59.8001 40.9487 59.9778 41.0978 60.1778C41.2502 60.3746 41.3676 60.5364 41.4502 60.6634H41.5644V59.5017H42.6499V67.024C42.6499 67.6525 42.5071 68.1635 42.2214 68.5571C41.9389 68.9538 41.5581 69.2442 41.0788 69.4283C40.6027 69.6156 40.0727 69.7092 39.4886 69.7092ZM39.4506 65.691C40.1266 65.691 40.644 65.4624 41.0026 65.0054C41.3645 64.5452 41.5454 63.9104 41.5454 63.101C41.5454 62.3107 41.3676 61.6664 41.0121 61.1681C40.6567 60.6666 40.1361 60.4158 39.4506 60.4158C38.9745 60.4158 38.5777 60.5364 38.2603 60.7777C37.9461 61.0189 37.7096 61.3426 37.5509 61.7489C37.3954 62.1552 37.3177 62.6059 37.3177 63.101C37.3177 63.8628 37.497 64.4849 37.8556 64.9673C38.2143 65.4497 38.7459 65.691 39.4506 65.691ZM44.6396 66.8145V59.5017H45.7632V66.8145H44.6396ZM45.2109 58.2829C44.9919 58.2829 44.8031 58.2083 44.6444 58.0592C44.4888 57.91 44.4111 57.7307 44.4111 57.5212C44.4111 57.3117 44.4888 57.1324 44.6444 56.9832C44.8031 56.834 44.9919 56.7594 45.2109 56.7594C45.4299 56.7594 45.6172 56.834 45.7727 56.9832C45.9314 57.1324 46.0108 57.3117 46.0108 57.5212C46.0108 57.7307 45.9314 57.91 45.7727 58.0592C45.6172 58.2083 45.4299 58.2829 45.2109 58.2829ZM52.934 61.1395L51.9247 61.4252C51.8263 61.1712 51.6612 60.9332 51.4295 60.711C51.1978 60.4888 50.836 60.3777 50.344 60.3777C49.8965 60.3777 49.5236 60.4809 49.2252 60.6872C48.93 60.8903 48.7824 61.149 48.7824 61.4632C48.7824 61.7426 48.884 61.9631 49.0871 62.125C49.2903 62.2869 49.6077 62.4218 50.0393 62.5297L51.1248 62.7963C52.4198 63.1137 53.0673 63.7739 53.0673 64.7769C53.0673 65.1958 52.9467 65.5704 52.7055 65.9004C52.4674 66.2305 52.1341 66.4908 51.7057 66.6812C51.2772 66.8717 50.7789 66.9669 50.2107 66.9669C49.4648 66.9669 48.8475 66.805 48.3587 66.4813C47.8699 66.1575 47.5605 65.6846 47.4303 65.0625L48.4968 64.7959C48.6967 65.583 49.2617 65.9766 50.1917 65.9766C50.7154 65.9766 51.1312 65.8655 51.439 65.6434C51.7501 65.418 51.9056 65.1482 51.9056 64.834C51.9056 64.3166 51.5438 63.9738 50.8201 63.8056L49.6013 63.52C48.9316 63.3613 48.4396 63.1153 48.1254 62.782C47.8144 62.4456 47.6589 62.025 47.6589 61.5204C47.6589 61.1078 47.7747 60.7428 48.0064 60.4254C48.2413 60.108 48.5603 59.8588 48.9634 59.6779C49.3696 59.497 49.8298 59.4065 50.344 59.4065C51.0677 59.4065 51.6358 59.5652 52.0484 59.8826C52.4642 60.2 52.7594 60.619 52.934 61.1395ZM57.8719 59.5017V60.4539H56.3103V64.7197C56.3103 65.0371 56.3563 65.2752 56.4484 65.4339C56.5436 65.5894 56.6642 65.6941 56.8102 65.7481C56.9594 65.7989 57.1165 65.8243 57.2815 65.8243C57.4053 65.8243 57.5069 65.8179 57.5862 65.8052C57.6656 65.7894 57.7291 65.7767 57.7767 65.7671L58.0052 66.7765C57.929 66.805 57.8227 66.8336 57.6862 66.8622C57.5497 66.8939 57.3768 66.9098 57.1673 66.9098C56.8499 66.9098 56.5388 66.8415 56.2341 66.705C55.9326 66.5686 55.6819 66.3607 55.4819 66.0814C55.2851 65.8021 55.1867 65.4497 55.1867 65.0244V60.4539H54.0822V59.5017H55.1867V57.7497H56.3103V59.5017H57.8719ZM59.495 66.8145V59.5017H60.5805V60.6063H60.6567C60.79 60.2444 61.0312 59.9509 61.3803 59.7255C61.7295 59.5001 62.123 59.3875 62.561 59.3875C62.6436 59.3875 62.7467 59.3891 62.8705 59.3922C62.9943 59.3954 63.0879 59.4002 63.1514 59.4065V60.5491C63.1133 60.5396 63.026 60.5253 62.8895 60.5063C62.7562 60.4841 62.615 60.473 62.4658 60.473C61.9326 60.473 61.4914 60.6348 61.1423 60.9586C60.7931 61.2823 60.6186 61.6918 60.6186 62.1869V66.8145H59.495ZM64.4162 66.8145V59.5017H65.5398V66.8145H64.4162ZM64.9875 58.2829C64.7685 58.2829 64.5797 58.2083 64.421 58.0592C64.2655 57.91 64.1877 57.7307 64.1877 57.5212C64.1877 57.3117 64.2655 57.1324 64.421 56.9832C64.5797 56.834 64.7685 56.7594 64.9875 56.7594C65.2066 56.7594 65.3938 56.834 65.5493 56.9832C65.708 57.1324 65.7874 57.3117 65.7874 57.5212C65.7874 57.7307 65.708 57.91 65.5493 58.0592C65.3938 58.2083 65.2066 58.2829 64.9875 58.2829ZM70.5968 66.9669C69.8921 66.9669 69.2843 66.8114 68.7733 66.5003C68.2655 66.1861 67.8735 65.7481 67.5974 65.1863C67.3244 64.6213 67.1879 63.9643 67.1879 63.2153C67.1879 62.4662 67.3244 61.806 67.5974 61.2347C67.8735 60.6602 68.2575 60.2127 68.7495 59.8921C69.2446 59.5684 69.8223 59.4065 70.4825 59.4065C70.8634 59.4065 71.2395 59.47 71.6108 59.597C71.9822 59.7239 72.3202 59.9302 72.6249 60.2159C72.9296 60.4984 73.1724 60.8729 73.3533 61.3395C73.5343 61.806 73.6247 62.3805 73.6247 63.0629V63.539H68.3163C68.3416 64.3198 68.5622 64.9181 68.978 65.3339C69.397 65.7497 69.9366 65.9576 70.5968 65.9576C71.0379 65.9576 71.4172 65.8624 71.7346 65.6719C72.052 65.4815 72.2821 65.1958 72.425 64.8149L73.5104 65.1196C73.3391 65.6719 72.9963 66.1179 72.4821 66.4575C71.9679 66.7971 71.3395 66.9669 70.5968 66.9669ZM68.3163 62.5678H72.4821C72.4821 61.9489 72.3012 61.4363 71.9393 61.03C71.5775 60.6206 71.0919 60.4158 70.4825 60.4158C70.054 60.4158 69.6826 60.5158 69.3684 60.7158C69.0542 60.9157 68.8066 61.1808 68.6257 61.5109C68.4448 61.8378 68.3416 62.1901 68.3163 62.5678ZM75.2669 66.8145V59.5017H76.3524V60.6063H76.4285C76.5587 60.2444 76.7983 59.9509 77.1474 59.7255C77.4966 59.5001 77.8917 59.3875 78.3329 59.3875C78.536 59.3875 78.7138 59.4113 78.8661 59.4589C79.0185 59.5065 79.1518 59.5716 79.266 59.6541L78.8852 60.6063C78.8058 60.565 78.7122 60.5333 78.6043 60.5111C78.4995 60.4857 78.3773 60.473 78.2377 60.473C77.7045 60.473 77.2633 60.6364 76.9141 60.9633C76.565 61.2871 76.3904 61.6949 76.3904 62.1869V66.8145H75.2669ZM83.1887 66.9669C82.4841 66.9669 81.8763 66.8114 81.3652 66.5003C80.8574 66.1861 80.4654 65.7481 80.1893 65.1863C79.9163 64.6213 79.7798 63.9643 79.7798 63.2153C79.7798 62.4662 79.9163 61.806 80.1893 61.2347C80.4654 60.6602 80.8495 60.2127 81.3414 59.8921C81.8366 59.5684 82.4142 59.4065 83.0744 59.4065C83.4553 59.4065 83.8314 59.47 84.2028 59.597C84.5741 59.7239 84.9121 59.9302 85.2168 60.2159C85.5215 60.4984 85.7644 60.8729 85.9453 61.3395C86.1262 61.806 86.2166 62.3805 86.2166 63.0629V63.539H80.9082C80.9336 64.3198 81.1542 64.9181 81.57 65.3339C81.9889 65.7497 82.5285 65.9576 83.1887 65.9576C83.6299 65.9576 84.0092 65.8624 84.3265 65.6719C84.6439 65.4815 84.8741 65.1958 85.0169 64.8149L86.1024 65.1196C85.931 65.6719 85.5882 66.1179 85.074 66.4575C84.5598 66.7971 83.9314 66.9669 83.1887 66.9669ZM80.9082 62.5678H85.074C85.074 61.9489 84.8931 61.4363 84.5313 61.03C84.1694 60.6206 83.6838 60.4158 83.0744 60.4158C82.6459 60.4158 82.2746 60.5158 81.9604 60.7158C81.6461 60.9157 81.3986 61.1808 81.2177 61.5109C81.0367 61.8378 80.9336 62.1901 80.9082 62.5678ZM94.3238 66.9669C93.7144 66.9669 93.1764 66.813 92.7098 66.5051C92.2432 66.194 91.8782 65.756 91.6148 65.1911C91.3514 64.6229 91.2196 63.9516 91.2196 63.1772C91.2196 62.4091 91.3514 61.7426 91.6148 61.1776C91.8782 60.6126 92.2448 60.1762 92.7146 59.8683C93.1843 59.5605 93.7271 59.4065 94.3428 59.4065C94.8189 59.4065 95.195 59.4859 95.4712 59.6446C95.7505 59.8001 95.9631 59.9778 96.1091 60.1778C96.2583 60.3746 96.3741 60.5364 96.4567 60.6634H96.5519V57.0641H97.6755V66.8145H96.59V65.691H96.4567C96.3741 65.8243 96.2567 65.9925 96.1044 66.1956C95.952 66.3956 95.7346 66.5749 95.4521 66.7336C95.1696 66.8891 94.7935 66.9669 94.3238 66.9669ZM94.4761 65.9576C95.1522 65.9576 95.6695 65.6989 96.0282 65.1815C96.39 64.661 96.5709 63.9865 96.5709 63.1581C96.5709 62.3393 96.3932 61.6775 96.0377 61.1728C95.6822 60.6682 95.1617 60.4158 94.4761 60.4158C94 60.4158 93.6033 60.538 93.2859 60.7824C92.9717 61.0237 92.7352 61.3522 92.5765 61.7679C92.421 62.1806 92.3432 62.644 92.3432 63.1581C92.3432 63.6787 92.4226 64.1516 92.5813 64.5769C92.7431 64.999 92.9812 65.3355 93.2954 65.5862C93.6128 65.8338 94.0064 65.9576 94.4761 65.9576ZM99.8223 66.8145V59.5017H100.946V66.8145H99.8223ZM100.394 58.2829C100.175 58.2829 99.9857 58.2083 99.827 58.0592C99.6715 57.91 99.5938 57.7307 99.5938 57.5212C99.5938 57.3117 99.6715 57.1324 99.827 56.9832C99.9857 56.834 100.175 56.7594 100.394 56.7594C100.613 56.7594 100.8 56.834 100.955 56.9832C101.114 57.1324 101.193 57.3117 101.193 57.5212C101.193 57.7307 101.114 57.91 100.955 58.0592C100.8 58.2083 100.613 58.2829 100.394 58.2829ZM105.908 66.9669C105.222 66.9669 104.632 66.805 104.137 66.4813C103.641 66.1575 103.26 65.7116 102.994 65.1435C102.727 64.5753 102.594 63.9262 102.594 63.1962C102.594 62.4535 102.73 61.7981 103.003 61.23C103.28 60.6586 103.664 60.2127 104.156 59.8921C104.651 59.5684 105.228 59.4065 105.889 59.4065C106.403 59.4065 106.866 59.5017 107.279 59.6922C107.691 59.8826 108.029 60.1492 108.293 60.492C108.556 60.8348 108.72 61.2347 108.783 61.6918H107.66C107.574 61.3585 107.383 61.0633 107.088 60.8062C106.796 60.546 106.403 60.4158 105.908 60.4158C105.251 60.4158 104.721 60.6666 104.317 61.1681C103.917 61.6664 103.718 62.3297 103.718 63.1581C103.718 64.0056 103.916 64.6848 104.313 65.1958C104.709 65.7037 105.241 65.9576 105.908 65.9576C106.346 65.9576 106.72 65.8449 107.031 65.6195C107.345 65.3942 107.555 65.0816 107.66 64.6816H108.783C108.72 65.1133 108.563 65.5021 108.312 65.8481C108.064 66.1909 107.736 66.4638 107.326 66.667C106.92 66.8669 106.447 66.9669 105.908 66.9669ZM111.482 62.4154V66.8145H110.359V57.0641H111.482V60.6444H111.577C111.749 60.2667 112.006 59.9667 112.349 59.7445C112.695 59.5192 113.155 59.4065 113.729 59.4065C114.478 59.4065 115.082 59.6319 115.539 60.0826C115.996 60.5333 116.224 61.2284 116.224 62.1679V66.8145H115.101V62.244C115.101 61.6632 114.95 61.2141 114.648 60.8967C114.35 60.5761 113.936 60.4158 113.406 60.4158C112.85 60.4158 112.39 60.5904 112.025 60.9395C111.663 61.2855 111.482 61.7775 111.482 62.4154ZM123.04 62.4154V66.8145H121.916V59.5017H123.002V60.6444H123.097C123.268 60.273 123.529 59.9747 123.878 59.7493C124.227 59.5208 124.678 59.4065 125.23 59.4065C125.969 59.4065 126.566 59.6335 127.02 60.0873C127.477 60.5412 127.706 61.2347 127.706 62.1679V66.8145H126.582V62.244C126.582 61.6696 126.433 61.222 126.134 60.9015C125.836 60.5777 125.427 60.4158 124.906 60.4158C124.37 60.4158 123.924 60.5904 123.568 60.9395C123.216 61.2855 123.04 61.7775 123.04 62.4154ZM132.663 66.9669C132.002 66.9669 131.423 66.8098 130.925 66.4956C130.43 66.1813 130.042 65.7417 129.763 65.1768C129.487 64.6118 129.349 63.9516 129.349 63.1962C129.349 62.4345 129.487 61.7695 129.763 61.2014C130.042 60.6333 130.43 60.1921 130.925 59.8778C131.423 59.5636 132.002 59.4065 132.663 59.4065C133.323 59.4065 133.9 59.5636 134.396 59.8778C134.894 60.1921 135.281 60.6333 135.557 61.2014C135.837 61.7695 135.976 62.4345 135.976 63.1962C135.976 63.9516 135.837 64.6118 135.557 65.1768C135.281 65.7417 134.894 66.1813 134.396 66.4956C133.9 66.8098 133.323 66.9669 132.663 66.9669ZM132.663 65.9576C133.164 65.9576 133.577 65.829 133.9 65.5719C134.224 65.3148 134.464 64.9768 134.619 64.5579C134.775 64.1389 134.853 63.685 134.853 63.1962C134.853 62.7074 134.775 62.252 134.619 61.8298C134.464 61.4077 134.224 61.0665 133.9 60.8062C133.577 60.546 133.164 60.4158 132.663 60.4158C132.161 60.4158 131.748 60.546 131.425 60.8062C131.101 61.0665 130.861 61.4077 130.706 61.8298C130.55 62.252 130.473 62.7074 130.473 63.1962C130.473 63.685 130.55 64.1389 130.706 64.5579C130.861 64.9768 131.101 65.3148 131.425 65.5719C131.748 65.829 132.161 65.9576 132.663 65.9576ZM140.595 66.9669C139.91 66.9669 139.319 66.805 138.824 66.4813C138.329 66.1575 137.948 65.7116 137.681 65.1435C137.415 64.5753 137.281 63.9262 137.281 63.1962C137.281 62.4535 137.418 61.7981 137.691 61.23C137.967 60.6586 138.351 60.2127 138.843 59.8921C139.338 59.5684 139.916 59.4065 140.576 59.4065C141.09 59.4065 141.554 59.5017 141.966 59.6922C142.379 59.8826 142.717 60.1492 142.98 60.492C143.244 60.8348 143.407 61.2347 143.471 61.6918H142.347C142.261 61.3585 142.071 61.0633 141.776 60.8062C141.484 60.546 141.09 60.4158 140.595 60.4158C139.938 60.4158 139.408 60.6666 139.005 61.1681C138.605 61.6664 138.405 62.3297 138.405 63.1581C138.405 64.0056 138.603 64.6848 139 65.1958C139.397 65.7037 139.929 65.9576 140.595 65.9576C141.033 65.9576 141.408 65.8449 141.719 65.6195C142.033 65.3942 142.242 65.0816 142.347 64.6816H143.471C143.407 65.1133 143.25 65.5021 142.999 65.8481C142.752 66.1909 142.423 66.4638 142.014 66.667C141.608 66.8669 141.135 66.9669 140.595 66.9669ZM146.17 62.4154V66.8145H145.046V57.0641H146.17V60.6444H146.265C146.436 60.2667 146.693 59.9667 147.036 59.7445C147.382 59.5192 147.842 59.4065 148.417 59.4065C149.166 59.4065 149.769 59.6319 150.226 60.0826C150.683 60.5333 150.912 61.2284 150.912 62.1679V66.8145H149.788V62.244C149.788 61.6632 149.637 61.2141 149.336 60.8967C149.037 60.5761 148.623 60.4158 148.093 60.4158C147.538 60.4158 147.078 60.5904 146.713 60.9395C146.351 61.2855 146.17 61.7775 146.17 62.4154ZM157.727 62.4154V66.8145H156.604V57.0641H157.727V60.6444H157.823C157.994 60.2667 158.251 59.9667 158.594 59.7445C158.94 59.5192 159.4 59.4065 159.975 59.4065C160.724 59.4065 161.327 59.6319 161.784 60.0826C162.241 60.5333 162.469 61.2284 162.469 62.1679V66.8145H161.346V62.244C161.346 61.6632 161.195 61.2141 160.893 60.8967C160.595 60.5761 160.181 60.4158 159.651 60.4158C159.095 60.4158 158.635 60.5904 158.27 60.9395C157.908 61.2855 157.727 61.7775 157.727 62.4154ZM167.524 66.9669C166.819 66.9669 166.211 66.8114 165.7 66.5003C165.193 66.1861 164.801 65.7481 164.524 65.1863C164.251 64.6213 164.115 63.9643 164.115 63.2153C164.115 62.4662 164.251 61.806 164.524 61.2347C164.801 60.6602 165.185 60.2127 165.677 59.8921C166.172 59.5684 166.749 59.4065 167.41 59.4065C167.79 59.4065 168.167 59.47 168.538 59.597C168.909 59.7239 169.247 59.9302 169.552 60.2159C169.857 60.4984 170.1 60.8729 170.28 61.3395C170.461 61.806 170.552 62.3805 170.552 63.0629V63.539H165.243C165.269 64.3198 165.489 64.9181 165.905 65.3339C166.324 65.7497 166.864 65.9576 167.524 65.9576C167.965 65.9576 168.344 65.8624 168.662 65.6719C168.979 65.4815 169.209 65.1958 169.352 64.8149L170.438 65.1196C170.266 65.6719 169.923 66.1179 169.409 66.4575C168.895 66.7971 168.267 66.9669 167.524 66.9669ZM165.243 62.5678H169.409C169.409 61.9489 169.228 61.4363 168.866 61.03C168.505 60.6206 168.019 60.4158 167.41 60.4158C166.981 60.4158 166.61 60.5158 166.296 60.7158C165.981 60.9157 165.734 61.1808 165.553 61.5109C165.372 61.8378 165.269 62.1901 165.243 62.5678ZM176.803 63.8247V59.5017H177.926V66.8145H176.803V65.5767H176.726C176.555 65.9481 176.288 66.2639 175.927 66.5241C175.565 66.7812 175.108 66.9098 174.555 66.9098C173.87 66.9098 173.305 66.6828 172.86 66.2289C172.416 65.7751 172.194 65.0816 172.194 64.1484V59.5017H173.318V64.0722C173.318 64.6055 173.467 65.0308 173.765 65.3482C174.067 65.6656 174.451 65.8243 174.917 65.8243C175.197 65.8243 175.481 65.7529 175.769 65.61C176.061 65.4672 176.306 65.2482 176.503 64.953C176.703 64.6578 176.803 64.2817 176.803 63.8247ZM183.097 59.5017V60.4539H181.536V64.7197C181.536 65.0371 181.582 65.2752 181.674 65.4339C181.769 65.5894 181.89 65.6941 182.036 65.7481C182.185 65.7989 182.342 65.8243 182.507 65.8243C182.631 65.8243 182.732 65.8179 182.812 65.8052C182.891 65.7894 182.955 65.7767 183.002 65.7671L183.231 66.7765C183.154 66.805 183.048 66.8336 182.912 66.8622C182.775 66.8939 182.602 66.9098 182.393 66.9098C182.075 66.9098 181.764 66.8415 181.46 66.705C181.158 66.5686 180.907 66.3607 180.707 66.0814C180.511 65.8021 180.412 65.4497 180.412 65.0244V60.4539H179.308V59.5017H180.412V57.7497H181.536V59.5017H183.097ZM187.708 66.9669C187.003 66.9669 186.395 66.8114 185.884 66.5003C185.377 66.1861 184.985 65.7481 184.709 65.1863C184.436 64.6213 184.299 63.9643 184.299 63.2153C184.299 62.4662 184.436 61.806 184.709 61.2347C184.985 60.6602 185.369 60.2127 185.861 59.8921C186.356 59.5684 186.933 59.4065 187.594 59.4065C187.975 59.4065 188.351 59.47 188.722 59.597C189.093 59.7239 189.431 59.9302 189.736 60.2159C190.041 60.4984 190.284 60.8729 190.465 61.3395C190.645 61.806 190.736 62.3805 190.736 63.0629V63.539H185.427C185.453 64.3198 185.673 64.9181 186.089 65.3339C186.508 65.7497 187.048 65.9576 187.708 65.9576C188.149 65.9576 188.528 65.8624 188.846 65.6719C189.163 65.4815 189.393 65.1958 189.536 64.8149L190.622 65.1196C190.45 65.6719 190.107 66.1179 189.593 66.4575C189.079 66.7971 188.451 66.9669 187.708 66.9669ZM185.427 62.5678H189.593C189.593 61.9489 189.412 61.4363 189.051 61.03C188.689 60.6206 188.203 60.4158 187.594 60.4158C187.165 60.4158 186.794 60.5158 186.48 60.7158C186.165 60.9157 185.918 61.1808 185.737 61.5109C185.556 61.8378 185.453 62.1901 185.427 62.5678ZM198.234 66.9859C197.77 66.9859 197.35 66.8987 196.972 66.7241C196.594 66.5463 196.294 66.2908 196.072 65.9576C195.85 65.6211 195.739 65.2149 195.739 64.7388C195.739 64.3198 195.821 63.9802 195.986 63.7199C196.151 63.4565 196.372 63.2502 196.648 63.101C196.924 62.9518 197.229 62.8407 197.562 62.7677C197.899 62.6916 198.237 62.6313 198.576 62.5868C199.021 62.5297 199.381 62.4868 199.657 62.4583C199.936 62.4265 200.14 62.3742 200.267 62.3012C200.397 62.2282 200.462 62.1012 200.462 61.9203V61.8822C200.462 61.4125 200.333 61.0475 200.076 60.7872C199.822 60.5269 199.437 60.3968 198.919 60.3968C198.383 60.3968 197.962 60.5142 197.658 60.7491C197.353 60.984 197.139 61.2347 197.015 61.5013L195.948 61.1205C196.139 60.6761 196.393 60.3301 196.71 60.0826C197.031 59.8318 197.38 59.6573 197.758 59.5589C198.138 59.4573 198.513 59.4065 198.881 59.4065C199.116 59.4065 199.386 59.4351 199.69 59.4922C199.998 59.5462 200.295 59.6588 200.581 59.8302C200.87 60.0016 201.109 60.2603 201.3 60.6063C201.49 60.9522 201.585 61.4156 201.585 61.9965V66.8145H200.462V65.8243H200.405C200.328 65.983 200.201 66.1528 200.024 66.3337C199.846 66.5146 199.61 66.6685 199.314 66.7955C199.019 66.9225 198.659 66.9859 198.234 66.9859ZM198.405 65.9766C198.849 65.9766 199.224 65.8893 199.529 65.7148C199.836 65.5402 200.068 65.3148 200.224 65.0387C200.382 64.7626 200.462 64.4722 200.462 64.1675V63.1391C200.414 63.1962 200.309 63.2486 200.148 63.2962C199.989 63.3406 199.805 63.3803 199.595 63.4152C199.389 63.447 199.187 63.4755 198.991 63.5009C198.797 63.5231 198.64 63.5422 198.519 63.5581C198.227 63.5961 197.954 63.658 197.7 63.7437C197.45 63.8263 197.247 63.9516 197.091 64.1199C196.939 64.2849 196.862 64.5102 196.862 64.7959C196.862 65.1863 197.007 65.4815 197.296 65.6814C197.588 65.8782 197.957 65.9766 198.405 65.9766ZM208.178 63.8247V59.5017H209.301V66.8145H208.178V65.5767H208.101C207.93 65.9481 207.663 66.2639 207.302 66.5241C206.94 66.7812 206.483 66.9098 205.93 66.9098C205.245 66.9098 204.68 66.6828 204.236 66.2289C203.791 65.7751 203.569 65.0816 203.569 64.1484V59.5017H204.693V64.0722C204.693 64.6055 204.842 65.0308 205.14 65.3482C205.442 65.6656 205.826 65.8243 206.292 65.8243C206.572 65.8243 206.856 65.7529 207.145 65.61C207.437 65.4672 207.681 65.2482 207.878 64.953C208.078 64.6578 208.178 64.2817 208.178 63.8247ZM214.549 59.5017V60.4539H212.911V66.8145H211.787V60.4539H210.607V59.5017H211.787V58.4924C211.787 58.0735 211.886 57.7243 212.082 57.445C212.279 57.1657 212.535 56.9562 212.849 56.8166C213.163 56.6769 213.495 56.6071 213.844 56.6071C214.12 56.6071 214.345 56.6293 214.52 56.6737C214.695 56.7182 214.825 56.7594 214.91 56.7975L214.587 57.7688C214.53 57.7497 214.45 57.7259 214.349 57.6973C214.25 57.6688 214.12 57.6545 213.958 57.6545C213.587 57.6545 213.319 57.7481 213.154 57.9354C212.992 58.1226 212.911 58.3972 212.911 58.759V59.5017H214.549ZM222.921 66.8145H219.912V57.0641H223.054C224 57.0641 224.81 57.2593 225.483 57.6497C226.155 58.037 226.671 58.594 227.03 59.3208C227.388 60.0445 227.568 60.911 227.568 61.9203C227.568 62.936 227.387 63.8104 227.025 64.5436C226.663 65.2736 226.136 65.8354 225.444 66.2289C224.753 66.6193 223.911 66.8145 222.921 66.8145ZM221.093 65.7671H222.845C224.054 65.7671 224.952 65.4243 225.54 64.7388C226.13 64.05 226.425 63.1105 226.425 61.9203C226.425 60.7396 226.136 59.8096 225.559 59.1304C224.981 58.4512 224.121 58.1115 222.978 58.1115H221.093V65.7671ZM231.481 66.9859C231.018 66.9859 230.597 66.8987 230.219 66.7241C229.842 66.5463 229.542 66.2908 229.319 65.9576C229.097 65.6211 228.986 65.2149 228.986 64.7388C228.986 64.3198 229.069 63.9802 229.234 63.7199C229.399 63.4565 229.619 63.2502 229.896 63.101C230.172 62.9518 230.476 62.8407 230.81 62.7677C231.146 62.6916 231.484 62.6313 231.824 62.5868C232.268 62.5297 232.628 62.4868 232.904 62.4583C233.184 62.4265 233.387 62.3742 233.514 62.3012C233.644 62.2282 233.709 62.1012 233.709 61.9203V61.8822C233.709 61.4125 233.581 61.0475 233.323 60.7872C233.07 60.5269 232.684 60.3968 232.167 60.3968C231.63 60.3968 231.21 60.5142 230.905 60.7491C230.6 60.984 230.386 61.2347 230.262 61.5013L229.196 61.1205C229.386 60.6761 229.64 60.3301 229.957 60.0826C230.278 59.8318 230.627 59.6573 231.005 59.5589C231.386 59.4573 231.76 59.4065 232.128 59.4065C232.363 59.4065 232.633 59.4351 232.938 59.4922C233.246 59.5462 233.542 59.6588 233.828 59.8302C234.117 60.0016 234.357 60.2603 234.547 60.6063C234.737 60.9522 234.833 61.4156 234.833 61.9965V66.8145H233.709V65.8243H233.652C233.576 65.983 233.449 66.1528 233.271 66.3337C233.093 66.5146 232.857 66.6685 232.562 66.7955C232.266 66.9225 231.906 66.9859 231.481 66.9859ZM231.652 65.9766C232.097 65.9766 232.471 65.8893 232.776 65.7148C233.084 65.5402 233.315 65.3148 233.471 65.0387C233.63 64.7626 233.709 64.4722 233.709 64.1675V63.1391C233.661 63.1962 233.557 63.2486 233.395 63.2962C233.236 63.3406 233.052 63.3803 232.843 63.4152C232.636 63.447 232.435 63.4755 232.238 63.5009C232.044 63.5231 231.887 63.5422 231.767 63.5581C231.475 63.5961 231.202 63.658 230.948 63.7437C230.697 63.8263 230.494 63.9516 230.338 64.1199C230.186 64.2849 230.11 64.5102 230.11 64.7959C230.11 65.1863 230.254 65.4815 230.543 65.6814C230.835 65.8782 231.205 65.9766 231.652 65.9766ZM239.997 59.5017V60.4539H238.435V64.7197C238.435 65.0371 238.481 65.2752 238.573 65.4339C238.668 65.5894 238.789 65.6941 238.935 65.7481C239.084 65.7989 239.241 65.8243 239.406 65.8243C239.53 65.8243 239.632 65.8179 239.711 65.8052C239.79 65.7894 239.854 65.7767 239.901 65.7671L240.13 66.7765C240.054 66.805 239.948 66.8336 239.811 66.8622C239.675 66.8939 239.502 66.9098 239.292 66.9098C238.975 66.9098 238.664 66.8415 238.359 66.705C238.057 66.5686 237.807 66.3607 237.607 66.0814C237.41 65.8021 237.312 65.4497 237.312 65.0244V60.4539H236.207V59.5017H237.312V57.7497H238.435V59.5017H239.997ZM244.607 66.9669C243.903 66.9669 243.295 66.8114 242.784 66.5003C242.276 66.1861 241.884 65.7481 241.608 65.1863C241.335 64.6213 241.198 63.9643 241.198 63.2153C241.198 62.4662 241.335 61.806 241.608 61.2347C241.884 60.6602 242.268 60.2127 242.76 59.8921C243.255 59.5684 243.833 59.4065 244.493 59.4065C244.874 59.4065 245.25 59.47 245.621 59.597C245.993 59.7239 246.331 59.9302 246.635 60.2159C246.94 60.4984 247.183 60.8729 247.364 61.3395C247.545 61.806 247.635 62.3805 247.635 63.0629V63.539H242.327C242.352 64.3198 242.573 64.9181 242.989 65.3339C243.408 65.7497 243.947 65.9576 244.607 65.9576C245.048 65.9576 245.428 65.8624 245.745 65.6719C246.063 65.4815 246.293 65.1958 246.435 64.8149L247.521 65.1196C247.35 65.6719 247.007 66.1179 246.493 66.4575C245.978 66.7971 245.35 66.9669 244.607 66.9669ZM242.327 62.5678H246.493C246.493 61.9489 246.312 61.4363 245.95 61.03C245.588 60.6206 245.102 60.4158 244.493 60.4158C244.065 60.4158 243.693 60.5158 243.379 60.7158C243.065 60.9157 242.817 61.1808 242.636 61.5109C242.455 61.8378 242.352 62.1901 242.327 62.5678ZM250.401 62.4154V66.8145H249.277V57.0641H250.401V60.6444H250.496C250.668 60.2667 250.925 59.9667 251.267 59.7445C251.613 59.5192 252.074 59.4065 252.648 59.4065C253.397 59.4065 254 59.6319 254.457 60.0826C254.914 60.5333 255.143 61.2284 255.143 62.1679V66.8145H254.019V62.244C254.019 61.6632 253.869 61.2141 253.567 60.8967C253.269 60.5761 252.854 60.4158 252.324 60.4158C251.769 60.4158 251.309 60.5904 250.944 60.9395C250.582 61.2855 250.401 61.7775 250.401 62.4154ZM261.74 63.8247V59.5017H262.864V66.8145H261.74V65.5767H261.664C261.492 65.9481 261.226 66.2639 260.864 66.5241C260.502 66.7812 260.045 66.9098 259.493 66.9098C258.807 66.9098 258.242 66.6828 257.798 66.2289C257.354 65.7751 257.131 65.0816 257.131 64.1484V59.5017H258.255V64.0722C258.255 64.6055 258.404 65.0308 258.702 65.3482C259.004 65.6656 259.388 65.8243 259.855 65.8243C260.134 65.8243 260.418 65.7529 260.707 65.61C260.999 65.4672 261.243 65.2482 261.44 64.953C261.64 64.6578 261.74 64.2817 261.74 63.8247ZM265.978 62.4154V66.8145H264.854V59.5017H265.94V60.6444H266.035C266.207 60.273 266.467 59.9747 266.816 59.7493C267.165 59.5208 267.616 59.4065 268.168 59.4065C268.908 59.4065 269.504 59.6335 269.958 60.0873C270.415 60.5412 270.644 61.2347 270.644 62.1679V66.8145H269.52V62.244C269.52 61.6696 269.371 61.222 269.073 60.9015C268.774 60.5777 268.365 60.4158 267.844 60.4158C267.308 60.4158 266.862 60.5904 266.506 60.9395C266.154 61.2855 265.978 61.7775 265.978 62.4154ZM275.81 59.5017V60.4539H274.249V64.7197C274.249 65.0371 274.295 65.2752 274.387 65.4339C274.482 65.5894 274.602 65.6941 274.748 65.7481C274.898 65.7989 275.055 65.8243 275.22 65.8243C275.344 65.8243 275.445 65.8179 275.525 65.8052C275.604 65.7894 275.667 65.7767 275.715 65.7671L275.943 66.7765C275.867 66.805 275.761 66.8336 275.624 66.8622C275.488 66.8939 275.315 66.9098 275.106 66.9098C274.788 66.9098 274.477 66.8415 274.172 66.705C273.871 66.5686 273.62 66.3607 273.42 66.0814C273.223 65.8021 273.125 65.4497 273.125 65.0244V60.4539H272.02V59.5017H273.125V57.7497H274.249V59.5017H275.81ZM280.421 66.9669C279.716 66.9669 279.108 66.8114 278.597 66.5003C278.089 66.1861 277.698 65.7481 277.421 65.1863C277.148 64.6213 277.012 63.9643 277.012 63.2153C277.012 62.4662 277.148 61.806 277.421 61.2347C277.698 60.6602 278.082 60.2127 278.574 59.8921C279.069 59.5684 279.646 59.4065 280.307 59.4065C280.687 59.4065 281.063 59.47 281.435 59.597C281.806 59.7239 282.144 59.9302 282.449 60.2159C282.754 60.4984 282.996 60.8729 283.177 61.3395C283.358 61.806 283.449 62.3805 283.449 63.0629V63.539H278.14C278.166 64.3198 278.386 64.9181 278.802 65.3339C279.221 65.7497 279.761 65.9576 280.421 65.9576C280.862 65.9576 281.241 65.8624 281.559 65.6719C281.876 65.4815 282.106 65.1958 282.249 64.8149L283.334 65.1196C283.163 65.6719 282.82 66.1179 282.306 66.4575C281.792 66.7971 281.163 66.9669 280.421 66.9669ZM278.14 62.5678H282.306C282.306 61.9489 282.125 61.4363 281.763 61.03C281.402 60.6206 280.916 60.4158 280.307 60.4158C279.878 60.4158 279.507 60.5158 279.192 60.7158C278.878 60.9157 278.631 61.1808 278.45 61.5109C278.269 61.8378 278.166 62.1901 278.14 62.5678ZM285.091 66.8145V59.5017H286.176V60.6063H286.253C286.383 60.2444 286.622 59.9509 286.971 59.7255C287.321 59.5001 287.716 59.3875 288.157 59.3875C288.36 59.3875 288.538 59.4113 288.69 59.4589C288.843 59.5065 288.976 59.5716 289.09 59.6541L288.709 60.6063C288.63 60.565 288.536 60.5333 288.428 60.5111C288.324 60.4857 288.201 60.473 288.062 60.473C287.528 60.473 287.087 60.6364 286.738 60.9633C286.389 61.2871 286.214 61.6949 286.214 62.1869V66.8145H285.091ZM298.481 63.8247V59.5017H299.605V66.8145H298.481V65.5767H298.405C298.234 65.9481 297.967 66.2639 297.605 66.5241C297.244 66.7812 296.787 66.9098 296.234 66.9098C295.549 66.9098 294.984 66.6828 294.539 66.2289C294.095 65.7751 293.873 65.0816 293.873 64.1484V59.5017H294.996V64.0722C294.996 64.6055 295.146 65.0308 295.444 65.3482C295.746 65.6656 296.13 65.8243 296.596 65.8243C296.875 65.8243 297.16 65.7529 297.448 65.61C297.74 65.4672 297.985 65.2482 298.182 64.953C298.381 64.6578 298.481 64.2817 298.481 63.8247ZM302.72 62.4154V66.8145H301.596V59.5017H302.681V60.6444H302.777C302.948 60.273 303.208 59.9747 303.557 59.7493C303.907 59.5208 304.357 59.4065 304.91 59.4065C305.649 59.4065 306.246 59.6335 306.7 60.0873C307.157 60.5412 307.385 61.2347 307.385 62.1679V66.8145H306.262V62.244C306.262 61.6696 306.112 61.222 305.814 60.9015C305.516 60.5777 305.106 60.4158 304.586 60.4158C304.049 60.4158 303.603 60.5904 303.248 60.9395C302.896 61.2855 302.72 61.7775 302.72 62.4154ZM312.133 66.9669C311.523 66.9669 310.985 66.813 310.519 66.5051C310.052 66.194 309.687 65.756 309.424 65.1911C309.16 64.6229 309.029 63.9516 309.029 63.1772C309.029 62.4091 309.16 61.7426 309.424 61.1776C309.687 60.6126 310.054 60.1762 310.523 59.8683C310.993 59.5605 311.536 59.4065 312.152 59.4065C312.628 59.4065 313.004 59.4859 313.28 59.6446C313.559 59.8001 313.772 59.9778 313.918 60.1778C314.067 60.3746 314.183 60.5364 314.266 60.6634H314.361V57.0641H315.484V66.8145H314.399V65.691H314.266C314.183 65.8243 314.066 65.9925 313.913 66.1956C313.761 66.3956 313.544 66.5749 313.261 66.7336C312.979 66.8891 312.602 66.9669 312.133 66.9669ZM312.285 65.9576C312.961 65.9576 313.478 65.6989 313.837 65.1815C314.199 64.661 314.38 63.9865 314.38 63.1581C314.38 62.3393 314.202 61.6775 313.847 61.1728C313.491 60.6682 312.971 60.4158 312.285 60.4158C311.809 60.4158 311.412 60.538 311.095 60.7824C310.781 61.0237 310.544 61.3522 310.385 61.7679C310.23 62.1806 310.152 62.644 310.152 63.1581C310.152 63.6787 310.231 64.1516 310.39 64.5769C310.552 64.999 310.79 65.3355 311.104 65.5862C311.422 65.8338 311.815 65.9576 312.285 65.9576ZM23.4367 85.9669C22.7321 85.9669 22.1243 85.8114 21.6133 85.5003C21.1054 85.1861 20.7134 84.7481 20.4373 84.1863C20.1643 83.6213 20.0279 82.9643 20.0279 82.2153C20.0279 81.4662 20.1643 80.806 20.4373 80.2347C20.7134 79.6602 21.0975 79.2127 21.5895 78.8921C22.0846 78.5684 22.6622 78.4065 23.3224 78.4065C23.7033 78.4065 24.0794 78.47 24.4508 78.597C24.8221 78.7239 25.1602 78.9302 25.4649 79.2159C25.7696 79.4984 26.0124 79.8729 26.1933 80.3395C26.3742 80.806 26.4647 81.3805 26.4647 82.0629V82.539H21.1562C21.1816 83.3198 21.4022 83.9181 21.818 84.3339C22.2369 84.7497 22.7765 84.9576 23.4367 84.9576C23.8779 84.9576 24.2572 84.8624 24.5746 84.6719C24.892 84.4815 25.1221 84.1958 25.2649 83.8149L26.3504 84.1196C26.179 84.6719 25.8362 85.1179 25.322 85.4575C24.8078 85.7971 24.1794 85.9669 23.4367 85.9669ZM21.1562 81.5678H25.322C25.322 80.9489 25.1411 80.4363 24.7793 80.03C24.4175 79.6206 23.9318 79.4158 23.3224 79.4158C22.8939 79.4158 22.5226 79.5158 22.2084 79.7158C21.8942 79.9157 21.6466 80.1808 21.4657 80.5109C21.2848 80.8378 21.1816 81.1901 21.1562 81.5678ZM28.1068 85.8145V78.5017H29.1923V79.6063H29.2685C29.3986 79.2444 29.6382 78.9509 29.9874 78.7255C30.3365 78.5001 30.7317 78.3875 31.1728 78.3875C31.376 78.3875 31.5537 78.4113 31.7061 78.4589C31.8584 78.5065 31.9917 78.5716 32.106 78.6541L31.7251 79.6063C31.6458 79.565 31.5521 79.5333 31.4442 79.5111C31.3395 79.4857 31.2173 79.473 31.0776 79.473C30.5444 79.473 30.1032 79.6364 29.7541 79.9633C29.405 80.2871 29.2304 80.6949 29.2304 81.1869V85.8145H28.1068ZM34.3087 81.4154V85.8145H33.1852V76.0641H34.3087V79.6444H34.404C34.5754 79.2667 34.8324 78.9667 35.1752 78.7445C35.5212 78.5192 35.9814 78.4065 36.5559 78.4065C37.305 78.4065 37.908 78.6319 38.3651 79.0826C38.8221 79.5333 39.0506 80.2284 39.0506 81.1679V85.8145H37.9271V81.244C37.9271 80.6632 37.7763 80.2141 37.4748 79.8967C37.1764 79.5761 36.7622 79.4158 36.2322 79.4158C35.6767 79.4158 35.2165 79.5904 34.8515 79.9395C34.4897 80.2855 34.3087 80.7775 34.3087 81.4154ZM43.1911 85.9859C42.7277 85.9859 42.3071 85.8987 41.9294 85.7241C41.5517 85.5463 41.2518 85.2908 41.0296 84.9576C40.8074 84.6211 40.6964 84.2149 40.6964 83.7388C40.6964 83.3198 40.7789 82.9802 40.9439 82.7199C41.109 82.4565 41.3296 82.2502 41.6057 82.101C41.8818 81.9518 42.1865 81.8407 42.5198 81.7677C42.8562 81.6916 43.1943 81.6313 43.5339 81.5868C43.9782 81.5297 44.3385 81.4868 44.6146 81.4583C44.8939 81.4265 45.0971 81.3742 45.224 81.3012C45.3541 81.2282 45.4192 81.1012 45.4192 80.9203V80.8822C45.4192 80.4125 45.2907 80.0475 45.0336 79.7872C44.7797 79.5269 44.394 79.3968 43.8767 79.3968C43.3403 79.3968 42.9197 79.5142 42.615 79.7491C42.3103 79.984 42.0961 80.2347 41.9723 80.5013L40.9058 80.1205C41.0963 79.6761 41.3502 79.3301 41.6676 79.0826C41.9882 78.8318 42.3373 78.6573 42.715 78.5589C43.0959 78.4573 43.4704 78.4065 43.8386 78.4065C44.0735 78.4065 44.3432 78.4351 44.6479 78.4922C44.9558 78.5462 45.2526 78.6588 45.5382 78.8302C45.8271 79.0016 46.0667 79.2603 46.2571 79.6063C46.4476 79.9522 46.5428 80.4156 46.5428 80.9965V85.8145H45.4192V84.8243H45.3621C45.2859 84.983 45.1589 85.1528 44.9812 85.3337C44.8035 85.5146 44.567 85.6685 44.2718 85.7955C43.9766 85.9225 43.6164 85.9859 43.1911 85.9859ZM43.3625 84.9766C43.8068 84.9766 44.1814 84.8893 44.4861 84.7148C44.7939 84.5402 45.0256 84.3148 45.1812 84.0387C45.3399 83.7626 45.4192 83.4722 45.4192 83.1675V82.1391C45.3716 82.1962 45.2669 82.2486 45.105 82.2962C44.9463 82.3406 44.7622 82.3803 44.5527 82.4152C44.3464 82.447 44.1449 82.4755 43.9481 82.5009C43.7545 82.5231 43.5974 82.5422 43.4767 82.5581C43.1847 82.5961 42.9118 82.658 42.6579 82.7437C42.4071 82.8263 42.204 82.9516 42.0485 83.1199C41.8961 83.2849 41.8199 83.5102 41.8199 83.7959C41.8199 84.1863 41.9644 84.4815 42.2532 84.6814C42.5452 84.8782 42.915 84.9766 43.3625 84.9766ZM49.6501 76.0641V85.8145H48.5265V76.0641H49.6501ZM54.8213 78.5017V79.4539H53.2597V83.7197C53.2597 84.0371 53.3057 84.2752 53.3978 84.4339C53.493 84.5894 53.6136 84.6941 53.7596 84.7481C53.9088 84.7989 54.0659 84.8243 54.231 84.8243C54.3547 84.8243 54.4563 84.8179 54.5357 84.8052C54.615 84.7894 54.6785 84.7767 54.7261 84.7671L54.9546 85.7765C54.8784 85.805 54.7721 85.8336 54.6356 85.8622C54.4992 85.8939 54.3262 85.9098 54.1167 85.9098C53.7993 85.9098 53.4883 85.8415 53.1836 85.705C52.882 85.5686 52.6313 85.3607 52.4313 85.0814C52.2345 84.8021 52.1361 84.4497 52.1361 84.0244V79.4539H51.0316V78.5017H52.1361V76.7497H53.2597V78.5017H54.8213ZM59.4319 85.9669C58.7273 85.9669 58.1195 85.8114 57.6085 85.5003C57.1006 85.1861 56.7086 84.7481 56.4325 84.1863C56.1596 83.6213 56.0231 82.9643 56.0231 82.2153C56.0231 81.4662 56.1596 80.806 56.4325 80.2347C56.7086 79.6602 57.0927 79.2127 57.5847 78.8921C58.0798 78.5684 58.6575 78.4065 59.3176 78.4065C59.6985 78.4065 60.0746 78.47 60.446 78.597C60.8173 78.7239 61.1554 78.9302 61.4601 79.2159C61.7648 79.4984 62.0076 79.8729 62.1885 80.3395C62.3694 80.806 62.4599 81.3805 62.4599 82.0629V82.539H57.1514C57.1768 83.3198 57.3974 83.9181 57.8132 84.3339C58.2321 84.7497 58.7717 84.9576 59.4319 84.9576C59.8731 84.9576 60.2524 84.8624 60.5698 84.6719C60.8872 84.4815 61.1173 84.1958 61.2601 83.8149L62.3456 84.1196C62.1742 84.6719 61.8314 85.1179 61.3172 85.4575C60.8031 85.7971 60.1746 85.9669 59.4319 85.9669ZM57.1514 81.5678H61.3172C61.3172 80.9489 61.1363 80.4363 60.7745 80.03C60.4127 79.6206 59.927 79.4158 59.3176 79.4158C58.8892 79.4158 58.5178 79.5158 58.2036 79.7158C57.8894 79.9157 57.6418 80.1808 57.4609 80.5109C57.28 80.8378 57.1768 81.1901 57.1514 81.5678ZM70.567 85.9669C69.9576 85.9669 69.4196 85.813 68.953 85.5051C68.4865 85.194 68.1215 84.756 67.858 84.1911C67.5946 83.6229 67.4629 82.9516 67.4629 82.1772C67.4629 81.4091 67.5946 80.7426 67.858 80.1776C68.1215 79.6126 68.488 79.1762 68.9578 78.8683C69.4275 78.5605 69.9703 78.4065 70.586 78.4065C71.0621 78.4065 71.4382 78.4859 71.7144 78.6446C71.9937 78.8001 72.2063 78.9778 72.3523 79.1778C72.5015 79.3746 72.6174 79.5364 72.6999 79.6634H72.7951V76.0641H73.9187V85.8145H72.8332V84.691H72.6999C72.6174 84.8243 72.4999 84.9925 72.3476 85.1956C72.1952 85.3956 71.9778 85.5749 71.6953 85.7336C71.4129 85.8891 71.0367 85.9669 70.567 85.9669ZM70.7193 84.9576C71.3954 84.9576 71.9128 84.6989 72.2714 84.1815C72.6332 83.661 72.8142 82.9865 72.8142 82.1581C72.8142 81.3393 72.6364 80.6775 72.2809 80.1728C71.9255 79.6682 71.4049 79.4158 70.7193 79.4158C70.2432 79.4158 69.8465 79.538 69.5291 79.7824C69.2149 80.0237 68.9784 80.3522 68.8197 80.7679C68.6642 81.1806 68.5864 81.644 68.5864 82.1581C68.5864 82.6787 68.6658 83.1516 68.8245 83.5769C68.9864 83.999 69.2244 84.3355 69.5386 84.5862C69.856 84.8338 70.2496 84.9576 70.7193 84.9576ZM79.1316 85.9669C78.4269 85.9669 77.8191 85.8114 77.3081 85.5003C76.8003 85.1861 76.4083 84.7481 76.1322 84.1863C75.8592 83.6213 75.7227 82.9643 75.7227 82.2153C75.7227 81.4662 75.8592 80.806 76.1322 80.2347C76.4083 79.6602 76.7923 79.2127 77.2843 78.8921C77.7794 78.5684 78.3571 78.4065 79.0173 78.4065C79.3982 78.4065 79.7743 78.47 80.1456 78.597C80.517 78.7239 80.855 78.9302 81.1597 79.2159C81.4644 79.4984 81.7072 79.8729 81.8881 80.3395C82.0691 80.806 82.1595 81.3805 82.1595 82.0629V82.539H76.8511C76.8765 83.3198 77.097 83.9181 77.5128 84.3339C77.9318 84.7497 78.4714 84.9576 79.1316 84.9576C79.5727 84.9576 79.952 84.8624 80.2694 84.6719C80.5868 84.4815 80.8169 84.1958 80.9598 83.8149L82.0452 84.1196C81.8739 84.6719 81.5311 85.1179 81.0169 85.4575C80.5027 85.7971 79.8743 85.9669 79.1316 85.9669ZM76.8511 81.5678H81.0169C81.0169 80.9489 80.836 80.4363 80.4741 80.03C80.1123 79.6206 79.6267 79.4158 79.0173 79.4158C78.5888 79.4158 78.2175 79.5158 77.9032 79.7158C77.589 79.9157 77.3414 80.1808 77.1605 80.5109C76.9796 80.8378 76.8765 81.1901 76.8511 81.5678ZM83.8017 85.8145V78.5017H84.9252V85.8145H83.8017ZM84.373 77.2829C84.154 77.2829 83.9651 77.2083 83.8064 77.0592C83.6509 76.91 83.5731 76.7307 83.5731 76.5212C83.5731 76.3117 83.6509 76.1324 83.8064 75.9832C83.9651 75.834 84.154 75.7594 84.373 75.7594C84.592 75.7594 84.7792 75.834 84.9348 75.9832C85.0935 76.1324 85.1728 76.3117 85.1728 76.5212C85.1728 76.7307 85.0935 76.91 84.9348 77.0592C84.7792 77.2083 84.592 77.2829 84.373 77.2829ZM88.0397 81.4154V85.8145H86.9161V78.5017H88.0016V79.6444H88.0968C88.2682 79.273 88.5285 78.9747 88.8776 78.7493C89.2268 78.5208 89.6775 78.4065 90.2297 78.4065C90.9693 78.4065 91.566 78.6335 92.0199 79.0873C92.4769 79.5412 92.7054 80.2347 92.7054 81.1679V85.8145H91.5818V81.244C91.5818 80.6696 91.4327 80.222 91.1343 79.9015C90.836 79.5777 90.4265 79.4158 89.906 79.4158C89.3696 79.4158 88.9237 79.5904 88.5682 79.9395C88.2159 80.2855 88.0397 80.7775 88.0397 81.4154ZM101.461 85.9669C100.757 85.9669 100.149 85.8114 99.6378 85.5003C99.13 85.1861 98.738 84.7481 98.4618 84.1863C98.1889 83.6213 98.0524 82.9643 98.0524 82.2153C98.0524 81.4662 98.1889 80.806 98.4618 80.2347C98.738 79.6602 99.122 79.2127 99.614 78.8921C100.109 78.5684 100.687 78.4065 101.347 78.4065C101.728 78.4065 102.104 78.47 102.475 78.597C102.847 78.7239 103.185 78.9302 103.489 79.2159C103.794 79.4984 104.037 79.8729 104.218 80.3395C104.399 80.806 104.489 81.3805 104.489 82.0629V82.539H99.1807C99.2061 83.3198 99.4267 83.9181 99.8425 84.3339C100.261 84.7497 100.801 84.9576 101.461 84.9576C101.902 84.9576 102.282 84.8624 102.599 84.6719C102.916 84.4815 103.147 84.1958 103.289 83.8149L104.375 84.1196C104.204 84.6719 103.861 85.1179 103.347 85.4575C102.832 85.7971 102.204 85.9669 101.461 85.9669ZM99.1807 81.5678H103.347C103.347 80.9489 103.166 80.4363 102.804 80.03C102.442 79.6206 101.956 79.4158 101.347 79.4158C100.918 79.4158 100.547 79.5158 100.233 79.7158C99.9187 79.9157 99.6711 80.1808 99.4902 80.5109C99.3093 80.8378 99.2061 81.1901 99.1807 81.5678ZM106.131 85.8145V78.5017H107.217V79.6063H107.293C107.423 79.2444 107.663 78.9509 108.012 78.7255C108.361 78.5001 108.756 78.3875 109.197 78.3875C109.401 78.3875 109.578 78.4113 109.731 78.4589C109.883 78.5065 110.016 78.5716 110.131 78.6541L109.75 79.6063C109.67 79.565 109.577 79.5333 109.469 79.5111C109.364 79.4857 109.242 79.473 109.102 79.473C108.569 79.473 108.128 79.6364 107.779 79.9633C107.429 80.2871 107.255 80.6949 107.255 81.1869V85.8145H106.131ZM116.39 80.1395L115.38 80.4252C115.282 80.1712 115.117 79.9332 114.885 79.711C114.653 79.4888 114.292 79.3777 113.8 79.3777C113.352 79.3777 112.979 79.4809 112.681 79.6872C112.386 79.8903 112.238 80.149 112.238 80.4632C112.238 80.7426 112.34 80.9631 112.543 81.125C112.746 81.2869 113.063 81.4218 113.495 81.5297L114.58 81.7963C115.875 82.1137 116.523 82.7739 116.523 83.7769C116.523 84.1958 116.402 84.5704 116.161 84.9004C115.923 85.2305 115.59 85.4908 115.161 85.6812C114.733 85.8717 114.234 85.9669 113.666 85.9669C112.92 85.9669 112.303 85.805 111.814 85.4813C111.326 85.1575 111.016 84.6846 110.886 84.0625L111.952 83.7959C112.152 84.583 112.717 84.9766 113.647 84.9766C114.171 84.9766 114.587 84.8655 114.895 84.6434C115.206 84.418 115.361 84.1482 115.361 83.834C115.361 83.3166 114.999 82.9738 114.276 82.8056L113.057 82.52C112.387 82.3613 111.895 82.1153 111.581 81.782C111.27 81.4456 111.114 81.025 111.114 80.5204C111.114 80.1078 111.23 79.7428 111.462 79.4254C111.697 79.108 112.016 78.8588 112.419 78.6779C112.825 78.497 113.285 78.4065 113.8 78.4065C114.523 78.4065 115.091 78.5652 115.504 78.8826C115.92 79.2 116.215 79.619 116.39 80.1395ZM121.328 78.5017V79.4539H119.766V83.7197C119.766 84.0371 119.812 84.2752 119.904 84.4339C119.999 84.5894 120.12 84.6941 120.266 84.7481C120.415 84.7989 120.572 84.8243 120.737 84.8243C120.861 84.8243 120.963 84.8179 121.042 84.8052C121.121 84.7894 121.185 84.7767 121.232 84.7671L121.461 85.7765C121.385 85.805 121.278 85.8336 121.142 85.8622C121.005 85.8939 120.832 85.9098 120.623 85.9098C120.305 85.9098 119.994 85.8415 119.69 85.705C119.388 85.5686 119.137 85.3607 118.938 85.0814C118.741 84.8021 118.642 84.4497 118.642 84.0244V79.4539H117.538V78.5017H118.642V76.7497H119.766V78.5017H121.328ZM125.938 85.9669C125.233 85.9669 124.626 85.8114 124.115 85.5003C123.607 85.1861 123.215 84.7481 122.939 84.1863C122.666 83.6213 122.529 82.9643 122.529 82.2153C122.529 81.4662 122.666 80.806 122.939 80.2347C123.215 79.6602 123.599 79.2127 124.091 78.8921C124.586 78.5684 125.164 78.4065 125.824 78.4065C126.205 78.4065 126.581 78.47 126.952 78.597C127.324 78.7239 127.662 78.9302 127.966 79.2159C128.271 79.4984 128.514 79.8729 128.695 80.3395C128.876 80.806 128.966 81.3805 128.966 82.0629V82.539H123.658C123.683 83.3198 123.904 83.9181 124.319 84.3339C124.738 84.7497 125.278 84.9576 125.938 84.9576C126.379 84.9576 126.759 84.8624 127.076 84.6719C127.393 84.4815 127.623 84.1958 127.766 83.8149L128.852 84.1196C128.68 84.6719 128.338 85.1179 127.823 85.4575C127.309 85.7971 126.681 85.9669 125.938 85.9669ZM123.658 81.5678H127.823C127.823 80.9489 127.643 80.4363 127.281 80.03C126.919 79.6206 126.433 79.4158 125.824 79.4158C125.395 79.4158 125.024 79.5158 124.71 79.7158C124.396 79.9157 124.148 80.1808 123.967 80.5109C123.786 80.8378 123.683 81.1901 123.658 81.5678ZM135.788 80.1395L134.779 80.4252C134.68 80.1712 134.515 79.9332 134.284 79.711C134.052 79.4888 133.69 79.3777 133.198 79.3777C132.751 79.3777 132.378 79.4809 132.079 79.6872C131.784 79.8903 131.637 80.149 131.637 80.4632C131.637 80.7426 131.738 80.9631 131.941 81.125C132.144 81.2869 132.462 81.4218 132.893 81.5297L133.979 81.7963C135.274 82.1137 135.921 82.7739 135.921 83.7769C135.921 84.1958 135.801 84.5704 135.56 84.9004C135.322 85.2305 134.988 85.4908 134.56 85.6812C134.131 85.8717 133.633 85.9669 133.065 85.9669C132.319 85.9669 131.702 85.805 131.213 85.4813C130.724 85.1575 130.415 84.6846 130.284 84.0625L131.351 83.7959C131.551 84.583 132.116 84.9766 133.046 84.9766C133.57 84.9766 133.985 84.8655 134.293 84.6434C134.604 84.418 134.76 84.1482 134.76 83.834C134.76 83.3166 134.398 82.9738 133.674 82.8056L132.455 82.52C131.786 82.3613 131.294 82.1153 130.98 81.782C130.669 81.4456 130.513 81.025 130.513 80.5204C130.513 80.1078 130.629 79.7428 130.861 79.4254C131.095 79.108 131.414 78.8588 131.817 78.6779C132.224 78.497 132.684 78.4065 133.198 78.4065C133.922 78.4065 134.49 78.5652 134.903 78.8826C135.318 79.2 135.614 79.619 135.788 80.1395ZM144.411 85.8145H141.402V76.0641H144.544C145.49 76.0641 146.299 76.2593 146.972 76.6497C147.645 77.037 148.161 77.594 148.519 78.3208C148.878 79.0445 149.057 79.911 149.057 80.9203C149.057 81.936 148.876 82.8104 148.515 83.5436C148.153 84.2736 147.626 84.8354 146.934 85.2289C146.242 85.6193 145.401 85.8145 144.411 85.8145ZM142.582 84.7671H144.334C145.544 84.7671 146.442 84.4243 147.029 83.7388C147.619 83.05 147.915 82.1105 147.915 80.9203C147.915 79.7396 147.626 78.8096 147.048 78.1304C146.471 77.4512 145.61 77.1115 144.468 77.1115H142.582V84.7671ZM152.97 85.9859C152.507 85.9859 152.086 85.8987 151.709 85.7241C151.331 85.5463 151.031 85.2908 150.809 84.9576C150.587 84.6211 150.476 84.2149 150.476 83.7388C150.476 83.3198 150.558 82.9802 150.723 82.7199C150.888 82.4565 151.109 82.2502 151.385 82.101C151.661 81.9518 151.966 81.8407 152.299 81.7677C152.636 81.6916 152.974 81.6313 153.313 81.5868C153.758 81.5297 154.118 81.4868 154.394 81.4583C154.673 81.4265 154.876 81.3742 155.003 81.3012C155.133 81.2282 155.199 81.1012 155.199 80.9203V80.8822C155.199 80.4125 155.07 80.0475 154.813 79.7872C154.559 79.5269 154.173 79.3968 153.656 79.3968C153.12 79.3968 152.699 79.5142 152.394 79.7491C152.09 79.984 151.875 80.2347 151.752 80.5013L150.685 80.1205C150.876 79.6761 151.13 79.3301 151.447 79.0826C151.767 78.8318 152.117 78.6573 152.494 78.5589C152.875 78.4573 153.25 78.4065 153.618 78.4065C153.853 78.4065 154.123 78.4351 154.427 78.4922C154.735 78.5462 155.032 78.6588 155.318 78.8302C155.606 79.0016 155.846 79.2603 156.036 79.6063C156.227 79.9522 156.322 80.4156 156.322 80.9965V85.8145H155.199V84.8243H155.141C155.065 84.983 154.938 85.1528 154.761 85.3337C154.583 85.5146 154.346 85.6685 154.051 85.7955C153.756 85.9225 153.396 85.9859 152.97 85.9859ZM153.142 84.9766C153.586 84.9766 153.961 84.8893 154.265 84.7148C154.573 84.5402 154.805 84.3148 154.96 84.0387C155.119 83.7626 155.199 83.4722 155.199 83.1675V82.1391C155.151 82.1962 155.046 82.2486 154.884 82.2962C154.726 82.3406 154.542 82.3803 154.332 82.4152C154.126 82.447 153.924 82.4755 153.727 82.5009C153.534 82.5231 153.377 82.5422 153.256 82.5581C152.964 82.5961 152.691 82.658 152.437 82.7437C152.186 82.8263 151.983 82.9516 151.828 83.1199C151.675 83.2849 151.599 83.5102 151.599 83.7959C151.599 84.1863 151.744 84.4815 152.033 84.6814C152.325 84.8782 152.694 84.9766 153.142 84.9766ZM161.486 78.5017V79.4539H159.925V83.7197C159.925 84.0371 159.971 84.2752 160.063 84.4339C160.158 84.5894 160.278 84.6941 160.424 84.7481C160.574 84.7989 160.731 84.8243 160.896 84.8243C161.02 84.8243 161.121 84.8179 161.201 84.8052C161.28 84.7894 161.343 84.7767 161.391 84.7671L161.619 85.7765C161.543 85.805 161.437 85.8336 161.3 85.8622C161.164 85.8939 160.991 85.9098 160.782 85.9098C160.464 85.9098 160.153 85.8415 159.848 85.705C159.547 85.5686 159.296 85.3607 159.096 85.0814C158.899 84.8021 158.801 84.4497 158.801 84.0244V79.4539H157.696V78.5017H158.801V76.7497H159.925V78.5017H161.486ZM166.097 85.9669C165.392 85.9669 164.784 85.8114 164.273 85.5003C163.765 85.1861 163.374 84.7481 163.097 84.1863C162.824 83.6213 162.688 82.9643 162.688 82.2153C162.688 81.4662 162.824 80.806 163.097 80.2347C163.374 79.6602 163.758 79.2127 164.25 78.8921C164.745 78.5684 165.322 78.4065 165.982 78.4065C166.363 78.4065 166.739 78.47 167.111 78.597C167.482 78.7239 167.82 78.9302 168.125 79.2159C168.43 79.4984 168.672 79.8729 168.853 80.3395C169.034 80.806 169.125 81.3805 169.125 82.0629V82.539H163.816C163.842 83.3198 164.062 83.9181 164.478 84.3339C164.897 84.7497 165.437 84.9576 166.097 84.9576C166.538 84.9576 166.917 84.8624 167.235 84.6719C167.552 84.4815 167.782 84.1958 167.925 83.8149L169.01 84.1196C168.839 84.6719 168.496 85.1179 167.982 85.4575C167.468 85.7971 166.839 85.9669 166.097 85.9669ZM163.816 81.5678H167.982C167.982 80.9489 167.801 80.4363 167.439 80.03C167.078 79.6206 166.592 79.4158 165.982 79.4158C165.554 79.4158 165.183 79.5158 164.868 79.7158C164.554 79.9157 164.307 80.1808 164.126 80.5109C163.945 80.8378 163.842 81.1901 163.816 81.5678ZM174.471 85.8145V76.0641H175.594V81.7582H175.727L178.927 78.5017H180.317L177.227 81.6249L180.545 85.8145H179.117L176.38 82.3486L175.594 83.077V85.8145H174.471ZM184.366 85.9669C183.706 85.9669 183.126 85.8098 182.628 85.4956C182.133 85.1813 181.746 84.7417 181.466 84.1768C181.19 83.6118 181.052 82.9516 181.052 82.1962C181.052 81.4345 181.19 80.7695 181.466 80.2014C181.746 79.6333 182.133 79.1921 182.628 78.8778C183.126 78.5636 183.706 78.4065 184.366 78.4065C185.026 78.4065 185.604 78.5636 186.099 78.8778C186.597 79.1921 186.984 79.6333 187.26 80.2014C187.54 80.7695 187.679 81.4345 187.679 82.1962C187.679 82.9516 187.54 83.6118 187.26 84.1768C186.984 84.7417 186.597 85.1813 186.099 85.4956C185.604 85.8098 185.026 85.9669 184.366 85.9669ZM184.366 84.9576C184.867 84.9576 185.28 84.829 185.604 84.5719C185.927 84.3148 186.167 83.9768 186.322 83.5579C186.478 83.1389 186.556 82.685 186.556 82.1962C186.556 81.7074 186.478 81.252 186.322 80.8298C186.167 80.4077 185.927 80.0665 185.604 79.8062C185.28 79.546 184.867 79.4158 184.366 79.4158C183.864 79.4158 183.452 79.546 183.128 79.8062C182.804 80.0665 182.565 80.4077 182.409 80.8298C182.253 81.252 182.176 81.7074 182.176 82.1962C182.176 82.685 182.253 83.1389 182.409 83.5579C182.565 83.9768 182.804 84.3148 183.128 84.5719C183.452 84.829 183.864 84.9576 184.366 84.9576ZM194.507 80.1395L193.498 80.4252C193.4 80.1712 193.235 79.9332 193.003 79.711C192.771 79.4888 192.409 79.3777 191.917 79.3777C191.47 79.3777 191.097 79.4809 190.799 79.6872C190.503 79.8903 190.356 80.149 190.356 80.4632C190.356 80.7426 190.457 80.9631 190.661 81.125C190.864 81.2869 191.181 81.4218 191.613 81.5297L192.698 81.7963C193.993 82.1137 194.641 82.7739 194.641 83.7769C194.641 84.1958 194.52 84.5704 194.279 84.9004C194.041 85.2305 193.708 85.4908 193.279 85.6812C192.851 85.8717 192.352 85.9669 191.784 85.9669C191.038 85.9669 190.421 85.805 189.932 85.4813C189.443 85.1575 189.134 84.6846 189.004 84.0625L190.07 83.7959C190.27 84.583 190.835 84.9766 191.765 84.9766C192.289 84.9766 192.705 84.8655 193.012 84.6434C193.323 84.418 193.479 84.1482 193.479 83.834C193.479 83.3166 193.117 82.9738 192.393 82.8056L191.175 82.52C190.505 82.3613 190.013 82.1153 189.699 81.782C189.388 81.4456 189.232 81.025 189.232 80.5204C189.232 80.1078 189.348 79.7428 189.58 79.4254C189.815 79.108 190.134 78.8588 190.537 78.6779C190.943 78.497 191.403 78.4065 191.917 78.4065C192.641 78.4065 193.209 78.5652 193.622 78.8826C194.038 79.2 194.333 79.619 194.507 80.1395ZM199.445 78.5017V79.4539H197.884V83.7197C197.884 84.0371 197.93 84.2752 198.022 84.4339C198.117 84.5894 198.238 84.6941 198.384 84.7481C198.533 84.7989 198.69 84.8243 198.855 84.8243C198.979 84.8243 199.08 84.8179 199.16 84.8052C199.239 84.7894 199.302 84.7767 199.35 84.7671L199.579 85.7765C199.502 85.805 199.396 85.8336 199.26 85.8622C199.123 85.8939 198.95 85.9098 198.741 85.9098C198.423 85.9098 198.112 85.8415 197.807 85.705C197.506 85.5686 197.255 85.3607 197.055 85.0814C196.858 84.8021 196.76 84.4497 196.76 84.0244V79.4539H195.656V78.5017H196.76V76.7497H197.884V78.5017H199.445ZM204.056 85.9669C203.351 85.9669 202.743 85.8114 202.232 85.5003C201.725 85.1861 201.333 84.7481 201.056 84.1863C200.783 83.6213 200.647 82.9643 200.647 82.2153C200.647 81.4662 200.783 80.806 201.056 80.2347C201.333 79.6602 201.717 79.2127 202.209 78.8921C202.704 78.5684 203.281 78.4065 203.942 78.4065C204.322 78.4065 204.699 78.47 205.07 78.597C205.441 78.7239 205.779 78.9302 206.084 79.2159C206.389 79.4984 206.632 79.8729 206.812 80.3395C206.993 80.806 207.084 81.3805 207.084 82.0629V82.539H201.775C201.801 83.3198 202.021 83.9181 202.437 84.3339C202.856 84.7497 203.396 84.9576 204.056 84.9576C204.497 84.9576 204.876 84.8624 205.194 84.6719C205.511 84.4815 205.741 84.1958 205.884 83.8149L206.97 84.1196C206.798 84.6719 206.455 85.1179 205.941 85.4575C205.427 85.7971 204.799 85.9669 204.056 85.9669ZM201.775 81.5678H205.941C205.941 80.9489 205.76 80.4363 205.398 80.03C205.037 79.6206 204.551 79.4158 203.942 79.4158C203.513 79.4158 203.142 79.5158 202.828 79.7158C202.513 79.9157 202.266 80.1808 202.085 80.5109C201.904 80.8378 201.801 81.1901 201.775 81.5678ZM209.85 81.4154V85.8145H208.726V78.5017H209.811V79.6444H209.907C210.078 79.273 210.338 78.9747 210.687 78.7493C211.037 78.5208 211.487 78.4065 212.04 78.4065C212.779 78.4065 213.376 78.6335 213.83 79.0873C214.287 79.5412 214.515 80.2347 214.515 81.1679V85.8145H213.392V81.244C213.392 80.6696 213.243 80.222 212.944 79.9015C212.646 79.5777 212.236 79.4158 211.716 79.4158C211.179 79.4158 210.733 79.5904 210.378 79.9395C210.026 80.2855 209.85 80.7775 209.85 81.4154ZM217.625 76.0641V85.8145H216.501V76.0641H217.625ZM222.587 85.9669C221.927 85.9669 221.347 85.8098 220.849 85.4956C220.354 85.1813 219.967 84.7417 219.687 84.1768C219.411 83.6118 219.273 82.9516 219.273 82.1962C219.273 81.4345 219.411 80.7695 219.687 80.2014C219.967 79.6333 220.354 79.1921 220.849 78.8778C221.347 78.5636 221.927 78.4065 222.587 78.4065C223.247 78.4065 223.825 78.5636 224.32 78.8778C224.818 79.1921 225.205 79.6333 225.481 80.2014C225.761 80.7695 225.9 81.4345 225.9 82.1962C225.9 82.9516 225.761 83.6118 225.481 84.1768C225.205 84.7417 224.818 85.1813 224.32 85.4956C223.825 85.8098 223.247 85.9669 222.587 85.9669ZM222.587 84.9576C223.088 84.9576 223.501 84.829 223.825 84.5719C224.148 84.3148 224.388 83.9768 224.543 83.5579C224.699 83.1389 224.777 82.685 224.777 82.1962C224.777 81.7074 224.699 81.252 224.543 80.8298C224.388 80.4077 224.148 80.0665 223.825 79.8062C223.501 79.546 223.088 79.4158 222.587 79.4158C222.085 79.4158 221.673 79.546 221.349 79.8062C221.025 80.0665 220.785 80.4077 220.63 80.8298C220.474 81.252 220.397 81.7074 220.397 82.1962C220.397 82.685 220.474 83.1389 220.63 83.5579C220.785 83.9768 221.025 84.3148 221.349 84.5719C221.673 84.829 222.085 84.9576 222.587 84.9576ZM232.728 80.1395L231.719 80.4252C231.621 80.1712 231.456 79.9332 231.224 79.711C230.992 79.4888 230.63 79.3777 230.138 79.3777C229.691 79.3777 229.318 79.4809 229.02 79.6872C228.724 79.8903 228.577 80.149 228.577 80.4632C228.577 80.7426 228.678 80.9631 228.881 81.125C229.085 81.2869 229.402 81.4218 229.834 81.5297L230.919 81.7963C232.214 82.1137 232.862 82.7739 232.862 83.7769C232.862 84.1958 232.741 84.5704 232.5 84.9004C232.262 85.2305 231.928 85.4908 231.5 85.6812C231.071 85.8717 230.573 85.9669 230.005 85.9669C229.259 85.9669 228.642 85.805 228.153 85.4813C227.664 85.1575 227.355 84.6846 227.225 84.0625L228.291 83.7959C228.491 84.583 229.056 84.9766 229.986 84.9766C230.51 84.9766 230.925 84.8655 231.233 84.6434C231.544 84.418 231.7 84.1482 231.7 83.834C231.7 83.3166 231.338 82.9738 230.614 82.8056L229.396 82.52C228.726 82.3613 228.234 82.1153 227.92 81.782C227.609 81.4456 227.453 81.025 227.453 80.5204C227.453 80.1078 227.569 79.7428 227.801 79.4254C228.036 79.108 228.355 78.8588 228.758 78.6779C229.164 78.497 229.624 78.4065 230.138 78.4065C230.862 78.4065 231.43 78.5652 231.843 78.8826C232.259 79.2 232.554 79.619 232.728 80.1395ZM235.305 85.8907C235.07 85.8907 234.868 85.8066 234.7 85.6384C234.532 85.4702 234.448 85.2686 234.448 85.0337C234.448 84.7989 234.532 84.5973 234.7 84.4291C234.868 84.2609 235.07 84.1768 235.305 84.1768C235.54 84.1768 235.741 84.2609 235.909 84.4291C236.078 84.5973 236.162 84.7989 236.162 85.0337C236.162 85.2686 236.078 85.4702 235.909 85.6384C235.741 85.8066 235.54 85.8907 235.305 85.8907Z" fill="black"/>
<path d="M19.9104 38.5729V25.9548H23.3361V35.8127H28.4376V38.5729H19.9104ZM34.3022 38.7455C32.7865 38.7455 31.5933 38.3162 30.7225 37.4578C29.8558 36.5952 29.4225 35.3979 29.4225 33.8658C29.4225 32.8882 29.6196 32.0338 30.014 31.3027C30.4083 30.5716 30.9648 30.0027 31.6836 29.596C32.4025 29.1894 33.2506 28.9861 34.2282 28.9861C35.1812 28.9861 36.0088 29.1812 36.7112 29.5714C37.4177 29.9616 37.964 30.5202 38.3501 31.2472C38.7403 31.9702 38.9354 32.8348 38.9354 33.8411V34.6298H32.7742V34.7776C32.7742 35.2336 32.9138 35.6114 33.1931 35.9113C33.4766 36.207 33.8709 36.3549 34.3761 36.3549C34.7252 36.3549 35.0292 36.283 35.288 36.1393C35.5508 35.9914 35.7316 35.784 35.8301 35.517H38.9354C38.7752 36.5028 38.2905 37.2873 37.4814 37.8706C36.6763 38.4538 35.6166 38.7455 34.3022 38.7455ZM32.7742 32.7567H35.8055C35.7973 32.3501 35.6494 32.0195 35.3619 31.7648C35.0785 31.506 34.7252 31.3766 34.3022 31.3766C33.8873 31.3766 33.53 31.504 33.2301 31.7586C32.9344 32.0133 32.7824 32.346 32.7742 32.7567ZM40.2191 38.5729V29.1093H43.5215V30.9084H43.6201C43.7926 30.243 44.0658 29.7562 44.4396 29.4482C44.8174 29.1401 45.259 28.9861 45.7642 28.9861C46.0476 28.9861 46.3352 29.0292 46.6268 29.1155V32.0174C46.4584 31.9599 46.251 31.9168 46.0045 31.888C45.7581 31.8593 45.5465 31.8449 45.3699 31.8449C44.8688 31.8449 44.4519 32.0092 44.1192 32.3378C43.7865 32.6664 43.6201 33.1018 43.6201 33.644V38.5729H40.2191ZM51.0389 33.2496V38.5729H47.6379V29.1093H50.8663V30.9084H50.9649C51.1703 30.3087 51.5318 29.8384 52.0493 29.4975C52.571 29.1565 53.1789 28.9861 53.873 28.9861C54.5425 28.9861 55.1237 29.1401 55.6166 29.4482C56.1137 29.7521 56.4977 30.1711 56.7688 30.7051C57.044 31.239 57.1795 31.849 57.1754 32.5349V38.5729H53.7744V33.2496C53.7786 32.7814 53.6594 32.4138 53.4171 32.1468C53.1789 31.8798 52.8462 31.7463 52.419 31.7463C51.9959 31.7463 51.6611 31.8798 51.4147 32.1468C51.1682 32.4138 51.043 32.7814 51.0389 33.2496ZM63.2849 38.7455C61.7693 38.7455 60.576 38.3162 59.7053 37.4578C58.8386 36.5952 58.4052 35.3979 58.4052 33.8658C58.4052 32.8882 58.6024 32.0338 58.9967 31.3027C59.391 30.5716 59.9476 30.0027 60.6664 29.596C61.3852 29.1894 62.2334 28.9861 63.211 28.9861C64.1639 28.9861 64.9916 29.1812 65.694 29.5714C66.4005 29.9616 66.9467 30.5202 67.3329 31.2472C67.7231 31.9702 67.9182 32.8348 67.9182 33.8411V34.6298H61.7569V34.7776C61.7569 35.2336 61.8966 35.6114 62.1759 35.9113C62.4593 36.207 62.8536 36.3549 63.3589 36.3549C63.708 36.3549 64.012 36.283 64.2707 36.1393C64.5336 35.9914 64.7143 35.784 64.8129 35.517H67.9182C67.758 36.5028 67.2733 37.2873 66.4641 37.8706C65.6591 38.4538 64.5993 38.7455 63.2849 38.7455ZM61.7569 32.7567H64.7883C64.7801 32.3501 64.6322 32.0195 64.3447 31.7648C64.0612 31.506 63.708 31.3766 63.2849 31.3766C62.8701 31.3766 62.5127 31.504 62.2129 31.7586C61.9171 32.0133 61.7652 32.346 61.7569 32.7567ZM72.5542 29.1093H75.9552V38.844C75.9552 39.6737 75.7807 40.3289 75.4315 40.8095C75.0824 41.2941 74.5895 41.633 73.9528 41.8261C73.3203 42.0232 72.5748 42.1054 71.7163 42.0725C71.63 42.0684 71.5397 42.0663 71.4452 42.0663C71.3507 42.0663 71.2357 42.0602 71.1002 42.0479V39.5341C71.2439 39.5505 71.3754 39.5587 71.4945 39.5587C71.9011 39.5587 72.1784 39.4951 72.3263 39.3677C72.4782 39.2445 72.5542 39.0453 72.5542 38.7701V29.1093ZM74.2547 28.1235C73.7947 28.1235 73.4004 27.9715 73.0718 27.6676C72.7432 27.3636 72.5789 26.9981 72.5789 26.5709C72.5789 26.1437 72.7432 25.7781 73.0718 25.4742C73.4004 25.1702 73.7947 25.0183 74.2547 25.0183C74.7189 25.0183 75.1132 25.1702 75.4377 25.4742C75.7663 25.7781 75.9306 26.1437 75.9306 26.5709C75.9306 26.9981 75.7663 27.3636 75.4377 27.6676C75.1132 27.9715 74.7189 28.1235 74.2547 28.1235ZM82.1186 38.7455C80.603 38.7455 79.4097 38.3162 78.539 37.4578C77.6723 36.5952 77.2389 35.3979 77.2389 33.8658C77.2389 32.8882 77.4361 32.0338 77.8304 31.3027C78.2247 30.5716 78.7813 30.0027 79.5001 29.596C80.2189 29.1894 81.0671 28.9861 82.0447 28.9861C82.9976 28.9861 83.8253 29.1812 84.5277 29.5714C85.2341 29.9616 85.7804 30.5202 86.1665 31.2472C86.5568 31.9702 86.7519 32.8348 86.7519 33.8411V34.6298H80.5906V34.7776C80.5906 35.2336 80.7303 35.6114 81.0096 35.9113C81.293 36.207 81.6873 36.3549 82.1926 36.3549C82.5417 36.3549 82.8456 36.283 83.1044 36.1393C83.3673 35.9914 83.548 35.784 83.6466 35.517H86.7519C86.5917 36.5028 86.107 37.2873 85.2978 37.8706C84.4927 38.4538 83.433 38.7455 82.1186 38.7455ZM80.5906 32.7567H83.622C83.6137 32.3501 83.4659 32.0195 83.1784 31.7648C82.8949 31.506 82.5417 31.3766 82.1186 31.3766C81.7038 31.3766 81.3464 31.504 81.0466 31.7586C80.7508 32.0133 80.5989 32.346 80.5906 32.7567ZM93.6793 29.1093V31.5738H92.0527V35.5293C92.0527 35.9236 92.2663 36.1208 92.6935 36.1208C92.7961 36.1208 92.9153 36.1084 93.0508 36.0838C93.1905 36.0592 93.2932 36.0386 93.3589 36.0222L93.8518 38.4127C93.6998 38.4579 93.4821 38.5134 93.1987 38.5791C92.9194 38.6448 92.5867 38.6879 92.2006 38.7085C91.0258 38.7742 90.1366 38.5627 89.5328 38.0739C88.9331 37.581 88.6394 36.8396 88.6517 35.8497V31.5738H87.4441V29.1093H88.6517V26.842H92.0527V29.1093H93.6793ZM95.0615 38.5729V36.6999L99.2019 31.7463V31.697H95.2094V29.1093H103.219V31.1795L99.4483 35.9359V35.9852H103.367V38.5729H95.0615ZM110.787 29.1093V31.5738H109.161V35.5293C109.161 35.9236 109.374 36.1208 109.801 36.1208C109.904 36.1208 110.023 36.1084 110.159 36.0838C110.298 36.0592 110.401 36.0386 110.467 36.0222L110.96 38.4127C110.808 38.4579 110.59 38.5134 110.307 38.5791C110.027 38.6448 109.695 38.6879 109.308 38.7085C108.134 38.7742 107.244 38.5627 106.641 38.0739C106.041 37.581 105.747 36.8396 105.76 35.8497V31.5738H104.552V29.1093H105.76V26.842H109.161V29.1093H110.787ZM118.824 33.2496V38.5729H115.423V29.1093H118.652V30.9084H118.75C118.956 30.3087 119.317 29.8384 119.835 29.4975C120.356 29.1565 120.964 28.9861 121.658 28.9861C122.328 28.9861 122.909 29.1401 123.402 29.4482C123.899 29.7521 124.283 30.1711 124.554 30.7051C124.829 31.239 124.965 31.849 124.961 32.5349V38.5729H121.56V33.2496C121.564 32.7814 121.445 32.4138 121.202 32.1468C120.964 31.8798 120.632 31.7463 120.204 31.7463C119.781 31.7463 119.447 31.8798 119.2 32.1468C118.954 32.4138 118.828 32.7814 118.824 33.2496ZM131.07 38.7455C129.555 38.7455 128.361 38.3162 127.491 37.4578C126.624 36.5952 126.191 35.3979 126.191 33.8658C126.191 32.8882 126.388 32.0338 126.782 31.3027C127.176 30.5716 127.733 30.0027 128.452 29.596C129.171 29.1894 130.019 28.9861 130.996 28.9861C131.949 28.9861 132.777 29.1812 133.479 29.5714C134.186 29.9616 134.732 30.5202 135.118 31.2472C135.508 31.9702 135.704 32.8348 135.704 33.8411V34.6298H129.542V34.7776C129.542 35.2336 129.682 35.6114 129.961 35.9113C130.245 36.207 130.639 36.3549 131.144 36.3549C131.493 36.3549 131.797 36.283 132.056 36.1393C132.319 35.9914 132.5 35.784 132.598 35.517H135.704C135.543 36.5028 135.059 37.2873 134.249 37.8706C133.444 38.4538 132.385 38.7455 131.07 38.7455ZM129.542 32.7567H132.574C132.565 32.3501 132.418 32.0195 132.13 31.7648C131.847 31.506 131.493 31.3766 131.07 31.3766C130.655 31.3766 130.298 31.504 129.998 31.7586C129.702 32.0133 129.551 32.346 129.542 32.7567ZM143.124 34.4326V29.1093H146.525V38.5729H143.296V36.7739H143.198C142.992 37.3777 142.633 37.85 142.12 38.1909C141.606 38.5278 140.996 38.6962 140.29 38.6962C139.628 38.6962 139.049 38.5442 138.552 38.2402C138.059 37.9363 137.675 37.5173 137.4 36.9833C137.129 36.4494 136.991 35.8374 136.987 35.1473V29.1093H140.388V34.4326C140.392 34.9008 140.511 35.2685 140.746 35.5355C140.984 35.8024 141.317 35.9359 141.744 35.9359C142.167 35.9359 142.504 35.8024 142.754 35.5355C143.005 35.2685 143.128 34.9008 143.124 34.4326ZM153.794 29.1093V31.5738H152.168V35.5293C152.168 35.9236 152.381 36.1208 152.808 36.1208C152.911 36.1208 153.03 36.1084 153.166 36.0838C153.305 36.0592 153.408 36.0386 153.474 36.0222L153.967 38.4127C153.815 38.4579 153.597 38.5134 153.314 38.5791C153.034 38.6448 152.702 38.6879 152.315 38.7085C151.141 38.7742 150.251 38.5627 149.648 38.0739C149.048 37.581 148.754 36.8396 148.767 35.8497V31.5738H147.559V29.1093H148.767V26.842H152.168V29.1093H153.794ZM159.511 38.7455C157.995 38.7455 156.802 38.3162 155.931 37.4578C155.065 36.5952 154.631 35.3979 154.631 33.8658C154.631 32.8882 154.828 32.0338 155.223 31.3027C155.617 30.5716 156.174 30.0027 156.892 29.596C157.611 29.1894 158.459 28.9861 159.437 28.9861C160.39 28.9861 161.218 29.1812 161.92 29.5714C162.626 29.9616 163.173 30.5202 163.559 31.2472C163.949 31.9702 164.144 32.8348 164.144 33.8411V34.6298H157.983V34.7776C157.983 35.2336 158.123 35.6114 158.402 35.9113C158.685 36.207 159.08 36.3549 159.585 36.3549C159.934 36.3549 160.238 36.283 160.497 36.1393C160.76 35.9914 160.94 35.784 161.039 35.517H164.144C163.984 36.5028 163.499 37.2873 162.69 37.8706C161.885 38.4538 160.825 38.7455 159.511 38.7455ZM157.983 32.7567H161.014C161.006 32.3501 160.858 32.0195 160.571 31.7648C160.287 31.506 159.934 31.3766 159.511 31.3766C159.096 31.3766 158.739 31.504 158.439 31.7586C158.143 32.0133 157.991 32.346 157.983 32.7567ZM168.731 38.5729V25.9548H172.157V35.8127H177.258V38.5729H168.731ZM183.123 38.7455C181.607 38.7455 180.414 38.3162 179.543 37.4578C178.676 36.5952 178.243 35.3979 178.243 33.8658C178.243 32.8882 178.44 32.0338 178.834 31.3027C179.229 30.5716 179.785 30.0027 180.504 29.596C181.223 29.1894 182.071 28.9861 183.049 28.9861C184.002 28.9861 184.829 29.1812 185.532 29.5714C186.238 29.9616 186.784 30.5202 187.171 31.2472C187.561 31.9702 187.756 32.8348 187.756 33.8411V34.6298H181.595V34.7776C181.595 35.2336 181.734 35.6114 182.014 35.9113C182.297 36.207 182.691 36.3549 183.197 36.3549C183.546 36.3549 183.85 36.283 184.108 36.1393C184.371 35.9914 184.552 35.784 184.651 35.517H187.756C187.596 36.5028 187.111 37.2873 186.302 37.8706C185.497 38.4538 184.437 38.7455 183.123 38.7455ZM181.595 32.7567H184.626C184.618 32.3501 184.47 32.0195 184.182 31.7648C183.899 31.506 183.546 31.3766 183.123 31.3766C182.708 31.3766 182.35 31.504 182.051 31.7586C181.755 32.0133 181.603 32.346 181.595 32.7567ZM195.176 34.4326V29.1093H198.577V38.5729H195.349V36.7739H195.25C195.045 37.3777 194.685 37.85 194.172 38.1909C193.658 38.5278 193.048 38.6962 192.342 38.6962C191.681 38.6962 191.101 38.5442 190.604 38.2402C190.112 37.9363 189.728 37.5173 189.452 36.9833C189.181 36.4494 189.044 35.8374 189.04 35.1473V29.1093H192.441V34.4326C192.445 34.9008 192.564 35.2685 192.798 35.5355C193.036 35.8024 193.369 35.9359 193.796 35.9359C194.219 35.9359 194.556 35.8024 194.806 35.5355C195.057 35.2685 195.18 34.9008 195.176 34.4326ZM205.846 29.1093V31.5738H204.22V35.5293C204.22 35.9236 204.433 36.1208 204.861 36.1208C204.963 36.1208 205.082 36.1084 205.218 36.0838C205.358 36.0592 205.46 36.0386 205.526 36.0222L206.019 38.4127C205.867 38.4579 205.649 38.5134 205.366 38.5791C205.087 38.6448 204.754 38.6879 204.368 38.7085C203.193 38.7742 202.304 38.5627 201.7 38.0739C201.1 37.581 200.807 36.8396 200.819 35.8497V31.5738H199.611V29.1093H200.819V26.842H204.22V29.1093H205.846ZM211.563 38.7455C210.048 38.7455 208.854 38.3162 207.983 37.4578C207.117 36.5952 206.683 35.3979 206.683 33.8658C206.683 32.8882 206.881 32.0338 207.275 31.3027C207.669 30.5716 208.226 30.0027 208.945 29.596C209.663 29.1894 210.512 28.9861 211.489 28.9861C212.442 28.9861 213.27 29.1812 213.972 29.5714C214.679 29.9616 215.225 30.5202 215.611 31.2472C216.001 31.9702 216.196 32.8348 216.196 33.8411V34.6298H210.035V34.7776C210.035 35.2336 210.175 35.6114 210.454 35.9113C210.738 36.207 211.132 36.3549 211.637 36.3549C211.986 36.3549 212.29 36.283 212.549 36.1393C212.812 35.9914 212.993 35.784 213.091 35.517H216.196C216.036 36.5028 215.552 37.2873 214.742 37.8706C213.937 38.4538 212.878 38.7455 211.563 38.7455ZM210.035 32.7567H213.067C213.058 32.3501 212.91 32.0195 212.623 31.7648C212.339 31.506 211.986 31.3766 211.563 31.3766C211.148 31.3766 210.791 31.504 210.491 31.7586C210.195 32.0133 210.043 32.346 210.035 32.7567ZM220.832 38.5729V25.9548H224.233V32.2885H224.357L226.649 29.1093H230.469L227.252 33.2558L230.567 38.5729H226.673L224.745 35.2397L224.233 35.8866V38.5729H220.832ZM235.395 38.7455C233.879 38.7455 232.686 38.3162 231.815 37.4578C230.949 36.5952 230.515 35.3979 230.515 33.8658C230.515 32.8882 230.713 32.0338 231.107 31.3027C231.501 30.5716 232.058 30.0027 232.777 29.596C233.495 29.1894 234.344 28.9861 235.321 28.9861C236.274 28.9861 237.102 29.1812 237.804 29.5714C238.511 29.9616 239.057 30.5202 239.443 31.2472C239.833 31.9702 240.028 32.8348 240.028 33.8411V34.6298H233.867V34.7776C233.867 35.2336 234.007 35.6114 234.286 35.9113C234.57 36.207 234.964 36.3549 235.469 36.3549C235.818 36.3549 236.122 36.283 236.381 36.1393C236.644 35.9914 236.825 35.784 236.923 35.517H240.028C239.868 36.5028 239.384 37.2873 238.574 37.8706C237.769 38.4538 236.71 38.7455 235.395 38.7455ZM233.867 32.7567H236.898C236.89 32.3501 236.742 32.0195 236.455 31.7648C236.171 31.506 235.818 31.3766 235.395 31.3766C234.98 31.3766 234.623 31.504 234.323 31.7586C234.027 32.0133 233.875 32.346 233.867 32.7567ZM244.713 33.2496V38.5729H241.312V29.1093H244.541V30.9084H244.639C244.845 30.3087 245.206 29.8384 245.724 29.4975C246.245 29.1565 246.853 28.9861 247.547 28.9861C248.217 28.9861 248.798 29.1401 249.291 29.4482C249.788 29.7521 250.172 30.1711 250.443 30.7051C250.718 31.239 250.854 31.849 250.85 32.5349V38.5729H247.449V33.2496C247.453 32.7814 247.334 32.4138 247.091 32.1468C246.853 31.8798 246.52 31.7463 246.093 31.7463C245.67 31.7463 245.335 31.8798 245.089 32.1468C244.842 32.4138 244.717 32.7814 244.713 33.2496ZM255.826 33.2496V38.5729H252.425V29.1093H255.653V30.9084H255.752C255.957 30.3087 256.318 29.8384 256.836 29.4975C257.358 29.1565 257.965 28.9861 258.66 28.9861C259.329 28.9861 259.91 29.1401 260.403 29.4482C260.9 29.7521 261.284 30.1711 261.555 30.7051C261.831 31.239 261.966 31.849 261.962 32.5349V38.5729H258.561V33.2496C258.565 32.7814 258.446 32.4138 258.204 32.1468C257.965 31.8798 257.633 31.7463 257.206 31.7463C256.783 31.7463 256.448 31.8798 256.201 32.1468C255.955 32.4138 255.83 32.7814 255.826 33.2496ZM268.072 38.7455C266.556 38.7455 265.363 38.3162 264.492 37.4578C263.625 36.5952 263.192 35.3979 263.192 33.8658C263.192 32.8882 263.389 32.0338 263.783 31.3027C264.178 30.5716 264.734 30.0027 265.453 29.596C266.172 29.1894 267.02 28.9861 267.998 28.9861C268.951 28.9861 269.778 29.1812 270.481 29.5714C271.187 29.9616 271.733 30.5202 272.119 31.2472C272.51 31.9702 272.705 32.8348 272.705 33.8411V34.6298H266.544V34.7776C266.544 35.2336 266.683 35.6114 266.963 35.9113C267.246 36.207 267.64 36.3549 268.145 36.3549C268.495 36.3549 268.799 36.283 269.057 36.1393C269.32 35.9914 269.501 35.784 269.6 35.517H272.705C272.545 36.5028 272.06 37.2873 271.251 37.8706C270.446 38.4538 269.386 38.7455 268.072 38.7455ZM266.544 32.7567H269.575C269.567 32.3501 269.419 32.0195 269.131 31.7648C268.848 31.506 268.495 31.3766 268.072 31.3766C267.657 31.3766 267.299 31.504 267 31.7586C266.704 32.0133 266.552 32.346 266.544 32.7567ZM277.39 33.2496V38.5729H273.989V29.1093H277.217V30.9084H277.316C277.521 30.3087 277.882 29.8384 278.4 29.4975C278.922 29.1565 279.53 28.9861 280.224 28.9861C280.893 28.9861 281.474 29.1401 281.967 29.4482C282.464 29.7521 282.848 30.1711 283.119 30.7051C283.395 31.239 283.53 31.849 283.526 32.5349V38.5729H280.125V33.2496C280.129 32.7814 280.01 32.4138 279.768 32.1468C279.53 31.8798 279.197 31.7463 278.77 31.7463C278.347 31.7463 278.012 31.8798 277.765 32.1468C277.519 32.4138 277.394 32.7814 277.39 33.2496ZM289.044 25.9548L288.724 34.6298H285.914L285.594 25.9548H289.044ZM287.319 38.7701C286.842 38.7701 286.434 38.6037 286.093 38.271C285.756 37.9342 285.59 37.5255 285.594 37.045C285.59 36.5767 285.756 36.1762 286.093 35.8435C286.434 35.5108 286.842 35.3445 287.319 35.3445C287.771 35.3445 288.169 35.5108 288.514 35.8435C288.863 36.1762 289.04 36.5767 289.044 37.045C289.04 37.5255 288.863 37.9342 288.514 38.271C288.169 38.6037 287.771 38.7701 287.319 38.7701Z" fill="black"/>
<path d="M19.3423 105.065C19.3423 101.58 22.167 98.7555 25.6514 98.7555H119.888C123.372 98.7555 126.197 101.58 126.197 105.065V129.683C126.197 133.167 123.372 135.992 119.888 135.992H25.6514C22.167 135.992 19.3423 133.167 19.3423 129.683V105.065Z" fill="#C42126"/>
<path d="M41.8588 114.085H43.3606V119.131C43.3606 119.595 43.2572 120.005 43.0503 120.362C42.8467 120.716 42.558 120.99 42.1842 121.183C41.8104 121.377 41.3883 121.474 40.9177 121.474C40.1468 121.474 39.5461 121.279 39.1155 120.888C38.685 120.494 38.4698 119.939 38.4698 119.221H39.9816C39.9816 119.578 40.0567 119.842 40.2069 120.012C40.357 120.182 40.594 120.267 40.9177 120.267C41.2047 120.267 41.4333 120.169 41.6035 119.972C41.7737 119.775 41.8588 119.495 41.8588 119.131V114.085ZM47.045 121.474C46.2508 121.474 45.6033 121.23 45.1027 120.743C44.6054 120.256 44.3568 119.607 44.3568 118.796V118.655C44.3568 118.111 44.4619 117.626 44.6722 117.199C44.8824 116.768 45.1795 116.438 45.5633 116.207C45.9504 115.974 46.3909 115.857 46.8848 115.857C47.6257 115.857 48.2081 116.091 48.6319 116.558C49.0591 117.025 49.2727 117.688 49.2727 118.545V119.136H45.8236C45.8703 119.49 46.0105 119.773 46.2441 119.987C46.481 120.201 46.7797 120.307 47.1401 120.307C47.6975 120.307 48.133 120.105 48.4467 119.702L49.1576 120.498C48.9406 120.805 48.647 121.045 48.2765 121.218C47.9061 121.389 47.4956 121.474 47.045 121.474ZM46.8798 117.028C46.5928 117.028 46.3592 117.125 46.179 117.319C46.0021 117.512 45.8887 117.789 45.8386 118.15H47.851V118.035C47.8443 117.714 47.7576 117.467 47.5907 117.294C47.4238 117.117 47.1869 117.028 46.8798 117.028ZM51.8308 114.626V115.957H52.7569V117.018H51.8308V119.722C51.8308 119.922 51.8691 120.065 51.9459 120.152C52.0227 120.239 52.1695 120.282 52.3864 120.282C52.5466 120.282 52.6885 120.271 52.8119 120.247V121.344C52.5283 121.43 52.2362 121.474 51.9359 121.474C50.9213 121.474 50.4041 120.961 50.384 119.937V117.018H49.5931V115.957H50.384V114.626H51.8308ZM55.2248 120.207H57.873V121.374H53.3776V120.493L55.9257 117.129H53.4527V115.957H57.7929V116.813L55.2248 120.207ZM60.5112 114.626V115.957H61.4373V117.018H60.5112V119.722C60.5112 119.922 60.5495 120.065 60.6263 120.152C60.7031 120.239 60.8499 120.282 61.0668 120.282C61.227 120.282 61.3688 120.271 61.4923 120.247V121.344C61.2087 121.43 60.9166 121.474 60.6163 121.474C59.6017 121.474 59.0844 120.961 59.0644 119.937V117.018H58.2735V115.957H59.0644V114.626H60.5112ZM66.3932 120.167H69.582V121.374H64.8914V114.085H66.3932V120.167ZM70.1277 118.615C70.1277 118.078 70.2311 117.599 70.438 117.179C70.645 116.758 70.942 116.433 71.3291 116.202C71.7196 115.972 72.1718 115.857 72.6857 115.857C73.4166 115.857 74.0123 116.081 74.4729 116.528C74.9368 116.975 75.1954 117.582 75.2488 118.35L75.2588 118.72C75.2588 119.551 75.0269 120.219 74.563 120.723C74.0991 121.223 73.4767 121.474 72.6957 121.474C71.9148 121.474 71.2907 121.223 70.8235 120.723C70.3596 120.222 70.1277 119.541 70.1277 118.68V118.615ZM71.5744 118.72C71.5744 119.234 71.6712 119.628 71.8647 119.902C72.0583 120.172 72.3353 120.307 72.6957 120.307C73.0462 120.307 73.3198 120.174 73.5167 119.907C73.7136 119.637 73.8121 119.206 73.8121 118.615C73.8121 118.111 73.7136 117.721 73.5167 117.444C73.3198 117.167 73.0428 117.028 72.6857 117.028C72.332 117.028 72.0583 117.167 71.8647 117.444C71.6712 117.718 71.5744 118.143 71.5744 118.72ZM79.0834 119.877C79.0834 119.7 78.9949 119.561 78.8181 119.461C78.6445 119.358 78.3642 119.266 77.9771 119.186C76.6889 118.916 76.0448 118.368 76.0448 117.544C76.0448 117.063 76.2433 116.663 76.6405 116.343C77.0409 116.019 77.5632 115.857 78.2073 115.857C78.8948 115.857 79.4438 116.019 79.8543 116.343C80.2681 116.666 80.4751 117.087 80.4751 117.604H79.0283C79.0283 117.397 78.9616 117.227 78.8281 117.094C78.6946 116.957 78.486 116.888 78.2023 116.888C77.9587 116.888 77.7701 116.943 77.6367 117.053C77.5032 117.164 77.4364 117.304 77.4364 117.474C77.4364 117.634 77.5115 117.764 77.6617 117.864C77.8152 117.961 78.0722 118.046 78.4326 118.12C78.793 118.19 79.0967 118.27 79.3437 118.36C80.1079 118.64 80.4901 119.126 80.4901 119.817C80.4901 120.311 80.2782 120.711 79.8543 121.018C79.4305 121.322 78.8831 121.474 78.2123 121.474C77.7585 121.474 77.3547 121.394 77.0009 121.233C76.6505 121.07 76.3751 120.848 76.1749 120.568C75.9747 120.284 75.8745 119.979 75.8745 119.652H77.2462C77.2595 119.909 77.3547 120.105 77.5315 120.242C77.7084 120.379 77.9454 120.448 78.2424 120.448C78.5194 120.448 78.728 120.396 78.8681 120.292C79.0116 120.186 79.0834 120.047 79.0834 119.877ZM82.953 121.374H81.5013V113.684H82.953V121.374ZM86.6424 121.474C85.8482 121.474 85.2007 121.23 84.7001 120.743C84.2029 120.256 83.9542 119.607 83.9542 118.796V118.655C83.9542 118.111 84.0593 117.626 84.2696 117.199C84.4798 116.768 84.7769 116.438 85.1607 116.207C85.5478 115.974 85.9883 115.857 86.4822 115.857C87.2231 115.857 87.8055 116.091 88.2293 116.558C88.6565 117.025 88.8701 117.688 88.8701 118.545V119.136H85.421C85.4677 119.49 85.6079 119.773 85.8415 119.987C86.0784 120.201 86.3771 120.307 86.7376 120.307C87.2949 120.307 87.7304 120.105 88.0441 119.702L88.755 120.498C88.538 120.805 88.2444 121.045 87.8739 121.218C87.5035 121.389 87.093 121.474 86.6424 121.474ZM86.4772 117.028C86.1902 117.028 85.9566 117.125 85.7764 117.319C85.5995 117.512 85.4861 117.789 85.436 118.15H87.4484V118.035C87.4417 117.714 87.355 117.467 87.1881 117.294C87.0212 117.117 86.7843 117.028 86.4772 117.028ZM89.4858 118.625C89.4858 117.794 89.6827 117.125 90.0765 116.618C90.4737 116.111 91.0077 115.857 91.6785 115.857C92.2725 115.857 92.7347 116.061 93.0651 116.468L93.1252 115.957H94.4368V121.193C94.4368 121.667 94.3283 122.079 94.1114 122.43C93.8978 122.78 93.5958 123.047 93.2053 123.231C92.8148 123.414 92.3576 123.506 91.8337 123.506C91.4365 123.506 91.0494 123.426 90.6723 123.266C90.2951 123.109 90.0098 122.905 89.8162 122.655L90.457 121.774C90.8174 122.178 91.2546 122.38 91.7686 122.38C92.1524 122.38 92.4511 122.276 92.6646 122.069C92.8782 121.866 92.985 121.576 92.985 121.198V120.908C92.6513 121.285 92.2124 121.474 91.6685 121.474C91.0177 121.474 90.4904 121.22 90.0866 120.713C89.6861 120.202 89.4858 119.526 89.4858 118.685V118.625ZM90.9326 118.73C90.9326 119.221 91.031 119.607 91.2279 119.887C91.4248 120.164 91.6952 120.302 92.0389 120.302C92.4794 120.302 92.7948 120.137 92.985 119.807V117.529C92.7915 117.199 92.4794 117.033 92.0489 117.033C91.7018 117.033 91.4282 117.175 91.2279 117.459C91.031 117.743 90.9326 118.166 90.9326 118.73ZM98.0461 121.474C97.2518 121.474 96.6044 121.23 96.1038 120.743C95.6065 120.256 95.3579 119.607 95.3579 118.796V118.655C95.3579 118.111 95.463 117.626 95.6732 117.199C95.8835 116.768 96.1805 116.438 96.5643 116.207C96.9514 115.974 97.392 115.857 97.8859 115.857C98.6268 115.857 99.2091 116.091 99.633 116.558C100.06 117.025 100.274 117.688 100.274 118.545V119.136H96.8246C96.8713 119.49 97.0115 119.773 97.2451 119.987C97.4821 120.201 97.7808 120.307 98.1412 120.307C98.6985 120.307 99.1341 120.105 99.4478 119.702L100.159 120.498C99.9417 120.805 99.648 121.045 99.2776 121.218C98.9071 121.389 98.4966 121.474 98.0461 121.474ZM97.8809 117.028C97.5939 117.028 97.3603 117.125 97.18 117.319C97.0032 117.512 96.8897 117.789 96.8396 118.15H98.8521V118.035C98.8454 117.714 98.7586 117.467 98.5917 117.294C98.4249 117.117 98.1879 117.028 97.8809 117.028ZM102.431 115.957L102.476 116.583C102.864 116.099 103.382 115.857 104.033 115.857C104.607 115.857 105.034 116.026 105.315 116.363C105.595 116.7 105.739 117.204 105.745 117.874V121.374H104.299V117.909C104.299 117.602 104.232 117.381 104.098 117.244C103.965 117.104 103.743 117.033 103.433 117.033C103.025 117.033 102.72 117.207 102.516 117.554V121.374H101.07V115.957H102.431Z" fill="white"/>
</svg>
