<svg width="348" height="153" viewBox="0 0 348 153" fill="none" xmlns="http://www.w3.org/2000/svg">
<rect x="0.415039" y="0.553192" width="347" height="152.207" rx="11.0409" fill="#F5F5F7"/>
<path d="M20.523 66.8145V57.0641H23.8176C24.5793 57.0641 25.2046 57.1943 25.6934 57.4545C26.1822 57.7116 26.544 58.0655 26.7789 58.5162C27.0138 58.9669 27.1312 59.4795 27.1312 60.054C27.1312 60.7015 26.982 61.2665 26.6837 61.7489C26.3885 62.2282 25.9298 62.5741 25.3077 62.7868L27.5121 66.8145H26.1409L24.0842 63.001C24.0048 63.0042 23.9223 63.0058 23.8366 63.0058H21.7037V66.8145H20.523ZM21.7037 61.9393H23.7985C24.5793 61.9393 25.1364 61.7711 25.4696 61.4347C25.8029 61.0982 25.9695 60.638 25.9695 60.054C25.9695 59.4668 25.8013 58.9971 25.4649 58.6448C25.1316 58.2893 24.5698 58.1115 23.7795 58.1115H21.7037V61.9393ZM31.8668 66.9669C31.1621 66.9669 30.5543 66.8114 30.0433 66.5003C29.5355 66.1861 29.1435 65.7481 28.8674 65.1863C28.5944 64.6213 28.4579 63.9643 28.4579 63.2153C28.4579 62.4662 28.5944 61.806 28.8674 61.2347C29.1435 60.6602 29.5275 60.2127 30.0195 59.8921C30.5146 59.5684 31.0923 59.4065 31.7525 59.4065C32.1334 59.4065 32.5095 59.47 32.8808 59.597C33.2522 59.7239 33.5902 59.9302 33.8949 60.2159C34.1996 60.4984 34.4424 60.8729 34.6233 61.3395C34.8043 61.806 34.8947 62.3805 34.8947 63.0629V63.539H29.5863C29.6117 64.3198 29.8322 64.9181 30.248 65.3339C30.667 65.7497 31.2066 65.9576 31.8668 65.9576C32.3079 65.9576 32.6872 65.8624 33.0046 65.6719C33.322 65.4815 33.5521 65.1958 33.695 64.8149L34.7805 65.1196C34.6091 65.6719 34.2663 66.1179 33.7521 66.4575C33.2379 66.7971 32.6095 66.9669 31.8668 66.9669ZM29.5863 62.5678H33.7521C33.7521 61.9489 33.5712 61.4363 33.2093 61.03C32.8475 60.6206 32.3619 60.4158 31.7525 60.4158C31.324 60.4158 30.9527 60.5158 30.6384 60.7158C30.3242 60.9157 30.0766 61.1808 29.8957 61.5109C29.7148 61.8378 29.6117 62.1901 29.5863 62.5678ZM39.4886 69.7092C38.6729 69.7092 38.027 69.56 37.5509 69.2617C37.078 68.9665 36.7273 68.6269 36.4988 68.2428L37.3938 67.6144C37.4954 67.7477 37.6239 67.9 37.7795 68.0714C37.935 68.246 38.1476 68.3968 38.4174 68.5237C38.6904 68.6539 39.0475 68.7189 39.4886 68.7189C40.079 68.7189 40.5662 68.5761 40.9503 68.2904C41.3343 68.0048 41.5263 67.5573 41.5263 66.9479V65.4624H41.4311C41.3486 65.5957 41.2312 65.7608 41.0788 65.9576C40.9296 66.1512 40.7138 66.3242 40.4313 66.4765C40.152 66.6257 39.7743 66.7003 39.2982 66.7003C38.7079 66.7003 38.1778 66.5606 37.7081 66.2813C37.2415 66.002 36.8717 65.5957 36.5988 65.0625C36.329 64.5293 36.1941 63.8818 36.1941 63.1201C36.1941 62.371 36.3258 61.7187 36.5892 61.1633C36.8527 60.6047 37.2193 60.173 37.689 59.8683C38.1588 59.5605 38.7015 59.4065 39.3173 59.4065C39.7933 59.4065 40.171 59.4859 40.4504 59.6446C40.7328 59.8001 40.9487 59.9778 41.0978 60.1778C41.2502 60.3746 41.3676 60.5364 41.4502 60.6634H41.5644V59.5017H42.6499V67.024C42.6499 67.6525 42.5071 68.1635 42.2214 68.5571C41.9389 68.9538 41.5581 69.2442 41.0788 69.4283C40.6027 69.6156 40.0727 69.7092 39.4886 69.7092ZM39.4506 65.691C40.1266 65.691 40.644 65.4624 41.0026 65.0054C41.3645 64.5452 41.5454 63.9104 41.5454 63.101C41.5454 62.3107 41.3676 61.6664 41.0121 61.1681C40.6567 60.6666 40.1361 60.4158 39.4506 60.4158C38.9745 60.4158 38.5777 60.5364 38.2603 60.7777C37.9461 61.0189 37.7096 61.3426 37.5509 61.7489C37.3954 62.1552 37.3177 62.6059 37.3177 63.101C37.3177 63.8628 37.497 64.4849 37.8556 64.9673C38.2143 65.4497 38.7459 65.691 39.4506 65.691ZM44.6396 66.8145V59.5017H45.7632V66.8145H44.6396ZM45.2109 58.2829C44.9919 58.2829 44.8031 58.2083 44.6444 58.0592C44.4888 57.91 44.4111 57.7307 44.4111 57.5212C44.4111 57.3117 44.4888 57.1324 44.6444 56.9832C44.8031 56.834 44.9919 56.7594 45.2109 56.7594C45.4299 56.7594 45.6172 56.834 45.7727 56.9832C45.9314 57.1324 46.0108 57.3117 46.0108 57.5212C46.0108 57.7307 45.9314 57.91 45.7727 58.0592C45.6172 58.2083 45.4299 58.2829 45.2109 58.2829ZM52.934 61.1395L51.9247 61.4252C51.8263 61.1712 51.6612 60.9332 51.4295 60.711C51.1978 60.4888 50.836 60.3777 50.344 60.3777C49.8965 60.3777 49.5236 60.4809 49.2252 60.6872C48.93 60.8903 48.7824 61.149 48.7824 61.4632C48.7824 61.7426 48.884 61.9631 49.0871 62.125C49.2903 62.2869 49.6077 62.4218 50.0393 62.5297L51.1248 62.7963C52.4198 63.1137 53.0673 63.7739 53.0673 64.7769C53.0673 65.1958 52.9467 65.5704 52.7055 65.9004C52.4674 66.2305 52.1341 66.4908 51.7057 66.6812C51.2772 66.8717 50.7789 66.9669 50.2107 66.9669C49.4648 66.9669 48.8475 66.805 48.3587 66.4813C47.8699 66.1575 47.5605 65.6846 47.4303 65.0625L48.4968 64.7959C48.6967 65.583 49.2617 65.9766 50.1917 65.9766C50.7154 65.9766 51.1312 65.8655 51.439 65.6434C51.7501 65.418 51.9056 65.1482 51.9056 64.834C51.9056 64.3166 51.5438 63.9738 50.8201 63.8056L49.6013 63.52C48.9316 63.3613 48.4396 63.1153 48.1254 62.782C47.8144 62.4456 47.6589 62.025 47.6589 61.5204C47.6589 61.1078 47.7747 60.7428 48.0064 60.4254C48.2413 60.108 48.5603 59.8588 48.9634 59.6779C49.3696 59.497 49.8298 59.4065 50.344 59.4065C51.0677 59.4065 51.6358 59.5652 52.0484 59.8826C52.4642 60.2 52.7594 60.619 52.934 61.1395ZM57.8719 59.5017V60.4539H56.3103V64.7197C56.3103 65.0371 56.3563 65.2752 56.4484 65.4339C56.5436 65.5894 56.6642 65.6941 56.8102 65.7481C56.9594 65.7989 57.1165 65.8243 57.2815 65.8243C57.4053 65.8243 57.5069 65.8179 57.5862 65.8052C57.6656 65.7894 57.7291 65.7767 57.7767 65.7671L58.0052 66.7765C57.929 66.805 57.8227 66.8336 57.6862 66.8622C57.5497 66.8939 57.3768 66.9098 57.1673 66.9098C56.8499 66.9098 56.5388 66.8415 56.2341 66.705C55.9326 66.5686 55.6819 66.3607 55.4819 66.0814C55.2851 65.8021 55.1867 65.4497 55.1867 65.0244V60.4539H54.0822V59.5017H55.1867V57.7497H56.3103V59.5017H57.8719ZM59.495 66.8145V59.5017H60.5805V60.6063H60.6567C60.79 60.2444 61.0312 59.9509 61.3803 59.7255C61.7295 59.5001 62.123 59.3875 62.561 59.3875C62.6436 59.3875 62.7467 59.3891 62.8705 59.3922C62.9943 59.3954 63.0879 59.4002 63.1514 59.4065V60.5491C63.1133 60.5396 63.026 60.5253 62.8895 60.5063C62.7562 60.4841 62.615 60.473 62.4658 60.473C61.9326 60.473 61.4914 60.6348 61.1423 60.9586C60.7931 61.2823 60.6186 61.6918 60.6186 62.1869V66.8145H59.495ZM64.4162 66.8145V59.5017H65.5398V66.8145H64.4162ZM64.9875 58.2829C64.7685 58.2829 64.5797 58.2083 64.421 58.0592C64.2655 57.91 64.1877 57.7307 64.1877 57.5212C64.1877 57.3117 64.2655 57.1324 64.421 56.9832C64.5797 56.834 64.7685 56.7594 64.9875 56.7594C65.2066 56.7594 65.3938 56.834 65.5493 56.9832C65.708 57.1324 65.7874 57.3117 65.7874 57.5212C65.7874 57.7307 65.708 57.91 65.5493 58.0592C65.3938 58.2083 65.2066 58.2829 64.9875 58.2829ZM70.5968 66.9669C69.8921 66.9669 69.2843 66.8114 68.7733 66.5003C68.2655 66.1861 67.8735 65.7481 67.5974 65.1863C67.3244 64.6213 67.1879 63.9643 67.1879 63.2153C67.1879 62.4662 67.3244 61.806 67.5974 61.2347C67.8735 60.6602 68.2575 60.2127 68.7495 59.8921C69.2446 59.5684 69.8223 59.4065 70.4825 59.4065C70.8634 59.4065 71.2395 59.47 71.6108 59.597C71.9822 59.7239 72.3202 59.9302 72.6249 60.2159C72.9296 60.4984 73.1724 60.8729 73.3533 61.3395C73.5343 61.806 73.6247 62.3805 73.6247 63.0629V63.539H68.3163C68.3416 64.3198 68.5622 64.9181 68.978 65.3339C69.397 65.7497 69.9366 65.9576 70.5968 65.9576C71.0379 65.9576 71.4172 65.8624 71.7346 65.6719C72.052 65.4815 72.2821 65.1958 72.425 64.8149L73.5104 65.1196C73.3391 65.6719 72.9963 66.1179 72.4821 66.4575C71.9679 66.7971 71.3395 66.9669 70.5968 66.9669ZM68.3163 62.5678H72.4821C72.4821 61.9489 72.3012 61.4363 71.9393 61.03C71.5775 60.6206 71.0919 60.4158 70.4825 60.4158C70.054 60.4158 69.6826 60.5158 69.3684 60.7158C69.0542 60.9157 68.8066 61.1808 68.6257 61.5109C68.4448 61.8378 68.3416 62.1901 68.3163 62.5678ZM75.2669 66.8145V59.5017H76.3524V60.6063H76.4285C76.5587 60.2444 76.7983 59.9509 77.1474 59.7255C77.4966 59.5001 77.8917 59.3875 78.3329 59.3875C78.536 59.3875 78.7138 59.4113 78.8661 59.4589C79.0185 59.5065 79.1518 59.5716 79.266 59.6541L78.8852 60.6063C78.8058 60.565 78.7122 60.5333 78.6043 60.5111C78.4995 60.4857 78.3773 60.473 78.2377 60.473C77.7045 60.473 77.2633 60.6364 76.9141 60.9633C76.565 61.2871 76.3904 61.6949 76.3904 62.1869V66.8145H75.2669ZM83.1887 66.9669C82.4841 66.9669 81.8763 66.8114 81.3652 66.5003C80.8574 66.1861 80.4654 65.7481 80.1893 65.1863C79.9163 64.6213 79.7798 63.9643 79.7798 63.2153C79.7798 62.4662 79.9163 61.806 80.1893 61.2347C80.4654 60.6602 80.8495 60.2127 81.3414 59.8921C81.8366 59.5684 82.4142 59.4065 83.0744 59.4065C83.4553 59.4065 83.8314 59.47 84.2028 59.597C84.5741 59.7239 84.9121 59.9302 85.2168 60.2159C85.5215 60.4984 85.7644 60.8729 85.9453 61.3395C86.1262 61.806 86.2166 62.3805 86.2166 63.0629V63.539H80.9082C80.9336 64.3198 81.1542 64.9181 81.57 65.3339C81.9889 65.7497 82.5285 65.9576 83.1887 65.9576C83.6299 65.9576 84.0092 65.8624 84.3265 65.6719C84.6439 65.4815 84.8741 65.1958 85.0169 64.8149L86.1024 65.1196C85.931 65.6719 85.5882 66.1179 85.074 66.4575C84.5598 66.7971 83.9314 66.9669 83.1887 66.9669ZM80.9082 62.5678H85.074C85.074 61.9489 84.8931 61.4363 84.5313 61.03C84.1694 60.6206 83.6838 60.4158 83.0744 60.4158C82.6459 60.4158 82.2746 60.5158 81.9604 60.7158C81.6461 60.9157 81.3986 61.1808 81.2177 61.5109C81.0367 61.8378 80.9336 62.1901 80.9082 62.5678ZM94.3238 66.9669C93.7144 66.9669 93.1764 66.813 92.7098 66.5051C92.2432 66.194 91.8782 65.756 91.6148 65.1911C91.3514 64.6229 91.2196 63.9516 91.2196 63.1772C91.2196 62.4091 91.3514 61.7426 91.6148 61.1776C91.8782 60.6126 92.2448 60.1762 92.7146 59.8683C93.1843 59.5605 93.7271 59.4065 94.3428 59.4065C94.8189 59.4065 95.195 59.4859 95.4712 59.6446C95.7505 59.8001 95.9631 59.9778 96.1091 60.1778C96.2583 60.3746 96.3741 60.5364 96.4567 60.6634H96.5519V57.0641H97.6755V66.8145H96.59V65.691H96.4567C96.3741 65.8243 96.2567 65.9925 96.1044 66.1956C95.952 66.3956 95.7346 66.5749 95.4521 66.7336C95.1696 66.8891 94.7935 66.9669 94.3238 66.9669ZM94.4761 65.9576C95.1522 65.9576 95.6695 65.6989 96.0282 65.1815C96.39 64.661 96.5709 63.9865 96.5709 63.1581C96.5709 62.3393 96.3932 61.6775 96.0377 61.1728C95.6822 60.6682 95.1617 60.4158 94.4761 60.4158C94 60.4158 93.6033 60.538 93.2859 60.7824C92.9717 61.0237 92.7352 61.3522 92.5765 61.7679C92.421 62.1806 92.3432 62.644 92.3432 63.1581C92.3432 63.6787 92.4226 64.1516 92.5813 64.5769C92.7431 64.999 92.9812 65.3355 93.2954 65.5862C93.6128 65.8338 94.0064 65.9576 94.4761 65.9576ZM99.8223 66.8145V59.5017H100.946V66.8145H99.8223ZM100.394 58.2829C100.175 58.2829 99.9857 58.2083 99.827 58.0592C99.6715 57.91 99.5938 57.7307 99.5938 57.5212C99.5938 57.3117 99.6715 57.1324 99.827 56.9832C99.9857 56.834 100.175 56.7594 100.394 56.7594C100.613 56.7594 100.8 56.834 100.955 56.9832C101.114 57.1324 101.193 57.3117 101.193 57.5212C101.193 57.7307 101.114 57.91 100.955 58.0592C100.8 58.2083 100.613 58.2829 100.394 58.2829ZM105.908 66.9669C105.222 66.9669 104.632 66.805 104.137 66.4813C103.641 66.1575 103.26 65.7116 102.994 65.1435C102.727 64.5753 102.594 63.9262 102.594 63.1962C102.594 62.4535 102.73 61.7981 103.003 61.23C103.28 60.6586 103.664 60.2127 104.156 59.8921C104.651 59.5684 105.228 59.4065 105.889 59.4065C106.403 59.4065 106.866 59.5017 107.279 59.6922C107.691 59.8826 108.029 60.1492 108.293 60.492C108.556 60.8348 108.72 61.2347 108.783 61.6918H107.66C107.574 61.3585 107.383 61.0633 107.088 60.8062C106.796 60.546 106.403 60.4158 105.908 60.4158C105.251 60.4158 104.721 60.6666 104.317 61.1681C103.917 61.6664 103.718 62.3297 103.718 63.1581C103.718 64.0056 103.916 64.6848 104.313 65.1958C104.709 65.7037 105.241 65.9576 105.908 65.9576C106.346 65.9576 106.72 65.8449 107.031 65.6195C107.345 65.3942 107.555 65.0816 107.66 64.6816H108.783C108.72 65.1133 108.563 65.5021 108.312 65.8481C108.064 66.1909 107.736 66.4638 107.326 66.667C106.92 66.8669 106.447 66.9669 105.908 66.9669ZM111.482 62.4154V66.8145H110.359V57.0641H111.482V60.6444H111.577C111.749 60.2667 112.006 59.9667 112.349 59.7445C112.695 59.5192 113.155 59.4065 113.729 59.4065C114.478 59.4065 115.082 59.6319 115.539 60.0826C115.996 60.5333 116.224 61.2284 116.224 62.1679V66.8145H115.101V62.244C115.101 61.6632 114.95 61.2141 114.648 60.8967C114.35 60.5761 113.936 60.4158 113.406 60.4158C112.85 60.4158 112.39 60.5904 112.025 60.9395C111.663 61.2855 111.482 61.7775 111.482 62.4154ZM124.068 66.9859C123.605 66.9859 123.184 66.8987 122.807 66.7241C122.429 66.5463 122.129 66.2908 121.907 65.9576C121.685 65.6211 121.574 65.2149 121.574 64.7388C121.574 64.3198 121.656 63.9802 121.821 63.7199C121.986 63.4565 122.207 63.2502 122.483 63.101C122.759 62.9518 123.064 62.8407 123.397 62.7677C123.733 62.6916 124.071 62.6313 124.411 62.5868C124.855 62.5297 125.216 62.4868 125.492 62.4583C125.771 62.4265 125.974 62.3742 126.101 62.3012C126.231 62.2282 126.296 62.1012 126.296 61.9203V61.8822C126.296 61.4125 126.168 61.0475 125.911 60.7872C125.657 60.5269 125.271 60.3968 124.754 60.3968C124.217 60.3968 123.797 60.5142 123.492 60.7491C123.187 60.984 122.973 61.2347 122.849 61.5013L121.783 61.1205C121.973 60.6761 122.227 60.3301 122.545 60.0826C122.865 59.8318 123.214 59.6573 123.592 59.5589C123.973 59.4573 124.348 59.4065 124.716 59.4065C124.951 59.4065 125.22 59.4351 125.525 59.4922C125.833 59.5462 126.13 59.6588 126.415 59.8302C126.704 60.0016 126.944 60.2603 127.134 60.6063C127.325 60.9522 127.42 61.4156 127.42 61.9965V66.8145H126.296V65.8243H126.239C126.163 65.983 126.036 66.1528 125.858 66.3337C125.681 66.5146 125.444 66.6685 125.149 66.7955C124.854 66.9225 124.494 66.9859 124.068 66.9859ZM124.24 65.9766C124.684 65.9766 125.059 65.8893 125.363 65.7148C125.671 65.5402 125.903 65.3148 126.058 65.0387C126.217 64.7626 126.296 64.4722 126.296 64.1675V63.1391C126.249 63.1962 126.144 63.2486 125.982 63.2962C125.823 63.3406 125.639 63.3803 125.43 63.4152C125.224 63.447 125.022 63.4755 124.825 63.5009C124.632 63.5231 124.475 63.5422 124.354 63.5581C124.062 63.5961 123.789 63.658 123.535 63.7437C123.284 63.8263 123.081 63.9516 122.926 64.1199C122.773 64.2849 122.697 64.5102 122.697 64.7959C122.697 65.1863 122.842 65.4815 123.13 65.6814C123.422 65.8782 123.792 65.9766 124.24 65.9766ZM130.527 57.0641V66.8145H129.404V57.0641H130.527ZM137.698 61.1395L136.689 61.4252C136.59 61.1712 136.425 60.9332 136.194 60.711C135.962 60.4888 135.6 60.3777 135.108 60.3777C134.661 60.3777 134.288 60.4809 133.989 60.6872C133.694 60.8903 133.547 61.149 133.547 61.4632C133.547 61.7426 133.648 61.9631 133.851 62.125C134.054 62.2869 134.372 62.4218 134.803 62.5297L135.889 62.7963C137.184 63.1137 137.831 63.7739 137.831 64.7769C137.831 65.1958 137.711 65.5704 137.47 65.9004C137.231 66.2305 136.898 66.4908 136.47 66.6812C136.041 66.8717 135.543 66.9669 134.975 66.9669C134.229 66.9669 133.612 66.805 133.123 66.4813C132.634 66.1575 132.325 65.6846 132.194 65.0625L133.261 64.7959C133.461 65.583 134.026 65.9766 134.956 65.9766C135.479 65.9766 135.895 65.8655 136.203 65.6434C136.514 65.418 136.67 65.1482 136.67 64.834C136.67 64.3166 136.308 63.9738 135.584 63.8056L134.365 63.52C133.696 63.3613 133.204 63.1153 132.89 62.782C132.578 62.4456 132.423 62.025 132.423 61.5204C132.423 61.1078 132.539 60.7428 132.77 60.4254C133.005 60.108 133.324 59.8588 133.727 59.6779C134.134 59.497 134.594 59.4065 135.108 59.4065C135.832 59.4065 136.4 59.5652 136.813 59.8826C137.228 60.2 137.523 60.619 137.698 61.1395ZM143.712 57.0641L146.606 65.272H146.72L149.615 57.0641H150.853L147.273 66.8145H146.054L142.474 57.0641H143.712ZM154.538 66.9669C153.833 66.9669 153.225 66.8114 152.714 66.5003C152.206 66.1861 151.814 65.7481 151.538 65.1863C151.265 64.6213 151.129 63.9643 151.129 63.2153C151.129 62.4662 151.265 61.806 151.538 61.2347C151.814 60.6602 152.198 60.2127 152.69 59.8921C153.185 59.5684 153.763 59.4065 154.423 59.4065C154.804 59.4065 155.18 59.47 155.552 59.597C155.923 59.7239 156.261 59.9302 156.566 60.2159C156.87 60.4984 157.113 60.8729 157.294 61.3395C157.475 61.806 157.566 62.3805 157.566 63.0629V63.539H152.257C152.282 64.3198 152.503 64.9181 152.919 65.3339C153.338 65.7497 153.877 65.9576 154.538 65.9576C154.979 65.9576 155.358 65.8624 155.675 65.6719C155.993 65.4815 156.223 65.1958 156.366 64.8149L157.451 65.1196C157.28 65.6719 156.937 66.1179 156.423 66.4575C155.909 66.7971 155.28 66.9669 154.538 66.9669ZM152.257 62.5678H156.423C156.423 61.9489 156.242 61.4363 155.88 61.03C155.518 60.6206 155.033 60.4158 154.423 60.4158C153.995 60.4158 153.623 60.5158 153.309 60.7158C152.995 60.9157 152.747 61.1808 152.567 61.5109C152.386 61.8378 152.282 62.1901 152.257 62.5678ZM159.208 66.8145V59.5017H160.293V60.6063H160.369C160.499 60.2444 160.739 59.9509 161.088 59.7255C161.437 59.5001 161.833 59.3875 162.274 59.3875C162.477 59.3875 162.655 59.4113 162.807 59.4589C162.959 59.5065 163.093 59.5716 163.207 59.6541L162.826 60.6063C162.747 60.565 162.653 60.5333 162.545 60.5111C162.44 60.4857 162.318 60.473 162.178 60.473C161.645 60.473 161.204 60.6364 160.855 60.9633C160.506 61.2871 160.331 61.6949 160.331 62.1869V66.8145H159.208ZM164.286 66.8145V57.0641H165.41V62.7582H165.543L168.742 59.5017H170.132L167.043 62.6249L170.361 66.8145H168.933L166.195 63.3486L165.41 64.077V66.8145H164.286ZM176.12 63.8247V59.5017H177.244V66.8145H176.12V65.5767H176.044C175.873 65.9481 175.606 66.2639 175.244 66.5241C174.882 66.7812 174.425 66.9098 173.873 66.9098C173.187 66.9098 172.622 66.6828 172.178 66.2289C171.734 65.7751 171.512 65.0816 171.512 64.1484V59.5017H172.635V64.0722C172.635 64.6055 172.784 65.0308 173.083 65.3482C173.384 65.6656 173.768 65.8243 174.235 65.8243C174.514 65.8243 174.798 65.7529 175.087 65.61C175.379 65.4672 175.623 65.2482 175.82 64.953C176.02 64.6578 176.12 64.2817 176.12 63.8247ZM179.235 69.5568V59.5017H180.32V60.6634H180.453C180.536 60.5364 180.65 60.3746 180.796 60.1778C180.945 59.9778 181.158 59.8001 181.434 59.6446C181.713 59.4859 182.091 59.4065 182.567 59.4065C183.183 59.4065 183.726 59.5605 184.196 59.8683C184.665 60.1762 185.032 60.6126 185.295 61.1776C185.559 61.7426 185.69 62.4091 185.69 63.1772C185.69 63.9516 185.559 64.6229 185.295 65.1911C185.032 65.756 184.667 66.194 184.2 66.5051C183.734 66.813 183.196 66.9669 182.586 66.9669C182.117 66.9669 181.74 66.8891 181.458 66.7336C181.176 66.5749 180.958 66.3956 180.806 66.1956C180.653 65.9925 180.536 65.8243 180.453 65.691H180.358V69.5568H179.235ZM180.339 63.1581C180.339 63.9865 180.518 64.661 180.877 65.1815C181.239 65.6989 181.758 65.9576 182.434 65.9576C182.904 65.9576 183.296 65.8338 183.61 65.5862C183.927 65.3355 184.165 64.999 184.324 64.5769C184.486 64.1516 184.567 63.6787 184.567 63.1581C184.567 62.644 184.488 62.1806 184.329 61.7679C184.173 61.3522 183.937 61.0237 183.619 60.7824C183.305 60.538 182.91 60.4158 182.434 60.4158C181.748 60.4158 181.228 60.6682 180.872 61.1728C180.517 61.6775 180.339 62.3393 180.339 63.1581ZM187.337 69.5568V59.5017H188.423V60.6634H188.556C188.639 60.5364 188.753 60.3746 188.899 60.1778C189.048 59.9778 189.261 59.8001 189.537 59.6446C189.816 59.4859 190.194 59.4065 190.67 59.4065C191.286 59.4065 191.829 59.5605 192.298 59.8683C192.768 60.1762 193.135 60.6126 193.398 61.1776C193.661 61.7426 193.793 62.4091 193.793 63.1772C193.793 63.9516 193.661 64.6229 193.398 65.1911C193.135 65.756 192.77 66.194 192.303 66.5051C191.836 66.813 191.298 66.9669 190.689 66.9669C190.219 66.9669 189.843 66.8891 189.561 66.7336C189.278 66.5749 189.061 66.3956 188.908 66.1956C188.756 65.9925 188.639 65.8243 188.556 65.691H188.461V69.5568H187.337ZM188.442 63.1581C188.442 63.9865 188.621 64.661 188.98 65.1815C189.342 65.6989 189.861 65.9576 190.537 65.9576C191.006 65.9576 191.398 65.8338 191.713 65.5862C192.03 65.3355 192.268 64.999 192.427 64.5769C192.589 64.1516 192.67 63.6787 192.67 63.1581C192.67 62.644 192.59 62.1806 192.432 61.7679C192.276 61.3522 192.04 61.0237 191.722 60.7824C191.408 60.538 191.013 60.4158 190.537 60.4158C189.851 60.4158 189.331 60.6682 188.975 61.1728C188.62 61.6775 188.442 62.3393 188.442 63.1581ZM196.564 57.0641V66.8145H195.44V57.0641H196.564ZM201.621 66.9669C200.916 66.9669 200.308 66.8114 199.797 66.5003C199.289 66.1861 198.897 65.7481 198.621 65.1863C198.348 64.6213 198.212 63.9643 198.212 63.2153C198.212 62.4662 198.348 61.806 198.621 61.2347C198.897 60.6602 199.281 60.2127 199.773 59.8921C200.269 59.5684 200.846 59.4065 201.506 59.4065C201.887 59.4065 202.263 59.47 202.635 59.597C203.006 59.7239 203.344 59.9302 203.649 60.2159C203.954 60.4984 204.196 60.8729 204.377 61.3395C204.558 61.806 204.649 62.3805 204.649 63.0629V63.539H199.34C199.366 64.3198 199.586 64.9181 200.002 65.3339C200.421 65.7497 200.96 65.9576 201.621 65.9576C202.062 65.9576 202.441 65.8624 202.759 65.6719C203.076 65.4815 203.306 65.1958 203.449 64.8149L204.534 65.1196C204.363 65.6719 204.02 66.1179 203.506 66.4575C202.992 66.7971 202.363 66.9669 201.621 66.9669ZM199.34 62.5678H203.506C203.506 61.9489 203.325 61.4363 202.963 61.03C202.601 60.6206 202.116 60.4158 201.506 60.4158C201.078 60.4158 200.707 60.5158 200.392 60.7158C200.078 60.9157 199.831 61.1808 199.65 61.5109C199.469 61.8378 199.366 62.1901 199.34 62.5678ZM206.291 66.8145V59.5017H207.376V60.6063H207.452C207.583 60.2444 207.822 59.9509 208.171 59.7255C208.52 59.5001 208.916 59.3875 209.357 59.3875C209.56 59.3875 209.738 59.4113 209.89 59.4589C210.042 59.5065 210.176 59.5716 210.29 59.6541L209.909 60.6063C209.83 60.565 209.736 60.5333 209.628 60.5111C209.523 60.4857 209.401 60.473 209.262 60.473C208.728 60.473 208.287 60.6364 207.938 60.9633C207.589 61.2871 207.414 61.6949 207.414 62.1869V66.8145H206.291ZM219.681 63.8247V59.5017H220.805V66.8145H219.681V65.5767H219.605C219.434 65.9481 219.167 66.2639 218.805 66.5241C218.443 66.7812 217.986 66.9098 217.434 66.9098C216.749 66.9098 216.184 66.6828 215.739 66.2289C215.295 65.7751 215.073 65.0816 215.073 64.1484V59.5017H216.196V64.0722C216.196 64.6055 216.345 65.0308 216.644 65.3482C216.945 65.6656 217.329 65.8243 217.796 65.8243C218.075 65.8243 218.359 65.7529 218.648 65.61C218.94 65.4672 219.185 65.2482 219.381 64.953C219.581 64.6578 219.681 64.2817 219.681 63.8247ZM222.796 66.8145V59.5017H223.881V60.6444H223.977C224.129 60.254 224.375 59.9509 224.714 59.735C225.054 59.516 225.462 59.4065 225.938 59.4065C226.42 59.4065 226.822 59.516 227.143 59.735C227.466 59.9509 227.719 60.254 227.9 60.6444H227.976C228.163 60.2667 228.444 59.9667 228.818 59.7445C229.193 59.5192 229.642 59.4065 230.166 59.4065C230.82 59.4065 231.354 59.6112 231.77 60.0207C232.186 60.4269 232.394 61.0602 232.394 61.9203V66.8145H231.27V61.9203C231.27 61.3807 231.123 60.9951 230.828 60.7634C230.532 60.5317 230.185 60.4158 229.785 60.4158C229.271 60.4158 228.872 60.5714 228.59 60.8824C228.307 61.1903 228.166 61.5807 228.166 62.0536V66.8145H227.024V61.806C227.024 61.3902 226.889 61.0554 226.619 60.8015C226.349 60.5444 226.001 60.4158 225.576 60.4158C225.284 60.4158 225.011 60.4936 224.757 60.6491C224.507 60.8046 224.303 61.0205 224.148 61.2966C223.996 61.5696 223.919 61.8854 223.919 62.244V66.8145H222.796ZM238.237 66.8145V57.0641H239.418V65.7671H243.95V66.8145H238.237ZM245.559 66.8145V59.5017H246.683V66.8145H245.559ZM246.13 58.2829C245.911 58.2829 245.723 58.2083 245.564 58.0592C245.408 57.91 245.331 57.7307 245.331 57.5212C245.331 57.3117 245.408 57.1324 245.564 56.9832C245.723 56.834 245.911 56.7594 246.13 56.7594C246.349 56.7594 246.537 56.834 246.692 56.9832C246.851 57.1324 246.93 57.3117 246.93 57.5212C246.93 57.7307 246.851 57.91 246.692 58.0592C246.537 58.2083 246.349 58.2829 246.13 58.2829ZM251.74 66.9669C251.035 66.9669 250.427 66.8114 249.916 66.5003C249.408 66.1861 249.016 65.7481 248.74 65.1863C248.467 64.6213 248.331 63.9643 248.331 63.2153C248.331 62.4662 248.467 61.806 248.74 61.2347C249.016 60.6602 249.4 60.2127 249.892 59.8921C250.388 59.5684 250.965 59.4065 251.625 59.4065C252.006 59.4065 252.382 59.47 252.754 59.597C253.125 59.7239 253.463 59.9302 253.768 60.2159C254.072 60.4984 254.315 60.8729 254.496 61.3395C254.677 61.806 254.768 62.3805 254.768 63.0629V63.539H249.459C249.485 64.3198 249.705 64.9181 250.121 65.3339C250.54 65.7497 251.079 65.9576 251.74 65.9576C252.181 65.9576 252.56 65.8624 252.877 65.6719C253.195 65.4815 253.425 65.1958 253.568 64.8149L254.653 65.1196C254.482 65.6719 254.139 66.1179 253.625 66.4575C253.111 66.7971 252.482 66.9669 251.74 66.9669ZM249.459 62.5678H253.625C253.625 61.9489 253.444 61.4363 253.082 61.03C252.72 60.6206 252.235 60.4158 251.625 60.4158C251.197 60.4158 250.826 60.5158 250.511 60.7158C250.197 60.9157 249.949 61.1808 249.769 61.5109C249.588 61.8378 249.485 62.1901 249.459 62.5678ZM256.562 66.8145V57.0641H257.686V60.6634H257.781C257.863 60.5364 257.978 60.3746 258.124 60.1778C258.273 59.9778 258.485 59.8001 258.762 59.6446C259.041 59.4859 259.419 59.4065 259.895 59.4065C260.51 59.4065 261.053 59.5605 261.523 59.8683C261.993 60.1762 262.359 60.6126 262.623 61.1776C262.886 61.7426 263.018 62.4091 263.018 63.1772C263.018 63.9516 262.886 64.6229 262.623 65.1911C262.359 65.756 261.994 66.194 261.528 66.5051C261.061 66.813 260.523 66.9669 259.914 66.9669C259.444 66.9669 259.068 66.8891 258.785 66.7336C258.503 66.5749 258.286 66.3956 258.133 66.1956C257.981 65.9925 257.863 65.8243 257.781 65.691H257.648V66.8145H256.562ZM257.667 63.1581C257.667 63.9865 257.846 64.661 258.205 65.1815C258.566 65.6989 259.085 65.9576 259.761 65.9576C260.231 65.9576 260.623 65.8338 260.937 65.5862C261.255 65.3355 261.493 64.999 261.652 64.5769C261.813 64.1516 261.894 63.6787 261.894 63.1581C261.894 62.644 261.815 62.1806 261.656 61.7679C261.501 61.3522 261.264 61.0237 260.947 60.7824C260.633 60.538 260.238 60.4158 259.761 60.4158C259.076 60.4158 258.555 60.6682 258.2 61.1728C257.844 61.6775 257.667 62.3393 257.667 63.1581ZM267.736 66.9669C267.031 66.9669 266.423 66.8114 265.912 66.5003C265.404 66.1861 265.012 65.7481 264.736 65.1863C264.463 64.6213 264.327 63.9643 264.327 63.2153C264.327 62.4662 264.463 61.806 264.736 61.2347C265.012 60.6602 265.396 60.2127 265.888 59.8921C266.384 59.5684 266.961 59.4065 267.621 59.4065C268.002 59.4065 268.378 59.47 268.75 59.597C269.121 59.7239 269.459 59.9302 269.764 60.2159C270.068 60.4984 270.311 60.8729 270.492 61.3395C270.673 61.806 270.764 62.3805 270.764 63.0629V63.539H265.455C265.481 64.3198 265.701 64.9181 266.117 65.3339C266.536 65.7497 267.075 65.9576 267.736 65.9576C268.177 65.9576 268.556 65.8624 268.873 65.6719C269.191 65.4815 269.421 65.1958 269.564 64.8149L270.649 65.1196C270.478 65.6719 270.135 66.1179 269.621 66.4575C269.107 66.7971 268.478 66.9669 267.736 66.9669ZM265.455 62.5678H269.621C269.621 61.9489 269.44 61.4363 269.078 61.03C268.716 60.6206 268.231 60.4158 267.621 60.4158C267.193 60.4158 266.822 60.5158 266.507 60.7158C266.193 60.9157 265.946 61.1808 265.765 61.5109C265.584 61.8378 265.481 62.1901 265.455 62.5678ZM20.1612 85.8145V84.9576L24.3127 79.6253V79.5491H20.2945V78.5017H25.76V79.3968L21.7228 84.691V84.7671H25.8933V85.8145H20.1612ZM32.1655 82.8247V78.5017H33.2891V85.8145H32.1655V84.5767H32.0893C31.9179 84.9481 31.6513 85.2639 31.2895 85.5241C30.9277 85.7812 30.4706 85.9098 29.9183 85.9098C29.2328 85.9098 28.6678 85.6828 28.2234 85.2289C27.7791 84.7751 27.5569 84.0816 27.5569 83.1484V78.5017H28.6805V83.0722C28.6805 83.6055 28.8297 84.0308 29.128 84.3482C29.4296 84.6656 29.8136 84.8243 30.2802 84.8243C30.5595 84.8243 30.8436 84.7529 31.1324 84.61C31.4244 84.4672 31.6688 84.2482 31.8656 83.953C32.0655 83.6578 32.1655 83.2817 32.1655 82.8247ZM44.9634 78.5017L42.2591 85.8145H41.1165L38.4123 78.5017H39.6311L41.6497 84.3291H41.7259L43.7445 78.5017H44.9634ZM49.1835 85.9669C48.4789 85.9669 47.8711 85.8114 47.3601 85.5003C46.8523 85.1861 46.4603 84.7481 46.1842 84.1863C45.9112 83.6213 45.7747 82.9643 45.7747 82.2153C45.7747 81.4662 45.9112 80.806 46.1842 80.2347C46.4603 79.6602 46.8443 79.2127 47.3363 78.8921C47.8314 78.5684 48.4091 78.4065 49.0693 78.4065C49.4502 78.4065 49.8263 78.47 50.1976 78.597C50.569 78.7239 50.907 78.9302 51.2117 79.2159C51.5164 79.4984 51.7592 79.8729 51.9401 80.3395C52.121 80.806 52.2115 81.3805 52.2115 82.0629V82.539H46.9031C46.9284 83.3198 47.149 83.9181 47.5648 84.3339C47.9838 84.7497 48.5234 84.9576 49.1835 84.9576C49.6247 84.9576 50.004 84.8624 50.3214 84.6719C50.6388 84.4815 50.8689 84.1958 51.0117 83.8149L52.0972 84.1196C51.9258 84.6719 51.5831 85.1179 51.0689 85.4575C50.5547 85.7971 49.9263 85.9669 49.1835 85.9669ZM46.9031 81.5678H51.0689C51.0689 80.9489 50.888 80.4363 50.5261 80.03C50.1643 79.6206 49.6787 79.4158 49.0693 79.4158C48.6408 79.4158 48.2694 79.5158 47.9552 79.7158C47.641 79.9157 47.3934 80.1808 47.2125 80.5109C47.0316 80.8378 46.9284 81.1901 46.9031 81.5678ZM53.8537 85.8145V78.5017H54.9391V79.6063H55.0153C55.1486 79.2444 55.3898 78.9509 55.739 78.7255C56.0881 78.5001 56.4817 78.3875 56.9197 78.3875C57.0022 78.3875 57.1054 78.3891 57.2292 78.3922C57.3529 78.3954 57.4466 78.4002 57.5101 78.4065V79.5491C57.472 79.5396 57.3847 79.5253 57.2482 79.5063C57.1149 79.4841 56.9737 79.473 56.8245 79.473C56.2913 79.473 55.8501 79.6348 55.5009 79.9586C55.1518 80.2823 54.9772 80.6918 54.9772 81.1869V85.8145H53.8537ZM62.4134 78.5017V79.4539H60.8519V83.7197C60.8519 84.0371 60.8979 84.2752 60.9899 84.4339C61.0851 84.5894 61.2058 84.6941 61.3518 84.7481C61.5009 84.7989 61.658 84.8243 61.8231 84.8243C61.9469 84.8243 62.0484 84.8179 62.1278 84.8052C62.2071 84.7894 62.2706 84.7767 62.3182 84.7671L62.5468 85.7765C62.4706 85.805 62.3643 85.8336 62.2278 85.8622C62.0913 85.8939 61.9183 85.9098 61.7088 85.9098C61.3914 85.9098 61.0804 85.8415 60.7757 85.705C60.4742 85.5686 60.2234 85.3607 60.0235 85.0814C59.8267 84.8021 59.7283 84.4497 59.7283 84.0244V79.4539H58.6237V78.5017H59.7283V76.7497H60.8519V78.5017H62.4134ZM67.024 85.9669C66.3194 85.9669 65.7116 85.8114 65.2006 85.5003C64.6928 85.1861 64.3008 84.7481 64.0246 84.1863C63.7517 83.6213 63.6152 82.9643 63.6152 82.2153C63.6152 81.4662 63.7517 80.806 64.0246 80.2347C64.3008 79.6602 64.6848 79.2127 65.1768 78.8921C65.6719 78.5684 66.2496 78.4065 66.9098 78.4065C67.2907 78.4065 67.6668 78.47 68.0381 78.597C68.4095 78.7239 68.7475 78.9302 69.0522 79.2159C69.3569 79.4984 69.5997 79.8729 69.7806 80.3395C69.9615 80.806 70.052 81.3805 70.052 82.0629V82.539H64.7435C64.7689 83.3198 64.9895 83.9181 65.4053 84.3339C65.8243 84.7497 66.3639 84.9576 67.024 84.9576C67.4652 84.9576 67.8445 84.8624 68.1619 84.6719C68.4793 84.4815 68.7094 84.1958 68.8522 83.8149L69.9377 84.1196C69.7663 84.6719 69.4236 85.1179 68.9094 85.4575C68.3952 85.7971 67.7667 85.9669 67.024 85.9669ZM64.7435 81.5678H68.9094C68.9094 80.9489 68.7285 80.4363 68.3666 80.03C68.0048 79.6206 67.5192 79.4158 66.9098 79.4158C66.4813 79.4158 66.1099 79.5158 65.7957 79.7158C65.4815 79.9157 65.2339 80.1808 65.053 80.5109C64.8721 80.8378 64.7689 81.1901 64.7435 81.5678ZM71.6941 85.8145V78.5017H72.8177V85.8145H71.6941ZM72.2655 77.2829C72.0465 77.2829 71.8576 77.2083 71.6989 77.0592C71.5434 76.91 71.4656 76.7307 71.4656 76.5212C71.4656 76.3117 71.5434 76.1324 71.6989 75.9832C71.8576 75.834 72.0465 75.7594 72.2655 75.7594C72.4845 75.7594 72.6717 75.834 72.8273 75.9832C72.9859 76.1324 73.0653 76.3117 73.0653 76.5212C73.0653 76.7307 72.9859 76.91 72.8273 77.0592C72.6717 77.2083 72.4845 77.2829 72.2655 77.2829ZM75.9322 76.0641V85.8145H74.8086V76.0641H75.9322ZM80.9891 85.9669C80.2845 85.9669 79.6767 85.8114 79.1657 85.5003C78.6579 85.1861 78.2659 84.7481 77.9897 84.1863C77.7168 83.6213 77.5803 82.9643 77.5803 82.2153C77.5803 81.4662 77.7168 80.806 77.9897 80.2347C78.2659 79.6602 78.6499 79.2127 79.1419 78.8921C79.637 78.5684 80.2147 78.4065 80.8749 78.4065C81.2557 78.4065 81.6319 78.47 82.0032 78.597C82.3746 78.7239 82.7126 78.9302 83.0173 79.2159C83.322 79.4984 83.5648 79.8729 83.7457 80.3395C83.9266 80.806 84.0171 81.3805 84.0171 82.0629V82.539H78.7086C78.734 83.3198 78.9546 83.9181 79.3704 84.3339C79.7894 84.7497 80.3289 84.9576 80.9891 84.9576C81.4303 84.9576 81.8096 84.8624 82.127 84.6719C82.4444 84.4815 82.6745 84.1958 82.8173 83.8149L83.9028 84.1196C83.7314 84.6719 83.3886 85.1179 82.8745 85.4575C82.3603 85.7971 81.7318 85.9669 80.9891 85.9669ZM78.7086 81.5678H82.8745C82.8745 80.9489 82.6935 80.4363 82.3317 80.03C81.9699 79.6206 81.4843 79.4158 80.8749 79.4158C80.4464 79.4158 80.075 79.5158 79.7608 79.7158C79.4466 79.9157 79.199 80.1808 79.0181 80.5109C78.8372 80.8378 78.734 81.1901 78.7086 81.5678ZM86.7828 81.4154V85.8145H85.6592V78.5017H86.7447V79.6444H86.8399C87.0113 79.273 87.2716 78.9747 87.6207 78.7493C87.9699 78.5208 88.4206 78.4065 88.9728 78.4065C89.7124 78.4065 90.3091 78.6335 90.763 79.0873C91.22 79.5412 91.4485 80.2347 91.4485 81.1679V85.8145H90.325V81.244C90.325 80.6696 90.1758 80.222 89.8774 79.9015C89.5791 79.5777 89.1696 79.4158 88.6491 79.4158C88.1127 79.4158 87.6668 79.5904 87.3113 79.9395C86.959 80.2855 86.7828 80.7775 86.7828 81.4154ZM94.9201 76.0641L94.8249 83.0722H93.7203L93.6251 76.0641H94.9201ZM94.2726 85.8907C94.0377 85.8907 93.8362 85.8066 93.6679 85.6384C93.4997 85.4702 93.4156 85.2686 93.4156 85.0337C93.4156 84.7989 93.4997 84.5973 93.6679 84.4291C93.8362 84.2609 94.0377 84.1768 94.2726 84.1768C94.5075 84.1768 94.709 84.2609 94.8772 84.4291C95.0454 84.5973 95.1296 84.7989 95.1296 85.0337C95.1296 85.2686 95.0454 85.4702 94.8772 85.6384C94.709 85.8066 94.5075 85.8907 94.2726 85.8907Z" fill="black"/>
<path d="M23.3607 25.9548L25.9484 34.8516H26.047L28.6347 25.9548H32.504L28.339 38.5729H23.6565L19.4915 25.9548H23.3607ZM36.9962 38.7455C35.4805 38.7455 34.2873 38.3162 33.4165 37.4578C32.5498 36.5952 32.1165 35.3979 32.1165 33.8658C32.1165 32.8882 32.3136 32.0338 32.7079 31.3027C33.1023 30.5716 33.6588 30.0027 34.3776 29.596C35.0964 29.1894 35.9446 28.9861 36.9222 28.9861C37.8752 28.9861 38.7028 29.1812 39.4052 29.5714C40.1117 29.9616 40.658 30.5202 41.0441 31.2472C41.4343 31.9702 41.6294 32.8348 41.6294 33.8411V34.6298H35.4682V34.7776C35.4682 35.2336 35.6078 35.6114 35.8871 35.9113C36.1706 36.207 36.5649 36.3549 37.0701 36.3549C37.4192 36.3549 37.7232 36.283 37.982 36.1393C38.2448 35.9914 38.4256 35.784 38.5241 35.517H41.6294C41.4692 36.5028 40.9845 37.2873 40.1753 37.8706C39.3703 38.4538 38.3105 38.7455 36.9962 38.7455ZM35.4682 32.7567H38.4995C38.4913 32.3501 38.3434 32.0195 38.0559 31.7648C37.7725 31.506 37.4192 31.3766 36.9962 31.3766C36.5813 31.3766 36.2239 31.504 35.9241 31.7586C35.6284 32.0133 35.4764 32.346 35.4682 32.7567ZM42.9131 38.5729V29.1093H46.2155V30.9084H46.3141C46.4907 30.243 46.7659 29.7562 47.1397 29.4482C47.5135 29.1401 47.953 28.9861 48.4582 28.9861C48.7047 28.9861 48.9449 29.0169 49.1791 29.0785C49.4132 29.1401 49.6247 29.2243 49.8137 29.3311L48.8279 32.116C48.6882 32.0503 48.5424 31.9928 48.3904 31.9435C48.2385 31.8942 48.0721 31.8695 47.8914 31.8695C47.4683 31.8695 47.1007 32.0318 46.7885 32.3563C46.4763 32.6766 46.3182 33.1059 46.3141 33.644V38.5729H42.9131ZM50.7724 38.5729V25.9548H54.1734V32.2885H54.2966L56.5886 29.1093H60.4085L57.1924 33.2558L60.5071 38.5729H56.6132L54.6848 35.2397L54.1734 35.8866V38.5729H50.7724ZM67.3267 34.4326V29.1093H70.7277V38.5729H67.4992V36.7739H67.4006C67.1952 37.3777 66.8358 37.85 66.3224 38.1909C65.809 38.5278 65.199 38.6962 64.4925 38.6962C63.8312 38.6962 63.2521 38.5442 62.7551 38.2402C62.2622 37.9363 61.8781 37.5173 61.6029 36.9833C61.3318 36.4494 61.1942 35.8374 61.1901 35.1473V29.1093H64.5911V34.4326C64.5952 34.9008 64.7143 35.2685 64.9485 35.5355C65.1867 35.8024 65.5194 35.9359 65.9466 35.9359C66.3696 35.9359 66.7065 35.8024 66.957 35.5355C67.2076 35.2685 67.3308 34.9008 67.3267 34.4326ZM72.3533 42.1218V29.1093H75.7297V30.7605H75.8036C75.9885 30.2799 76.3027 29.8651 76.7463 29.5159C77.1899 29.1627 77.7629 28.9861 78.4653 28.9861C79.0896 28.9861 79.6831 29.1524 80.2459 29.4851C80.8127 29.8178 81.2727 30.3415 81.626 31.0562C81.9833 31.7709 82.162 32.6992 82.162 33.8411C82.162 34.9337 81.9915 35.8394 81.6506 36.5582C81.3138 37.277 80.862 37.8131 80.2952 38.1663C79.7324 38.5195 79.1143 38.6962 78.4406 38.6962C77.7752 38.6962 77.2187 38.538 76.7709 38.2217C76.3232 37.9014 76.0008 37.5009 75.8036 37.0203H75.7543V42.1218H72.3533ZM75.6804 33.8411C75.6804 34.5312 75.8139 35.0775 76.0809 35.48C76.3479 35.8825 76.7155 36.0838 77.1837 36.0838C77.652 36.0838 78.0155 35.8866 78.2743 35.4923C78.533 35.0939 78.6624 34.5435 78.6624 33.8411C78.6624 33.1387 78.533 32.5904 78.2743 32.1961C78.0155 31.7976 77.652 31.5984 77.1837 31.5984C76.7155 31.5984 76.3479 31.7976 76.0809 32.1961C75.8139 32.5904 75.6804 33.1387 75.6804 33.8411ZM83.4827 42.1218V29.1093H86.859V30.7605H86.933C87.1178 30.2799 87.432 29.8651 87.8756 29.5159C88.3193 29.1627 88.8922 28.9861 89.5946 28.9861C90.219 28.9861 90.8125 29.1524 91.3752 29.4851C91.942 29.8178 92.4021 30.3415 92.7553 31.0562C93.1127 31.7709 93.2914 32.6992 93.2914 33.8411C93.2914 34.9337 93.1209 35.8394 92.78 36.5582C92.4432 37.277 91.9913 37.8131 91.4245 38.1663C90.8618 38.5195 90.2436 38.6962 89.57 38.6962C88.9046 38.6962 88.348 38.538 87.9003 38.2217C87.4526 37.9014 87.1301 37.5009 86.933 37.0203H86.8837V42.1218H83.4827ZM86.8098 33.8411C86.8098 34.5312 86.9432 35.0775 87.2102 35.48C87.4772 35.8825 87.8448 36.0838 88.3131 36.0838C88.7813 36.0838 89.1449 35.8866 89.4036 35.4923C89.6624 35.0939 89.7918 34.5435 89.7918 33.8411C89.7918 33.1387 89.6624 32.5904 89.4036 32.1961C89.1449 31.7976 88.7813 31.5984 88.3131 31.5984C87.8448 31.5984 87.4772 31.7976 87.2102 32.1961C86.9432 32.5904 86.8098 33.1387 86.8098 33.8411ZM98.013 25.9548V38.5729H94.612V25.9548H98.013ZM104.176 38.7455C102.661 38.7455 101.468 38.3162 100.597 37.4578C99.7301 36.5952 99.2967 35.3979 99.2967 33.8658C99.2967 32.8882 99.4939 32.0338 99.8882 31.3027C100.283 30.5716 100.839 30.0027 101.558 29.596C102.277 29.1894 103.125 28.9861 104.103 28.9861C105.055 28.9861 105.883 29.1812 106.585 29.5714C107.292 29.9616 107.838 30.5202 108.224 31.2472C108.615 31.9702 108.81 32.8348 108.81 33.8411V34.6298H102.648V34.7776C102.648 35.2336 102.788 35.6114 103.067 35.9113C103.351 36.207 103.745 36.3549 104.25 36.3549C104.6 36.3549 104.903 36.283 105.162 36.1393C105.425 35.9914 105.606 35.784 105.704 35.517H108.81C108.649 36.5028 108.165 37.2873 107.356 37.8706C106.551 38.4538 105.491 38.7455 104.176 38.7455ZM102.648 32.7567H105.68C105.672 32.3501 105.524 32.0195 105.236 31.7648C104.953 31.506 104.6 31.3766 104.176 31.3766C103.762 31.3766 103.404 31.504 103.104 31.7586C102.809 32.0133 102.657 32.346 102.648 32.7567ZM117.98 38.7455C116.465 38.7455 115.272 38.3162 114.401 37.4578C113.534 36.5952 113.101 35.3979 113.101 33.8658C113.101 32.8882 113.298 32.0338 113.692 31.3027C114.086 30.5716 114.643 30.0027 115.362 29.596C116.081 29.1894 116.929 28.9861 117.906 28.9861C118.859 28.9861 119.687 29.1812 120.389 29.5714C121.096 29.9616 121.642 30.5202 122.028 31.2472C122.419 31.9702 122.614 32.8348 122.614 33.8411V34.6298H116.452V34.7776C116.452 35.2336 116.592 35.6114 116.871 35.9113C117.155 36.207 117.549 36.3549 118.054 36.3549C118.403 36.3549 118.707 36.283 118.966 36.1393C119.229 35.9914 119.41 35.784 119.508 35.517H122.614C122.453 36.5028 121.969 37.2873 121.16 37.8706C120.355 38.4538 119.295 38.7455 117.98 38.7455ZM116.452 32.7567H119.484C119.476 32.3501 119.328 32.0195 119.04 31.7648C118.757 31.506 118.403 31.3766 117.98 31.3766C117.566 31.3766 117.208 31.504 116.908 31.7586C116.613 32.0133 116.461 32.346 116.452 32.7567ZM123.897 38.5729V29.1093H127.298V38.5729H123.897ZM125.598 28.1235C125.138 28.1235 124.743 27.9715 124.415 27.6676C124.086 27.3636 123.922 26.9981 123.922 26.5709C123.922 26.1437 124.086 25.7781 124.415 25.4742C124.743 25.1702 125.138 25.0183 125.598 25.0183C126.062 25.0183 126.456 25.1702 126.781 25.4742C127.109 25.7781 127.274 26.1437 127.274 26.5709C127.274 26.9981 127.109 27.3636 126.781 27.6676C126.456 27.9715 126.062 28.1235 125.598 28.1235ZM132.328 33.2496V38.5729H128.927V29.1093H132.156V30.9084H132.254C132.46 30.3087 132.821 29.8384 133.339 29.4975C133.86 29.1565 134.468 28.9861 135.162 28.9861C135.832 28.9861 136.413 29.1401 136.906 29.4482C137.403 29.7521 137.787 30.1711 138.058 30.7051C138.333 31.239 138.469 31.849 138.465 32.5349V38.5729H135.064V33.2496C135.068 32.7814 134.949 32.4138 134.706 32.1468C134.468 31.8798 134.135 31.7463 133.708 31.7463C133.285 31.7463 132.95 31.8798 132.704 32.1468C132.457 32.4138 132.332 32.7814 132.328 33.2496ZM144.574 38.7455C143.058 38.7455 141.865 38.3162 140.994 37.4578C140.128 36.5952 139.694 35.3979 139.694 33.8658C139.694 32.8882 139.892 32.0338 140.286 31.3027C140.68 30.5716 141.237 30.0027 141.956 29.596C142.674 29.1894 143.523 28.9861 144.5 28.9861C145.453 28.9861 146.281 29.1812 146.983 29.5714C147.69 29.9616 148.236 30.5202 148.622 31.2472C149.012 31.9702 149.207 32.8348 149.207 33.8411V34.6298H143.046V34.7776C143.046 35.2336 143.186 35.6114 143.465 35.9113C143.749 36.207 144.143 36.3549 144.648 36.3549C144.997 36.3549 145.301 36.283 145.56 36.1393C145.823 35.9914 146.004 35.784 146.102 35.517H149.207C149.047 36.5028 148.563 37.2873 147.753 37.8706C146.948 38.4538 145.889 38.7455 144.574 38.7455ZM143.046 32.7567H146.077C146.069 32.3501 145.921 32.0195 145.634 31.7648C145.35 31.506 144.997 31.3766 144.574 31.3766C144.159 31.3766 143.802 31.504 143.502 31.7586C143.206 32.0133 143.054 32.346 143.046 32.7567ZM153.892 33.2496V38.5729H150.491V29.1093H153.72V30.9084H153.818C154.024 30.3087 154.385 29.8384 154.903 29.4975C155.424 29.1565 156.032 28.9861 156.726 28.9861C157.396 28.9861 157.977 29.1401 158.47 29.4482C158.967 29.7521 159.351 30.1711 159.622 30.7051C159.897 31.239 160.033 31.849 160.029 32.5349V38.5729H156.628V33.2496C156.632 32.7814 156.513 32.4138 156.27 32.1468C156.032 31.8798 155.699 31.7463 155.272 31.7463C154.849 31.7463 154.514 31.8798 154.268 32.1468C154.021 32.4138 153.896 32.7814 153.892 33.2496ZM164.907 25.9548H169.17L172.103 33.1018H172.251L175.183 25.9548H179.447V38.5729H176.095V31.2781H175.997L173.187 38.4744H171.166L168.357 31.2288H168.258V38.5729H164.907V25.9548ZM185.55 38.7455C184.035 38.7455 182.841 38.3162 181.971 37.4578C181.104 36.5952 180.671 35.3979 180.671 33.8658C180.671 32.8882 180.868 32.0338 181.262 31.3027C181.656 30.5716 182.213 30.0027 182.932 29.596C183.651 29.1894 184.499 28.9861 185.476 28.9861C186.429 28.9861 187.257 29.1812 187.959 29.5714C188.666 29.9616 189.212 30.5202 189.598 31.2472C189.988 31.9702 190.184 32.8348 190.184 33.8411V34.6298H184.022V34.7776C184.022 35.2336 184.162 35.6114 184.441 35.9113C184.725 36.207 185.119 36.3549 185.624 36.3549C185.973 36.3549 186.277 36.283 186.536 36.1393C186.799 35.9914 186.98 35.784 187.078 35.517H190.184C190.023 36.5028 189.539 37.2873 188.73 37.8706C187.924 38.4538 186.865 38.7455 185.55 38.7455ZM184.022 32.7567H187.054C187.045 32.3501 186.898 32.0195 186.61 31.7648C186.327 31.506 185.973 31.3766 185.55 31.3766C185.136 31.3766 184.778 31.504 184.478 31.7586C184.183 32.0133 184.031 32.346 184.022 32.7567ZM194.868 33.2496V38.5729H191.467V29.1093H194.696V30.9084H194.794C195 30.3087 195.361 29.8384 195.879 29.4975C196.4 29.1565 197.008 28.9861 197.702 28.9861C198.372 28.9861 198.953 29.1401 199.446 29.4482C199.943 29.7521 200.327 30.1711 200.598 30.7051C200.873 31.239 201.009 31.849 201.005 32.5349V38.5729H197.604V33.2496C197.608 32.7814 197.489 32.4138 197.247 32.1468C197.008 31.8798 196.676 31.7463 196.248 31.7463C195.825 31.7463 195.491 31.8798 195.244 32.1468C194.998 32.4138 194.872 32.7814 194.868 33.2496ZM211.23 32.1899H208.1C208.076 31.8983 207.94 31.6703 207.694 31.506C207.447 31.3376 207.155 31.2534 206.819 31.2534C206.527 31.2534 206.276 31.3068 206.067 31.4136C205.857 31.5204 205.755 31.6724 205.759 31.8695C205.755 32.0092 205.814 32.1386 205.938 32.2577C206.065 32.3768 206.309 32.4692 206.671 32.5349L208.593 32.88C210.503 33.225 211.464 34.0794 211.477 35.443C211.472 36.1167 211.271 36.702 210.873 37.199C210.478 37.6919 209.938 38.0739 209.252 38.345C208.57 38.612 207.792 38.7455 206.917 38.7455C205.471 38.7455 204.34 38.4497 203.522 37.8582C202.709 37.2668 202.255 36.4863 202.161 35.517H205.537C205.582 35.8168 205.73 36.0489 205.981 36.2132C206.235 36.3734 206.556 36.4535 206.942 36.4535C207.254 36.4535 207.511 36.4001 207.712 36.2933C207.917 36.1865 208.022 36.0345 208.026 35.8374C208.014 35.5088 207.652 35.2787 206.942 35.1473L205.266 34.8516C203.331 34.5106 202.37 33.5823 202.383 32.0667C202.378 31.0809 202.767 30.321 203.547 29.787C204.327 29.2531 205.393 28.9861 206.745 28.9861C208.112 28.9861 209.191 29.2695 209.979 29.8363C210.772 30.4032 211.189 31.1877 211.23 32.1899ZM217.235 38.7455C216.208 38.7455 215.329 38.5421 214.598 38.1355C213.867 37.7247 213.306 37.1538 212.916 36.4227C212.526 35.6874 212.331 34.8351 212.331 33.8658C212.331 32.8964 212.526 32.0461 212.916 31.315C213.306 30.5798 213.867 30.0088 214.598 29.6022C215.329 29.1915 216.208 28.9861 217.235 28.9861C218.163 28.9861 218.966 29.1545 219.644 29.4913C220.326 29.824 220.854 30.2964 221.227 30.9084C221.601 31.5163 221.79 32.231 221.794 33.0525H218.64C218.594 32.5555 218.451 32.1776 218.208 31.9188C217.97 31.6559 217.662 31.5245 217.284 31.5245C216.836 31.5245 216.477 31.7176 216.206 32.1037C215.939 32.4857 215.805 33.0648 215.805 33.8411C215.805 34.6174 215.939 35.1986 216.206 35.5847C216.477 35.9667 216.836 36.1577 217.284 36.1577C217.658 36.1577 217.968 36.0284 218.214 35.7696C218.461 35.5067 218.603 35.1268 218.64 34.6298H221.794C221.778 35.8825 221.363 36.8827 220.55 37.6303C219.74 38.3737 218.635 38.7455 217.235 38.7455ZM226.494 33.2496V38.5729H223.093V25.9548H226.371V30.9084H226.47C226.683 30.3046 227.038 29.8343 227.535 29.4975C228.032 29.1565 228.63 28.9861 229.328 28.9861C229.998 28.9861 230.579 29.1381 231.072 29.442C231.569 29.746 231.953 30.1649 232.224 30.6989C232.499 31.2329 232.635 31.8449 232.631 32.5349V38.5729H229.23V33.2496C229.234 32.7814 229.117 32.4138 228.879 32.1468C228.645 31.8798 228.31 31.7463 227.874 31.7463C227.46 31.7463 227.127 31.8798 226.876 32.1468C226.626 32.4138 226.498 32.7814 226.494 33.2496ZM238.74 38.7455C237.225 38.7455 236.031 38.3162 235.161 37.4578C234.294 36.5952 233.861 35.3979 233.861 33.8658C233.861 32.8882 234.058 32.0338 234.452 31.3027C234.846 30.5716 235.403 30.0027 236.122 29.596C236.841 29.1894 237.689 28.9861 238.666 28.9861C239.619 28.9861 240.447 29.1812 241.149 29.5714C241.856 29.9616 242.402 30.5202 242.788 31.2472C243.178 31.9702 243.374 32.8348 243.374 33.8411V34.6298H237.212V34.7776C237.212 35.2336 237.352 35.6114 237.631 35.9113C237.915 36.207 238.309 36.3549 238.814 36.3549C239.163 36.3549 239.467 36.283 239.726 36.1393C239.989 35.9914 240.17 35.784 240.268 35.517H243.374C243.213 36.5028 242.729 37.2873 241.919 37.8706C241.114 38.4538 240.055 38.7455 238.74 38.7455ZM237.212 32.7567H240.244C240.235 32.3501 240.088 32.0195 239.8 31.7648C239.517 31.506 239.163 31.3766 238.74 31.3766C238.325 31.3766 237.968 31.504 237.668 31.7586C237.373 32.0133 237.221 32.346 237.212 32.7567ZM248.058 33.2496V38.5729H244.657V29.1093H247.886V30.9084H247.984C248.19 30.3087 248.551 29.8384 249.069 29.4975C249.59 29.1565 250.198 28.9861 250.892 28.9861C251.562 28.9861 252.143 29.1401 252.636 29.4482C253.133 29.7521 253.517 30.1711 253.788 30.7051C254.063 31.239 254.199 31.849 254.195 32.5349V38.5729H250.794V33.2496C250.798 32.7814 250.679 32.4138 250.436 32.1468C250.198 31.8798 249.866 31.7463 249.438 31.7463C249.015 31.7463 248.681 31.8798 248.434 32.1468C248.188 32.4138 248.062 32.7814 248.058 33.2496Z" fill="black"/>
<path d="M19.3423 105.065C19.3423 101.58 22.167 98.7555 25.6514 98.7555H119.888C123.372 98.7555 126.197 101.58 126.197 105.065V129.683C126.197 133.167 123.372 135.992 119.888 135.992H25.6514C22.167 135.992 19.3423 133.167 19.3423 129.683V105.065Z" fill="black"/>
<path d="M41.8588 114.085H43.3606V119.131C43.3606 119.595 43.2572 120.005 43.0503 120.362C42.8467 120.716 42.558 120.99 42.1842 121.183C41.8104 121.377 41.3883 121.474 40.9177 121.474C40.1468 121.474 39.5461 121.279 39.1155 120.888C38.685 120.494 38.4698 119.939 38.4698 119.221H39.9816C39.9816 119.578 40.0567 119.842 40.2069 120.012C40.357 120.182 40.594 120.267 40.9177 120.267C41.2047 120.267 41.4333 120.169 41.6035 119.972C41.7737 119.775 41.8588 119.495 41.8588 119.131V114.085ZM47.045 121.474C46.2508 121.474 45.6033 121.23 45.1027 120.743C44.6054 120.256 44.3568 119.607 44.3568 118.796V118.655C44.3568 118.111 44.4619 117.626 44.6722 117.199C44.8824 116.768 45.1795 116.438 45.5633 116.207C45.9504 115.974 46.3909 115.857 46.8848 115.857C47.6257 115.857 48.2081 116.091 48.6319 116.558C49.0591 117.025 49.2727 117.688 49.2727 118.545V119.136H45.8236C45.8703 119.49 46.0105 119.773 46.2441 119.987C46.481 120.201 46.7797 120.307 47.1401 120.307C47.6975 120.307 48.133 120.105 48.4467 119.702L49.1576 120.498C48.9406 120.805 48.647 121.045 48.2765 121.218C47.9061 121.389 47.4956 121.474 47.045 121.474ZM46.8798 117.028C46.5928 117.028 46.3592 117.125 46.179 117.319C46.0021 117.512 45.8887 117.789 45.8386 118.15H47.851V118.035C47.8443 117.714 47.7576 117.467 47.5907 117.294C47.4238 117.117 47.1869 117.028 46.8798 117.028ZM51.8308 114.626V115.957H52.7569V117.018H51.8308V119.722C51.8308 119.922 51.8691 120.065 51.9459 120.152C52.0227 120.239 52.1695 120.282 52.3864 120.282C52.5466 120.282 52.6885 120.271 52.8119 120.247V121.344C52.5283 121.43 52.2362 121.474 51.9359 121.474C50.9213 121.474 50.4041 120.961 50.384 119.937V117.018H49.5931V115.957H50.384V114.626H51.8308ZM55.2248 120.207H57.873V121.374H53.3776V120.493L55.9257 117.129H53.4527V115.957H57.7929V116.813L55.2248 120.207ZM60.5112 114.626V115.957H61.4373V117.018H60.5112V119.722C60.5112 119.922 60.5495 120.065 60.6263 120.152C60.7031 120.239 60.8499 120.282 61.0668 120.282C61.227 120.282 61.3688 120.271 61.4923 120.247V121.344C61.2087 121.43 60.9166 121.474 60.6163 121.474C59.6017 121.474 59.0844 120.961 59.0644 119.937V117.018H58.2735V115.957H59.0644V114.626H60.5112ZM66.3932 120.167H69.582V121.374H64.8914V114.085H66.3932V120.167ZM70.1277 118.615C70.1277 118.078 70.2311 117.599 70.438 117.179C70.645 116.758 70.942 116.433 71.3291 116.202C71.7196 115.972 72.1718 115.857 72.6857 115.857C73.4166 115.857 74.0123 116.081 74.4729 116.528C74.9368 116.975 75.1954 117.582 75.2488 118.35L75.2588 118.72C75.2588 119.551 75.0269 120.219 74.563 120.723C74.0991 121.223 73.4767 121.474 72.6957 121.474C71.9148 121.474 71.2907 121.223 70.8235 120.723C70.3596 120.222 70.1277 119.541 70.1277 118.68V118.615ZM71.5744 118.72C71.5744 119.234 71.6712 119.628 71.8647 119.902C72.0583 120.172 72.3353 120.307 72.6957 120.307C73.0462 120.307 73.3198 120.174 73.5167 119.907C73.7136 119.637 73.8121 119.206 73.8121 118.615C73.8121 118.111 73.7136 117.721 73.5167 117.444C73.3198 117.167 73.0428 117.028 72.6857 117.028C72.332 117.028 72.0583 117.167 71.8647 117.444C71.6712 117.718 71.5744 118.143 71.5744 118.72ZM79.0834 119.877C79.0834 119.7 78.9949 119.561 78.8181 119.461C78.6445 119.358 78.3642 119.266 77.9771 119.186C76.6889 118.916 76.0448 118.368 76.0448 117.544C76.0448 117.063 76.2433 116.663 76.6405 116.343C77.0409 116.019 77.5632 115.857 78.2073 115.857C78.8948 115.857 79.4438 116.019 79.8543 116.343C80.2681 116.666 80.4751 117.087 80.4751 117.604H79.0283C79.0283 117.397 78.9616 117.227 78.8281 117.094C78.6946 116.957 78.486 116.888 78.2023 116.888C77.9587 116.888 77.7701 116.943 77.6367 117.053C77.5032 117.164 77.4364 117.304 77.4364 117.474C77.4364 117.634 77.5115 117.764 77.6617 117.864C77.8152 117.961 78.0722 118.046 78.4326 118.12C78.793 118.19 79.0967 118.27 79.3437 118.36C80.1079 118.64 80.4901 119.126 80.4901 119.817C80.4901 120.311 80.2782 120.711 79.8543 121.018C79.4305 121.322 78.8831 121.474 78.2123 121.474C77.7585 121.474 77.3547 121.394 77.0009 121.233C76.6505 121.07 76.3751 120.848 76.1749 120.568C75.9747 120.284 75.8745 119.979 75.8745 119.652H77.2462C77.2595 119.909 77.3547 120.105 77.5315 120.242C77.7084 120.379 77.9454 120.448 78.2424 120.448C78.5194 120.448 78.728 120.396 78.8681 120.292C79.0116 120.186 79.0834 120.047 79.0834 119.877ZM82.953 121.374H81.5013V113.684H82.953V121.374ZM86.6424 121.474C85.8482 121.474 85.2007 121.23 84.7001 120.743C84.2029 120.256 83.9542 119.607 83.9542 118.796V118.655C83.9542 118.111 84.0593 117.626 84.2696 117.199C84.4798 116.768 84.7769 116.438 85.1607 116.207C85.5478 115.974 85.9883 115.857 86.4822 115.857C87.2231 115.857 87.8055 116.091 88.2293 116.558C88.6565 117.025 88.8701 117.688 88.8701 118.545V119.136H85.421C85.4677 119.49 85.6079 119.773 85.8415 119.987C86.0784 120.201 86.3771 120.307 86.7376 120.307C87.2949 120.307 87.7304 120.105 88.0441 119.702L88.755 120.498C88.538 120.805 88.2444 121.045 87.8739 121.218C87.5035 121.389 87.093 121.474 86.6424 121.474ZM86.4772 117.028C86.1902 117.028 85.9566 117.125 85.7764 117.319C85.5995 117.512 85.4861 117.789 85.436 118.15H87.4484V118.035C87.4417 117.714 87.355 117.467 87.1881 117.294C87.0212 117.117 86.7843 117.028 86.4772 117.028ZM89.4858 118.625C89.4858 117.794 89.6827 117.125 90.0765 116.618C90.4737 116.111 91.0077 115.857 91.6785 115.857C92.2725 115.857 92.7347 116.061 93.0651 116.468L93.1252 115.957H94.4368V121.193C94.4368 121.667 94.3283 122.079 94.1114 122.43C93.8978 122.78 93.5958 123.047 93.2053 123.231C92.8148 123.414 92.3576 123.506 91.8337 123.506C91.4365 123.506 91.0494 123.426 90.6723 123.266C90.2951 123.109 90.0098 122.905 89.8162 122.655L90.457 121.774C90.8174 122.178 91.2546 122.38 91.7686 122.38C92.1524 122.38 92.4511 122.276 92.6646 122.069C92.8782 121.866 92.985 121.576 92.985 121.198V120.908C92.6513 121.285 92.2124 121.474 91.6685 121.474C91.0177 121.474 90.4904 121.22 90.0866 120.713C89.6861 120.202 89.4858 119.526 89.4858 118.685V118.625ZM90.9326 118.73C90.9326 119.221 91.031 119.607 91.2279 119.887C91.4248 120.164 91.6952 120.302 92.0389 120.302C92.4794 120.302 92.7948 120.137 92.985 119.807V117.529C92.7915 117.199 92.4794 117.033 92.0489 117.033C91.7018 117.033 91.4282 117.175 91.2279 117.459C91.031 117.743 90.9326 118.166 90.9326 118.73ZM98.0461 121.474C97.2518 121.474 96.6044 121.23 96.1038 120.743C95.6065 120.256 95.3579 119.607 95.3579 118.796V118.655C95.3579 118.111 95.463 117.626 95.6732 117.199C95.8835 116.768 96.1805 116.438 96.5643 116.207C96.9514 115.974 97.392 115.857 97.8859 115.857C98.6268 115.857 99.2091 116.091 99.633 116.558C100.06 117.025 100.274 117.688 100.274 118.545V119.136H96.8246C96.8713 119.49 97.0115 119.773 97.2451 119.987C97.4821 120.201 97.7808 120.307 98.1412 120.307C98.6985 120.307 99.1341 120.105 99.4478 119.702L100.159 120.498C99.9417 120.805 99.648 121.045 99.2776 121.218C98.9071 121.389 98.4966 121.474 98.0461 121.474ZM97.8809 117.028C97.5939 117.028 97.3603 117.125 97.18 117.319C97.0032 117.512 96.8897 117.789 96.8396 118.15H98.8521V118.035C98.8454 117.714 98.7586 117.467 98.5917 117.294C98.4249 117.117 98.1879 117.028 97.8809 117.028ZM102.431 115.957L102.476 116.583C102.864 116.099 103.382 115.857 104.033 115.857C104.607 115.857 105.034 116.026 105.315 116.363C105.595 116.7 105.739 117.204 105.745 117.874V121.374H104.299V117.909C104.299 117.602 104.232 117.381 104.098 117.244C103.965 117.104 103.743 117.033 103.433 117.033C103.025 117.033 102.72 117.207 102.516 117.554V121.374H101.07V115.957H102.431Z" fill="white"/>
</svg>
