<svg width="226" height="188" viewBox="0 0 226 188" fill="none" xmlns="http://www.w3.org/2000/svg">
<path d="M222.129 87.1361L185.548 64.4477C183.112 62.9627 180.048 62.8979 177.608 64.2484C175.019 65.6158 173.404 68.2859 173.393 71.2305L173.394 86.0968H161.414C159.491 63.9712 149.839 43.2732 134.03 27.5199C117.467 11.013 95.462 1.24306 72.0716 0.0103004C69.9353 -0.0995088 67.7833 0.673085 66.255 2.11631C64.6494 3.59026 63.7232 5.68909 63.7127 7.901L63.9626 86.102H48.7271L41.9857 75.9609C40.5119 73.783 38.0647 72.4881 35.4699 72.4881C35.4482 72.4881 35.4273 72.4881 35.4056 72.4881L7.8574 72.3861C4.96943 72.4273 2.32611 74.0242 0.951321 76.5661C-0.416908 79.1258 -0.273262 82.2142 1.33109 84.6333L7.52419 93.9143L1.33109 103.195L0.768981 104.05V104.192C-0.303432 106.431 -0.259486 109.064 0.934267 111.291C2.30774 113.878 4.99041 115.486 7.9361 115.486H35.3203L36.8217 115.48L36.9693 115.316C38.9626 114.906 40.746 113.735 41.9418 111.99L48.6747 101.86L63.9692 101.761L63.8767 180.13C63.8872 182.315 64.8133 184.414 66.3862 185.859C67.8423 187.232 69.7983 188 71.8073 188C71.9477 188 72.0887 187.996 72.2297 187.989C95.6149 186.736 117.61 176.941 134.159 160.41C149.956 144.644 159.585 123.937 161.48 101.805H173.454V116.671L173.46 118.064L173.61 118.213C174.063 120.511 175.521 122.51 177.64 123.638C180.135 125.007 183.187 124.941 185.642 123.443L222.132 100.704C224.529 99.2846 226.01 96.6864 226 93.9333C226.01 91.154 224.528 88.5545 222.129 87.1361ZM202.946 93.9195L189.321 102.425V85.4151L202.946 93.9195ZM145.565 86.006L79.73 86.0341L79.736 16.4885C96.7699 19.2449 112.512 27.5232 124.401 40.0488C136.348 52.6241 143.786 68.8284 145.565 86.006ZM145.568 101.834C143.788 119.011 136.35 135.215 124.401 147.793C112.514 160.317 96.7706 168.596 79.7373 171.352L79.7314 101.806L145.568 101.834ZM24.7897 95.6216C25.2475 93.5685 24.8665 91.3769 23.6458 89.5519L22.7098 88.1545H31.0471L34.9091 93.9202L31.0471 99.6859H22.7177L25.1767 96.0072L24.7897 95.6216Z" fill="#C42126"/>
</svg>
