<svg width="889" height="729" viewBox="0 0 889 729" fill="none" xmlns="http://www.w3.org/2000/svg">
<g clip-path="url(#clip0)">
<path d="M40.1184 683.06C56.143 692.701 62.3146 711.851 62.3146 711.851C62.3146 711.851 42.5052 715.369 26.4806 705.728C10.456 696.087 4.28442 676.938 4.28442 676.938C4.28442 676.938 24.0938 673.419 40.1184 683.06Z" fill="#C42126"/>
<path d="M559.042 70.2815H549.566V658.431H559.042V70.2815Z" fill="#D0CDE1"/>
<path d="M421.514 104.238C431.981 104.238 440.466 95.7525 440.466 85.2854C440.466 74.8184 431.981 66.3331 421.514 66.3331C411.047 66.3331 402.561 74.8184 402.561 85.2854C402.561 95.7525 411.047 104.238 421.514 104.238Z" fill="#C42126"/>
<path d="M423.093 80.5474C452.314 80.5474 476.001 76.6583 476.001 71.8609C476.001 67.0635 452.314 63.1744 423.093 63.1744C393.872 63.1744 370.184 67.0635 370.184 71.8609C370.184 76.6583 393.872 80.5474 423.093 80.5474Z" fill="#D0CDE1"/>
<path d="M558.918 70.2815H549.442C549.442 54.1549 543.036 38.6889 531.632 27.2857C520.229 15.8824 504.763 9.47617 488.636 9.47617C472.51 9.47617 457.044 15.8824 445.64 27.2857C434.237 38.6889 427.831 54.1549 427.831 70.2815H418.355C418.369 51.6509 425.78 33.7882 438.959 20.6193C452.137 7.4504 470.006 0.0530396 488.636 0.0530396C507.267 0.0530396 525.135 7.4504 538.314 20.6193C551.493 33.7882 558.904 51.6509 558.918 70.2815Z" fill="#D0CDE1"/>
<path d="M686.846 104.238C697.313 104.238 705.798 95.7525 705.798 85.2854C705.798 74.8184 697.313 66.3331 686.846 66.3331C676.379 66.3331 667.894 74.8184 667.894 85.2854C667.894 95.7525 676.379 104.238 686.846 104.238Z" fill="#C42126"/>
<path d="M685.267 80.5474C714.487 80.5474 738.175 76.6583 738.175 71.8609C738.175 67.0635 714.487 63.1744 685.267 63.1744C656.046 63.1744 632.358 67.0635 632.358 71.8609C632.358 76.6583 656.046 80.5474 685.267 80.5474Z" fill="#D0CDE1"/>
<path d="M549.442 70.2815H558.918C558.918 62.2965 560.491 54.3896 563.546 47.0123C566.602 39.6351 571.081 32.932 576.727 27.2857C582.374 21.6394 589.077 17.1605 596.454 14.1047C603.831 11.049 611.738 9.47617 619.723 9.47617C627.708 9.47617 635.615 11.049 642.992 14.1047C650.37 17.1605 657.073 21.6394 662.719 27.2857C668.365 32.932 672.844 39.6351 675.9 47.0123C678.956 54.3896 680.529 62.2965 680.529 70.2815H690.005C689.991 51.6509 682.58 33.7882 669.401 20.6193C656.222 7.4504 638.354 0.0530396 619.723 0.0530396C601.093 0.0530396 583.224 7.4504 570.045 20.6193C556.867 33.7882 549.456 51.6509 549.442 70.2815H549.442Z" fill="#D0CDE1"/>
<path d="M571.703 615.161H536.656V659.383H571.703V615.161Z" fill="#D0CDE1"/>
<path d="M261.092 719.405C405.289 719.405 522.184 717.324 522.184 714.758C522.184 712.192 405.289 710.111 261.092 710.111C116.895 710.111 0 712.192 0 714.758C0 717.324 116.895 719.405 261.092 719.405Z" fill="#3F3D56"/>
<path d="M675.516 664.326C793.336 664.326 888.848 662.245 888.848 659.679C888.848 657.113 793.336 655.032 675.516 655.032C557.696 655.032 462.184 657.113 462.184 659.679C462.184 662.245 557.696 664.326 675.516 664.326Z" fill="#3F3D56"/>
<path d="M299.315 363.711C314.991 363.711 327.7 351.003 327.7 335.327C327.7 319.65 314.991 306.942 299.315 306.942C283.639 306.942 270.93 319.65 270.93 335.327C270.93 351.003 283.639 363.711 299.315 363.711Z" fill="#2F2E41"/>
<path d="M339.662 507.268L343.965 515.875C343.965 515.875 357.736 538.252 348.269 540.835C338.801 543.417 335.789 524.051 335.789 524.051L334.067 513.723L339.662 507.268Z" fill="#A0616A"/>
<path d="M322.448 463.373L333.207 491.775L343.965 511.571L330.625 520.178L319.866 501.243L306.956 471.549L322.448 463.373Z" fill="#D0CDE1"/>
<path d="M291.894 596.349L270.377 619.157L232.507 683.278L216.154 678.114L235.519 639.813C235.519 639.813 246.708 610.55 252.302 606.677C257.897 602.804 267.364 577.414 267.364 577.414L277.693 569.237L291.894 596.349Z" fill="#A0616A"/>
<path d="M336.219 608.829L337.941 616.144C337.941 616.144 343.535 638.953 352.142 649.281L372.798 684.999L388.291 679.835L357.736 607.538L336.219 608.829Z" fill="#A0616A"/>
<path d="M304.159 368.482C316.993 368.482 327.397 358.078 327.397 345.244C327.397 332.41 316.993 322.005 304.159 322.005C291.324 322.005 280.92 332.41 280.92 345.244C280.92 358.078 291.324 368.482 304.159 368.482Z" fill="#A0616A"/>
<path d="M285.869 356.648L282.857 381.608L302.222 391.075C302.222 391.075 302.222 369.558 307.386 363.964L285.869 356.648Z" fill="#A0616A"/>
<path d="M225.191 517.596L223.039 524.912C223.039 524.912 208.838 552.884 220.887 552.884C232.937 552.884 235.089 527.064 235.089 527.064L236.38 520.608L225.191 517.596Z" fill="#A0616A"/>
<path d="M324.17 488.333L321.157 509.419L357.736 586.451L359.888 608.829L291.464 617.435L276.402 575.692L252.302 606.677L266.073 574.832C266.073 574.832 270.377 553.314 269.086 547.72C267.795 542.126 269.946 514.153 273.82 507.268C277.693 500.382 324.17 488.333 324.17 488.333Z" fill="#2F2E41"/>
<path d="M235.089 683.278L214.432 676.392L207.977 686.721C207.977 686.721 195.497 690.163 195.927 699.201C196.358 708.238 193.776 723.73 193.776 723.73L202.813 724.591L206.256 706.947L223.9 728.034C223.9 728.034 255.315 729.755 256.606 724.591C257.897 719.427 234.228 713.832 234.228 713.832L230.355 695.328L235.089 683.278Z" fill="#2F2E41"/>
<path d="M389.582 677.253L370.647 683.278V687.581C370.647 687.581 365.052 696.188 365.913 703.504C366.773 710.82 370.647 728.464 370.647 728.464H380.544L380.114 712.111L399.91 728.464C399.91 728.464 435.198 725.882 435.198 720.287C435.198 714.693 408.086 710.82 408.086 710.82L389.582 677.253Z" fill="#2F2E41"/>
<path d="M303.513 385.911C303.513 385.911 285.869 368.267 277.693 372.571V380.317C277.693 380.317 265.643 385.911 265.213 394.518C264.782 403.125 252.302 481.447 252.302 481.447L223.039 583.438C223.039 583.438 232.076 597.64 265.213 581.717L285.869 511.571C285.869 511.571 263.922 590.754 274.68 589.463C285.439 588.172 327.612 490.054 327.612 490.054L324.6 443.577C324.6 443.577 331.485 423.351 317.714 409.58L303.513 385.911Z" fill="#D0CDE1"/>
<path d="M273.389 388.493C273.389 388.493 266.073 391.075 260.909 402.264C255.745 413.453 229.925 492.206 229.925 492.206L223.039 520.178L242.404 524.912L251.872 496.079L287.16 430.667C287.16 430.667 292.755 396.239 273.389 388.493Z" fill="#D0CDE1"/>
<path d="M275.09 326.705C275.525 321.393 278.068 315.948 282.772 313.441C280.41 308.697 278.299 303.283 279.856 298.218C280.488 296.253 281.631 294.491 283.17 293.115C284.708 291.738 286.585 290.796 288.608 290.386C290.867 290.075 293.159 290.105 295.408 290.474L306.012 291.677C309.452 292.067 313.025 292.502 315.951 294.353C317.474 295.317 318.75 296.624 319.675 298.171C320.601 299.717 321.15 301.459 321.28 303.257C321.409 305.054 321.114 306.857 320.42 308.52C319.725 310.183 318.65 311.659 317.281 312.831C324.7 318.765 329.658 323.27 333.034 332.151C326.848 327.171 320.927 325.407 312.997 324.978C308.033 324.709 303.159 326.387 299.412 329.655C295.665 332.922 293.34 337.522 292.931 342.477C292.727 344.955 293 347.507 292.279 349.887C291.558 352.266 289.385 354.496 286.923 354.148C287.264 354.196 289.366 347.884 287.886 344.97L287.863 344.923C287.538 344.321 287.001 343.861 286.356 343.63C285.781 343.41 285.166 343.314 284.551 343.35C283.936 343.386 283.336 343.552 282.79 343.837C282.245 344.123 281.766 344.521 281.386 345.006C281.006 345.491 280.734 346.051 280.587 346.649C279.764 349.81 278.447 353.844 277.296 352.774C275.789 351.371 276.423 339.006 276.017 337.089C275.205 333.691 274.893 330.193 275.09 326.705Z" fill="#2F2E41"/>
<path d="M282.888 313.356C282.888 313.356 306.211 314.877 317.366 312.849L282.888 313.356Z" fill="#D0CDE1"/>
<path d="M284.211 310.235C281.849 305.492 279.738 300.077 281.295 295.012C282.022 292.728 283.445 290.729 285.364 289.293C283.898 289.967 282.588 290.938 281.517 292.145C280.447 293.352 279.638 294.768 279.144 296.303C277.587 301.368 279.697 306.783 282.059 311.526C283.933 311.247 279.508 312.742 284.211 310.235Z" fill="#2F2E41"/>
<path opacity="0.2" d="M291.679 430.882L258.112 490.269L245.202 522.545L263.276 491.56L291.679 430.882Z" fill="black"/>
<path d="M765.076 622.802L768.157 644.368L783.562 642.827L782.021 620.491L765.076 622.802Z" fill="#FFB8B8"/>
<path d="M691.905 622.802L688.824 644.368L673.419 642.827L674.96 620.491L691.905 622.802Z" fill="#FFB8B8"/>
<path d="M669.568 399.436C669.568 399.436 655.704 415.611 658.785 441.028C661.866 466.446 667.258 524.213 667.258 524.213L671.109 626.653L695.756 625.112L699.607 538.077L711.931 467.986L745.051 549.63C745.051 549.63 761.225 625.882 761.996 625.882C762.766 625.882 785.102 623.572 785.102 623.572L774.319 533.455C774.319 533.455 757.374 402.517 747.361 400.206C737.348 397.895 669.568 399.436 669.568 399.436Z" fill="#2F2E41"/>
<path d="M785.102 639.747C785.102 639.747 771.238 630.504 765.847 641.287C760.455 652.07 765.076 659.772 765.076 659.772C765.076 659.772 769.698 662.853 767.387 665.934C765.076 669.015 764.306 689.041 784.332 685.96C804.358 682.879 794.345 662.083 794.345 662.083L785.102 639.747Z" fill="#2F2E41"/>
<path d="M671.879 639.747C671.879 639.747 685.743 630.504 691.135 641.287C696.526 652.07 691.905 659.772 691.905 659.772C691.905 659.772 687.283 662.853 689.594 665.934C691.905 669.015 692.675 689.041 672.649 685.96C652.623 682.879 662.636 662.083 662.636 662.083L671.879 639.747Z" fill="#2F2E41"/>
<path d="M688.439 249.627C688.439 249.627 695.371 268.882 689.979 279.666C684.588 290.449 698.452 302.772 698.452 302.772C698.452 302.772 734.652 284.287 730.031 275.044C725.41 265.802 717.707 253.478 719.248 245.776L688.439 249.627Z" fill="#FFB8B8"/>
<path d="M701.918 256.944C715.53 256.944 726.565 245.909 726.565 232.297C726.565 218.684 715.53 207.649 701.918 207.649C688.305 207.649 677.271 218.684 677.271 232.297C677.271 245.909 688.305 256.944 701.918 256.944Z" fill="#FFB8B8"/>
<path d="M684.203 278.51C684.203 278.51 708.933 299.089 727.377 269.929L746.591 280.821L756.604 397.895C756.604 397.895 700.377 430.245 673.419 402.517L677.271 293.915L684.203 278.51Z" fill="#C42126"/>
<path d="M691.969 266.982L657.245 290.064L669.568 347.06L653.393 435.636L679.581 396.355L691.969 266.982Z" fill="#575A89"/>
<path d="M722.658 260.557L731.186 266.187L765.847 278.51L760.455 374.018L775.089 435.637L754.293 446.42C754.293 446.42 750.442 417.151 726.565 402.517C702.688 387.882 717.21 264.941 722.658 260.557Z" fill="#575A89"/>
<path d="M664.947 410.219L674.96 417.151C674.96 417.151 662.251 430.63 659.94 428.319C659.272 427.677 658.752 426.896 658.42 426.031C658.087 425.165 657.949 424.238 658.015 423.313L655.704 417.921L664.947 410.219Z" fill="#FFB8B8"/>
<path d="M731.51 408.721L728.105 414.07C728.105 414.07 718.092 418.691 720.403 421.772C722.714 424.853 741.969 431.785 745.821 424.853L749.672 417.921L731.51 408.721Z" fill="#FFB8B8"/>
<path d="M661.866 289.293L656.474 290.064L647.617 347.446C647.617 347.446 644.151 357.844 648.002 382.491C651.853 407.138 655.667 423.188 655.667 423.188L672.649 410.989L664.947 390.963L674.96 317.792L661.866 289.293Z" fill="#575A89"/>
<path d="M753.523 276.97L765.847 278.51C765.847 278.51 779.711 293.145 782.021 308.549C784.332 323.954 783.562 367.857 783.562 367.857L748.131 424.083L728.876 410.219L755.834 362.465L742.74 305.468L753.523 276.97Z" fill="#575A89"/>
<path d="M725.421 210.005C721.694 203.952 715.86 199.492 709.042 197.483L704.035 201.489L705.982 196.817C704.344 196.567 702.687 196.471 701.032 196.53L696.526 202.324L698.391 196.729C694.481 197.215 690.715 198.505 687.329 200.52C683.943 202.534 681.011 205.228 678.718 208.431C672.983 216.7 672.015 228.199 677.656 236.533C679.204 231.775 681.083 227.31 682.631 222.552C683.848 222.718 685.082 222.724 686.3 222.57L688.184 218.174L688.71 222.384C694.549 221.875 703.209 220.758 708.744 219.735L708.206 216.506L711.426 219.189C713.122 218.799 714.129 218.445 714.046 218.174C718.162 224.811 722.241 229.05 726.358 235.686C727.921 226.325 730.679 218.544 725.421 210.005Z" fill="#2F2E41"/>
<path d="M724.057 234.859C724.978 234.859 725.725 233.365 725.725 231.522C725.725 229.679 724.978 228.185 724.057 228.185C723.135 228.185 722.388 229.679 722.388 231.522C722.388 233.365 723.135 234.859 724.057 234.859Z" fill="#FFB8B8"/>
<path d="M145.994 175.984L136.478 194.734L115.994 198.137L130.599 213.129L127.451 233.984L145.994 224.499L164.537 233.984L161.389 213.129L175.994 198.137L155.51 194.734L145.994 175.984Z" fill="#FFD400"/>
<path d="M245.994 175.984L236.478 194.734L215.994 198.137L230.599 213.129L227.451 233.984L245.994 224.499L264.537 233.984L261.389 213.129L275.994 198.137L255.51 194.734L245.994 175.984Z" fill="#FFD400"/>
<path d="M344.249 175.984L334.733 194.734L314.249 198.137L328.854 213.129L325.706 233.984L344.249 224.499L362.792 233.984L359.643 213.129L374.249 198.137L353.764 194.734L344.249 175.984Z" fill="#FFD400"/>
<path d="M444.249 175.984L434.733 194.734L414.249 198.137L428.854 213.129L425.706 233.984L444.249 224.499L462.792 233.984L459.644 213.129L474.249 198.137L453.765 194.734L444.249 175.984Z" fill="#FFD400"/>
</g>
<defs>
<clipPath id="clip0">
<rect width="888.848" height="728.464" fill="white"/>
</clipPath>
</defs>
</svg>
