<svg width="177" height="97" viewBox="0 0 177 97" fill="none" xmlns="http://www.w3.org/2000/svg">
<path d="M24.05 79.6422C21.56 79.6422 19.415 79.1322 17.615 78.1122C15.845 77.0622 14.51 75.6522 13.61 73.8822C12.71 72.1122 12.26 70.1472 12.26 67.9872C12.26 65.7972 12.71 63.8172 13.61 62.0472C14.51 60.2472 15.86 58.8372 17.66 57.8172C19.46 56.7672 21.65 56.2422 24.23 56.2422C26.54 56.2422 28.55 56.7222 30.26 57.6822L29.81 62.1822C28.19 61.3422 26.51 60.9222 24.77 60.9222C22.64 60.9222 20.975 61.5672 19.775 62.8572C18.575 64.1472 17.975 65.8572 17.975 67.9872C17.975 70.0272 18.59 71.7222 19.82 73.0722C21.05 74.3922 22.685 75.0522 24.725 75.0522C26.435 75.0522 28.145 74.5572 29.855 73.5672L30.35 78.2922C29.54 78.7122 28.58 79.0422 27.47 79.2822C26.39 79.5222 25.25 79.6422 24.05 79.6422ZM45.4777 79.6422C43.1077 79.6422 41.0527 79.1172 39.3127 78.0672C37.5727 77.0172 36.2377 75.6072 35.3077 73.8372C34.3777 72.0672 33.9127 70.1172 33.9127 67.9872C33.9127 65.8572 34.3777 63.8922 35.3077 62.0922C36.2377 60.2922 37.5727 58.8672 39.3127 57.8172C41.0527 56.7672 43.1077 56.2422 45.4777 56.2422C47.8477 56.2422 49.9027 56.7672 51.6427 57.8172C53.3827 58.8672 54.7177 60.2922 55.6477 62.0922C56.5777 63.8922 57.0427 65.8572 57.0427 67.9872C57.0427 70.1172 56.5777 72.0672 55.6477 73.8372C54.7177 75.6072 53.3827 77.0172 51.6427 78.0672C49.9027 79.1172 47.8477 79.6422 45.4777 79.6422ZM45.4777 75.0522C47.3077 75.0522 48.7327 74.4072 49.7527 73.1172C50.8027 71.8272 51.3277 70.1172 51.3277 67.9872C51.3277 65.8272 50.8027 64.1022 49.7527 62.8122C48.7327 61.4922 47.3077 60.8322 45.4777 60.8322C43.6477 60.8322 42.2077 61.4922 41.1577 62.8122C40.1377 64.1022 39.6277 65.8272 39.6277 67.9872C39.6277 70.1172 40.1377 71.8272 41.1577 73.1172C42.2077 74.4072 43.6477 75.0522 45.4777 75.0522ZM62.2768 56.6922H67.4968L67.6318 59.0772C68.2918 58.3272 69.1318 57.6672 70.1518 57.0972C71.2018 56.5272 72.2968 56.2422 73.4368 56.2422C73.7968 56.2422 74.1268 56.2722 74.4268 56.3322L74.0218 61.8222C73.4518 61.6722 72.8068 61.5972 72.0868 61.5972C71.1568 61.5972 70.3018 61.8222 69.5218 62.2722C68.7418 62.6922 68.1868 63.2172 67.8568 63.8472V79.1922H62.2768V56.6922ZM88.9298 79.6422C86.3198 79.6422 84.0848 79.1172 82.2248 78.0672C80.3948 76.9872 79.0148 75.5622 78.0848 73.7922C77.1848 71.9922 76.7348 69.9972 76.7348 67.8072C76.7348 65.7072 77.1698 63.7872 78.0398 62.0472C78.9098 60.3072 80.1698 58.9272 81.8198 57.9072C83.4698 56.8572 85.4348 56.3322 87.7148 56.3322C89.8148 56.3322 91.5848 56.7672 93.0248 57.6372C94.4948 58.5072 95.5898 59.6772 96.3098 61.1472C97.0598 62.6172 97.4348 64.2672 97.4348 66.0972C97.4348 66.9972 97.3148 68.0172 97.0748 69.1572H82.5398C82.8398 71.1372 83.6198 72.6222 84.8798 73.6122C86.1398 74.5722 87.6548 75.0522 89.4248 75.0522C91.8548 75.0522 94.1048 74.4372 96.1748 73.2072L96.4448 77.9322C95.4848 78.4422 94.3598 78.8622 93.0698 79.1922C91.8098 79.4922 90.4298 79.6422 88.9298 79.6422ZM91.7648 65.3772C91.7648 64.2072 91.4348 63.1722 90.7748 62.2722C90.1148 61.3722 89.0948 60.9222 87.7148 60.9222C86.3348 60.9222 85.2248 61.3272 84.3848 62.1372C83.5448 62.9472 82.9748 64.0272 82.6748 65.3772H91.7648Z" fill="#5A6ED9"/>
<path d="M38.855 25.3322C41.855 25.3322 44.075 26.2472 45.515 28.0772C46.985 29.8772 47.72 32.4122 47.72 35.6822V48.1922H42.14V36.0872C42.14 33.9572 41.81 32.3972 41.15 31.4072C40.49 30.4172 39.41 29.9222 37.91 29.9222C36.44 29.9222 35.33 30.4322 34.58 31.4522C33.83 32.4422 33.455 33.8522 33.455 35.6822V48.1922H27.875V36.0872C27.875 33.9572 27.53 32.3972 26.84 31.4072C26.15 30.4172 25.055 29.9222 23.555 29.9222C21.785 29.9222 20.33 30.5672 19.19 31.8572V48.1922H13.61V25.6922H18.38L18.56 27.4922C20.6 26.0522 22.805 25.3322 25.175 25.3322C28.055 25.3322 30.2 26.3672 31.61 28.4372C32.39 27.4472 33.41 26.6822 34.67 26.1422C35.93 25.6022 37.325 25.3322 38.855 25.3322ZM63.5663 48.6422C60.9563 48.6422 58.7213 48.1172 56.8613 47.0672C55.0313 45.9872 53.6513 44.5622 52.7213 42.7922C51.8213 40.9922 51.3713 38.9972 51.3713 36.8072C51.3713 34.7072 51.8063 32.7872 52.6763 31.0472C53.5463 29.3072 54.8063 27.9272 56.4563 26.9072C58.1063 25.8572 60.0713 25.3322 62.3513 25.3322C64.4513 25.3322 66.2213 25.7672 67.6613 26.6372C69.1313 27.5072 70.2263 28.6772 70.9463 30.1472C71.6963 31.6172 72.0713 33.2672 72.0713 35.0972C72.0713 35.9972 71.9513 37.0172 71.7113 38.1572H57.1763C57.4763 40.1372 58.2563 41.6222 59.5163 42.6122C60.7763 43.5722 62.2913 44.0522 64.0613 44.0522C66.4913 44.0522 68.7413 43.4372 70.8113 42.2072L71.0813 46.9322C70.1213 47.4422 68.9963 47.8622 67.7063 48.1922C66.4463 48.4922 65.0663 48.6422 63.5663 48.6422ZM66.4013 34.3772C66.4013 33.2072 66.0713 32.1722 65.4113 31.2722C64.7513 30.3722 63.7313 29.9222 62.3513 29.9222C60.9713 29.9222 59.8613 30.3272 59.0213 31.1372C58.1813 31.9472 57.6113 33.0272 57.3113 34.3772H66.4013ZM96.4005 14.4422V48.1922H91.1355L91.0455 46.7522C90.1755 47.3822 89.2605 47.8622 88.3005 48.1922C87.3705 48.4922 86.2605 48.6422 84.9705 48.6422C82.7805 48.6422 80.8905 48.1172 79.3005 47.0672C77.7405 46.0172 76.5555 44.6072 75.7455 42.8372C74.9355 41.0672 74.5305 39.1172 74.5305 36.9872C74.5305 34.8572 74.9355 32.9072 75.7455 31.1372C76.5555 29.3672 77.7405 27.9572 79.3005 26.9072C80.8905 25.8572 82.7805 25.3322 84.9705 25.3322C87.1605 25.3322 89.1105 25.9322 90.8205 27.1322V14.4422H96.4005ZM85.7805 44.0522C87.5505 44.0522 88.8705 43.4222 89.7405 42.1622C90.6405 40.9022 91.0905 39.1772 91.0905 36.9872C91.0905 34.7972 90.6405 33.0722 89.7405 31.8122C88.8705 30.5522 87.5505 29.9222 85.7805 29.9222C84.0405 29.9222 82.6755 30.5672 81.6855 31.8572C80.7255 33.1472 80.2455 34.8572 80.2455 36.9872C80.2455 39.1172 80.7255 40.8272 81.6855 42.1172C82.6755 43.4072 84.0405 44.0522 85.7805 44.0522Z" fill="#5A6ED9"/>
<path d="M150.553 14.1922H117.128C113.075 14.1922 109.681 17.5131 109.681 21.5798V73.3033C109.681 77.37 112.991 80.7753 117.128 80.7753H150.553C154.606 80.7753 158 77.4544 158 73.3033V21.5831C158 17.5132 154.69 14.1923 150.553 14.1923V14.1922ZM154.112 73.3876C154.112 75.2978 152.541 76.8739 150.637 76.8739H117.127C115.224 76.8739 113.653 75.2978 113.653 73.3876V21.5836C113.653 19.6735 115.224 18.0974 117.127 18.0974H150.553C152.457 18.0974 154.027 19.6735 154.027 21.5836V73.3876H154.112Z" fill="#5A6ED9"/>
<path d="M131.029 29.3857C131.029 30.2159 130.366 30.9618 129.458 30.9618H126.313V34.1173C126.313 34.9475 125.651 35.6934 124.743 35.6934C123.915 35.6934 123.172 35.0285 123.172 34.1173V30.9618H120.027C119.2 30.9618 118.456 30.297 118.456 29.3857C118.456 28.5555 119.119 27.8096 120.027 27.8096H123.172V24.6541C123.172 23.8239 123.834 23.078 124.743 23.078C125.57 23.078 126.313 23.7428 126.313 24.6541V27.8096H129.458C130.282 27.8096 131.029 28.5555 131.029 29.3857V29.3857Z" fill="#5A6ED9"/>
<path d="M135.909 69.071H135.744C135.082 68.9867 134.503 68.4905 134.338 67.8257L131.029 54.7921L127.719 60.6036C127.389 61.1031 126.892 61.4338 126.313 61.4338H119.364C118.453 61.4338 117.709 60.6879 117.709 59.7734C117.709 58.8588 118.453 58.113 119.364 58.113H125.321L130.201 49.5609C130.531 48.9804 131.193 48.6463 131.856 48.7307C132.519 48.815 133.097 49.3112 133.262 49.976L136.488 62.8444L138.472 59.1084C138.721 58.609 139.299 58.1938 139.878 58.1938L148.401 58.1095C149.313 58.1095 150.056 58.8554 150.056 59.7699C150.056 60.6845 149.312 61.4304 148.401 61.4304L140.87 61.5147L137.312 68.1565C137.15 68.7402 136.572 69.071 135.909 69.071H135.909Z" fill="#5A6ED9"/>
</svg>
