<?xml version="1.0" encoding="utf-8"?>
<!-- Generator: Adobe Illustrator 24.0.1, SVG Export Plug-In . SVG Version: 6.00 Build 0)  -->
<svg version="1.1" id="Ebene_1" xmlns="http://www.w3.org/2000/svg" xmlns:xlink="http://www.w3.org/1999/xlink" x="0px" y="0px"
	 viewBox="0 0 305.25934 305.16934" style="enable-background:new 0 0 305.25934 305.16934;" xml:space="preserve">
<style type="text/css">
	.st0{fill:#0076B6;}
</style>
<path class="st0" d="M304.96063,22.71478c-0.27557-10.1817-6.05444-16.56512-14.59979-20.96198
	c-2.7691-1.42474-5.97058-1.04443-8.92328-1.75281C195.48059,0,109.52361,0,23.56664,0
	c-0.52197,0.39502-1.1402,0.27179-1.72534,0.31427C12.82727,0.96924,7.03619,6.24915,2.66503,13.61273
	c-2.55951,4.31158-2.578,9.1283-2.58191,13.85089C0.02459,98.00439,0.04266,168.54523,0.04266,239.086
	c0,12.99701,0.13293,25.99573-0.03925,38.99042c-0.15607,11.77545,5.04047,20.09808,15.49976,25.21338
	c3.93964,1.92676,8.29455,1.8468,12.53265,1.84888c81.56628,0.04065,163.13257,0.03143,244.69891,0.02496
	c3.26849-0.00024,6.53107-0.05267,9.80267-0.24829c10.13831-0.60645,16.49976-6.42426,20.95978-14.89447
	c1.3584-2.57971,1.00751-5.6134,1.76215-8.37238c0-85.94348,0-171.88696,0-257.83044
	C304.96375,23.50311,304.97131,23.11139,304.96063,22.71478z M94.66381,191.7074c0.00073,23.11279,0.00635,46.22552-0.0025,69.33826
	c-0.00287,7.50159-2.72797,10.2337-10.20068,10.24323c-10.02045,0.01282-20.04089,0.01843-30.06121-0.00256
	c-7.02655-0.01471-9.95581-2.94769-9.95648-9.93976c-0.00452-46.52307-0.00507-93.0462,0.00073-139.56927
	c0.00085-6.76117,3.03894-9.79224,9.80157-9.79956c10.31805-0.01117,20.6361-0.01569,30.9541,0.00201
	c6.40417,0.01093,9.44727,3.03259,9.45404,9.4967C94.67803,144.88672,94.66308,168.29712,94.66381,191.7074z M69.49157,98.43555
	C51.43298,98.37518,37.0802,83.88031,37.18914,65.81342C37.29693,47.95258,51.85284,33.5332,69.67724,33.63
	c17.98633,0.09766,32.57013,14.80414,32.39258,32.66504C101.89208,84.16693,87.36858,98.4953,69.49157,98.43555z
	 M273.19904,262.97272c0.00128,5.28717-2.95282,8.26526-8.3045,8.29535c-11.61145,0.06531-23.22388,0.07428-34.83514-0.00476
	c-5.31158-0.03619-8.1908-3.07306-8.1936-8.4101c-0.01324-25.20459,0.09796-50.40973-0.05133-75.61346
	c-0.05255-8.87579-1.14526-17.64447-6.49469-25.22247c-2.78186-3.94073-6.50836-6.60944-11.15527-7.94
	c-15.27582-4.37402-28.35828,2.6214-33.53271,17.91626c-2.04828,6.05444-3.10895,12.2334-3.08209,18.66956
	c0.099,23.7157,0.04272,47.43213,0.03662,71.14825c-0.00171,6.63995-2.76636,9.46283-9.3172,9.47498
	c-10.61932,0.01971-21.23871,0.02344-31.85798-0.00238c-6.2168-0.01508-9.12878-2.89148-9.13068-9.07355
	c-0.01453-47.03534-0.0144-94.07068-0.00098-141.10602c0.00177-6.17749,2.96265-9.11884,9.08679-9.12592
	c10.81782-0.01257,21.63569-0.01947,32.4535,0.00342c5.72198,0.01208,8.71368,3.06226,8.76862,8.84052
	c0.03113,3.27216,0.06506,6.54425,0.10956,9.81622c0.00061,0.04633,0.15497,0.09064,0.28436,0.1615
	c0.74341-0.13025,0.9798-0.86017,1.34619-1.36896c7.40045-10.27539,17.55042-16.14514,29.85339-18.35553
	c12.24707-2.20038,24.46558-2.20178,36.50592,1.42426c15.40179,4.63831,25.1825,15.13397,30.92535,29.79883
	c5.00024,12.76849,6.30914,26.19128,6.43359,39.70294C273.29529,208.99023,273.19238,235.98218,273.19904,262.97272z"/>
</svg>
