<?xml version="1.0" encoding="utf-8"?>
<!-- Generator: Adobe Illustrator 24.0.0, SVG Export Plug-In . SVG Version: 6.00 Build 0)  -->
<svg version="1.1" id="Ebene_1" xmlns="http://www.w3.org/2000/svg" xmlns:xlink="http://www.w3.org/1999/xlink" x="0px" y="0px"
	 viewBox="0 0 14.17323 9.19188" style="enable-background:new 0 0 14.17323 9.19188;" xml:space="preserve">
<style type="text/css">
	.st0{fill:#565555;}
</style>
<path class="st0" d="M7.06188,9.19182c-2.21182,0-4.42364,0.00022-6.63546-0.0002c-0.41565-0.00008-0.42615-0.01098-0.4262-0.43452
	c-0.00031-2.77493-0.00031-5.54987,0-8.3248c0.00005-0.42316,0.00884-0.4321,0.42656-0.43212
	c4.43427-0.00025,8.86854-0.00024,13.30282-0.00003c0.43986,0.00002,0.44342,0.00377,0.44346,0.4495
	c0.00022,2.7643,0.00022,5.5286,0,8.2929c-0.00004,0.44531-0.00368,0.44908-0.44382,0.44913
	C11.50679,9.19197,9.28434,9.19182,7.06188,9.19182z M13.77763,0.90187c-0.12373,0.09007-0.20185,0.14406-0.27692,0.202
	c-1.99456,1.53926-3.9889,3.07881-5.98302,4.61864C7.08632,6.05559,7.08698,6.05589,6.66751,5.73195
	c-1.99407-1.53991-3.98817-3.07977-5.9827-4.61909C0.59935,1.0469,0.50965,0.98643,0.40613,0.91206c0,2.66039,0,5.27055,0,7.8722
	c4.47236,0,8.92168,0,13.3715,0C13.77763,6.15826,13.77763,3.55686,13.77763,0.90187z M0.40579,0.39189
	c2.27093,1.75573,4.46978,3.45573,6.68102,5.16531c2.21448-1.71259,4.41446-3.41398,6.67903-5.16531
	C9.27914,0.39189,4.89196,0.39189,0.40579,0.39189z"/>
</svg>
