<?xml version="1.0" encoding="utf-8"?>
<!-- Generator: Adobe Illustrator 23.0.1, SVG Export Plug-In . SVG Version: 6.00 Build 0)  -->
<svg version="1.1" id="Ebene_1" xmlns="http://www.w3.org/2000/svg" xmlns:xlink="http://www.w3.org/1999/xlink" x="0px" y="0px"
	 viewBox="0 0 459.71713 116.4292" enable-background="new 0 0 459.71713 116.4292" xml:space="preserve">
<g>
	<g>
		<path fill="#B7AC7F" d="M26.34961,116.4292c-6.24365,0-11.45117-1.18066-15.62451-3.53857
			C6.5498,110.53223,2.97559,107.3916,0,103.47217l4.89941-4.02881c2.68506,3.55762,5.7168,6.31543,9.0918,8.2749
			c3.37549,1.95996,7.56738,2.93994,12.57617,2.93994c5.87988,0,10.39844-1.39648,13.55615-4.19189
			c3.15771-2.79346,4.73633-6.69629,4.73633-11.70508c0-4.64453-1.34424-8.05713-4.02881-10.23486
			c-2.68604-2.17773-6.46143-3.77344-11.32373-4.79102l-6.75098-1.41553c-7.25928-1.45117-12.52148-3.88232-15.78809-7.29492
			c-3.26611-3.41113-4.89941-7.7666-4.89941-13.06641c0-3.33789,0.58008-6.26074,1.74219-8.76514
			c1.16016-2.50391,2.81201-4.58984,4.9541-6.26074c2.14014-1.66895,4.71777-2.93994,7.73047-3.81104
			c3.01123-0.87061,6.33252-1.30615,9.96289-1.30615c5.66211,0,10.45313,1.01709,14.37256,3.04834
			c3.91992,2.0332,7.14893,4.8999,9.69092,8.60205l-4.8999,3.59326c-2.10645-3.04883-4.73633-5.38965-7.89404-7.02295
			s-7.02295-2.4502-11.59619-2.4502c-5.44385,0-9.74512,1.18066-12.90283,3.53906
			c-3.15723,2.35938-4.73633,5.89844-4.73633,10.61572c0,4.50195,1.41553,7.8042,4.24658,9.90869
			c2.83105,2.10596,6.60449,3.63037,11.32373,4.57324l6.75098,1.41504c7.54883,1.6709,12.84814,4.24658,15.89697,7.73096
			s4.57324,7.83984,4.57324,13.06592c0,6.96875-2.21533,12.37695-6.64209,16.22363
			C40.21387,114.50684,34.11621,116.4292,26.34961,116.4292z"/>
		<path fill="#B7AC7F" d="M89.93799,44.89258v70.22998h-6.5332V44.89258H57.92627v-5.771h57.49023v5.771H89.93799z"/>
	</g>
	<g>
		<path fill="#B7AC7F" d="M296.82944,116.4292c-9.4375,0-16.73242-3.28369-21.88574-9.854
			c-5.15527-6.56885-7.73047-16.31396-7.73047-29.23535c0-12.84814,2.5752-22.64746,7.73047-29.39844
			c5.15332-6.75098,12.44824-10.12598,21.88574-10.12598c6.09668,0,11.23145,1.43408,15.40625,4.30078
			c4.17383,2.86816,7.42188,6.80518,9.74512,11.81396l-5.33496,3.15723c-1.6709-4.13721-4.19238-7.4209-7.56738-9.85352
			c-3.375-2.43164-7.45801-3.64795-12.24902-3.64795c-7.11523,0-12.66797,2.55029-16.65918,7.64746
			c-3.99316,5.09717-5.98926,12.38037-5.98926,21.84668v8.63037c0,9.39453,1.99609,16.56934,5.98926,21.52002
			c3.99121,4.95264,9.54395,7.42773,16.65918,7.42773c5.08008,0,9.32617-1.2876,12.73926-3.86523
			c3.41113-2.57568,5.95117-6.04297,7.62207-10.39844l5.33496,3.15771c-2.25098,5.22656-5.55273,9.34717-9.9082,12.3584
			C308.26205,114.92334,302.99838,116.4292,296.82944,116.4292z"/>
		<path fill="#B7AC7F" d="M386.54819,79.40869h-41.70215v35.71387h-6.5332V39.12158h6.5332V73.6377h41.70215V39.12158h6.5332
			v76.00098h-6.5332V79.40869z"/>
		<path fill="#B7AC7F" d="M434.78256,116.4292c-6.24414,0-11.45117-1.18066-15.625-3.53857
			c-4.1748-2.3584-7.74902-5.49902-10.72461-9.41846l4.89941-4.02881c2.68457,3.55762,5.7168,6.31543,9.0918,8.2749
			c3.375,1.95996,7.56738,2.93994,12.57617,2.93994c5.87988,0,10.39844-1.39648,13.55566-4.19189
			c3.1582-2.79346,4.73633-6.69629,4.73633-11.70508c0-4.64453-1.34375-8.05713-4.02832-10.23486
			c-2.68652-2.17773-6.46191-3.77344-11.32422-4.79102l-6.75098-1.41553c-7.25879-1.45117-12.52148-3.88232-15.78809-7.29492
			c-3.26563-3.41113-4.89941-7.7666-4.89941-13.06641c0-3.33789,0.58008-6.26074,1.74219-8.76514
			c1.16016-2.50391,2.8125-4.58984,4.9541-6.26074c2.14063-1.66895,4.71777-2.93994,7.73047-3.81104
			c3.01172-0.87061,6.33301-1.30615,9.96289-1.30615c5.66211,0,10.45313,1.01709,14.37305,3.04834
			c3.91992,2.0332,7.14844,4.8999,9.69043,8.60205l-4.89941,3.59326c-2.10645-3.04883-4.73633-5.38965-7.89453-7.02295
			c-3.15723-1.6333-7.02246-2.4502-11.5957-2.4502c-5.44434,0-9.74512,1.18066-12.90332,3.53906
			c-3.15723,2.35938-4.73633,5.89844-4.73633,10.61572c0,4.50195,1.41602,7.8042,4.24707,9.90869
			c2.83105,2.10596,6.60449,3.63037,11.32324,4.57324l6.75098,1.41504c7.54883,1.6709,12.84863,4.24658,15.89746,7.73096
			s4.57324,7.83984,4.57324,13.06592c0,6.96875-2.21582,12.37695-6.64258,16.22363
			C448.64682,114.50684,442.54916,116.4292,434.78256,116.4292z"/>
	</g>
	<g>
		<polygon fill="#B7AC7F" points="249.20421,43.25292 249.20421,38.14257 211.38664,38.14257 211.38664,0.32501 206.27629,0.32501 
			206.27629,38.14257 176.35332,38.14257 176.35332,0.32501 171.24298,0.32501 171.24298,38.14257 133.42542,38.14257 
			133.42542,43.25292 171.24298,43.25292 171.24298,73.1759 133.42542,73.1759 133.42542,78.28624 176.34802,78.28624 
			176.34802,76.05595 176.35332,76.05595 176.35332,43.25292 206.27629,43.25292 206.27629,116.10381 211.38664,116.10381 
			211.38664,78.28624 249.20421,78.28624 249.20421,73.1759 211.38664,73.1759 211.38664,43.25292 		"/>
		<path fill="#B7AC7F" d="M211.71184,116.4292h-5.76074V43.57813h-29.27246l-0.00537,35.0332h-43.57324v-5.76074h37.81787V43.57813
			h-37.81787v-5.76074h37.81787V0h5.76074v37.81738h29.27246V0h5.76074v37.81738h37.81787v5.76074h-37.81787v29.27246h37.81787
			v5.76074h-37.81787V116.4292z M206.60149,115.77881h4.45996V77.96094h37.81787v-4.45996h-37.81787V42.92773h37.81787v-4.45996
			h-37.81787V0.65039h-4.45996v37.81738h-30.57324V0.65039h-4.45996v37.81738h-37.81787v4.45996h37.81787v30.57324h-37.81787
			v4.45996h42.27246l0.00537-35.0332h30.57324V115.77881z"/>
	</g>
</g>
<g>
</g>
<g>
</g>
<g>
</g>
<g>
</g>
<g>
</g>
<g>
</g>
</svg>
