<?xml version="1.0" encoding="utf-8"?>
<!-- Generator: Adobe Illustrator 24.0.0, SVG Export Plug-In . SVG Version: 6.00 Build 0)  -->
<svg version="1.1" id="Ebene_1" xmlns="http://www.w3.org/2000/svg" xmlns:xlink="http://www.w3.org/1999/xlink" x="0px" y="0px"
	 viewBox="0 0 226.8 56.2" style="enable-background:new 0 0 226.8 56.2;" xml:space="preserve">
<g>
	<g>
		<path d="M13,56.2c-3.1,0-5.6-0.6-7.7-1.7c-2.1-1.2-3.8-2.7-5.3-4.6l2.4-2c1.3,1.8,2.8,3.1,4.5,4.1c1.7,1,3.7,1.5,6.2,1.5
			c2.9,0,5.1-0.7,6.7-2.1c1.6-1.4,2.3-3.3,2.3-5.8c0-2.3-0.7-4-2-5c-1.3-1.1-3.2-1.9-5.6-2.4l-3.3-0.7c-3.6-0.7-6.2-1.9-7.8-3.6
			C1.8,32.1,1,30,1,27.4c0-1.6,0.3-3.1,0.9-4.3c0.6-1.2,1.4-2.3,2.4-3.1c1.1-0.8,2.3-1.5,3.8-1.9c1.5-0.4,3.1-0.6,4.9-0.6
			c2.8,0,5.2,0.5,7.1,1.5c1.9,1,3.5,2.4,4.8,4.2L22.5,25c-1-1.5-2.3-2.7-3.9-3.5s-3.5-1.2-5.7-1.2c-2.7,0-4.8,0.6-6.4,1.7
			c-1.6,1.2-2.3,2.9-2.3,5.2c0,2.2,0.7,3.8,2.1,4.9c1.4,1,3.3,1.8,5.6,2.3l3.3,0.7c3.7,0.8,6.3,2.1,7.8,3.8c1.5,1.7,2.3,3.9,2.3,6.4
			c0,3.4-1.1,6.1-3.3,8C19.8,55.3,16.8,56.2,13,56.2z"/>
		<path d="M44.4,20.9v34.6h-3.2V20.9H28.6v-2.8h28.4v2.8L44.4,20.9L44.4,20.9z"/>
	</g>
	<g>
		<path d="M146.4,56.2c-4.7,0-8.3-1.6-10.8-4.9c-2.5-3.2-3.8-8-3.8-14.4c0-6.3,1.3-11.2,3.8-14.5c2.5-3.3,6.1-5,10.8-5
			c3,0,5.5,0.7,7.6,2.1c2.1,1.4,3.7,3.4,4.8,5.8l-2.6,1.6c-0.8-2-2.1-3.7-3.7-4.9c-1.7-1.2-3.7-1.8-6-1.8c-3.5,0-6.2,1.3-8.2,3.8
			c-2,2.5-3,6.1-3,10.8v4.3c0,4.6,1,8.2,3,10.6c2,2.4,4.7,3.7,8.2,3.7c2.5,0,4.6-0.6,6.3-1.9c1.7-1.3,2.9-3,3.8-5.1l2.6,1.6
			c-1.1,2.6-2.7,4.6-4.9,6.1C152.1,55.5,149.5,56.2,146.4,56.2z"/>
		<path d="M190.7,38h-20.6v17.6h-3.2V18.1h3.2v17h20.6v-17h3.2v37.5h-3.2V38z"/>
		<path d="M214.5,56.2c-3.1,0-5.6-0.6-7.7-1.7c-2.1-1.2-3.8-2.7-5.3-4.6l2.4-2c1.3,1.8,2.8,3.1,4.5,4.1c1.7,1,3.7,1.5,6.2,1.5
			c2.9,0,5.1-0.7,6.7-2.1c1.6-1.4,2.3-3.3,2.3-5.8c0-2.3-0.7-4-2-5c-1.3-1.1-3.2-1.9-5.6-2.4l-3.3-0.7c-3.6-0.7-6.2-1.9-7.8-3.6
			c-1.6-1.7-2.4-3.8-2.4-6.4c0-1.6,0.3-3.1,0.9-4.3c0.6-1.2,1.4-2.3,2.4-3.1c1.1-0.8,2.3-1.5,3.8-1.9c1.5-0.4,3.1-0.6,4.9-0.6
			c2.8,0,5.2,0.5,7.1,1.5c1.9,1,3.5,2.4,4.8,4.2L224,25c-1-1.5-2.3-2.7-3.9-3.5c-1.6-0.8-3.5-1.2-5.7-1.2c-2.7,0-4.8,0.6-6.4,1.7
			c-1.6,1.2-2.3,2.9-2.3,5.2c0,2.2,0.7,3.8,2.1,4.9c1.4,1,3.3,1.8,5.6,2.3l3.3,0.7c3.7,0.8,6.3,2.1,7.8,3.8c1.5,1.7,2.3,3.9,2.3,6.4
			c0,3.4-1.1,6.1-3.3,8C221.3,55.3,218.3,56.2,214.5,56.2z"/>
	</g>
	<polygon points="122.5,20.9 122.5,18.1 104.2,18.1 104.2,0 101.4,0 101.4,18.1 87.3,18.1 87.3,0 84.5,0 84.5,18.1 66.2,18.1 
		66.2,20.9 84.5,20.9 84.5,34.9 66.2,34.9 66.2,37.7 87.3,37.7 87.3,20.9 101.4,20.9 101.4,55.8 104.2,55.8 104.2,37.7 122.5,37.7 
		122.5,34.9 104.2,34.9 104.2,20.9 	"/>
</g>
</svg>
